<svg xmlns="http://www.w3.org/2000/svg" xmlns:xlink="http://www.w3.org/1999/xlink" width="400" height="1113" viewBox="0 0 400 1113">
  <defs>
    <clipPath id="clip-path">
      <rect id="Rectángulo_405150" data-name="Rectángulo 405150" width="212.604" height="130.938" fill="none"/>
    </clipPath>
  </defs>
  <g id="Grupo_1180116" data-name="Grupo 1180116" transform="translate(6530 -2434)">
    <rect id="Rectángulo_460034" data-name="Rectángulo 460034" width="400" height="1113" transform="translate(-6530 2434)" fill="#fff8e6"/>
    <g id="Grupo_1180112" data-name="Grupo 1180112" transform="translate(-742.893 -1110.402)">
      <path id="Trazado_997916" data-name="Trazado 997916" d="M142.92,146.871V0C64.884,2.118,2.009,66.72,0,146.871Z" transform="translate(-5755.03 3566.185)" fill="#4e5661"/>
      <path id="Trazado_997920" data-name="Trazado 997920" d="M152.449,146.871h142.92C293.359,66.72,230.485,2.118,152.449,0Z" transform="translate(-5725.419 3566.185)" fill="#4e5661"/>
      <path id="Trazado_997918" data-name="Trazado 997918" d="M142.92,156.443H0C2.009,236.594,64.884,301.2,142.92,303.315Z" transform="translate(-5755.03 3584.98)" fill="#4e5661"/>
      <path id="Trazado_997921" data-name="Trazado 997921" d="M152.449,156.443V303.315c78.036-2.119,140.91-66.721,142.92-146.872Z" transform="translate(-5725.419 3584.98)" fill="#4e5661"/>
      <path id="Trazado_997924" data-name="Trazado 997924" d="M87.6,0A87.6,87.6,0,1,1,0,87.6,87.6,87.6,0,0,1,87.6,0Z" transform="translate(-5680.712 3639.079)" fill="#bcd8ff"/>
      <g id="Grupo_1180111" data-name="Grupo 1180111" transform="translate(-5699.101 3657.146)">
        <g id="Grupo_1102712" data-name="Grupo 1102712" transform="translate(0)" clip-path="url(#clip-path)">
          <path id="Trazado_882829" data-name="Trazado 882829" d="M3.982,56.107a1.94,1.94,0,0,1-1.308-.5A7.8,7.8,0,0,1,0,49.9c-.142-5.568,5.118-10.982,5.719-11.585a1.952,1.952,0,0,1,2.76,2.762c-1.3,1.308-4.665,5.426-4.58,8.73a3.854,3.854,0,0,0,1.386,2.9,1.951,1.951,0,0,1-1.306,3.4" transform="translate(0 33.811)" fill="#303030"/>
          <path id="Trazado_882830" data-name="Trazado 882830" d="M112.444,56.107a1.951,1.951,0,0,1-1.306-3.4,3.848,3.848,0,0,0,1.384-2.906c.085-3.325-3.274-7.424-4.574-8.722a1.951,1.951,0,0,1,2.754-2.764c.6.6,5.863,6.017,5.723,11.585a7.8,7.8,0,0,1-2.675,5.7,1.935,1.935,0,0,1-1.306.5" transform="translate(96.177 33.811)" fill="#303030"/>
          <path id="Trazado_882831" data-name="Trazado 882831" d="M5.554,66.322l-.288.009a2.639,2.639,0,0,1-2.709-2.55l-1.526-50a2.636,2.636,0,0,1,2.548-2.707l.288-.009a2.636,2.636,0,0,1,2.709,2.548l1.526,50a2.635,2.635,0,0,1-2.548,2.709" transform="translate(0.922 9.91)" fill="#303030"/>
          <path id="Trazado_882832" data-name="Trazado 882832" d="M109.937,66.322l.288.009a2.639,2.639,0,0,0,2.709-2.55l1.526-50a2.636,2.636,0,0,0-2.548-2.707l-.288-.009a2.636,2.636,0,0,0-2.709,2.548l-1.528,50a2.639,2.639,0,0,0,2.55,2.709" transform="translate(96.189 9.91)" fill="#303030"/>
          <path id="Trazado_882833" data-name="Trazado 882833" d="M75.483,67.792H50.1a2.043,2.043,0,1,1,0-4.085H75.483a2.043,2.043,0,1,1,0,4.085" transform="translate(43.043 57.063)" fill="#303030"/>
          <path id="Trazado_882834" data-name="Trazado 882834" d="M37.1,66.12l.838,4.394h4.827v-.976l4.887,1.022H61.5l-.641-2.22S50.645,66.018,48.6,62.321Z" transform="translate(33.235 55.822)"/>
          <path id="Trazado_882835" data-name="Trazado 882835" d="M85.513,68.375l.942,4.44-6.607-.044-4.887.044H61.113L60.7,70.754s13.467-1.077,15.492-9.24Z" transform="translate(54.369 55.099)" fill="#5d2c10"/>
          <path id="Trazado_882836" data-name="Trazado 882836" d="M5.837,41.156l-1.71,6.918L7.545,52.5l38.741-3.139,22.6,43.386,9.956-8.032L52.933,39.359,27.991,36.388Z" transform="translate(3.697 32.593)" fill="#303030"/>
          <path id="Trazado_882837" data-name="Trazado 882837" d="M78.423,56.381H49.438A3.05,3.05,0,0,1,46.4,53.34V18.148a3.049,3.049,0,0,1,3.039-3.039H78.423a3.049,3.049,0,0,1,3.037,3.039V53.34a3.049,3.049,0,0,1-3.037,3.041" transform="translate(41.561 13.533)" fill="#303030"/>
          <path id="Trazado_882838" data-name="Trazado 882838" d="M56.6,84.419h0a1.639,1.639,0,0,1-1.634-1.632V45.7a1.634,1.634,0,0,1,3.268,0v37.09A1.639,1.639,0,0,1,56.6,84.419" transform="translate(49.234 39.47)" fill="#303030"/>
          <path id="Trazado_882839" data-name="Trazado 882839" d="M12.025,86.44h0a1.639,1.639,0,0,1-1.636-1.632V47.718a1.634,1.634,0,0,1,3.268,0v37.09a1.637,1.637,0,0,1-1.632,1.632" transform="translate(9.306 41.28)" fill="#303030"/>
          <path id="Trazado_882840" data-name="Trazado 882840" d="M30.907,69.815H5.522a2.044,2.044,0,0,1,0-4.087H30.907a2.044,2.044,0,0,1,0,4.087" transform="translate(3.115 58.874)" fill="#303030"/>
          <path id="Trazado_882841" data-name="Trazado 882841" d="M83.6,49.142H47.584A3.047,3.047,0,0,1,44.545,46.1V45.011a3.045,3.045,0,0,1,3.039-3.037H83.6a3.047,3.047,0,0,1,3.039,3.037V46.1A3.048,3.048,0,0,1,83.6,49.142" transform="translate(39.9 37.597)" fill="#e54d42"/>
          <path id="Trazado_882842" data-name="Trazado 882842" d="M41.154,51.97H5.137A3.048,3.048,0,0,1,2.1,48.929V47.837A3.046,3.046,0,0,1,5.137,44.8H41.154a3.046,3.046,0,0,1,3.037,3.037v1.092a3.048,3.048,0,0,1-3.037,3.041" transform="translate(1.881 40.128)" fill="#303030"/>
          <path id="Trazado_882843" data-name="Trazado 882843" d="M77.311,42.028H48.17A1.075,1.075,0,0,1,47.1,40.957V36.216a1.076,1.076,0,0,1,1.073-1.073H77.311a1.076,1.076,0,0,1,1.073,1.073v4.741a1.075,1.075,0,0,1-1.073,1.071" transform="translate(42.186 31.478)" fill="#4d5a68"/>
          <path id="Trazado_882844" data-name="Trazado 882844" d="M75.079,50.113H52.189A5.732,5.732,0,0,1,46.473,44.4V43.05a5.731,5.731,0,0,1,5.716-5.714H75.079A5.731,5.731,0,0,1,80.8,43.05V44.4a5.732,5.732,0,0,1-5.716,5.716" transform="translate(41.627 33.442)" fill="#505050"/>
          <path id="Trazado_882845" data-name="Trazado 882845" d="M76.581,45.562c0,3.748-6.559,3.24-14.438,3.24s-14.089.508-14.089-3.24,6.387-6.787,14.263-6.787,14.263,3.039,14.263,6.787" transform="translate(43.043 34.731)" fill="#303030"/>
          <path id="Trazado_882846" data-name="Trazado 882846" d="M59.2,44.325a1.591,1.591,0,0,0,.078-.444,5.081,5.081,0,0,0-4.593-4.174,5.081,5.081,0,0,0-4.6,4.174,1.528,1.528,0,0,0,.063.356h-.006s-.753,10.444-.6,16.481,3.524,23.145,3.335,25.107,3.892,0,3.892,0,2.119-14.305,2.88-24.942A89.528,89.528,0,0,0,59.2,44.325" transform="translate(44.361 35.566)" fill="#dead8e"/>
          <path id="Trazado_882847" data-name="Trazado 882847" d="M65.949,44.239h-.006A1.631,1.631,0,0,0,66,43.882a5.083,5.083,0,0,0-4.593-4.176,5.085,5.085,0,0,0-4.6,4.176,1.591,1.591,0,0,0,.078.444,89.694,89.694,0,0,0-.447,16.559c.76,10.637,2.88,24.94,2.88,24.94s4.083,1.964,3.894,0,3.187-19.071,3.333-25.107-.6-16.48-.6-16.48" transform="translate(50.383 35.565)" fill="#dead8e"/>
          <path id="Trazado_882848" data-name="Trazado 882848" d="M57.507,65.823a1.49,1.49,0,0,0-1.388-.948H53a1.491,1.491,0,0,0-1.39.948l-1.46,3.735a1.484,1.484,0,0,0-.1.544v.94a1.494,1.494,0,0,0,.3.895l.669.891H58.1l.669-.891a1.482,1.482,0,0,0,.3-.895V70.1a1.483,1.483,0,0,0-.1-.544Z" transform="translate(44.824 58.11)" fill="#e54d42"/>
          <path id="Trazado_882849" data-name="Trazado 882849" d="M63.85,65.8a1.494,1.494,0,0,0-1.39-.948H59.339a1.494,1.494,0,0,0-1.39.948l-1.462,3.735a1.522,1.522,0,0,0-.1.544v.94a1.5,1.5,0,0,0,.3.9l.669.889h7.092l.669-.889a1.488,1.488,0,0,0,.3-.9v-.94a1.483,1.483,0,0,0-.1-.544Z" transform="translate(50.505 58.089)" fill="#e54d42"/>
          <path id="Trazado_882850" data-name="Trazado 882850" d="M56.447,70.091a2.733,2.733,0,0,1-5.465,0l.855-4.044c0-1.5.375-5.608,1.879-5.608s1.913,4.1,1.913,5.608Z" transform="translate(45.666 54.137)" fill="#dead8e"/>
          <path id="Trazado_882851" data-name="Trazado 882851" d="M62.79,70.068a2.733,2.733,0,0,1-5.465,0l.855-4.044c0-1.5.375-5.608,1.877-5.608s1.915,4.1,1.915,5.608Z" transform="translate(51.347 54.116)" fill="#dead8e"/>
          <path id="Trazado_882852" data-name="Trazado 882852" d="M55.987,69.616H51.429a.578.578,0,1,1,0-1.156h4.557a.578.578,0,1,1,0,1.156" transform="translate(45.549 61.321)" fill="#f55d51"/>
          <path id="Trazado_882853" data-name="Trazado 882853" d="M62.395,69.592H57.837a.577.577,0,1,1,0-1.154h4.557a.577.577,0,1,1,0,1.154" transform="translate(51.288 61.301)" fill="#f55d51"/>
          <path id="Trazado_882854" data-name="Trazado 882854" d="M43.536,29.405c.013,0,.027.011.04.011,7.585,1.947,14.275,3.763,19.505,5.16.91.231,1.78.463,2.6.671l.078,3.041c-.844-.057-1.71-.136-2.591-.229A120.894,120.894,0,0,1,44.55,34.23Z" transform="translate(38.996 26.338)" fill="#eab99a"/>
          <path id="Trazado_882855" data-name="Trazado 882855" d="M78.162,29.405c-.013,0-.027.011-.038.011-7.587,1.947-14.279,3.763-19.507,5.16-.91.231-1.78.463-2.6.671l-.078,3.041c.842-.057,1.71-.136,2.591-.229A120.894,120.894,0,0,0,77.147,34.23Z" transform="translate(50.105 26.338)" fill="#eab99a"/>
          <path id="Trazado_882856" data-name="Trazado 882856" d="M70.669,36.474C72.8,27.964,74.5,20.194,74.5,17.041,74.5,8.577,68.77,1.716,61.7,1.716S48.891,8.577,48.891,17.041c0,3.153,1.854,10.923,4.18,19.433Z" transform="translate(43.793 1.537)" fill="#8d5c3e"/>
          <path id="Trazado_882857" data-name="Trazado 882857" d="M66.021,6.467s6.527,10.65-3.7,18.32l-7.177-.622s-4.464-4.887-3.382-9.6Z" transform="translate(46.212 5.792)" fill="#6d3c1f"/>
          <path id="Trazado_882858" data-name="Trazado 882858" d="M53.608,22.014c-.089.271-1.063,3.029-2.4,6.61-.106.271-.21.555-.315.84C50.5,30.5,50.1,31.578,49.68,32.687c.015,0,0,.015,0,.015-.1.284-.224.569-.33.87-.328.838-.66,1.693-.99,2.546l-.089.241a20.641,20.641,0,0,0-.929,6.161A2.643,2.643,0,0,1,44.689,44.9h-.015c-2.2-1.439-2.743-1.365-3.3-4.256a4.191,4.191,0,0,1-.2-1.814,97.7,97.7,0,0,1,6.641-18.887,1.327,1.327,0,0,1,.074-.21,3.024,3.024,0,0,1,3.448-1.528,1.59,1.59,0,0,1,.241.059,2.82,2.82,0,0,1,.764.36,2.97,2.97,0,0,1,1.259,3.388" transform="translate(36.843 16.222)" fill="#eab99a"/>
          <path id="Trazado_882859" data-name="Trazado 882859" d="M73.391,40.647c-.554,2.891-1.079,2.817-3.3,4.256H70.08a2.64,2.64,0,0,1-2.652-2.383,20.709,20.709,0,0,0-.931-6.161l-.076-.241c-.33-.853-.673-1.723-1-2.576-.66-1.71-1.289-3.388-1.845-4.918-1.335-3.583-2.307-6.341-2.4-6.61a2.98,2.98,0,0,1,1.244-3.388,3.035,3.035,0,0,1,.766-.36,1.755,1.755,0,0,1,.254-.059,3,3,0,0,1,3.433,1.528c.028.076.061.135.089.21a98.822,98.822,0,0,1,6.627,18.887,4.222,4.222,0,0,1-.2,1.814" transform="translate(54.67 16.222)" fill="#eab99a"/>
          <path id="Trazado_882860" data-name="Trazado 882860" d="M77.242,31.42A4.061,4.061,0,0,1,78.5,34.237a3.691,3.691,0,0,1-.6,1.994,6.553,6.553,0,0,1-3.058,2.442.3.3,0,0,1-.106.061,6.052,6.052,0,0,1-.794.3,1.4,1.4,0,0,1-.224.074.587.587,0,0,0-.046.15v.015A32.643,32.643,0,0,0,71.2,48.642H55.267a32.385,32.385,0,0,0-2.413-9.219,3.045,3.045,0,0,0-.119-.315,7.033,7.033,0,0,1-.944-.345,9.63,9.63,0,0,1-1.606-.868,5.807,5.807,0,0,1-1.617-1.634,3.806,3.806,0,0,1-.616-2.025A4.061,4.061,0,0,1,49.21,31.42l-2.112-7.8A2.968,2.968,0,0,1,50.11,20.9h3.718a8.89,8.89,0,0,0,3.312-.705,5.235,5.235,0,0,0,1.575-1.079,4.1,4.1,0,0,0,.523-.614,7.25,7.25,0,0,0,1.185-3.39h5.606a7.25,7.25,0,0,0,1.185,3.39,4.007,4.007,0,0,0,.51.614,5.3,5.3,0,0,0,1.589,1.079,8.9,8.9,0,0,0,3.312.705h3.524a3,3,0,0,1,3.208,2.728Z" transform="translate(42.187 13.533)" fill="#eab99a"/>
          <path id="Trazado_882861" data-name="Trazado 882861" d="M68.936,27.853a4.461,4.461,0,0,1-2.309,3.7.316.316,0,0,1-.1.061,6.431,6.431,0,0,1-.779.406,2.293,2.293,0,0,1-.286.119v.015a8.279,8.279,0,0,1-2.847.495c-3.507,0-6.341-2.144-6.341-4.8s2.834-4.8,6.341-4.8a7.844,7.844,0,0,1,2.758.493c2.114.766,3.568,2.413,3.568,4.3" transform="translate(50.402 20.652)" fill="#f5c4a5"/>
          <path id="Trazado_882862" data-name="Trazado 882862" d="M60.705,27.853c0,2.652-2.849,4.8-6.341,4.8a7.939,7.939,0,0,1-2.353-.345,5.544,5.544,0,0,1-1.065-.4,6.125,6.125,0,0,1-1.6-1.124,4.293,4.293,0,0,1-1.289-2.5s.015-.015,0-.015a3.592,3.592,0,0,1-.015-.4,4.017,4.017,0,0,1,1.23-2.819,5.813,5.813,0,0,1,2.038-1.4,8.325,8.325,0,0,1,3.058-.582c3.492,0,6.341,2.157,6.341,4.8" transform="translate(43.029 20.652)" fill="#f5c4a5"/>
          <path id="Trazado_882863" data-name="Trazado 882863" d="M67.168,14.059c0,5.657-3.471,12.5-7.793,12.5a3.006,3.006,0,0,1-.59-.051c-4.053-.578-7.266-7.046-7.266-12.447S54.7,4.222,58.745,3.824c.193-.013.385-.027.591-.027,4.32,0,7.831,4.59,7.831,10.262" transform="translate(46.147 3.401)" fill="#eab99a"/>
          <path id="Trazado_882864" data-name="Trazado 882864" d="M65.985,14.046c0,5.4-3.164,11.869-7.2,12.447-4.053-.578-7.266-7.046-7.266-12.447a3.561,3.561,0,0,1,.025-.514c.129-3.769,1.814-7.01,4.231-8.616a6.434,6.434,0,0,1,2.173-.965L58,3.938a.075.075,0,0,1,.051-.013,5.877,5.877,0,0,1,.694-.114,6.38,6.38,0,0,1,1.467.332c2.944,1.056,5.194,4.282,5.67,8.294a13.339,13.339,0,0,1,.1,1.609" transform="translate(46.147 3.413)" fill="#f5c4a5"/>
          <path id="Trazado_882865" data-name="Trazado 882865" d="M51.077,7.136s1.494,3.536,7.873,4.5,7.664,3.858,8.309,5.786c0,0,3.536-8.358-1.822-11.573s-12-4.072-14.36,1.287" transform="translate(45.751 2.933)" fill="#8d5c3e"/>
          <path id="Trazado_882866" data-name="Trazado 882866" d="M80.713,33.83c.33.853.673,1.723,1,2.576l.076.241a10.6,10.6,0,0,1,.554,2.034,13.705,13.705,0,0,0,3.168-1.206c.882-.5,1.668-1.126,2.5-1.687a100.98,100.98,0,0,0-5.757-15.554c-.028-.076-.061-.135-.089-.21A3,3,0,0,0,78.734,18.5h-3.3a8.9,8.9,0,0,1-3.312-.705l-6.085,5.59-6.087-5.59a8.89,8.89,0,0,1-3.312.705H53.371a3.024,3.024,0,0,0-3.448,1.528,1.327,1.327,0,0,0-.074.21,99.076,99.076,0,0,0-5.89,15.985,14.887,14.887,0,0,0,5.71,2.876,11.27,11.27,0,0,1,.629-2.447l.089-.241c.33-.853.662-1.708.99-2.546A5.814,5.814,0,0,0,53,35.494,6.1,6.1,0,0,0,54.6,36.618a5.478,5.478,0,0,0,1.063.4,32.385,32.385,0,0,1,2.413,9.219H74.012a32.643,32.643,0,0,1,2.474-9.369v-.015a2.269,2.269,0,0,0,.284-.119,6.163,6.163,0,0,0,.779-.406.339.339,0,0,0,.106-.061,6.553,6.553,0,0,0,3.058-2.442" transform="translate(39.375 15.934)" fill="#fd6d60"/>
          <path id="Trazado_882867" data-name="Trazado 882867" d="M84.69,34.975h-39a.693.693,0,0,1,0-1.386h39a.693.693,0,1,1,0,1.386" transform="translate(40.303 30.086)" fill="#303030"/>
          <path id="Trazado_882868" data-name="Trazado 882868" d="M55.5,34.975h-39a.693.693,0,1,1,0-1.386h39a.693.693,0,1,1,0,1.386" transform="translate(14.157 30.086)" fill="#303030"/>
          <path id="Trazado_882869" data-name="Trazado 882869" d="M81.339,24.907V42.713A1.394,1.394,0,0,1,79.95,44.1H47.668a1.394,1.394,0,0,1-1.39-1.388V24.907a1.394,1.394,0,0,1,1.39-1.39H79.95a1.394,1.394,0,0,1,1.39,1.39" transform="translate(41.452 21.064)" fill="#606060"/>
          <path id="Trazado_882870" data-name="Trazado 882870" d="M58.481,29.257a2.136,2.136,0,1,1-2.136-2.136,2.136,2.136,0,0,1,2.136,2.136" transform="translate(48.555 24.292)" fill="#d0d0d0"/>
          <path id="Trazado_882871" data-name="Trazado 882871" d="M9.26,23.908l11.192-.061L19.591,9.493,9.525,9.845Z" transform="translate(8.294 8.502)" fill="#dead8e"/>
          <path id="Trazado_882872" data-name="Trazado 882872" d="M9.023,13.428l6.821,8.893L24,22.939l1.509-.954,3.619-2.3L23.347,3.022,23.3,2.893Z" transform="translate(8.082 2.591)" fill="#eab99a"/>
          <path id="Trazado_882873" data-name="Trazado 882873" d="M9.818,13.006,16.639,21.9l8.157.616,3.619-2.3L23.465,5.3l-7.336-3Z" transform="translate(8.794 2.059)" fill="#f5c4a5"/>
          <path id="Trazado_882874" data-name="Trazado 882874" d="M21.592,6.646l.345,9.841-2.768-1.621-1.354,5.846L12.871,23.5,5.724,12.988,7.317,4.252,20.367,0l-.4,1.64,7.219,2.19,1.348,4.923Z" transform="translate(5.127 -0.001)" fill="#8d5c3e"/>
          <path id="Trazado_882875" data-name="Trazado 882875" d="M21.591,10.9l-2.9,1.706L17.548,5.977Z" transform="translate(15.718 5.353)" fill="#f5c4a5"/>
          <path id="Trazado_882876" data-name="Trazado 882876" d="M19.755,17.343l5.06,6.912-9.863-2.169L9.252,16Z" transform="translate(8.288 14.332)" fill="#dead8e"/>
          <path id="Trazado_882877" data-name="Trazado 882877" d="M7.676,17.984,13.8,14.378,23.915,18.8l5.058,6.912L31.839,47.28,29.048,59.023l-22.6,4.119L4.609,59.379l.171-35.115Z" transform="translate(4.128 12.878)" fill="#d5e5e6"/>
          <path id="Trazado_882878" data-name="Trazado 882878" d="M6.419,39.541,3.477,48.487l3.736,3.8,35.892-1.118L65.7,94.551l10.832-6.5L49.752,41.162,24.81,38.191Z" transform="translate(3.115 34.208)" fill="#505050"/>
          <path id="Trazado_882879" data-name="Trazado 882879" d="M37.1,67.913l.838,4.4h4.827v-.978l4.887,1.022H61.5l-.641-2.22S50.645,67.811,48.6,64.114Z" transform="translate(33.235 57.428)" fill="#303030"/>
          <path id="Trazado_882880" data-name="Trazado 882880" d="M9.46,14.378,21.449,28.492l.624-6.273L19.57,18.8Z" transform="translate(8.474 12.878)" fill="#e3f4f5"/>
          <rect id="Rectángulo_405147" data-name="Rectángulo 405147" width="7.761" height="46.782" transform="translate(34.356 83.534)" fill="#859596"/>
          <path id="Trazado_882881" data-name="Trazado 882881" d="M37.163,48.973h-.209a.855.855,0,0,1-.853-.851V18.954a.856.856,0,0,1,.853-.853h.209a.854.854,0,0,1,.851.853V48.122a.854.854,0,0,1-.851.851" transform="translate(32.337 16.213)" fill="#606060"/>
          <path id="Trazado_882882" data-name="Trazado 882882" d="M37.506,36.326H26.948a1.888,1.888,0,0,1-1.882-1.882v-.483a1.887,1.887,0,0,1,1.882-1.881H37.506a1.885,1.885,0,0,1,1.881,1.881v.483a1.887,1.887,0,0,1-1.881,1.882" transform="translate(22.452 28.734)" fill="#606060"/>
          <path id="Trazado_882883" data-name="Trazado 882883" d="M5.525,22.352,10.6,52.058a1.617,1.617,0,0,0,.652,1.255L14.74,55.9a1.612,1.612,0,0,0,2.451-.684l4.925-6.258c.114-.271-5.42-26.68-5.42-26.68-.082-.525-2.339-5.094-2.819-5.323l-3.589-1.7c-1.086-.519-6.059,2.673-4.764,7.1" transform="translate(4.758 13.609)" fill="#e3f4f5"/>
          <path id="Trazado_882884" data-name="Trazado 882884" d="M36.017,36.348c-.3-1.672-.5-3.427-.791-5.1l-7.086-.1L12.176,32.589c-.349.011-3.189,4.461-3.189,4.461a1.252,1.252,0,0,0,.068,1.71l3.179,3.136a1.25,1.25,0,0,0,1.2.317l15.238-3.551Z" transform="translate(7.778 27.898)" fill="#e3f4f5"/>
          <path id="Trazado_882885" data-name="Trazado 882885" d="M24.623,37.91l-1.907.544c-.169-1.812-.339-3.625-.5-5.437l2.237.091a1.476,1.476,0,0,0,.444-.07l7.856-3.052c.408-.133,3.014-.988,3.378-.76L42.524,32.9c.5.317,1.09,2.55.982,3.134l-1.568.049-4.984-2.04L25.254,37.9a1.447,1.447,0,0,0-.631.008" transform="translate(19.9 26.144)" fill="#f3cfb8"/>
          <path id="Trazado_882886" data-name="Trazado 882886" d="M141.614,41.156l-.046,6.717L139.9,52.5l-38.739-3.139-22.6,43.386-9.956-8.032L94.518,39.359l24.94-2.971Z" transform="translate(61.455 32.593)" fill="#386885"/>
          <path id="Trazado_882887" data-name="Trazado 882887" d="M101.667,86.44h0a1.639,1.639,0,0,0,1.634-1.632V47.718a1.633,1.633,0,0,0-3.266,0v37.09a1.637,1.637,0,0,0,1.632,1.632" transform="translate(89.604 41.28)" fill="#303030"/>
          <path id="Trazado_882888" data-name="Trazado 882888" d="M95.167,69.815h25.386a2.044,2.044,0,0,0,0-4.087H95.167a2.044,2.044,0,0,0,0,4.087" transform="translate(83.413 58.874)" fill="#303030"/>
          <path id="Trazado_882889" data-name="Trazado 882889" d="M90.884,51.97H126.9a3.049,3.049,0,0,0,3.039-3.041V47.837A3.047,3.047,0,0,0,126.9,44.8H90.884a3.048,3.048,0,0,0-3.041,3.037v1.092a3.05,3.05,0,0,0,3.041,3.041" transform="translate(78.683 40.128)" fill="#303030"/>
          <path id="Trazado_882890" data-name="Trazado 882890" d="M75.731,34.975h39a.693.693,0,0,0,0-1.386h-39a.693.693,0,1,0,0,1.386" transform="translate(67.213 30.086)" fill="#909090"/>
          <path id="Trazado_882891" data-name="Trazado 882891" d="M110.681,21.267l-10.222,4.557L95.322,12.393l9.317-3.829Z" transform="translate(85.382 7.67)" fill="#dead8e"/>
          <path id="Trazado_882892" data-name="Trazado 882892" d="M108.107,11.076l-.591,7.408a2.337,2.337,0,0,1-1.357,1.936L99.383,23.5a3.135,3.135,0,0,1-1.744.252l-.859-.119-.967-.136a4.181,4.181,0,0,1-3.577-3.757L90.93,5.468l-.008-.136,15.352,3.282a2.326,2.326,0,0,1,1.833,2.463" transform="translate(81.441 4.775)" fill="#eab99a"/>
          <path id="Trazado_882893" data-name="Trazado 882893" d="M106.52,10.537,103.4,20.755,96.8,25.376l-2.811-.4A1.846,1.846,0,0,1,92.4,23.34l-1.5-14.2,5.448-5.755Z" transform="translate(81.428 3.032)" fill="#f5c4a5"/>
          <path id="Trazado_882894" data-name="Trazado 882894" d="M94.458,11.764l5.735,1.454,3.422-.874,2.118,7.9,5.649.495.747-4.29,1.012.061-.529-2.842,1.181,1.365-.233-6.813-5.052-7.3L102.615.289,95.9,3.756l-3.74,1.877-2.18,5.818Z" transform="translate(80.599 0.258)" fill="#f7b23f"/>
          <path id="Trazado_882895" data-name="Trazado 882895" d="M90.563,13.766a.835.835,0,0,0,.717,1.046l2.375.256L91.962,8.551Z" transform="translate(81.095 7.659)" fill="#f5c4a5"/>
          <path id="Trazado_882896" data-name="Trazado 882896" d="M100.912,16.247l-6.226,8.009,9.863-2.171,5.7-6.085Z" transform="translate(84.813 14.332)" fill="#dead8e"/>
          <path id="Trazado_882897" data-name="Trazado 882897" d="M116.761,17.984l-5.736-3.606c-6.241,3.96-9.532,5.663-11.208,5.092l-4.355,6.239L93.821,38.071l5.462,21.613,18.7,3.458,1.841-3.763-.171-35.115Z" transform="translate(84.038 12.878)" fill="#505050"/>
          <path id="Trazado_882898" data-name="Trazado 882898" d="M139.835,39.541l.868,2.495a10.576,10.576,0,0,1-.762,8.643l-.9,1.606-35.892-1.118L80.55,94.551l-9.956-8.034L96.5,41.162l24.94-2.971Z" transform="translate(63.233 34.208)" fill="#447ea1"/>
          <path id="Trazado_882899" data-name="Trazado 882899" d="M86.771,69.36l.942,4.44L81.1,73.756l-4.885.044H62.371l-.417-2.061s13.469-1.077,15.494-9.24Z" transform="translate(55.494 55.981)" fill="#6d3c1f"/>
          <path id="Trazado_882900" data-name="Trazado 882900" d="M75.89,48.973H76.1a.855.855,0,0,0,.853-.851V18.954A.856.856,0,0,0,76.1,18.1H75.89a.854.854,0,0,0-.853.853V48.122a.854.854,0,0,0,.853.851" transform="translate(67.213 16.213)" fill="silver"/>
          <path id="Trazado_882901" data-name="Trazado 882901" d="M81.411,36.326H91.965a1.889,1.889,0,0,0,1.884-1.882v-.483a1.887,1.887,0,0,0-1.884-1.881H81.411a1.887,1.887,0,0,0-1.884,1.881v.483a1.889,1.889,0,0,0,1.884,1.882" transform="translate(71.234 28.734)" fill="#e0e0e0"/>
          <path id="Trazado_882902" data-name="Trazado 882902" d="M114.564,22.352l-5.071,29.706a1.617,1.617,0,0,1-.652,1.255l-3.49,2.586a1.614,1.614,0,0,1-2.453-.684l-4.925-6.258c-.112-.271,5.42-26.68,5.42-26.68.083-.525,2.339-5.094,2.821-5.323l3.587-1.7c1.088-.519,6.061,2.673,4.764,7.1" transform="translate(87.755 13.609)" fill="#606060"/>
          <path id="Trazado_882903" data-name="Trazado 882903" d="M89.047,36.348c.3-1.672.5-3.427.791-5.1l7.084-.1,15.964,1.443c.351.011,3.189,4.461,3.189,4.461a1.25,1.25,0,0,1-.066,1.71l-3.179,3.136a1.254,1.254,0,0,1-1.2.317L96.391,38.661Z" transform="translate(79.762 27.898)" fill="#606060"/>
          <path id="Trazado_882904" data-name="Trazado 882904" d="M97.589,37.91l1.909.544q.253-2.718.5-5.437l-2.237.091a1.463,1.463,0,0,1-.442-.07L89.46,29.986c-.409-.133-3.016-.988-3.378-.76L79.689,32.9c-.5.317-1.092,2.55-.982,3.134l1.566.049,4.986-2.04,11.7,3.862a1.439,1.439,0,0,1,.629.008" transform="translate(70.488 26.144)" fill="#f3cfb8"/>
          <rect id="Rectángulo_405148" data-name="Rectángulo 405148" width="166.85" height="18.369" transform="translate(21.331 65.166)" fill="#d8dde0"/>
          <rect id="Rectángulo_405149" data-name="Rectángulo 405149" width="5.187" height="47.162" transform="translate(177.451 83.154)" fill="#859596"/>
        </g>
      </g>
      <path id="Unión_32" data-name="Unión 32" d="M45.871,58.257A31.018,31.018,0,1,1,57.147,47.744l16.14,25.542Z" transform="translate(-5698.004 3596.471)" fill="#fff"/>
      <path id="Unión_33" data-name="Unión 33" d="M45.871,15.029A31.018,31.018,0,1,0,57.147,25.542L73.286,0Z" transform="translate(-5693.074 3769.971)" fill="#fff"/>
      <path id="Unión_34" data-name="Unión 34" d="M45.871,15.029A31.018,31.018,0,1,0,57.147,25.542L73.286,0Z" transform="translate(-5484.205 3669.757) rotate(180)" fill="#fff"/>
      <path id="Unión_35" data-name="Unión 35" d="M45.871,58.257A31.018,31.018,0,1,1,57.147,47.744l16.14,25.542Z" transform="translate(-5479.274 3843.257) rotate(180)" fill="#fff"/>
    </g>
    <rect id="Rectángulo_460035" data-name="Rectángulo 460035" width="248.85" height="31.369" transform="translate(-6462 2620)" fill="#d1eeee"/>
    <text id="Comunicación" transform="translate(-6395 2642)" fill="#12263f" font-size="18" font-family="SegoeUIBlack, Segoe UI"><tspan x="0" y="0">Comunicación</tspan></text>
    <text id="_01" data-name="01" transform="translate(-6426.463 2527.271)" fill="#12263f" font-size="30" font-family="SegoeUI-Bold, Segoe UI" font-weight="700"><tspan x="0" y="0">01</tspan></text>
    <text id="_03" data-name="03" transform="translate(-6421.463 2713.758)" fill="#12263f" font-size="30" font-family="SegoeUI-Bold, Segoe UI" font-weight="700"><tspan x="0" y="0">03</tspan></text>
    <text id="_02" data-name="02" transform="translate(-6274.463 2527.271)" fill="#12263f" font-size="30" font-family="SegoeUI-Bold, Segoe UI" font-weight="700"><tspan x="0" y="0">02</tspan></text>
    <text id="_04" data-name="04" transform="translate(-6270.463 2713.758)" fill="#12263f" font-size="30" font-family="SegoeUI-Bold, Segoe UI" font-weight="700"><tspan x="0" y="0">04</tspan></text>
    <text id="_Ser_claros_Ser_completos_Exponer_de_manera_lógica_y_ordenada" data-name="• Ser claros

• Ser completos

• Exponer de manera lógica y ordenada" transform="translate(-6482.075 2881.5)" fill="#12263f" font-size="17" font-family="SegoeUI, Segoe UI"><tspan x="0" y="18">• Ser claros</tspan><tspan x="0" y="36"></tspan><tspan x="0" y="54">• Ser completos</tspan><tspan x="0" y="72"></tspan><tspan x="0" y="90">• Exponer de manera lógica y ordenada</tspan></text>
    <text id="_Dejar_hablar._Demostrar_atención_e_involucramiento._Verificar_la_comprensión._" data-name="• Dejar hablar.

• Demostrar atención e involucramiento.

• Verificar la comprensión.
" transform="translate(-6482.075 3055.931)" fill="#12263f" font-size="17" font-family="SegoeUI, Segoe UI"><tspan x="0" y="18">• Dejar hablar.</tspan><tspan x="0" y="36"></tspan><tspan x="0" y="54">• Demostrar atención e involucramiento.</tspan><tspan x="0" y="72"></tspan><tspan x="0" y="90">• Verificar la comprensión.</tspan><tspan font-family="Roboto-Regular, Roboto"><tspan x="0" y="108"></tspan></tspan></text>
    <text id="_Suscitar_interés_y_atención_Ser_persuasivo_Obtener_consenso" data-name="• Suscitar interés y atención

• Ser persuasivo

• Obtener consenso" transform="translate(-6482.075 3230.362)" fill="#12263f" font-size="17" font-family="SegoeUI, Segoe UI"><tspan x="0" y="18">• Suscitar interés y atención</tspan><tspan x="0" y="36"></tspan><tspan x="0" y="54">• Ser persuasivo</tspan><tspan x="0" y="72"></tspan><tspan x="0" y="90">• Obtener consenso</tspan></text>
    <text id="_Mantenerse_en_el_tema._Adaptar_el_lenguaje_a_los_interlocutores._Resolver_dudas_e_incertidumbres." data-name="• Mantenerse en el tema.

• Adaptar el lenguaje a los interlocutores.

• Resolver dudas e incertidumbres." transform="translate(-6482.075 3404.793)" fill="#12263f" font-size="17" font-family="SegoeUI, Segoe UI"><tspan x="0" y="18">• Mantenerse en el tema.</tspan><tspan x="0" y="36"></tspan><tspan x="0" y="54">• Adaptar el lenguaje a los interlocutores.</tspan><tspan x="0" y="72"></tspan><tspan x="0" y="90">• Resolver dudas e incertidumbres.</tspan></text>
    <g id="Grupo_1180113" data-name="Grupo 1180113" transform="translate(12.896)">
      <rect id="Rectángulo_460036" data-name="Rectángulo 460036" width="313" height="41" transform="translate(-6486 2824)" fill="#e7effa"/>
      <path id="Unión_36" data-name="Unión 36" d="M22.019,0A22.019,22.019,0,1,1,0,22.019,22.019,22.019,0,0,1,22.019,0Z" transform="translate(-6512.897 2822.069)" fill="#fff"/>
      <text id="_01-2" data-name="01" transform="translate(-6501.378 2850.088)" fill="#12263f" font-size="18" font-family="SegoeUI-Bold, Segoe UI" font-weight="700"><tspan x="0" y="0">01</tspan></text>
      <text id="Exponer" transform="translate(-6454 2835.088)" fill="#12263f" font-size="17" font-family="SegoeUI-Bold, Segoe UI" font-weight="700"><tspan x="0" y="18">Exponer</tspan></text>
    </g>
    <g id="Grupo_1180114" data-name="Grupo 1180114" transform="translate(12.896 174.431)">
      <rect id="Rectángulo_460036-2" data-name="Rectángulo 460036" width="313" height="41" transform="translate(-6486 2824)" fill="#e7effa"/>
      <path id="Unión_36-2" data-name="Unión 36" d="M22.019,0A22.019,22.019,0,1,1,0,22.019,22.019,22.019,0,0,1,22.019,0Z" transform="translate(-6512.897 2822.069)" fill="#fff"/>
      <text id="_02-2" data-name="02" transform="translate(-6501.378 2850.088)" fill="#12263f" font-size="18" font-family="SegoeUI-Bold, Segoe UI" font-weight="700"><tspan x="0" y="0">02</tspan></text>
      <text id="Escuchar" transform="translate(-6454 2835.088)" fill="#12263f" font-size="17" font-family="SegoeUI-Bold, Segoe UI" font-weight="700"><tspan x="0" y="18">Escuchar</tspan></text>
    </g>
    <g id="Grupo_1180115" data-name="Grupo 1180115" transform="translate(12.896 348.862)">
      <rect id="Rectángulo_460036-3" data-name="Rectángulo 460036" width="313" height="41" transform="translate(-6486 2824)" fill="#e7effa"/>
      <rect id="Rectángulo_460037" data-name="Rectángulo 460037" width="313" height="41" transform="translate(-6486 2998.431)" fill="#e7effa"/>
      <path id="Unión_36-3" data-name="Unión 36" d="M22.019,0A22.019,22.019,0,1,1,0,22.019,22.019,22.019,0,0,1,22.019,0Z" transform="translate(-6512.897 2822.069)" fill="#fff"/>
      <path id="Unión_37" data-name="Unión 37" d="M22.019,0A22.019,22.019,0,1,1,0,22.019,22.019,22.019,0,0,1,22.019,0Z" transform="translate(-6512.897 2996.5)" fill="#fff"/>
      <text id="_03-2" data-name="03" transform="translate(-6501.378 2850.088)" fill="#12263f" font-size="18" font-family="SegoeUI-Bold, Segoe UI" font-weight="700"><tspan x="0" y="0">03</tspan></text>
      <text id="_04-2" data-name="04" transform="translate(-6501.378 3024.519)" fill="#12263f" font-size="18" font-family="SegoeUI-Bold, Segoe UI" font-weight="700"><tspan x="0" y="0">04</tspan></text>
      <text id="Convencer" transform="translate(-6457 2835.088)" fill="#12263f" font-size="17" font-family="SegoeUI-Bold, Segoe UI" font-weight="700"><tspan x="0" y="18">Convencer</tspan></text>
      <text id="Contestar" transform="translate(-6457 3009.519)" fill="#12263f" font-size="17" font-family="SegoeUI-Bold, Segoe UI" font-weight="700"><tspan x="0" y="18">Contestar</tspan></text>
    </g>
  </g>
</svg>
