<svg xmlns="http://www.w3.org/2000/svg" xmlns:xlink="http://www.w3.org/1999/xlink" width="1030" height="486" viewBox="0 0 1030 486">
  <defs>
    <clipPath id="clip-path">
      <path id="Trazado_608976" data-name="Trazado 608976" d="M16,0h998c8.837,0,16,7.536,16,16.831V469.169c0,9.3-7.163,16.831-16,16.831H16c-8.837,0-16-7.536-16-16.831V16.831C0,7.536,7.163,0,16,0Z" transform="translate(284.668 1119)" fill="#fff8e6"/>
    </clipPath>
    <clipPath id="clip-path-2">
      <rect id="Rectángulo_403595" data-name="Rectángulo 403595" width="820" height="459.932" transform="translate(-36 -23.497)" fill="none"/>
    </clipPath>
    <clipPath id="clip-path-3">
      <rect id="Rectángulo_403568" data-name="Rectángulo 403568" width="688" height="424.014" fill="none"/>
    </clipPath>
    <clipPath id="clip-path-4">
      <rect id="Rectángulo_403569" data-name="Rectángulo 403569" width="688" height="404.014" fill="none"/>
    </clipPath>
    <clipPath id="clip-path-6">
      <rect id="Rectángulo_403570" data-name="Rectángulo 403570" width="26.354" height="29.551" transform="translate(90.424 291.64)" fill="none"/>
    </clipPath>
    <clipPath id="clip-path-7">
      <rect id="Rectángulo_403571" data-name="Rectángulo 403571" width="32.398" height="44.54" transform="translate(563.278 293.926)" fill="none"/>
    </clipPath>
    <clipPath id="clip-path-9">
      <rect id="Rectángulo_403574" data-name="Rectángulo 403574" width="27.832" height="15.916" transform="translate(497.26 188.855)" fill="none"/>
    </clipPath>
    <clipPath id="clip-path-10">
      <rect id="Rectángulo_403580" data-name="Rectángulo 403580" width="2.085" height="1.838" transform="translate(142.822 165.844)" fill="none"/>
    </clipPath>
    <clipPath id="clip-path-11">
      <rect id="Rectángulo_403581" data-name="Rectángulo 403581" width="4.979" height="2.312" transform="translate(164.066 226.226)" fill="none"/>
    </clipPath>
    <clipPath id="clip-path-12">
      <rect id="Rectángulo_403582" data-name="Rectángulo 403582" width="13.262" height="4.071" transform="translate(145.093 227.218)" fill="none"/>
    </clipPath>
    <clipPath id="clip-path-13">
      <rect id="Rectángulo_403583" data-name="Rectángulo 403583" width="11.105" height="4.218" transform="translate(156.839 208.437)" fill="none"/>
    </clipPath>
    <clipPath id="clip-path-14">
      <rect id="Rectángulo_403594" data-name="Rectángulo 403594" width="825" height="431.932" transform="translate(120 0)" fill="none"/>
    </clipPath>
    <clipPath id="clip-path-15">
      <rect id="Rectángulo_403585" data-name="Rectángulo 403585" width="25.104" height="57.889" fill="none"/>
    </clipPath>
    <clipPath id="clip-path-16">
      <rect id="Rectángulo_403586" data-name="Rectángulo 403586" width="193.906" height="166.163" fill="none"/>
    </clipPath>
    <clipPath id="clip-path-17">
      <rect id="Rectángulo_403587" data-name="Rectángulo 403587" width="78.237" height="74.59" fill="none"/>
    </clipPath>
    <clipPath id="clip-path-18">
      <rect id="Rectángulo_403588" data-name="Rectángulo 403588" width="91.973" height="87.686" fill="none"/>
    </clipPath>
    <clipPath id="clip-path-19">
      <rect id="Rectángulo_403589" data-name="Rectángulo 403589" width="105.049" height="100.153" fill="none"/>
    </clipPath>
    <clipPath id="clip-path-20">
      <rect id="Rectángulo_403590" data-name="Rectángulo 403590" width="22.323" height="13.591" fill="#e6d09e"/>
    </clipPath>
    <clipPath id="clip-path-22">
      <rect id="Rectángulo_403591" data-name="Rectángulo 403591" width="19.988" height="14.698" fill="#e6d09e"/>
    </clipPath>
    <clipPath id="clip-path-24">
      <rect id="Rectángulo_403592" data-name="Rectángulo 403592" width="22.415" height="37.256" fill="#ac945b"/>
    </clipPath>
    <clipPath id="clip-path-25">
      <rect id="Rectángulo_403593" data-name="Rectángulo 403593" width="35.409" height="20.583" fill="#ac945b"/>
    </clipPath>
  </defs>
  <g id="Grupo_1102452" data-name="Grupo 1102452" transform="translate(-285 -903)">
    <g id="Enmascarar_grupo_1098656" data-name="Enmascarar grupo 1098656" transform="translate(0.332 -216)" clip-path="url(#clip-path)">
      <rect id="Rectángulo_400937" data-name="Rectángulo 400937" width="1079" height="510" transform="translate(264.668 1106)" fill="#fff8e6"/>
    </g>
    <g id="Grupo_1102447" data-name="Grupo 1102447" transform="translate(446 948)">
      <g id="Grupo_1102446" data-name="Grupo 1102446" clip-path="url(#clip-path-2)">
        <g id="Grupo_1102375" data-name="Grupo 1102375" transform="translate(11)">
          <g id="Grupo_1102374" data-name="Grupo 1102374" clip-path="url(#clip-path-3)">
            <path id="Trazado_881690" data-name="Trazado 881690" d="M100.756,382.193c134.341,29.094,352.15,29.1,486.488,0s134.341-76.265,0-105.359-352.149-29.095-486.49,0-134.339,76.265,0,105.359" transform="translate(0 8)" fill="#ffe7ae"/>
          </g>
        </g>
        <g id="Grupo_1102377" data-name="Grupo 1102377">
          <g id="Grupo_1102376" data-name="Grupo 1102376" clip-path="url(#clip-path-4)">
            <path id="Trazado_881691" data-name="Trazado 881691" d="M575.69,363.186c-15.469,8.41-40.55,8.41-56.019,0s-15.469-22.041,0-30.451,40.55-8.408,56.019,0,15.469,22.043,0,30.451" fill="#e6d09e"/>
            <path id="Trazado_881692" data-name="Trazado 881692" d="M162.348,360.429c-15.469,8.41-40.55,8.41-56.019,0s-15.469-22.041,0-30.451,40.55-8.408,56.019,0,15.469,22.044,0,30.451" fill="#e6d09e"/>
          </g>
        </g>
        <g id="Grupo_1102385" data-name="Grupo 1102385">
          <g id="Grupo_1102384" data-name="Grupo 1102384" clip-path="url(#clip-path-4)">
            <path id="Trazado_881693" data-name="Trazado 881693" d="M116.778,319.963s-.374-8.733-4.21-15.761-9.461-11.641-14.955-12.468-10.315,3.943-4.65,7.85,15.918,8.21,19.831,21.607Z" fill="#27debf"/>
            <g id="Grupo_1102380" data-name="Grupo 1102380" opacity="0.15">
              <g id="Grupo_1102379" data-name="Grupo 1102379">
                <g id="Grupo_1102378" data-name="Grupo 1102378" clip-path="url(#clip-path-6)">
                  <path id="Trazado_881694" data-name="Trazado 881694" d="M116.778,319.963s-.374-8.733-4.21-15.761-9.461-11.641-14.955-12.468-10.315,3.943-4.65,7.85,15.918,8.21,19.831,21.607Z"/>
                </g>
              </g>
            </g>
            <path id="Trazado_881695" data-name="Trazado 881695" d="M115.317,317.6a.259.259,0,0,0,.06-.013.3.3,0,0,0,.189-.373c-4.818-14.77-15.5-21.548-20.468-23.069a.3.3,0,0,0-.174.566C99.8,296.2,110.261,302.858,115,317.4a.3.3,0,0,0,.313.2" fill="#fff"/>
            <path id="Trazado_881696" data-name="Trazado 881696" d="M85.646,315.675a5.205,5.205,0,0,0,2.9,2.53,6.011,6.011,0,0,1,3.045,2.376c1.164,2.383-1.239,5.449.027,7.779a4.11,4.11,0,0,0,2.685,1.821,27.559,27.559,0,0,0,2.735.439,11.079,11.079,0,0,0,1.315-.009,5.953,5.953,0,0,1,3.76.671c1.748,1.151,2.145,3.488,3.125,5.338a8.665,8.665,0,0,0,5.86,4.278,6.03,6.03,0,0,0,3.186.014,1.317,1.317,0,0,0,.18-.1.082.082,0,0,0,.017-.013c.123-.121.279-.275.346-.36a.16.16,0,0,0,.037-.052c.406-1.165-.034-2.438.032-3.666,0-.077.007-.149.017-.222.151-1.422.291-2.837.425-4.257q.376-3.918.632-7.853c.1-1.7.438-3.55-.169-5.2-.673-1.818-2.652-2-3.279-3.779-.252-.71-.359-1.46-.6-2.178a6.109,6.109,0,0,0-4.933-3.988c-3.447-.419-6.75,2.163-10.188,1.665a26.175,26.175,0,0,1-2.613-.691c-2.766-.723-6.061-.153-7.8,2.107a3.641,3.641,0,0,0-.734,3.351" fill="#27debf"/>
            <path id="Trazado_881697" data-name="Trazado 881697" d="M115.527,334.959l.024,0a.3.3,0,0,0,.234-.346c-3.516-18.273-22.231-22.2-26.675-22.189a.3.3,0,1,0,0,.591c4.347-.007,22.653,3.832,26.094,21.71a.294.294,0,0,0,.322.238" fill="#fff"/>
            <path id="Trazado_881698" data-name="Trazado 881698" d="M95.171,324.391a.294.294,0,0,0,.162-.072,15.748,15.748,0,0,1,13.115-2.716.3.3,0,1,0,.128-.578,16.35,16.35,0,0,0-13.634,2.85.3.3,0,0,0-.027.417.3.3,0,0,0,.256.1" fill="#fff"/>
            <path id="Trazado_881699" data-name="Trazado 881699" d="M563.279,326.921c-.063-5.178,3.553-15.947,8.845-22.735s13.68-11.8,19.7-9.824c5.612,1.845,5.1,9.184-1.627,14.124s-16.842,11.166-19.723,19.6l-6.133,10.38Z" fill="#27debf"/>
            <g id="Grupo_1102383" data-name="Grupo 1102383" opacity="0.1">
              <g id="Grupo_1102382" data-name="Grupo 1102382">
                <g id="Grupo_1102381" data-name="Grupo 1102381" clip-path="url(#clip-path-7)">
                  <path id="Trazado_881700" data-name="Trazado 881700" d="M563.279,326.921c-.063-5.178,3.553-15.947,8.845-22.735s13.68-11.8,19.7-9.824c5.612,1.845,5.1,9.184-1.627,14.124s-16.842,11.166-19.723,19.6l-6.133,10.38Z"/>
                </g>
              </g>
            </g>
            <path id="Trazado_881701" data-name="Trazado 881701" d="M562.982,334.011a.378.378,0,0,0,.337-.308c3.255-17.716,17.38-32.254,25.9-35.531a.379.379,0,0,0,.217-.489.375.375,0,0,0-.489-.218c-8.682,3.339-23.068,18.116-26.372,36.1a.378.378,0,0,0,.3.44.367.367,0,0,0,.1,0" fill="#fff"/>
            <path id="Trazado_881702" data-name="Trazado 881702" d="M565.753,345.292c.8-2.92,4.294-7.766,10-11.8,6.308-4.465,14.333-6.58,16.148-10.018,2.179-4.13-1.326-7.966-7.85-7.077s-17.9,9.941-19.579,23.385Z" fill="#27debf"/>
            <path id="Trazado_881703" data-name="Trazado 881703" d="M564.453,342.253a.381.381,0,0,0,.323-.254c5.237-15.207,16.727-20.66,22.068-21.419a.377.377,0,0,0,.321-.428.372.372,0,0,0-.427-.321c-5.907.839-17.332,6.4-22.678,21.922a.378.378,0,0,0,.393.5" fill="#fff"/>
          </g>
        </g>
        <g id="Grupo_1102396" data-name="Grupo 1102396">
          <g id="Grupo_1102395" data-name="Grupo 1102395" clip-path="url(#clip-path-4)">
            <path id="Trazado_881704" data-name="Trazado 881704" d="M501.978,195.072c1.2.99,2.567,1.5,4.142,3.026a9.268,9.268,0,0,0,3.659,2.541c1.815.72,3.525.507,8.562-.3,6.163-.985,8.815-2.021,11.473-4.289,3.109-2.652,10.062-10.65,13.424-13.791,3.554-3.322,8.442-2.039,8.442-2.039a51,51,0,0,1-6.669,13.833c-2.693,3.833-7.722,7.5-10,9.394-3.64,3.029-5.574,4.226-13.572,4.827a82.581,82.581,0,0,1-11.773.455c-1.786-.053-2.9-.071-5.821-.314a17.154,17.154,0,0,1-3.752-.654,13.854,13.854,0,0,1-3.921-1.552,10.586,10.586,0,0,1-3.728-4.189,6.673,6.673,0,0,1-.7-3.016,4.44,4.44,0,0,1,1.087-2.858,1.224,1.224,0,0,1,.5-.369,1.475,1.475,0,0,1,1.088.233,63.908,63.908,0,0,0,5.775,3.065c1.673.644,2.943.868,2.819.531s-1.133-.647-2.171-1.817c-.991-1.117-1.3-2.8-.627-3.31s.553-.4,1.751.592" fill="#ffa8a7"/>
            <path id="Trazado_881705" data-name="Trazado 881705" d="M553.114,180.194A9.227,9.227,0,0,0,547,179.53c-3.111.894-5.6,2.928-8.569,6.111s-7.972,8.333-7.972,8.333,2.464,6.24,8,8.456l11.612-10.742Z" fill="#aec2dd"/>
            <path id="Trazado_881707" data-name="Trazado 881707" d="M498.442,195.679l11-6.408a3.784,3.784,0,0,1,3.423-.013l10.5,5.431a3.78,3.78,0,0,1,1.723,2.958l.048,12.733a3.785,3.785,0,0,1-1.7,2.971l-11,6.408a3.784,3.784,0,0,1-3.423.012l-10.5-5.43a3.783,3.783,0,0,1-1.722-2.958l-.048-12.733a3.784,3.784,0,0,1,1.7-2.971" fill="#37474f"/>
            <g id="Grupo_1102391" data-name="Grupo 1102391" opacity="0.4">
              <g id="Grupo_1102390" data-name="Grupo 1102390">
                <g id="Grupo_1102389" data-name="Grupo 1102389" clip-path="url(#clip-path-9)">
                  <path id="Trazado_881708" data-name="Trazado 881708" d="M525.092,197.358c-.126-.876-.837-1.192-1.689-.692L512.4,203.074a3.677,3.677,0,0,0-1.412,1.7,3.979,3.979,0,0,1,.205-.414l-13.93-7.394a3.474,3.474,0,0,1,1.207-1.284l11-6.408a3.772,3.772,0,0,1,3.423-.013l10.505,5.43a3.813,3.813,0,0,1,1.7,2.669" fill="#455a64"/>
                </g>
              </g>
            </g>
            <path id="Trazado_881709" data-name="Trazado 881709" d="M496.789,211.382a3.783,3.783,0,0,0,1.723,2.958l10.5,5.431a3.829,3.829,0,0,0,3.131.126c-.8.307-1.419-.145-1.423-1.121l-.048-12.733a3.5,3.5,0,0,1,.495-1.689l-13.933-7.394a3.5,3.5,0,0,0-.495,1.689Z" fill="#263238"/>
            <rect id="Rectángulo_403575" data-name="Rectángulo 403575" width="7.04" height="12.051" transform="translate(563.133 322.762)" fill="#ffa8a7"/>
            <path id="Trazado_881710" data-name="Trazado 881710" d="M550.693,325.8l-7.036.242-.352-12.754,7.388-.241Z" fill="#ffa8a7"/>
            <path id="Trazado_881711" data-name="Trazado 881711" d="M573.171,232.774c0,6.722-1.188,45.824-1.188,45.824.164,1.935,2.026,5.374,2.171,12.341.21,10.105-3.681,37.848-3.681,37.848a9.261,9.261,0,0,1-7.838.155s-3.193-37.608-4.454-47.609c-1.1-8.729-2.969-32.442-2.969-32.442l-3.314,28.5a40.049,40.049,0,0,1,.872,11.188c-.329,4.626-1.632,33.271-1.632,33.271a9.611,9.611,0,0,1-8.128.622s-4.966-40.837-5.047-45.081c-.093-4.839,1.84-54.237,1.84-54.237Z" fill="#37474f"/>
            <path id="Trazado_881712" data-name="Trazado 881712" d="M568.546,183.32a6.472,6.472,0,0,1,3.392,3.531,16.522,16.522,0,0,1,1.031,6.084v13.794l.2,26.045c-10.1,5.326-22.95,5.682-33.73-2.191,0,0,.6-33.524.6-39.008q0-.372.019-.753a12.514,12.514,0,0,1,15.7-11.254l6.38,1.641Z" fill="#cadbf3"/>
            <path id="Trazado_881713" data-name="Trazado 881713" d="M519.558,209.193c1.324.814,2.75,1.125,4.523,2.42a9.262,9.262,0,0,0,3.977,2.007c1.9.46,16.821-4.582,19.589-6.715,5.618-4.329,10.478-12.489,13.182-15.585,2.228-2.55,4.756-6.388,7.5-6.405,4.538,1.374,3.511,8.124-.287,14.2a56.474,56.474,0,0,1-15.863,15.807c-3.273,2.148-18.351,6.04-23.36,6.367-1.524.1-2.651.441-5.553.854a12.293,12.293,0,0,1-3.614.193,15.682,15.682,0,0,1-4.292-1.309,10.6,10.6,0,0,1-4.275-3.63,6.661,6.661,0,0,1-1.108-2.889,4.441,4.441,0,0,1,.678-2.982,1.226,1.226,0,0,1,.449-.436,1.477,1.477,0,0,1,1.11.08,63.817,63.817,0,0,0,6.145,2.23c1.747.406,3.036.451,2.866.134s-1.212-.483-2.4-1.5c-1.137-.968-1.676-2.6-1.083-3.191s.493-.471,1.817.343" fill="#ffa8a7"/>
            <path id="Trazado_881714" data-name="Trazado 881714" d="M560.145,157.665a9.674,9.674,0,1,1-9.675-9.675,9.675,9.675,0,0,1,9.675,9.675" fill="#263238"/>
            <path id="Trazado_881715" data-name="Trazado 881715" d="M567.194,164.543s-1.568,7.366-2.2,8.576a3.336,3.336,0,0,1-1.928,1.554l.109-5.181Z" fill="#263238"/>
            <path id="Trazado_881716" data-name="Trazado 881716" d="M565.227,153.992a3.633,3.633,0,0,1,3.005,1.056c1.29,1.32.57,5.45-1.037,9.5l-2.954.339Z" fill="#263238"/>
            <path id="Trazado_881717" data-name="Trazado 881717" d="M563.356,164.885c.592.354,1.436-.784,2.167-1.548a2.569,2.569,0,0,1,4.3.7c1.211,2.553-1.05,5.927-2.927,6.517-3.233,1.015-3.719-1.06-3.719-1.06l-.24,12.024c-4.021,5.156-15.18,4.72-10.531-.666l.01-3.55a20.461,20.461,0,0,1-4.361.224c-2.378-.368-3.875-2.245-4.6-4.82-1.159-4.135-1.6-7.474-.615-15.608,1.078-8.914,11.446-9.007,17.045-5.483s3.465,13.272,3.465,13.272" fill="#ffa8a7"/>
            <path id="Trazado_881718" data-name="Trazado 881718" d="M563.355,165.881c.3.006,1.43-1.873,2.167-2.544,1.022-.93-.3-9.345-.3-9.345a3.985,3.985,0,0,0-.985-4.257c-1.4-1.54-3.738-1.711-7.73-2.339-2.095-.329-5.271-.915-7.362-1.3-2.5-.464-4.566-.956-6.329.576a4.433,4.433,0,0,0-1.225,4.963,4.618,4.618,0,0,0,2.507,2.3s1.089.966,4.878,1.427a55.876,55.876,0,0,0,10.5-.2c1.1-.15,1.334.915,1.926,3.824.52,2.553.951,6.882,1.952,6.9" fill="#263238"/>
            <path id="Trazado_881719" data-name="Trazado 881719" d="M565.221,154.646l3.58-1.922a1.972,1.972,0,0,0-2.71-.9,2.134,2.134,0,0,0-.87,2.818" fill="#263238"/>
            <path id="Trazado_881720" data-name="Trazado 881720" d="M552.419,177.3s5.31-1.07,7.165-2.057a6.114,6.114,0,0,0,2.567-2.538,8.385,8.385,0,0,1-1.458,2.994c-1.357,1.736-8.274,3.014-8.274,3.014Z" fill="#f28f8f"/>
            <path id="Trazado_881721" data-name="Trazado 881721" d="M552.678,163.557a1.065,1.065,0,1,0,1.064-1.108,1.083,1.083,0,0,0-1.064,1.108" fill="#263238"/>
            <path id="Trazado_881722" data-name="Trazado 881722" d="M553.807,159.54l2.276,1.256a1.364,1.364,0,0,0-.53-1.812,1.269,1.269,0,0,0-1.746.556" fill="#263238"/>
            <path id="Trazado_881723" data-name="Trazado 881723" d="M552.9,170.908l-2.429.911a1.274,1.274,0,0,0,1.65.8,1.358,1.358,0,0,0,.779-1.716" fill="#f28f8f"/>
            <path id="Trazado_881724" data-name="Trazado 881724" d="M543.5,160.426l2.076-1.6a1.259,1.259,0,0,0-1.8-.277,1.378,1.378,0,0,0-.271,1.876" fill="#263238"/>
            <path id="Trazado_881725" data-name="Trazado 881725" d="M544.137,163.255a1.065,1.065,0,1,0,1.064-1.109,1.08,1.08,0,0,0-1.064,1.109" fill="#263238"/>
            <path id="Trazado_881726" data-name="Trazado 881726" d="M549.558,162.245l-.349,6.4-3.341-1.139Z" fill="#f28f8f"/>
            <path id="Trazado_881727" data-name="Trazado 881727" d="M563.133,331.338v-1.007c-.674.294-2.239,6.265-5.032,8.812-2.22,2.026-5.249,4.365-6.02,6.623-.8,2.348,4.219,3.645,6.293,3.278,2.411-.427,6.589-2.125,7.637-3.7s1.54-3.9,2.392-5.048,2.817-2.44,3.278-3.775a8.5,8.5,0,0,0-.4-3.7c-.326-1.245-.68-2.614-1.105-2.5,0,.152,0,.768,0,.768a5.569,5.569,0,0,1-3.52,1.189c-1.03.04-3.528-.164-3.52-.95" fill="#263238"/>
            <path id="Trazado_881728" data-name="Trazado 881728" d="M543.582,323.867c-.365.013-.663.528-1.469,1.4a15.4,15.4,0,0,1-4.142,2.98c-2.636,1.319-7.76,3.349-10.08,4.394-1.449.653-1.381,2.4.117,3.4s5.114,1.714,9.456.743c2.365-.529,5.445-2.714,7.394-2.6s5.6.09,7.034-.9.863-3.11.457-4.929c-.444-1.986-1-5.084-1.656-4.948v.685c-.847,1.281-5.214,1.8-7.074.859Z" fill="#263238"/>
            <path id="Trazado_881729" data-name="Trazado 881729" d="M555.213,248.891a26.077,26.077,0,0,1-9.8-5.621s1.893,3.542,7.518,6.838l-.75,24.883Z" fill="#263238"/>
            <path id="Trazado_881730" data-name="Trazado 881730" d="M568.617,183.322c3.353,1.643,4.713,4.143,3.224,9.717-1.337,5-6.467,13.537-10.5,17.714,0,0-6.905-3.271-10.581-7.524,3.641-5.569,5.39-8.843,8.808-13.552s7.005-6.918,9.052-6.355" fill="#aec2dd"/>
          </g>
        </g>
        <g id="Grupo_1102416" data-name="Grupo 1102416">
          <g id="Grupo_1102448" data-name="Grupo 1102448">
            <path id="Trazado_881732" data-name="Trazado 881732" d="M135.728,186.559c3.709-.013,7.638-1.067,10.8,3.724s12.41,26.078,12.41,26.078-7.523,4.009-7.715,3.721-12.874-21.463-12.874-21.463Z" fill="#ffa8a7"/>
            <path id="Trazado_881733" data-name="Trazado 881733" d="M131.607,182.116h0a15.41,15.41,0,0,1-15.41-15.41v-1.574a13.06,13.06,0,0,1,13.06-13.06h4.7a13.06,13.06,0,0,1,13.06,13.06v1.574a15.41,15.41,0,0,1-15.41,15.41" fill="#605841"/>
            <path id="Trazado_881735" data-name="Trazado 881735" d="M109.607,183.72h0a7.171,7.171,0,0,0,7.171-7.171V162.291a7.172,7.172,0,0,0-7.171,7.171Z" fill="#605841"/>
            <path id="Trazado_881737" data-name="Trazado 881737" d="M147.478,338.313a41.816,41.816,0,0,0,6.025,5.24,2.574,2.574,0,0,1,.837.866c.284.59.725,2.053-1.969,2.993a10.018,10.018,0,0,1-8.313-.8c-2.213-1.385-2.311-4.266-4.4-5.909-1.547-1.218-3.479-1.53-4.729-3.12-.871-1.108-.644-2.582-.19-4.406.5-1.992.724-3.5,1.383-3.346l-.108.916c.822,1.313,5.085,1.7,6.982.794a78.012,78.012,0,0,0,4.48,6.769" fill="#263238"/>
            <path id="Trazado_881738" data-name="Trazado 881738" d="M149.347,340.176v-.014c-.64-.587-1.268-1.192-1.869-1.85A51.881,51.881,0,0,1,144,333.184a7.894,7.894,0,0,1-1.487-3.747c-.044-1.761.126-4.9.126-4.9l-6.313-.416-.31,6.623c-.163,1.5,1.078,2.834,3.276,4.728s4.989,6.311,6.979,7.422,3.412,1.07,4.261.5c.873-.586.959-1.035-1.184-3.225" fill="#ffa8a7"/>
            <path id="Trazado_881739" data-name="Trazado 881739" d="M126.454,344.625a41.818,41.818,0,0,0,6.025,5.24,2.574,2.574,0,0,1,.837.866c.284.59.725,2.053-1.969,2.993a10.017,10.017,0,0,1-8.313-.8c-2.213-1.385-2.311-4.266-4.4-5.909-1.548-1.218-3.479-1.53-4.729-3.12-.871-1.108-.644-2.582-.19-4.406.495-1.992.724-3.5,1.383-3.346l-.108.916c.822,1.313,5.085,1.7,6.982.794a78.012,78.012,0,0,0,4.48,6.769" fill="#263238"/>
            <path id="Trazado_881740" data-name="Trazado 881740" d="M128.323,346.487v-.014c-.64-.587-1.268-1.192-1.869-1.85a51.786,51.786,0,0,1-3.479-5.129,8.917,8.917,0,0,1-1.479-3.811c-.114-1.547-.034-4.763-.034-4.763l-6.313.034-.158,6.106c-.163,1.5,1.077,2.834,3.276,4.728s4.989,6.311,6.979,7.422,3.412,1.07,4.261.5c.873-.586.959-1.035-1.184-3.225" fill="#ffa8a7"/>
            <path id="Trazado_881741" data-name="Trazado 881741" d="M115.072,228.639c-5.5,12.02.756,57.6.756,57.6-.165,1.95-1.886,4.98-2.087,10.939-.258,7.647,1.1,35.89,1.1,35.89a7.974,7.974,0,0,0,7.2.143s6.517-38.336,7.789-48.421c1.11-8.8,3.241-29.49,3.241-29.49l4.383,29.442a28.411,28.411,0,0,0-2.369,9.352c-.157,5.958.722,33.608.722,33.608a16.668,16.668,0,0,0,7.317.251s6.629-37.418,7.252-44.557c.372-4.265-2.815-56.553-2.815-56.553Z" fill="#37474f"/>
            <path id="Trazado_881742" data-name="Trazado 881742" d="M133.071,255.295l1.787-9.829s7.558-1.566,10.986-4.788a19.555,19.555,0,0,1-8.938,5.939l-2.007,8.6,1.983,25.688Z" fill="#263238"/>
            <path id="Trazado_881743" data-name="Trazado 881743" d="M125.813,186.839h0c-4.828.667-7.417,1.733-8.976,6.271a17.7,17.7,0,0,0,.282,10.3l4.22,12.333a66.461,66.461,0,0,0-6.268,12.893c12.339,6.887,28.78,3.224,32.489-1.8.157-1.066-.843-6.219-.543-11.686.319-5.829,1.255-12.524.338-16.127-1.7-6.689-6.371-11.057-11.628-12.466Z" fill="#f5f5f5"/>
            <path id="Trazado_881744" data-name="Trazado 881744" d="M122.934,199.781c-.21,3.172-1.168,11.89-1.168,11.89l4.044,6.392-4.471-2.318-3.965-11.587Z" fill="#e6e6e6"/>
            <path id="Trazado_881745" data-name="Trazado 881745" d="M141.83,158.458c1.668.986,3.729,5.181,3.526,13.974-.173,7.454-2.589,9.295-3.8,9.825s-3.553.208-5.827-.171v4.473s3.143,3.651,2.945,5.7-4.539,2.536-7.48.532a19.016,19.016,0,0,1-4.827-5.053V176.927a2.855,2.855,0,0,1-4.047.383c-2.512-1.668-2.607-5.8-1.147-7.278s4.607-1.013,5.194,1.035a17.98,17.98,0,0,0,8.457-2.521,13.574,13.574,0,0,0,7.007-10.088" fill="#ffa8a7"/>
            <path id="Trazado_881746" data-name="Trazado 881746" d="M137.034,170.56a.938.938,0,1,1-.985-.928.953.953,0,0,1,.985.928" fill="#263238"/>
            <path id="Trazado_881747" data-name="Trazado 881747" d="M137.285,176.878l2.176.694a1.123,1.123,0,0,1-1.416.781,1.2,1.2,0,0,1-.76-1.475" fill="#f28f8f"/>
            <path id="Trazado_881748" data-name="Trazado 881748" d="M144.719,167.682l-1.9-1.314a1.107,1.107,0,0,1,1.575-.324,1.213,1.213,0,0,1,.321,1.638" fill="#27debf"/>
            <g id="Grupo_1102405" data-name="Grupo 1102405" opacity="0.2">
              <g id="Grupo_1102404" data-name="Grupo 1102404">
                <g id="Grupo_1102403" data-name="Grupo 1102403" clip-path="url(#clip-path-10)">
                  <path id="Trazado_881749" data-name="Trazado 881749" d="M144.719,167.682l-1.9-1.314a1.107,1.107,0,0,1,1.575-.324,1.213,1.213,0,0,1,.321,1.638"/>
                </g>
              </g>
            </g>
            <path id="Trazado_881750" data-name="Trazado 881750" d="M144.282,169.882a.938.938,0,1,1-.985-.928.953.953,0,0,1,.985.928" fill="#263238"/>
            <path id="Trazado_881751" data-name="Trazado 881751" d="M139.86,169.346l.149,5.642,2.969-.92Z" fill="#f28f8f"/>
            <path id="Trazado_881752" data-name="Trazado 881752" d="M135.728,182.086c-2.4-.314-7.328-1.731-8.1-3.68a5.051,5.051,0,0,0,1.73,2.487c1.472,1.263,6.367,2.685,6.367,2.685Z" fill="#f28f8f"/>
            <path id="Trazado_881753" data-name="Trazado 881753" d="M175.209,205.238l-25.558,6.731-7.544,31.719,24.3-7.058Z" fill="#aec2dd"/>
            <g id="Grupo_1102408" data-name="Grupo 1102408" opacity="0.1">
              <g id="Grupo_1102407" data-name="Grupo 1102407">
                <g id="Grupo_1102406" data-name="Grupo 1102406" clip-path="url(#clip-path-11)">
                  <path id="Trazado_881754" data-name="Trazado 881754" d="M164.066,226.226c.237.648,1.636,2.446,4.611,2.3l.368-1.311Z"/>
                </g>
              </g>
            </g>
            <g id="Grupo_1102411" data-name="Grupo 1102411" opacity="0.1">
              <g id="Grupo_1102410" data-name="Grupo 1102410">
                <g id="Grupo_1102409" data-name="Grupo 1102409" clip-path="url(#clip-path-12)">
                  <path id="Trazado_881755" data-name="Trazado 881755" d="M158.355,227.218c-.113.845-1.852,2.411-4.789,3.391-3.343,1.114-8.472.524-8.472.524l.459-1.577Z"/>
                </g>
              </g>
            </g>
            <g id="Grupo_1102414" data-name="Grupo 1102414" opacity="0.1">
              <g id="Grupo_1102413" data-name="Grupo 1102413">
                <g id="Grupo_1102412" data-name="Grupo 1102412" clip-path="url(#clip-path-13)">
                  <path id="Trazado_881756" data-name="Trazado 881756" d="M167.727,209.831s.094-.437.211-.975-1.384-.561-3.35-.051l-3.766.976c-1.966.51-3.655,1.36-3.771,1.9l-.211.975Z"/>
                </g>
              </g>
            </g>
            <path id="Trazado_881757" data-name="Trazado 881757" d="M169.5,206.154c.074-.336-.534-.425-1.357-.2l-1.491.412s.444-2.108-2.865-1.372a5.187,5.187,0,0,0-4.032,3.131l-1.592.452c-.879.25-1.676.724-1.78,1.059l-.188.606,13.165-3.466s.066-.289.14-.625" fill="#37474f"/>
            <path id="Trazado_881758" data-name="Trazado 881758" d="M167.685,207.207c-1.206.291-1.708.451-1.888,1.281-.206.948-.29,1.643-.29,1.643l-5.827,1.54s.282-1.2.372-1.668-.109-.749-1.036-.5l-.078-.371,9.13-2.325Z" fill="#37474f"/>
            <path id="Trazado_881759" data-name="Trazado 881759" d="M167.886,209.923s.094-.437.211-.975-1.384-.561-3.35-.051l-3.766.976c-1.966.51-3.655,1.36-3.771,1.9l-.211.975Z" fill="#37474f"/>
            <path id="Trazado_881760" data-name="Trazado 881760" d="M113.715,225.179l4.665-7.778s20.468,6,22.5,6.156a5.331,5.331,0,0,0,5.067-3.272c.775-2,2.14-1.747,2.14-1.747s-.6,2.529-.794,3.337,4.681,1.472,7.384.557,6.615.413,4.191,4.093-7.136,4.105-10.41,4.107a34.43,34.43,0,0,1-4.094-.273c-1.059-.138-2.113-.245-3.178-.321-6.7-.477-24.426-3.9-27.472-4.859" fill="#ffa8a7"/>
            <path id="Trazado_881761" data-name="Trazado 881761" d="M172.609,214.511s-.916,3.265-1.134,4.044-3.19,2.2-5.069,2.711-3.933,1.128-3.044,3.755c.82,2.422,3.911,2.975,5.485,2.906s3.729-1.572,4.577-4c1.083-3.093.5-6.4.93-8.2s-.8-2.292-1.745-1.215" fill="#ffa8a7"/>
            <path id="Trazado_881762" data-name="Trazado 881762" d="M118.38,217.4l4.094-15.556s2.354-8.428,0-14.346c0,0-1.945-.7-4.913,1.757s-4.6,7.983-5.629,12.486-3.152,19.343-2.906,20.878,3.012,2.5,11.193,4.04Z" fill="#ffa8a7"/>
          </g>
        </g>
        <g id="Grupo_1102445" data-name="Grupo 1102445">
          <g id="Grupo_1102444" data-name="Grupo 1102444" transform="translate(-141 -23.497)" clip-path="url(#clip-path-14)">
            <path id="Trazado_881763" data-name="Trazado 881763" d="M360.5,231.6c-19.838,0-35.918,6-35.918,13.407v32.315c0,7.4,16.08,13.406,35.918,13.406s35.92-6,35.92-13.406V245.009c0-7.4-16.083-13.407-35.92-13.407" transform="translate(121.245 86.514)" fill="#ebebeb"/>
            <path id="Trazado_881764" data-name="Trazado 881764" d="M360.5,231.6c-19.838,0-35.918,6-35.918,13.407v32.315c0,7.4,16.08,13.406,35.918,13.406s35.92-6,35.92-13.406V245.009c0-7.4-16.083-13.407-35.92-13.407" transform="translate(121.245 86.514)" fill="#e6d09e"/>
            <g id="Grupo_1102419" data-name="Grupo 1102419" transform="translate(445.823 318.928)" opacity="0.1">
              <g id="Grupo_1102418" data-name="Grupo 1102418" transform="translate(0 -0.192)">
                <g id="Grupo_1102417" data-name="Grupo 1102417" clip-path="url(#clip-path-15)">
                  <path id="Trazado_881765" data-name="Trazado 881765" d="M324.578,244.979v32.315c0,6,10.553,11.074,25.106,12.787V232.193c-14.553,1.713-25.106,6.789-25.106,12.786" transform="translate(-324.578 -232.193)"/>
                </g>
              </g>
            </g>
            <path id="Trazado_881766" data-name="Trazado 881766" d="M430.431,284.348c.262-.357,99.519-135.864,99.519-135.864s-50.165,27.472-140.887,27.472a420.53,420.53,0,0,1-48.707-2.773c-59.79-6.972-92.182-24.7-92.182-24.7l99.449,135.835.018.029h0c6.1,8.3,22.328,14.233,41.393,14.233S424.33,292.646,430.431,284.348Z" transform="translate(92.704 55.465)" fill="#ebebeb"/>
            <path id="Trazado_881767" data-name="Trazado 881767" d="M316.963,183.515l-15.042-16.866c-35.094-7.968-53.747-18.165-53.747-18.165l99.449,135.835.018.029h0c4.906,6.673,16.366,11.81,30.579,13.569Z" transform="translate(92.704 55.465)" fill="#e0e0e0"/>
            <path id="Trazado_881768" data-name="Trazado 881768" d="M524.217,78.437C493.89,63.577,455.309,55.229,415.682,53.4l-.019-.01C364.9,51.069,312.5,59.406,273.643,78.449c-69.19,33.913-69.179,88.881,0,122.781,15.833,7.758,33.9,13.733,53.186,17.948,47.521,10.347,102.43,9.944,149.373-1.2q9.929-2.34,19.311-5.338c2.6-.826,5.185-1.7,7.712-2.6l.011-.016c3.6-1.286,7.12-2.634,10.546-4.073,3.567-1.5,7.052-3.058,10.422-4.717,69.19-33.911,69.209-88.886.01-122.8" transform="translate(82.836 19.803)" fill="#e6d09e"/>
            <g id="Grupo_1102422" data-name="Grupo 1102422" transform="translate(304.592 72.817)" opacity="0.1">
              <g id="Grupo_1102421" data-name="Grupo 1102421">
                <g id="Grupo_1102420" data-name="Grupo 1102420" clip-path="url(#clip-path-16)">
                  <path id="Trazado_881769" data-name="Trazado 881769" d="M415.663,53.394C364.9,51.069,312.5,59.406,273.643,78.449c-69.19,33.913-69.179,88.881,0,122.781,15.833,7.758,33.9,13.733,53.186,17.948l.011-.016c-6.608-7.826-10.969-26.452,1.743-27.6-17.227-3.832-33.232-9.164-47.132-15.977-19.886-9.744-33.368-21.371-39.031-33.623-4.82-10.455-3.7-21.026,3.378-31.388,6.836-10.087,19.186-19.66,35.613-27.73,33.048-16.2,77.934-23.979,122.342-23.337,0,0-1-4.711,11.907-6.111" transform="translate(-221.756 -53.014)"/>
                </g>
              </g>
            </g>
            <path id="Trazado_881770" data-name="Trazado 881770" d="M511.248,81.085C480.692,66.112,440,58.313,398.931,57.749c-44.41-.641-89.293,7.138-122.34,23.338-16.428,8.071-28.777,17.643-35.613,27.73-7.074,10.361-8.2,20.933-3.378,31.388,5.663,12.252,19.145,23.879,39.031,33.623,13.9,6.811,29.9,12.145,47.132,15.977,6.5,1.457,13.182,2.695,19.985,3.714a326.964,326.964,0,0,0,36.432,3.375q3.8.144,7.581.21c4.2.088,8.423.1,12.613.012a330.3,330.3,0,0,0,42.449-3.412c.139-.018.321-.059.481-.067,9.185-1.363,18.123-3.107,26.731-5.229q9.288-2.3,17.984-5.188,3.645-1.2,7.173-2.523,4.222-1.6,8.307-3.329c2.633-1.133,5.2-2.321,7.708-3.537,16.506-8.075,28.8-17.675,35.675-27.744,15.189-22.331,1.842-46.637-35.634-65" transform="translate(87.66 21.558)" fill="#f5f5f5"/>
            <path id="Trazado_881771" data-name="Trazado 881771" d="M375.516,127.486c-41.6,0-77.1,12.737-91.146,30.667q10.04,3.177,20.826,5.589c6.505,1.456,13.183,2.695,19.986,3.713a326.616,326.616,0,0,0,36.431,3.376q3.8.144,7.582.21c4.2.088,8.421.1,12.612.012a330.278,330.278,0,0,0,42.449-3.412c.14-.018.321-.059.481-.067,9.186-1.363,18.124-3.107,26.732-5.229q7.774-1.924,15.128-4.272c-14.088-17.889-49.542-30.587-91.081-30.587" transform="translate(106.225 47.622)" fill="#ebebeb"/>
            <path id="Trazado_881772" data-name="Trazado 881772" d="M401.277,71.173a39.119,39.119,0,1,1-39.119-39.119,39.119,39.119,0,0,1,39.119,39.119" transform="translate(120.67 11.974)" fill="#27debf"/>
            <g id="Grupo_1102425" data-name="Grupo 1102425" transform="translate(443.71 47.674)" opacity="0.1">
              <g id="Grupo_1102424" data-name="Grupo 1102424">
                <g id="Grupo_1102423" data-name="Grupo 1102423" clip-path="url(#clip-path-17)">
                  <path id="Trazado_881773" data-name="Trazado 881773" d="M351.247,84.258c-18.634-13.494-20.158-40.01-5.583-49.548a39.118,39.118,0,1,0,55.614,35.47c-1.49,18.848-31.4,27.571-50.03,14.077" transform="translate(-323.04 -34.709)"/>
                </g>
              </g>
            </g>
            <path id="Trazado_881774" data-name="Trazado 881774" d="M361.013,124.04a45.986,45.986,0,1,1-45.986-45.986,45.985,45.985,0,0,1,45.986,45.986" transform="translate(100.499 29.157)" fill="#8dc9f6"/>
            <g id="Grupo_1102428" data-name="Grupo 1102428" transform="translate(369.539 111.498)" opacity="0.1">
              <g id="Grupo_1102427" data-name="Grupo 1102427">
                <g id="Grupo_1102426" data-name="Grupo 1102426" clip-path="url(#clip-path-18)">
                  <path id="Trazado_881775" data-name="Trazado 881775" d="M302.2,139.423c-21.905-15.862-23.7-47.034-6.563-58.247a45.986,45.986,0,1,0,65.377,41.7c-1.751,22.157-36.909,32.41-58.814,16.548" transform="translate(-269.04 -81.175)"/>
                </g>
              </g>
            </g>
            <path id="Trazado_881776" data-name="Trazado 881776" d="M462.09,138.579a52.525,52.525,0,1,1-52.525-52.525,52.524,52.524,0,0,1,52.525,52.525" transform="translate(119.577 17.862)" fill="#d9eb73"/>
            <g id="Grupo_1102431" data-name="Grupo 1102431" transform="translate(476.617 108.813)" opacity="0.1">
              <g id="Grupo_1102430" data-name="Grupo 1102430" transform="translate(0 0)">
                <g id="Grupo_1102429" data-name="Grupo 1102429" clip-path="url(#clip-path-19)">
                  <path id="Trazado_881777" data-name="Trazado 881777" d="M394.914,155.7c-25.02-18.117-27.066-53.722-7.5-66.528A52.525,52.525,0,1,0,462.09,136.8c-2,25.307-42.156,37.018-67.176,18.9" transform="translate(-357.041 -89.174)"/>
                </g>
              </g>
            </g>
            <path id="Trazado_881778" data-name="Trazado 881778" d="M516.116,73a60.558,60.558,0,1,1-60.558-60.558A60.558,60.558,0,0,1,516.116,73" transform="translate(142.828 11.974)" fill="#c7dbf6"/>
            <path id="Trazado_881779" data-name="Trazado 881779" d="M438.667,92.758c-28.846-20.888-31.2-61.938-8.643-76.7a60.558,60.558,0,1,0,86.092,54.912c-2.306,29.177-48.6,42.68-77.449,21.792" transform="translate(142.828 14.003)" fill="#bbd0ec"/>
            <path id="Trazado_881780" data-name="Trazado 881780" d="M342.179,53.8A48.387,48.387,0,1,1,293.792,5.413,48.387,48.387,0,0,1,342.179,53.8" transform="translate(86.671 25.47)" fill="#a0f1f1"/>
            <path id="Trazado_881781" data-name="Trazado 881781" d="M280.3,69.986C257.246,53.3,255.362,20.5,273.39,8.7a48.387,48.387,0,1,0,68.79,43.875c-1.843,23.313-38.836,34.1-61.884,17.412" transform="translate(86.67 26.697)" fill="#8fd1d1"/>
            <path id="Trazado_881782" data-name="Trazado 881782" d="M251.35,81.781l4.534-10.155a3.211,3.211,0,0,1,2.424-1.716l10.237-1.284a3.388,3.388,0,0,1,2.736,1.3l6.549,9.248a3.381,3.381,0,0,1,.313,3.012l-4.535,10.155a3.214,3.214,0,0,1-2.424,1.717l-10.237,1.283a3.389,3.389,0,0,1-2.738-1.3l-6.546-9.248a3.381,3.381,0,0,1-.313-3.012" transform="translate(85.809 57.852)" fill="#a18e64"/>
            <path id="Trazado_881788" data-name="Trazado 881788" d="M251.35,81.781l4.534-10.155a3.211,3.211,0,0,1,2.424-1.716l10.237-1.284a3.388,3.388,0,0,1,2.736,1.3l6.549,9.248a3.381,3.381,0,0,1,.313,3.012l-4.535,10.155a3.214,3.214,0,0,1-2.424,1.717l-10.237,1.283a3.389,3.389,0,0,1-2.738-1.3l-6.546-9.248a3.381,3.381,0,0,1-.313-3.012" transform="translate(340.795 80.396)" fill="#a18e64"/>
            <g id="Grupo_1102434" data-name="Grupo 1102434" transform="translate(336.958 139.605)" opacity="0.1">
              <g id="Grupo_1102433" data-name="Grupo 1102433">
                <g id="Grupo_1102432" data-name="Grupo 1102432" clip-path="url(#clip-path-20)">
                  <path id="Trazado_881783" data-name="Trazado 881783" d="M258.205,90.47a3.389,3.389,0,0,0,2.738,1.3l10.236-1.283a3.248,3.248,0,0,0,2.288-1.47c-.413.625-1.082.6-1.584-.107l-6.549-9.248a3.181,3.181,0,0,1-.512-1.477l-13.678,1.564a3.181,3.181,0,0,0,.512,1.477Z" transform="translate(-251.144 -78.181)" fill="#e6d09e"/>
                </g>
              </g>
            </g>
            <g id="Grupo_1102449" data-name="Grupo 1102449" transform="translate(591.945 162.148)" opacity="0.1">
              <g id="Grupo_1102433-2" data-name="Grupo 1102433">
                <g id="Grupo_1102432-2" data-name="Grupo 1102432" clip-path="url(#clip-path-20)">
                  <path id="Trazado_881783-2" data-name="Trazado 881783" d="M258.205,90.47a3.389,3.389,0,0,0,2.738,1.3l10.236-1.283a3.248,3.248,0,0,0,2.288-1.47c-.413.625-1.082.6-1.584-.107l-6.549-9.248a3.181,3.181,0,0,1-.512-1.477l-13.678,1.564a3.181,3.181,0,0,0,.512,1.477Z" transform="translate(-251.144 -78.181)" fill="#e6d09e"/>
                </g>
              </g>
            </g>
            <g id="Grupo_1102437" data-name="Grupo 1102437" transform="translate(336.955 126.46)" opacity="0.4">
              <g id="Grupo_1102436" data-name="Grupo 1102436">
                <g id="Grupo_1102435" data-name="Grupo 1102435" clip-path="url(#clip-path-22)">
                  <path id="Trazado_881784" data-name="Trazado 881784" d="M271.13,69.715c-.54-.576-1.206-.451-1.553.339l-4.538,10.155a3.256,3.256,0,0,0-.135,1.941c-.027-.132-.051-.268-.066-.4l-13.675,1.563a3.075,3.075,0,0,1,.2-1.537L255.9,71.619A3.2,3.2,0,0,1,258.32,69.9l10.24-1.286a3.4,3.4,0,0,1,2.57,1.1" transform="translate(-251.142 -68.611)" fill="#e6d09e"/>
                </g>
              </g>
            </g>
            <g id="Grupo_1102450" data-name="Grupo 1102450" transform="translate(591.942 149.004)" opacity="0.4">
              <g id="Grupo_1102436-2" data-name="Grupo 1102436">
                <g id="Grupo_1102435-2" data-name="Grupo 1102435" clip-path="url(#clip-path-22)">
                  <path id="Trazado_881784-2" data-name="Trazado 881784" d="M271.13,69.715c-.54-.576-1.206-.451-1.553.339l-4.538,10.155a3.256,3.256,0,0,0-.135,1.941c-.027-.132-.051-.268-.066-.4l-13.675,1.563a3.075,3.075,0,0,1,.2-1.537L255.9,71.619A3.2,3.2,0,0,1,258.32,69.9l10.24-1.286a3.4,3.4,0,0,1,2.57,1.1" transform="translate(-251.142 -68.611)" fill="#e6d09e"/>
                </g>
              </g>
            </g>
            <path id="Trazado_881785" data-name="Trazado 881785" d="M379.633,2.247,397.1.027A5.235,5.235,0,0,1,401.47,1.86l10.442,12.584a5.235,5.235,0,0,1,.6,4.7l-6.813,16.239a5.235,5.235,0,0,1-3.769,2.865l-17.471,2.22a5.234,5.234,0,0,1-4.365-1.832L369.648,26.048a5.232,5.232,0,0,1-.6-4.7l6.814-16.239a5.233,5.233,0,0,1,3.769-2.865" transform="translate(137.742 0)" fill="#e6d09e"/>
            <g id="Grupo_1102440" data-name="Grupo 1102440" transform="translate(506.483 3.228)" opacity="0.1">
              <g id="Grupo_1102439" data-name="Grupo 1102439">
                <g id="Grupo_1102438" data-name="Grupo 1102438" clip-path="url(#clip-path-24)">
                  <path id="Trazado_881786" data-name="Trazado 881786" d="M369.051,20.473a5.237,5.237,0,0,0,.6,4.7l10.442,12.583a5.292,5.292,0,0,0,3.919,1.853c-1.19-.043-1.729-.95-1.207-2.2l6.814-16.239a4.851,4.851,0,0,1,1.541-1.883L377.406,2.35a4.848,4.848,0,0,0-1.541,1.883Z" transform="translate(-368.741 -2.35)" fill="#ac945b"/>
                </g>
              </g>
            </g>
            <g id="Grupo_1102443" data-name="Grupo 1102443" transform="translate(515.177 0.014)" opacity="0.4">
              <g id="Grupo_1102442" data-name="Grupo 1102442">
                <g id="Grupo_1102441" data-name="Grupo 1102441" clip-path="url(#clip-path-25)">
                  <path id="Trazado_881787" data-name="Trazado 881787" d="M410.3,18.769c.312-1.184-.422-1.97-1.777-1.792l-17.474,2.217a5.086,5.086,0,0,0-2.714,1.4,5.637,5.637,0,0,1,.483-.416L375.071,3.24a4.808,4.808,0,0,1,2.229-.982L394.768.036a5.223,5.223,0,0,1,4.366,1.832l10.444,12.586a5.268,5.268,0,0,1,.72,4.314" transform="translate(-375.071 -0.01)" fill="#ac945b"/>
                </g>
              </g>
            </g>
          </g>
        </g>
      </g>
    </g>
    <text id="Empatía" transform="translate(756 1013)" fill="#12263f" font-size="16" font-family="SegoeUI-Bold, Segoe UI" font-weight="700"><tspan x="0" y="0">Empatía</tspan></text>
    <text id="Técnicas" transform="translate(688 1085)" fill="#12263f" font-size="16" font-family="SegoeUI-Bold, Segoe UI" font-weight="700"><tspan x="0" y="0">Técnicas</tspan></text>
    <text id="Autoestima" transform="translate(642 1007)" fill="#12263f" font-size="16" font-family="SegoeUI-Bold, Segoe UI" font-weight="700"><tspan x="0" y="0">Autoestima</tspan></text>
    <text id="Regulación_emocional" data-name="Regulación
emocional" transform="translate(794 1080)" fill="#12263f" font-size="16" font-family="SegoeUI-Bold, Segoe UI" font-weight="700"><tspan x="0" y="0">Regulación</tspan><tspan x="0" y="21">emocional</tspan></text>
    <text id="Comunicación_asertiva" data-name="Comunicación
asertiva" transform="translate(903 1007)" fill="#12263f" font-size="16" font-family="SegoeUI-Bold, Segoe UI" font-weight="700"><tspan x="-53.148" y="0">Comunicación</tspan><tspan x="-29.473" y="21">asertiva</tspan></text>
    <path id="Unión_13" data-name="Unión 13" d="M3327,11743.669a13,13,0,0,1-13-13v-2.623a13,13,0,0,1,13-13h95.241l10.092-15.043,9.784,15.043H3537a13,13,0,0,1,13,13v2.623a13,13,0,0,1-13,13Z" transform="translate(-2646.501 -10398.668)" fill="#3d5756"/>
    <text id="Trabajo_en_equipo" data-name="Trabajo en equipo" transform="translate(711 1338)" fill="#fff" font-size="18" font-family="SegoeUI-Bold, Segoe UI" font-weight="700"><tspan x="0" y="0">Trabajo en equipo</tspan></text>
  </g>
</svg>
