<svg xmlns="http://www.w3.org/2000/svg" width="80.243" height="63.861" viewBox="0 0 80.243 63.861">
  <path id="inspirador" d="M14.483,100.407A7.793,7.793,0,1,0,6.69,92.613,7.8,7.8,0,0,0,14.483,100.407Zm0-13.078A5.284,5.284,0,1,1,9.2,92.613,5.291,5.291,0,0,1,14.483,87.329ZM69.71,100.412H61.763a10.471,10.471,0,0,0-8.48,4.311,12.512,12.512,0,0,0-8.317-3.156h-9.71a12.518,12.518,0,0,0-8.318,3.158,10.467,10.467,0,0,0-8.483-4.313H10.507A10.53,10.53,0,0,0-.01,110.929v7.855a2.667,2.667,0,0,0,2.663,2.667H22.686v7.111a2.983,2.983,0,0,0,2.979,2.979H54.558a2.983,2.983,0,0,0,2.979-2.979v-7.111H77.566a2.67,2.67,0,0,0,2.667-2.667v-7.855A10.533,10.533,0,0,0,69.71,100.412ZM41.446,113.284l-1.335,2.366-1.335-2.366.857-9.207h.951ZM21.211,118.94v-7.372a1.255,1.255,0,1,0-2.511,0v7.372H10.261v-7.372a1.255,1.255,0,1,0-2.511,0v7.372h-5.1a.162.162,0,0,1-.154-.158v-7.855a8.016,8.016,0,0,1,8.007-8.007h7.947a7.973,7.973,0,0,1,6.736,3.692,12.507,12.507,0,0,0-2.5,7.522v4.8Zm33.815,9.62a.475.475,0,0,1-.469.469H48.052V114.913a1.255,1.255,0,1,0-2.511,0v14.116H34.674V114.913a1.255,1.255,0,1,0-2.511,0v14.116h-6.5a.475.475,0,0,1-.469-.469V114.135a10.018,10.018,0,0,1,2.388-6.5,1.245,1.245,0,0,0,.127-.146,10.036,10.036,0,0,1,7.544-3.416h1.857l-.871,9.365a1.261,1.261,0,0,0,.157.733l2.62,4.647a1.256,1.256,0,0,0,2.186,0l2.62-4.647a1.258,1.258,0,0,0,.157-.733l-.876-9.365h1.86a10.036,10.036,0,0,1,7.51,3.376,1.206,1.206,0,0,0,.177.2,10.015,10.015,0,0,1,2.374,6.48Zm22.7-9.778a.162.162,0,0,1-.158.158h-5.1v-7.372a1.255,1.255,0,0,0-2.511,0v7.372H61.515v-7.372a1.255,1.255,0,0,0-2.511,0v7.372h-1.47v-4.8a12.5,12.5,0,0,0-2.507-7.524,7.982,7.982,0,0,1,6.734-3.691h7.947a8.018,8.018,0,0,1,8.011,8.007v7.855ZM65.739,100.407a7.793,7.793,0,1,0-7.793-7.793A7.8,7.8,0,0,0,65.739,100.407Zm0-13.078a5.284,5.284,0,1,1-5.284,5.284A5.291,5.291,0,0,1,65.739,87.329ZM33.33,91.018c.218.243.442.494.658.748a3.948,3.948,0,0,1,.928,1.912c0,.027.008.055.013.08a4.517,4.517,0,0,1,.053.694V95.97a4.545,4.545,0,0,0,4.538,4.542H40.7a4.547,4.547,0,0,0,4.542-4.542V94.452a3.924,3.924,0,0,1,.992-2.686c.219-.257.445-.509.663-.754,1.464-1.638,2.978-3.332,2.978-6.906a9.764,9.764,0,0,0-19.528,0c0,3.579,1.52,5.273,2.987,6.913ZM40.7,98H39.52a2.032,2.032,0,0,1-2.028-2.033V94.756h5.237V95.97A2.034,2.034,0,0,1,40.7,98Zm-.586-21.149a7.261,7.261,0,0,1,7.253,7.253c0,2.617-.981,3.714-2.34,5.234-.227.254-.462.517-.7.795A6.584,6.584,0,0,0,43.1,92.247h-1.73V87.016l.733-.733a1.255,1.255,0,0,0-1.774-1.776l-.215.215-.215-.215a1.255,1.255,0,1,0-1.776,1.774l.735.735v5.231H37.124A6.629,6.629,0,0,0,35.9,90.136c-.238-.277-.472-.539-.7-.791-1.362-1.52-2.346-2.619-2.346-5.237a7.267,7.267,0,0,1,7.259-7.253Zm-1.255-5.032V68.935a1.255,1.255,0,0,1,2.511,0v2.888a1.255,1.255,0,1,1-2.511,0Zm9.052,4.487a1.253,1.253,0,0,1,0-1.774l2.044-2.044a1.254,1.254,0,0,1,1.774,1.774l-2.044,2.044a1.252,1.252,0,0,1-1.774,0Zm4.487,6.541h2.888a1.255,1.255,0,0,1,0,2.511H52.394a1.255,1.255,0,1,1,0-2.511Zm-23.9-8.586a1.255,1.255,0,0,1,1.776-1.774l2.039,2.044a1.256,1.256,0,0,1-1.777,1.774Zm-4.813,9.842a1.255,1.255,0,0,1,1.255-1.255h2.888a1.255,1.255,0,1,1,0,2.511H24.936A1.256,1.256,0,0,1,23.681,84.105Z" transform="translate(0.01 -67.68)" fill="#fff"/>
</svg>
