<svg xmlns="http://www.w3.org/2000/svg" width="66.545" height="66.549" viewBox="0 0 66.545 66.549">
  <g id="Layer_21" data-name="Layer 21" transform="translate(0 0.003)">
    <path id="Trazado_998058" data-name="Trazado 998058" d="M16.22,34.762a1.273,1.273,0,0,1-.693-.373L9.874,28.743a4.26,4.26,0,0,0-5.882,0l-.238.238a4.116,4.116,0,0,0-.98,1.554V22.217a4.328,4.328,0,0,1,.029-.5,1.187,1.187,0,0,1,1.357-1.084,1.4,1.4,0,0,1,1.386,1.4V23.6a1.386,1.386,0,1,0,2.773,0V22.024a4.12,4.12,0,0,0-3.99-4.159A3.952,3.952,0,0,0,.05,21.385a6.932,6.932,0,0,0-.05.832V39.329a6.887,6.887,0,0,0,2.03,4.9l6.288,6.287v7.744A1.386,1.386,0,0,0,9.7,59.648H20.8a1.386,1.386,0,0,0,1.386-1.386V41.626A6.957,6.957,0,0,0,16.22,34.762Zm3.189,22.114H11.091V49.944a1.386,1.386,0,0,0-.406-.98L3.99,42.271a4.135,4.135,0,0,1-1.217-2.942V33.308a4.127,4.127,0,0,0,.98,1.557l4.971,4.971a1.386,1.386,0,1,0,1.96-1.96L5.715,32.9a1.386,1.386,0,0,1,0-1.96l.238-.238a1.415,1.415,0,0,1,1.96,0l5.645,5.647a4.045,4.045,0,0,0,2.274,1.158,4.173,4.173,0,0,1,3.577,4.119Z" transform="translate(0 6.898)" fill="#fff"/>
    <path id="Trazado_998059" data-name="Trazado 998059" d="M54.132,21.385a3.95,3.95,0,0,0-4.278-3.52,4.12,4.12,0,0,0-3.99,4.159V23.6a1.386,1.386,0,0,0,2.773,0V22.024a1.4,1.4,0,0,1,1.386-1.4,1.189,1.189,0,0,1,1.36,1.084,4.329,4.329,0,0,1,.026.5v8.318a4.127,4.127,0,0,0-.98-1.557l-.237-.238a4.26,4.26,0,0,0-5.882,0l-5.647,5.649a1.274,1.274,0,0,1-.693.373A6.957,6.957,0,0,0,32,41.626V58.262a1.386,1.386,0,0,0,1.386,1.386H44.477a1.386,1.386,0,0,0,1.386-1.386V50.518l6.288-6.287a6.887,6.887,0,0,0,2.03-4.9V22.217a6.938,6.938,0,0,0-.05-.833ZM51.409,39.329a4.135,4.135,0,0,1-1.217,2.942L43.5,48.964a1.386,1.386,0,0,0-.406.98v6.932H34.773V41.626a4.173,4.173,0,0,1,3.58-4.119,4.047,4.047,0,0,0,2.271-1.158L46.27,30.7a1.415,1.415,0,0,1,1.96,0l.237.238a1.386,1.386,0,0,1,0,1.96L43.5,37.873a1.386,1.386,0,1,0,1.96,1.96l4.971-4.972a4.116,4.116,0,0,0,.982-1.554Z" transform="translate(12.363 6.898)" fill="#fff"/>
    <path id="Trazado_998060" data-name="Trazado 998060" d="M21.25,0a6.944,6.944,0,0,0-6.815,5.662,6.932,6.932,0,0,0-5.2,9.3,6.887,6.887,0,0,0,0,11.673,6.932,6.932,0,0,0,5.2,9.3,6.932,6.932,0,0,0,13.747-1.27V6.932A6.94,6.94,0,0,0,21.25,0Zm0,38.818a4.159,4.159,0,0,1-3.119-6.908,1.387,1.387,0,0,0-2.08-1.837,6.9,6.9,0,0,0-1.525,3.008,4.159,4.159,0,0,1-.9-7.572,1.386,1.386,0,1,0-1.386-2.4,6.907,6.907,0,0,0-1.5,1.178,4.109,4.109,0,0,1,.832-7.4c.061-.022.269-.11.323-.123a4.17,4.17,0,0,1,1.038-.132,1.386,1.386,0,0,0,0-2.773,6.957,6.957,0,0,0-1.1.1,4.152,4.152,0,0,1,5.953-5.089,1.386,1.386,0,1,0,1.386-2.4,6.892,6.892,0,0,0-1.884-.733,4.149,4.149,0,1,1,5,5.221,1.386,1.386,0,0,0,.347,2.73,1.429,1.429,0,0,0,.347-.043,6.915,6.915,0,0,0,2.426-1.192V34.659a4.159,4.159,0,0,1-4.159,4.159Z" transform="translate(2.318 0.001)" fill="#fff"/>
    <path id="Trazado_998061" data-name="Trazado 998061" d="M17.689,17A1.386,1.386,0,0,0,16.3,18.386a2.773,2.773,0,0,1-.706,1.848,1.386,1.386,0,1,0,2.064,1.849,5.527,5.527,0,0,0,1.414-3.7A1.386,1.386,0,0,0,17.689,17Z" transform="translate(5.879 6.569)" fill="#fff"/>
    <path id="Trazado_998062" data-name="Trazado 998062" d="M17.153,12.227a1.386,1.386,0,0,0-1.894-.5,6.957,6.957,0,0,0-2.537,2.537,1.386,1.386,0,1,0,2.4,1.386,4.19,4.19,0,0,1,1.525-1.525A1.386,1.386,0,0,0,17.153,12.227Z" transform="translate(4.843 4.458)" fill="#fff"/>
    <path id="Trazado_998063" data-name="Trazado 998063" d="M39.761,35.93a6.932,6.932,0,0,0,5.2-9.3,6.887,6.887,0,0,0,0-11.673,6.932,6.932,0,0,0-5.2-9.3,6.932,6.932,0,0,0-13.747,1.27V34.66a6.932,6.932,0,0,0,13.747,1.27Zm-6.815,2.889a4.159,4.159,0,0,1-4.159-4.159V12.455a6.9,6.9,0,0,0,2.426,1.192,1.429,1.429,0,0,0,.347.043,1.386,1.386,0,0,0,.345-2.73,4.159,4.159,0,1,1,5-5.22,6.892,6.892,0,0,0-1.884.733,1.386,1.386,0,1,0,1.386,2.4,4.145,4.145,0,0,1,5.953,5.089,6.972,6.972,0,0,0-1.1-.1,1.386,1.386,0,0,0,0,2.773,4.17,4.17,0,0,1,1.041.139c.054.014.261.1.323.123a4.109,4.109,0,0,1,.832,7.4,6.907,6.907,0,0,0-1.5-1.178,1.386,1.386,0,1,0-1.386,2.4,4.187,4.187,0,0,1,1.474,1.46,4.122,4.122,0,0,1-2.371,6.112,6.9,6.9,0,0,0-1.525-3.008,1.387,1.387,0,1,0-2.08,1.837,4.159,4.159,0,0,1-3.126,6.9Z" transform="translate(10.05 0)" fill="#fff"/>
    <path id="Trazado_998064" data-name="Trazado 998064" d="M32.787,18.386a1.386,1.386,0,0,0-2.773,0,5.526,5.526,0,0,0,1.413,3.7,1.386,1.386,0,1,0,2.064-1.849,2.764,2.764,0,0,1-.7-1.848Z" transform="translate(11.596 6.569)" fill="#fff"/>
    <path id="Trazado_998065" data-name="Trazado 998065" d="M32.72,14.129a4.2,4.2,0,0,1,1.525,1.525,1.386,1.386,0,1,0,2.4-1.386,6.964,6.964,0,0,0-2.536-2.537,1.386,1.386,0,1,0-1.386,2.4Z" transform="translate(12.355 4.45)" fill="#fff"/>
  </g>
</svg>
