<svg xmlns="http://www.w3.org/2000/svg" width="62" height="62" viewBox="0 0 62 62">
  <g id="Grupo_1180291" data-name="Grupo 1180291" transform="translate(3509 3202.895)">
    <g id="Grupo_1180295" data-name="Grupo 1180295" transform="translate(-4030 -9539.895)">
      <rect id="Rectángulo_460057" data-name="Rectángulo 460057" width="62" height="62" transform="translate(521 6337)" fill="none"/>
    </g>
    <g id="idea" transform="translate(-3747 -3439.965)">
      <g id="Icon" transform="translate(241 241)">
        <path id="Trazado_998082" data-name="Trazado 998082" d="M261.166,292.1v1.217a3.65,3.65,0,0,0,3.65,3.65h4.866a3.65,3.65,0,0,0,3.65-3.65V292.1h1.217a3.65,3.65,0,0,0,2.72-6.083,3.651,3.651,0,0,0-1.493-5.871c.007-.411.021-.916.041-1.449,0-.017,0-.033,0-.05a6.029,6.029,0,0,1,2.393-4.809A18.248,18.248,0,1,0,249,259.249a18.023,18.023,0,0,0,7.322,14.547,6.083,6.083,0,0,1,2.411,4.848v1.5a3.65,3.65,0,0,0-1.5,5.875,3.65,3.65,0,0,0,2.72,6.083Zm9.733,0v1.217a1.217,1.217,0,0,1-1.217,1.217h-4.866a1.217,1.217,0,0,1-1.217-1.217V292.1Zm4.866-3.65a1.217,1.217,0,0,0-1.217-1.217h-14.6a1.217,1.217,0,1,0,0,2.433h14.6A1.217,1.217,0,0,0,275.766,288.448Zm0-4.866a1.217,1.217,0,0,0-1.217-1.217h-14.6a1.217,1.217,0,1,0,0,2.433h14.6A1.217,1.217,0,0,0,275.766,283.582Zm-2.419-3.65c.008-.384.021-.833.039-1.3a8.467,8.467,0,0,1,3.359-6.734h0a15.815,15.815,0,1,0-25.314-12.644,15.6,15.6,0,0,0,6.341,12.594l.012.009a8.519,8.519,0,0,1,3.38,6.792v1.287Z" transform="translate(-239.267 -241)" fill="#7d420e" fill-rule="evenodd"/>
        <path id="Trazado_998083" data-name="Trazado 998083" d="M242.217,257.433h4.866a1.217,1.217,0,1,0,0-2.433h-4.866a1.217,1.217,0,1,0,0,2.433Z" transform="translate(-241 -237.967)" fill="#7d420e" fill-rule="evenodd"/>
        <g id="Grupo_1180296" data-name="Grupo 1180296" transform="matrix(0.866, 0.5, -0.5, 0.866, 4.349, 3.196)">
          <path id="Trazado_998084" data-name="Trazado 998084" d="M1.217,2.433H6.083A1.217,1.217,0,1,0,6.083,0H1.217a1.217,1.217,0,0,0,0,2.433Z" fill="#7d420e" fill-rule="evenodd"/>
        </g>
        <g id="Grupo_1180297" data-name="Grupo 1180297" transform="matrix(0.866, -0.5, 0.5, 0.866, 3.133, 31.178)">
          <path id="Trazado_998085" data-name="Trazado 998085" d="M1.217,2.433H6.083A1.217,1.217,0,1,0,6.083,0H1.217a1.217,1.217,0,0,0,0,2.433Z" fill="#7d420e" fill-rule="evenodd"/>
        </g>
        <path id="Trazado_998086" data-name="Trazado 998086" d="M282.217,257.433h4.866a1.217,1.217,0,1,0,0-2.433h-4.866a1.217,1.217,0,1,0,0,2.433Z" transform="translate(-232.335 -237.967)" fill="#7d420e" fill-rule="evenodd"/>
        <g id="Grupo_1180298" data-name="Grupo 1180298" transform="matrix(0.866, 0.5, -0.5, 0.866, 46.493, 27.528)">
          <path id="Trazado_998087" data-name="Trazado 998087" d="M1.217,2.433H6.083A1.217,1.217,0,0,0,6.083,0H1.217a1.217,1.217,0,0,0,0,2.433Z" fill="#7d420e" fill-rule="evenodd"/>
        </g>
        <g id="Grupo_1180299" data-name="Grupo 1180299" transform="matrix(0.866, -0.5, 0.5, 0.866, 45.277, 6.846)">
          <path id="Trazado_998088" data-name="Trazado 998088" d="M1.217,2.433H6.083A1.217,1.217,0,0,0,6.083,0H1.217a1.217,1.217,0,0,0,0,2.433Z" fill="#7d420e" fill-rule="evenodd"/>
        </g>
        <path id="Trazado_998089" data-name="Trazado 998089" d="M264.082,273l-3.8-15.191a.487.487,0,0,1,.742-.523l3.634,2.422a1.218,1.218,0,0,0,1.35,0l3.634-2.422a.487.487,0,0,1,.742.523L266.588,273a1.217,1.217,0,0,0,2.36.591s2.365-9.462,3.8-15.192a2.92,2.92,0,0,0-4.453-3.138l-2.959,1.972-2.959-1.972a2.92,2.92,0,0,0-4.453,3.138l3.8,15.192a1.217,1.217,0,1,0,2.36-.591Z" transform="translate(-237.353 -238.016)" fill="#7d420e" fill-rule="evenodd"/>
      </g>
    </g>
  </g>
</svg>
