<svg xmlns="http://www.w3.org/2000/svg" xmlns:xlink="http://www.w3.org/1999/xlink" width="400" height="545" viewBox="0 0 400 545">
  <defs>
    <clipPath id="clip-path">
      <rect id="Rectángulo_403585" data-name="Rectángulo 403585" width="25.104" height="57.889" fill="none"/>
    </clipPath>
    <clipPath id="clip-path-2">
      <rect id="Rectángulo_403586" data-name="Rectángulo 403586" width="193.906" height="166.163" fill="none"/>
    </clipPath>
    <clipPath id="clip-path-3">
      <rect id="Rectángulo_403587" data-name="Rectángulo 403587" width="78.237" height="74.59" fill="none"/>
    </clipPath>
    <clipPath id="clip-path-4">
      <rect id="Rectángulo_403588" data-name="Rectángulo 403588" width="91.973" height="87.686" fill="none"/>
    </clipPath>
    <clipPath id="clip-path-5">
      <rect id="Rectángulo_403589" data-name="Rectángulo 403589" width="105.049" height="100.153" fill="none"/>
    </clipPath>
    <clipPath id="clip-path-6">
      <rect id="Rectángulo_403590" data-name="Rectángulo 403590" width="22.323" height="13.591" fill="#e6d09e"/>
    </clipPath>
    <clipPath id="clip-path-8">
      <rect id="Rectángulo_403591" data-name="Rectángulo 403591" width="19.988" height="14.698" fill="#e6d09e"/>
    </clipPath>
    <clipPath id="clip-path-10">
      <rect id="Rectángulo_403592" data-name="Rectángulo 403592" width="22.415" height="37.256" fill="#ac945b"/>
    </clipPath>
    <clipPath id="clip-path-11">
      <rect id="Rectángulo_403593" data-name="Rectángulo 403593" width="35.409" height="20.583" fill="#ac945b"/>
    </clipPath>
    <clipPath id="clip-path-12">
      <rect id="Rectángulo_403571" data-name="Rectángulo 403571" width="27.813" height="38.237" fill="none"/>
    </clipPath>
    <clipPath id="clip-path-13">
      <rect id="Rectángulo_403574" data-name="Rectángulo 403574" width="23.893" height="13.664" fill="none"/>
    </clipPath>
    <clipPath id="clip-path-14">
      <rect id="Rectángulo_403570" data-name="Rectángulo 403570" width="22.845" height="25.616" fill="none"/>
    </clipPath>
    <clipPath id="clip-path-15">
      <rect id="Rectángulo_403580" data-name="Rectángulo 403580" width="1.807" height="1.593" fill="none"/>
    </clipPath>
    <clipPath id="clip-path-16">
      <rect id="Rectángulo_403581" data-name="Rectángulo 403581" width="4.316" height="2.004" fill="none"/>
    </clipPath>
    <clipPath id="clip-path-17">
      <rect id="Rectángulo_403582" data-name="Rectángulo 403582" width="11.496" height="3.529" fill="none"/>
    </clipPath>
    <clipPath id="clip-path-18">
      <rect id="Rectángulo_403583" data-name="Rectángulo 403583" width="9.626" height="3.656" fill="none"/>
    </clipPath>
  </defs>
  <g id="Grupo_1180117" data-name="Grupo 1180117" transform="translate(1638 10659)">
    <g id="Grupo_1102710" data-name="Grupo 1102710" transform="translate(0 92)">
      <rect id="Rectángulo_403599" data-name="Rectángulo 403599" width="400" height="545" rx="12" transform="translate(-1638 -10751)" fill="#fff8e6"/>
      <path id="Trazado_881690" data-name="Trazado 881690" d="M56.1,405.239c74.8,34.366,196.073,34.367,270.871,0s74.8-90.085,0-124.451-196.072-34.367-270.872,0-74.8,90.085,0,124.451" transform="translate(-1630 -10672.014)" fill="#ffe7ae"/>
      <path id="Trazado_881763" data-name="Trazado 881763" d="M360.5,231.6c-19.838,0-35.918,6-35.918,13.407v32.315c0,7.4,16.08,13.406,35.918,13.406s35.92-6,35.92-13.406V245.009c0-7.4-16.083-13.407-35.92-13.407" transform="translate(-1804.755 -10642.983)" fill="#ebebeb"/>
      <path id="Trazado_881764" data-name="Trazado 881764" d="M360.5,231.6c-19.838,0-35.918,6-35.918,13.407v32.315c0,7.4,16.08,13.406,35.918,13.406s35.92-6,35.92-13.406V245.009c0-7.4-16.083-13.407-35.92-13.407" transform="translate(-1804.755 -10642.983)" fill="#e6d09e"/>
      <g id="Grupo_1102419" data-name="Grupo 1102419" transform="translate(-1480.177 -10410.569)" opacity="0.1">
        <g id="Grupo_1102418" data-name="Grupo 1102418" transform="translate(0 -0.192)">
          <g id="Grupo_1102417" data-name="Grupo 1102417" clip-path="url(#clip-path)">
            <path id="Trazado_881765" data-name="Trazado 881765" d="M324.578,244.979v32.315c0,6,10.553,11.074,25.106,12.787V232.193c-14.553,1.713-25.106,6.789-25.106,12.786" transform="translate(-324.578 -232.193)"/>
          </g>
        </g>
      </g>
      <path id="Trazado_881766" data-name="Trazado 881766" d="M430.431,284.348c.262-.357,99.519-135.864,99.519-135.864s-50.165,27.472-140.887,27.472a420.53,420.53,0,0,1-48.707-2.773c-59.79-6.972-92.182-24.7-92.182-24.7l99.449,135.835.018.029h0c6.1,8.3,22.328,14.233,41.393,14.233S424.33,292.646,430.431,284.348Z" transform="translate(-1833.296 -10674.031)" fill="#ebebeb"/>
      <path id="Trazado_881767" data-name="Trazado 881767" d="M316.963,183.515l-15.042-16.866c-35.094-7.968-53.747-18.165-53.747-18.165l99.449,135.835.018.029h0c4.906,6.673,16.366,11.81,30.579,13.569Z" transform="translate(-1833.296 -10674.031)" fill="#e0e0e0"/>
      <path id="Trazado_881768" data-name="Trazado 881768" d="M524.217,78.437C493.89,63.577,455.309,55.229,415.682,53.4l-.019-.01C364.9,51.069,312.5,59.406,273.643,78.449c-69.19,33.913-69.179,88.881,0,122.781,15.833,7.758,33.9,13.733,53.186,17.948,47.521,10.347,102.43,9.944,149.373-1.2q9.929-2.34,19.311-5.338c2.6-.826,5.185-1.7,7.712-2.6l.011-.016c3.6-1.286,7.12-2.634,10.546-4.073,3.567-1.5,7.052-3.058,10.422-4.717,69.19-33.911,69.209-88.886.01-122.8" transform="translate(-1843.164 -10709.694)" fill="#e6d09e"/>
      <g id="Grupo_1102422" data-name="Grupo 1102422" transform="translate(-1621.408 -10656.68)" opacity="0.1">
        <g id="Grupo_1102421" data-name="Grupo 1102421">
          <g id="Grupo_1102420" data-name="Grupo 1102420" clip-path="url(#clip-path-2)">
            <path id="Trazado_881769" data-name="Trazado 881769" d="M415.663,53.394C364.9,51.069,312.5,59.406,273.643,78.449c-69.19,33.913-69.179,88.881,0,122.781,15.833,7.758,33.9,13.733,53.186,17.948l.011-.016c-6.608-7.826-10.969-26.452,1.743-27.6-17.227-3.832-33.232-9.164-47.132-15.977-19.886-9.744-33.368-21.371-39.031-33.623-4.82-10.455-3.7-21.026,3.378-31.388,6.836-10.087,19.186-19.66,35.613-27.73,33.048-16.2,77.934-23.979,122.342-23.337,0,0-1-4.711,11.907-6.111" transform="translate(-221.756 -53.014)"/>
          </g>
        </g>
      </g>
      <path id="Trazado_881770" data-name="Trazado 881770" d="M511.248,81.085C480.692,66.112,440,58.313,398.931,57.749c-44.41-.641-89.293,7.138-122.34,23.338-16.428,8.071-28.777,17.643-35.613,27.73-7.074,10.361-8.2,20.933-3.378,31.388,5.663,12.252,19.145,23.879,39.031,33.623,13.9,6.811,29.9,12.145,47.132,15.977,6.5,1.457,13.182,2.695,19.985,3.714a326.964,326.964,0,0,0,36.432,3.375q3.8.144,7.581.21c4.2.088,8.423.1,12.613.012a330.3,330.3,0,0,0,42.449-3.412c.139-.018.321-.059.481-.067,9.185-1.363,18.123-3.107,26.731-5.229q9.288-2.3,17.984-5.188,3.645-1.2,7.173-2.523,4.222-1.6,8.307-3.329c2.633-1.133,5.2-2.321,7.708-3.537,16.506-8.075,28.8-17.675,35.675-27.744,15.189-22.331,1.842-46.637-35.634-65" transform="translate(-1838.34 -10707.938)" fill="#f5f5f5"/>
      <path id="Trazado_881771" data-name="Trazado 881771" d="M375.516,127.486c-41.6,0-77.1,12.737-91.146,30.667q10.04,3.177,20.826,5.589c6.505,1.456,13.183,2.695,19.986,3.713a326.616,326.616,0,0,0,36.431,3.376q3.8.144,7.582.21c4.2.088,8.421.1,12.612.012a330.278,330.278,0,0,0,42.449-3.412c.14-.018.321-.059.481-.067,9.186-1.363,18.124-3.107,26.732-5.229q7.774-1.924,15.128-4.272c-14.088-17.889-49.542-30.587-91.081-30.587" transform="translate(-1819.775 -10681.875)" fill="#ebebeb"/>
      <path id="Trazado_881772" data-name="Trazado 881772" d="M401.277,71.173a39.119,39.119,0,1,1-39.119-39.119,39.119,39.119,0,0,1,39.119,39.119" transform="translate(-1805.33 -10717.523)" fill="#27debf"/>
      <g id="Grupo_1102425" data-name="Grupo 1102425" transform="translate(-1482.29 -10681.822)" opacity="0.1">
        <g id="Grupo_1102424" data-name="Grupo 1102424">
          <g id="Grupo_1102423" data-name="Grupo 1102423" clip-path="url(#clip-path-3)">
            <path id="Trazado_881773" data-name="Trazado 881773" d="M351.247,84.258c-18.634-13.494-20.158-40.01-5.583-49.548a39.118,39.118,0,1,0,55.614,35.47c-1.49,18.848-31.4,27.571-50.03,14.077" transform="translate(-323.04 -34.709)"/>
          </g>
        </g>
      </g>
      <path id="Trazado_881774" data-name="Trazado 881774" d="M361.013,124.04a45.986,45.986,0,1,1-45.986-45.986,45.985,45.985,0,0,1,45.986,45.986" transform="translate(-1825.501 -10700.341)" fill="#8dc9f6"/>
      <g id="Grupo_1102428" data-name="Grupo 1102428" transform="translate(-1556.461 -10617.999)" opacity="0.1">
        <g id="Grupo_1102427" data-name="Grupo 1102427">
          <g id="Grupo_1102426" data-name="Grupo 1102426" clip-path="url(#clip-path-4)">
            <path id="Trazado_881775" data-name="Trazado 881775" d="M302.2,139.423c-21.905-15.862-23.7-47.034-6.563-58.247a45.986,45.986,0,1,0,65.377,41.7c-1.751,22.157-36.909,32.41-58.814,16.548" transform="translate(-269.04 -81.175)"/>
          </g>
        </g>
      </g>
      <path id="Trazado_881776" data-name="Trazado 881776" d="M462.09,138.579a52.525,52.525,0,1,1-52.525-52.525,52.524,52.524,0,0,1,52.525,52.525" transform="translate(-1806.423 -10711.635)" fill="#d9eb73"/>
      <g id="Grupo_1102431" data-name="Grupo 1102431" transform="translate(-1449.383 -10620.685)" opacity="0.1">
        <g id="Grupo_1102430" data-name="Grupo 1102430" transform="translate(0 0)">
          <g id="Grupo_1102429" data-name="Grupo 1102429" clip-path="url(#clip-path-5)">
            <path id="Trazado_881777" data-name="Trazado 881777" d="M394.914,155.7c-25.02-18.117-27.066-53.722-7.5-66.528A52.525,52.525,0,1,0,462.09,136.8c-2,25.307-42.156,37.018-67.176,18.9" transform="translate(-357.041 -89.174)"/>
          </g>
        </g>
      </g>
      <path id="Trazado_881778" data-name="Trazado 881778" d="M516.116,73a60.558,60.558,0,1,1-60.558-60.558A60.558,60.558,0,0,1,516.116,73" transform="translate(-1783.172 -10717.523)" fill="#c7dbf6"/>
      <path id="Trazado_881779" data-name="Trazado 881779" d="M438.667,92.758c-28.846-20.888-31.2-61.938-8.643-76.7a60.558,60.558,0,1,0,86.092,54.912c-2.306,29.177-48.6,42.68-77.449,21.792" transform="translate(-1783.172 -10715.494)" fill="#bbd0ec"/>
      <path id="Trazado_881780" data-name="Trazado 881780" d="M342.179,53.8A48.387,48.387,0,1,1,293.792,5.413,48.387,48.387,0,0,1,342.179,53.8" transform="translate(-1839.329 -10704.027)" fill="#a0f1f1"/>
      <path id="Trazado_881781" data-name="Trazado 881781" d="M280.3,69.986C257.246,53.3,255.362,20.5,273.39,8.7a48.387,48.387,0,1,0,68.79,43.875c-1.843,23.313-38.836,34.1-61.884,17.412" transform="translate(-1839.33 -10702.8)" fill="#8fd1d1"/>
      <path id="Trazado_881782" data-name="Trazado 881782" d="M251.35,81.781l4.534-10.155a3.211,3.211,0,0,1,2.424-1.716l10.237-1.284a3.388,3.388,0,0,1,2.736,1.3l6.549,9.248a3.381,3.381,0,0,1,.313,3.012l-4.535,10.155a3.214,3.214,0,0,1-2.424,1.717l-10.237,1.283a3.389,3.389,0,0,1-2.738-1.3l-6.546-9.248a3.381,3.381,0,0,1-.313-3.012" transform="translate(-1840.191 -10671.645)" fill="#a18e64"/>
      <path id="Trazado_881788" data-name="Trazado 881788" d="M251.35,81.781l4.534-10.155a3.211,3.211,0,0,1,2.424-1.716l10.237-1.284a3.388,3.388,0,0,1,2.736,1.3l6.549,9.248a3.381,3.381,0,0,1,.313,3.012l-4.535,10.155a3.214,3.214,0,0,1-2.424,1.717l-10.237,1.283a3.389,3.389,0,0,1-2.738-1.3l-6.546-9.248a3.381,3.381,0,0,1-.313-3.012" transform="translate(-1585.205 -10649.102)" fill="#a18e64"/>
      <g id="Grupo_1102434" data-name="Grupo 1102434" transform="translate(-1589.042 -10589.893)" opacity="0.1">
        <g id="Grupo_1102433" data-name="Grupo 1102433">
          <g id="Grupo_1102432" data-name="Grupo 1102432" clip-path="url(#clip-path-6)">
            <path id="Trazado_881783" data-name="Trazado 881783" d="M258.205,90.47a3.389,3.389,0,0,0,2.738,1.3l10.236-1.283a3.248,3.248,0,0,0,2.288-1.47c-.413.625-1.082.6-1.584-.107l-6.549-9.248a3.181,3.181,0,0,1-.512-1.477l-13.678,1.564a3.181,3.181,0,0,0,.512,1.477Z" transform="translate(-251.144 -78.181)" fill="#e6d09e"/>
          </g>
        </g>
      </g>
      <g id="Grupo_1102449" data-name="Grupo 1102449" transform="translate(-1334.055 -10567.349)" opacity="0.1">
        <g id="Grupo_1102433-2" data-name="Grupo 1102433">
          <g id="Grupo_1102432-2" data-name="Grupo 1102432" clip-path="url(#clip-path-6)">
            <path id="Trazado_881783-2" data-name="Trazado 881783" d="M258.205,90.47a3.389,3.389,0,0,0,2.738,1.3l10.236-1.283a3.248,3.248,0,0,0,2.288-1.47c-.413.625-1.082.6-1.584-.107l-6.549-9.248a3.181,3.181,0,0,1-.512-1.477l-13.678,1.564a3.181,3.181,0,0,0,.512,1.477Z" transform="translate(-251.144 -78.181)" fill="#e6d09e"/>
          </g>
        </g>
      </g>
      <g id="Grupo_1102437" data-name="Grupo 1102437" transform="translate(-1589.045 -10603.037)" opacity="0.4">
        <g id="Grupo_1102436" data-name="Grupo 1102436">
          <g id="Grupo_1102435" data-name="Grupo 1102435" clip-path="url(#clip-path-8)">
            <path id="Trazado_881784" data-name="Trazado 881784" d="M271.13,69.715c-.54-.576-1.206-.451-1.553.339l-4.538,10.155a3.256,3.256,0,0,0-.135,1.941c-.027-.132-.051-.268-.066-.4l-13.675,1.563a3.075,3.075,0,0,1,.2-1.537L255.9,71.619A3.2,3.2,0,0,1,258.32,69.9l10.24-1.286a3.4,3.4,0,0,1,2.57,1.1" transform="translate(-251.142 -68.611)" fill="#e6d09e"/>
          </g>
        </g>
      </g>
      <g id="Grupo_1102450" data-name="Grupo 1102450" transform="translate(-1334.058 -10580.493)" opacity="0.4">
        <g id="Grupo_1102436-2" data-name="Grupo 1102436">
          <g id="Grupo_1102435-2" data-name="Grupo 1102435" clip-path="url(#clip-path-8)">
            <path id="Trazado_881784-2" data-name="Trazado 881784" d="M271.13,69.715c-.54-.576-1.206-.451-1.553.339l-4.538,10.155a3.256,3.256,0,0,0-.135,1.941c-.027-.132-.051-.268-.066-.4l-13.675,1.563a3.075,3.075,0,0,1,.2-1.537L255.9,71.619A3.2,3.2,0,0,1,258.32,69.9l10.24-1.286a3.4,3.4,0,0,1,2.57,1.1" transform="translate(-251.142 -68.611)" fill="#e6d09e"/>
          </g>
        </g>
      </g>
      <path id="Trazado_881785" data-name="Trazado 881785" d="M379.633,2.247,397.1.027A5.235,5.235,0,0,1,401.47,1.86l10.442,12.584a5.235,5.235,0,0,1,.6,4.7l-6.813,16.239a5.235,5.235,0,0,1-3.769,2.865l-17.471,2.22a5.234,5.234,0,0,1-4.365-1.832L369.648,26.048a5.232,5.232,0,0,1-.6-4.7l6.814-16.239a5.233,5.233,0,0,1,3.769-2.865" transform="translate(-1788.258 -10729.497)" fill="#e6d09e"/>
      <g id="Grupo_1102440" data-name="Grupo 1102440" transform="translate(-1419.517 -10726.27)" opacity="0.1">
        <g id="Grupo_1102439" data-name="Grupo 1102439">
          <g id="Grupo_1102438" data-name="Grupo 1102438" clip-path="url(#clip-path-10)">
            <path id="Trazado_881786" data-name="Trazado 881786" d="M369.051,20.473a5.237,5.237,0,0,0,.6,4.7l10.442,12.583a5.292,5.292,0,0,0,3.919,1.853c-1.19-.043-1.729-.95-1.207-2.2l6.814-16.239a4.851,4.851,0,0,1,1.541-1.883L377.406,2.35a4.848,4.848,0,0,0-1.541,1.883Z" transform="translate(-368.741 -2.35)" fill="#ac945b"/>
          </g>
        </g>
      </g>
      <g id="Grupo_1102443" data-name="Grupo 1102443" transform="translate(-1410.823 -10729.483)" opacity="0.4">
        <g id="Grupo_1102442" data-name="Grupo 1102442">
          <g id="Grupo_1102441" data-name="Grupo 1102441" clip-path="url(#clip-path-11)">
            <path id="Trazado_881787" data-name="Trazado 881787" d="M410.3,18.769c.312-1.184-.422-1.97-1.777-1.792l-17.474,2.217a5.086,5.086,0,0,0-2.714,1.4,5.637,5.637,0,0,1,.483-.416L375.071,3.24a4.808,4.808,0,0,1,2.229-.982L394.768.036a5.223,5.223,0,0,1,4.366,1.832l10.444,12.586a5.268,5.268,0,0,1,.72,4.314" transform="translate(-375.071 -0.01)" fill="#ac945b"/>
          </g>
        </g>
      </g>
      <text id="Empatía" transform="translate(-1475 -10641)" fill="#12263f" font-size="16" font-family="SegoeUI-Bold, Segoe UI" font-weight="700"><tspan x="0" y="0">Empatía</tspan></text>
      <text id="Técnicas" transform="translate(-1543 -10569)" fill="#12263f" font-size="16" font-family="SegoeUI-Bold, Segoe UI" font-weight="700"><tspan x="0" y="0">Técnicas</tspan></text>
      <text id="Autoestima" transform="translate(-1589 -10647)" fill="#12263f" font-size="16" font-family="SegoeUI-Bold, Segoe UI" font-weight="700"><tspan x="0" y="0">Autoestima</tspan></text>
      <text id="Regulación_emocional" data-name="Regulación
emocional" transform="translate(-1437 -10574)" fill="#12263f" font-size="16" font-family="SegoeUI-Bold, Segoe UI" font-weight="700"><tspan x="0" y="0">Regulación</tspan><tspan x="0" y="21">emocional</tspan></text>
      <text id="Comunicación_asertiva" data-name="Comunicación
asertiva" transform="translate(-1328 -10647)" fill="#12263f" font-size="16" font-family="SegoeUI-Bold, Segoe UI" font-weight="700"><tspan x="-53.148" y="0">Comunicación</tspan><tspan x="-29.473" y="21">asertiva</tspan></text>
      <g id="Grupo_1102453" data-name="Grupo 1102453" transform="translate(-1355.177 -10494.517)">
        <path id="Trazado_881691" data-name="Trazado 881691" d="M566.121,357.984c-13.28,7.22-34.811,7.22-48.091,0s-13.28-18.922,0-26.142,34.812-7.218,48.091,0,13.28,18.924,0,26.142" transform="translate(-494.058 -171.217)" fill="#e6d09e"/>
        <path id="Trazado_881699" data-name="Trazado 881699" d="M563.279,322.252c-.054-4.445,3.05-13.69,7.593-19.518s11.744-10.134,16.916-8.434c4.818,1.584,4.374,7.884-1.4,12.125s-14.459,9.586-16.932,16.827l-5.265,8.911Z" transform="translate(-501.871 -166.617)" fill="#27debf"/>
        <g id="Grupo_1102383" data-name="Grupo 1102383" transform="translate(61.407 127.309)" opacity="0.1">
          <g id="Grupo_1102382" data-name="Grupo 1102382" transform="translate(0 0)">
            <g id="Grupo_1102381" data-name="Grupo 1102381" clip-path="url(#clip-path-12)">
              <path id="Trazado_881700" data-name="Trazado 881700" d="M563.279,322.252c-.054-4.445,3.05-13.69,7.593-19.518s11.744-10.134,16.916-8.434c4.818,1.584,4.374,7.884-1.4,12.125s-14.459,9.586-16.932,16.827l-5.265,8.911Z" transform="translate(-563.278 -293.926)"/>
            </g>
          </g>
        </g>
        <path id="Trazado_881701" data-name="Trazado 881701" d="M562.923,328.835a.324.324,0,0,0,.289-.264c2.794-15.209,14.92-27.69,22.235-30.5a.326.326,0,0,0,.186-.42.322.322,0,0,0-.42-.187c-7.453,2.866-19.8,15.552-22.64,30.992a.324.324,0,0,0,.26.378.315.315,0,0,0,.089,0" transform="translate(-501.771 -167.114)" fill="#fff"/>
        <path id="Trazado_881702" data-name="Trazado 881702" d="M565.571,341.184c.684-2.507,3.686-6.667,8.581-10.133,5.415-3.833,12.3-5.649,13.863-8.6,1.871-3.546-1.138-6.839-6.739-6.076s-15.37,8.534-16.808,20.076Z" transform="translate(-502.04 -169.778)" fill="#27debf"/>
        <path id="Trazado_881703" data-name="Trazado 881703" d="M564.394,339.079a.327.327,0,0,0,.277-.218c4.5-13.055,14.36-17.736,18.945-18.388a.323.323,0,0,0,.276-.367.32.32,0,0,0-.367-.276c-5.071.72-14.879,5.494-19.469,18.82a.325.325,0,0,0,.337.429" transform="translate(-501.979 -170.282)" fill="#fff"/>
        <path id="Trazado_881704" data-name="Trazado 881704" d="M500.53,192.936a35.121,35.121,0,0,1,3.556,2.6,7.957,7.957,0,0,0,3.141,2.181c1.558.618,3.026.435,7.35-.257,5.291-.846,7.568-1.735,9.849-3.682,2.669-2.277,8.638-9.143,11.524-11.839,3.051-2.852,7.247-1.75,7.247-1.75a43.784,43.784,0,0,1-5.725,11.875c-2.312,3.291-6.629,6.439-8.583,8.065-3.125,2.6-4.785,3.628-11.651,4.144a70.9,70.9,0,0,1-10.107.391c-1.533-.045-2.489-.061-5-.27a14.728,14.728,0,0,1-3.221-.561,11.894,11.894,0,0,1-3.366-1.332,9.087,9.087,0,0,1-3.2-3.6,5.729,5.729,0,0,1-.6-2.589,3.812,3.812,0,0,1,.933-2.454,1.052,1.052,0,0,1,.434-.317,1.266,1.266,0,0,1,.934.2,54.859,54.859,0,0,0,4.958,2.631c1.436.553,2.526.745,2.42.456s-.973-.555-1.864-1.56c-.851-.959-1.114-2.407-.538-2.842s.475-.342,1.5.508" transform="translate(-491.749 -150.491)" fill="#ffa8a7"/>
        <path id="Trazado_881705" data-name="Trazado 881705" d="M549.908,180.061a7.922,7.922,0,0,0-5.25-.57c-2.671.767-4.809,2.514-7.356,5.246s-6.844,7.154-6.844,7.154,2.115,5.357,6.871,7.259l9.969-9.222Z" transform="translate(-497.227 -150.389)" fill="#aec2dd"/>
        <path id="Trazado_881707" data-name="Trazado 881707" d="M498.2,194.713l9.446-5.5a3.249,3.249,0,0,1,2.939-.011l9.016,4.662a3.245,3.245,0,0,1,1.479,2.539l.041,10.931a3.25,3.25,0,0,1-1.459,2.551l-9.446,5.5a3.249,3.249,0,0,1-2.939.01l-9.017-4.662a3.248,3.248,0,0,1-1.478-2.539l-.041-10.931a3.249,3.249,0,0,1,1.459-2.551" transform="translate(-492.455 -151.748)" fill="#37474f"/>
        <g id="Grupo_1102391" data-name="Grupo 1102391" transform="translate(4.731 37.107)" opacity="0.4">
          <g id="Grupo_1102390" data-name="Grupo 1102390" transform="translate(0 0)">
            <g id="Grupo_1102389" data-name="Grupo 1102389" clip-path="url(#clip-path-13)">
              <path id="Trazado_881708" data-name="Trazado 881708" d="M521.153,196.155c-.108-.752-.719-1.023-1.45-.594l-9.449,5.5a3.157,3.157,0,0,0-1.212,1.458,3.425,3.425,0,0,1,.176-.355l-11.959-6.348a2.983,2.983,0,0,1,1.036-1.1l9.443-5.5a3.238,3.238,0,0,1,2.939-.011l9.018,4.662a3.274,3.274,0,0,1,1.457,2.291" transform="translate(-497.26 -188.855)" fill="#455a64"/>
            </g>
          </g>
        </g>
        <path id="Trazado_881709" data-name="Trazado 881709" d="M496.782,209.341a3.247,3.247,0,0,0,1.479,2.539l9.016,4.662a3.287,3.287,0,0,0,2.688.108c-.69.264-1.218-.124-1.222-.962l-.041-10.931a3,3,0,0,1,.425-1.45l-11.961-6.348a3,3,0,0,0-.425,1.45Z" transform="translate(-492.455 -152.895)" fill="#263238"/>
        <rect id="Rectángulo_403575" data-name="Rectángulo 403575" width="6.044" height="10.346" transform="translate(61.282 152.064)" fill="#ffa8a7"/>
        <path id="Trazado_881710" data-name="Trazado 881710" d="M549.647,323.991l-6.04.208-.3-10.949,6.343-.207Z" transform="translate(-499.045 -169.322)" fill="#ffa8a7"/>
        <path id="Trazado_881711" data-name="Trazado 881711" d="M568.188,231.412c0,5.771-1.02,39.339-1.02,39.339.141,1.661,1.739,4.613,1.864,10.595.18,8.675-3.16,32.492-3.16,32.492a7.95,7.95,0,0,1-6.729.133s-2.741-32.286-3.824-40.872c-.945-7.494-2.549-27.851-2.549-27.851l-2.845,24.463a34.381,34.381,0,0,1,.749,9.6c-.282,3.971-1.4,28.563-1.4,28.563a8.251,8.251,0,0,1-6.978.534s-4.263-35.058-4.333-38.7c-.08-4.154,1.58-46.562,1.58-46.562Z" transform="translate(-498.288 -156.601)" fill="#37474f"/>
        <path id="Trazado_881712" data-name="Trazado 881712" d="M564.427,182.732a5.557,5.557,0,0,1,2.912,3.031,14.184,14.184,0,0,1,.885,5.223v11.842l.173,22.359a26.994,26.994,0,0,1-28.957-1.881s.517-28.78.517-33.488q0-.319.016-.646a10.743,10.743,0,0,1,13.477-9.661l5.477,1.409Z" transform="translate(-498.498 -150.376)" fill="#cadbf3"/>
        <path id="Trazado_881713" data-name="Trazado 881713" d="M518.2,205.757a35.209,35.209,0,0,1,3.883,2.078,7.951,7.951,0,0,0,3.414,1.723c1.629.395,14.441-3.934,16.817-5.765,4.823-3.716,9-10.722,11.317-13.379,1.913-2.189,4.083-5.484,6.44-5.5,3.9,1.18,3.014,6.974-.246,12.194a48.482,48.482,0,0,1-13.618,13.57c-2.81,1.844-15.754,5.185-20.054,5.466-1.308.086-2.276.379-4.767.733a10.553,10.553,0,0,1-3.1.166,13.46,13.46,0,0,1-3.685-1.124,9.1,9.1,0,0,1-3.67-3.116,5.718,5.718,0,0,1-.951-2.48,3.813,3.813,0,0,1,.582-2.56,1.053,1.053,0,0,1,.385-.374,1.268,1.268,0,0,1,.953.069,54.8,54.8,0,0,0,5.275,1.914c1.5.349,2.606.387,2.461.115s-1.041-.415-2.062-1.285c-.976-.831-1.439-2.229-.93-2.739s.423-.4,1.56.294" transform="translate(-494.324 -151.19)" fill="#ffa8a7"/>
        <path id="Trazado_881714" data-name="Trazado 881714" d="M557.407,156.3a8.305,8.305,0,1,1-8.306-8.306,8.306,8.306,0,0,1,8.306,8.306" transform="translate(-498.69 -145.965)" fill="#263238"/>
        <path id="Trazado_881715" data-name="Trazado 881715" d="M566.61,164.543a71.908,71.908,0,0,1-1.885,7.362,2.864,2.864,0,0,1-1.655,1.334l.094-4.448Z" transform="translate(-501.842 -148.307)" fill="#263238"/>
        <path id="Trazado_881716" data-name="Trazado 881716" d="M565.088,153.988a3.118,3.118,0,0,1,2.58.907c1.107,1.133.489,4.679-.89,8.152l-2.536.291Z" transform="translate(-502.008 -146.81)" fill="#263238"/>
        <path id="Trazado_881717" data-name="Trazado 881717" d="M560.377,162.7c.508.3,1.233-.673,1.86-1.329a2.206,2.206,0,0,1,3.694.6c1.04,2.192-.9,5.088-2.513,5.595-2.775.871-3.193-.91-3.193-.91l-.206,10.322c-3.452,4.426-13.032,4.052-9.041-.572l.009-3.048a17.566,17.566,0,0,1-3.744.192c-2.042-.316-3.327-1.927-3.946-4.138-.995-3.55-1.373-6.416-.528-13.4.925-7.653,9.826-7.732,14.633-4.707s2.975,11.394,2.975,11.394" transform="translate(-498.903 -146.171)" fill="#ffa8a7"/>
        <path id="Trazado_881718" data-name="Trazado 881718" d="M560.23,163.015c.256.005,1.228-1.608,1.86-2.184.877-.8-.254-8.023-.254-8.023a3.421,3.421,0,0,0-.846-3.655c-1.2-1.322-3.209-1.469-6.636-2.008-1.8-.282-4.525-.786-6.32-1.119-2.144-.4-3.92-.821-5.433.494a3.806,3.806,0,0,0-1.052,4.261,3.965,3.965,0,0,0,2.152,1.972s.935.829,4.188,1.225a47.969,47.969,0,0,0,9.011-.171c.944-.129,1.145.786,1.654,3.283.446,2.192.816,5.908,1.676,5.924" transform="translate(-498.758 -145.631)" fill="#263238"/>
        <path id="Trazado_881720" data-name="Trazado 881720" d="M552.419,176.65a34.924,34.924,0,0,0,6.151-1.766,5.248,5.248,0,0,0,2.2-2.179,7.2,7.2,0,0,1-1.252,2.57c-1.165,1.49-7.1,2.587-7.1,2.587Z" transform="translate(-500.335 -149.462)" fill="#f28f8f"/>
        <path id="Trazado_881721" data-name="Trazado 881721" d="M552.678,163.4a.914.914,0,1,0,.913-.951.929.929,0,0,0-.913.951" transform="translate(-500.371 -148.011)" fill="#263238"/>
        <path id="Trazado_881722" data-name="Trazado 881722" d="M553.807,159.439l1.954,1.078a1.171,1.171,0,0,0-.455-1.556,1.089,1.089,0,0,0-1.5.477" transform="translate(-500.531 -147.498)" fill="#263238"/>
        <path id="Trazado_881723" data-name="Trazado 881723" d="M552.555,170.908l-2.085.782a1.093,1.093,0,0,0,1.417.691,1.166,1.166,0,0,0,.669-1.473" transform="translate(-500.059 -149.208)" fill="#f28f8f"/>
        <path id="Trazado_881724" data-name="Trazado 881724" d="M543.462,160.123l1.782-1.373a1.081,1.081,0,0,0-1.549-.238,1.183,1.183,0,0,0-.233,1.611" transform="translate(-499.036 -147.422)" fill="#263238"/>
        <path id="Trazado_881725" data-name="Trazado 881725" d="M544.137,163.1a.914.914,0,1,0,.913-.952.928.928,0,0,0-.913.952" transform="translate(-499.163 -147.968)" fill="#263238"/>
        <path id="Trazado_881726" data-name="Trazado 881726" d="M549.036,162.245l-.3,5.493-2.868-.978Z" transform="translate(-499.408 -147.982)" fill="#f28f8f"/>
        <path id="Trazado_881727" data-name="Trazado 881727" d="M561.557,331.195v-.865c-.579.252-1.922,5.378-4.32,7.565-1.906,1.739-4.506,3.747-5.168,5.686-.688,2.016,3.622,3.129,5.4,2.814,2.07-.367,5.657-1.824,6.556-3.175s1.322-3.344,2.053-4.334,2.418-2.095,2.814-3.241a7.3,7.3,0,0,0-.346-3.172c-.28-1.069-.584-2.244-.949-2.144,0,.131,0,.659,0,.659a4.781,4.781,0,0,1-3.022,1.021c-.884.034-3.029-.141-3.022-.816" transform="translate(-500.275 -171.768)" fill="#263238"/>
        <path id="Trazado_881728" data-name="Trazado 881728" d="M541.213,323.8c-.313.011-.569.453-1.261,1.2a13.223,13.223,0,0,1-3.556,2.558c-2.263,1.132-6.662,2.875-8.654,3.772-1.244.561-1.186,2.063.1,2.918s4.39,1.471,8.118.638c2.03-.454,4.674-2.33,6.348-2.229s4.8.077,6.039-.774.741-2.67.392-4.231c-.381-1.7-.858-4.365-1.422-4.248V324c-.727,1.1-4.476,1.548-6.073.737Z" transform="translate(-496.715 -170.789)" fill="#263238"/>
        <path id="Trazado_881729" data-name="Trazado 881729" d="M553.826,248.1a22.387,22.387,0,0,1-8.417-4.826s1.625,3.041,6.454,5.87l-.644,21.362Z" transform="translate(-499.343 -159.448)" fill="#263238"/>
        <path id="Trazado_881730" data-name="Trazado 881730" d="M566.089,183.31c2.878,1.41,4.046,3.557,2.768,8.342-1.148,4.3-5.552,11.621-9.017,15.207,0,0-5.928-2.808-9.084-6.459,3.126-4.781,4.627-7.592,7.561-11.634s6.014-5.939,7.771-5.456" transform="translate(-500.099 -150.953)" fill="#aec2dd"/>
      </g>
      <g id="Grupo_1102454" data-name="Grupo 1102454" transform="translate(-1611.043 -10490.517)">
        <path id="Trazado_881692" data-name="Trazado 881692" d="M153.345,355.535c-13.409,7.29-35.151,7.29-48.56,0s-13.409-19.106,0-26.4,35.151-7.288,48.56,0,13.409,19.109,0,26.4" transform="translate(-86.717 -174.92)" fill="#e6d09e"/>
        <path id="Trazado_881693" data-name="Trazado 881693" d="M113.269,316.192s-.324-7.57-3.649-13.663-8.2-10.091-12.964-10.808-8.942,3.418-4.031,6.8,13.8,7.117,17.191,18.73Z" transform="translate(-86.144 -170.655)" fill="#27debf"/>
        <g id="Grupo_1102380" data-name="Grupo 1102380" transform="translate(4.28 120.985)" opacity="0.15">
          <g id="Grupo_1102379" data-name="Grupo 1102379" transform="translate(0 0)">
            <g id="Grupo_1102378" data-name="Grupo 1102378" clip-path="url(#clip-path-14)">
              <path id="Trazado_881694" data-name="Trazado 881694" d="M113.269,316.192s-.324-7.57-3.649-13.663-8.2-10.091-12.964-10.808-8.942,3.418-4.031,6.8,13.8,7.117,17.191,18.73Z" transform="translate(-90.424 -291.64)"/>
            </g>
          </g>
        </g>
        <path id="Trazado_881695" data-name="Trazado 881695" d="M112.574,314.474a.219.219,0,0,0,.052-.011.256.256,0,0,0,.164-.323c-4.176-12.8-13.433-18.679-17.743-20a.257.257,0,0,0-.151.491c4.223,1.291,13.295,7.063,17.406,19.666a.255.255,0,0,0,.271.175" transform="translate(-86.715 -170.986)" fill="#fff"/>
        <path id="Trazado_881696" data-name="Trazado 881696" d="M85.625,314.812a4.512,4.512,0,0,0,2.51,2.193,5.211,5.211,0,0,1,2.64,2.06c1.009,2.066-1.074,4.724.023,6.743a3.563,3.563,0,0,0,2.328,1.579,23.9,23.9,0,0,0,2.371.381,9.611,9.611,0,0,0,1.14-.008,5.16,5.16,0,0,1,3.259.582c1.515,1,1.859,3.024,2.709,4.627a7.511,7.511,0,0,0,5.08,3.708,5.227,5.227,0,0,0,2.762.012,1.144,1.144,0,0,0,.156-.085.07.07,0,0,0,.015-.011c.107-.1.242-.238.3-.312a.138.138,0,0,0,.032-.045c.352-1.01-.029-2.113.028-3.178,0-.067.006-.129.015-.192.131-1.233.252-2.459.368-3.69q.326-3.4.548-6.807c.088-1.475.38-3.077-.146-4.51-.583-1.576-2.3-1.731-2.842-3.276-.218-.615-.311-1.266-.52-1.888a5.3,5.3,0,0,0-4.276-3.457c-2.988-.363-5.851,1.875-8.832,1.443a22.683,22.683,0,0,1-2.265-.6c-2.4-.627-5.254-.133-6.765,1.826a3.156,3.156,0,0,0-.636,2.9" transform="translate(-85.487 -172.992)" fill="#27debf"/>
        <path id="Trazado_881697" data-name="Trazado 881697" d="M111.97,331.958l.021,0a.256.256,0,0,0,.2-.3c-3.048-15.84-19.271-19.242-23.123-19.235a.256.256,0,1,0,0,.512c3.768-.006,19.637,3.322,22.62,18.819a.255.255,0,0,0,.279.206" transform="translate(-85.93 -173.421)" fill="#fff"/>
        <path id="Trazado_881698" data-name="Trazado 881698" d="M95.127,323.887a.255.255,0,0,0,.14-.062,13.651,13.651,0,0,1,11.369-2.354.257.257,0,0,0,.111-.5,14.173,14.173,0,0,0-11.819,2.471.257.257,0,0,0-.023.361.26.26,0,0,0,.222.086" transform="translate(-86.732 -174.511)" fill="#fff"/>
        <g id="Grupo_1102416" data-name="Grupo 1102416" transform="translate(20.388 0)">
          <g id="Grupo_1102448" data-name="Grupo 1102448" transform="translate(0 0)">
            <path id="Trazado_881732" data-name="Trazado 881732" d="M135.728,186.545c3.215-.011,6.621-.925,9.362,3.228s10.758,22.606,10.758,22.606-6.521,3.475-6.688,3.226S138,197,138,197Z" transform="translate(-112.564 -156.649)" fill="#ffa8a7"/>
            <path id="Trazado_881733" data-name="Trazado 881733" d="M129.555,178.116h0A13.358,13.358,0,0,1,116.2,164.758v-1.364a11.321,11.321,0,0,1,11.321-11.321h4.074a11.321,11.321,0,0,1,11.321,11.321v1.364a13.358,13.358,0,0,1-13.358,13.358" transform="translate(-109.964 -152.072)" fill="#605841"/>
            <path id="Trazado_881735" data-name="Trazado 881735" d="M109.607,180.867h0a6.216,6.216,0,0,0,6.216-6.216v-12.36a6.217,6.217,0,0,0-6.216,6.216Z" transform="translate(-109.086 -153.433)" fill="#605841"/>
            <path id="Trazado_881737" data-name="Trazado 881737" d="M145.729,337.183a36.246,36.246,0,0,0,5.223,4.542,2.231,2.231,0,0,1,.726.751c.246.511.628,1.78-1.707,2.594a8.684,8.684,0,0,1-7.206-.691c-1.918-1.2-2-3.7-3.812-5.122-1.341-1.056-3.016-1.326-4.1-2.7-.755-.961-.558-2.238-.165-3.819.43-1.727.628-3.033,1.2-2.9l-.094.794c.713,1.138,4.408,1.474,6.052.688a67.623,67.623,0,0,0,3.884,5.868" transform="translate(-112.379 -175.738)" fill="#263238"/>
            <path id="Trazado_881738" data-name="Trazado 881738" d="M147.57,338.039v-.012c-.555-.509-1.1-1.033-1.62-1.6a44.977,44.977,0,0,1-3.016-4.445,6.843,6.843,0,0,1-1.289-3.248c-.038-1.527.109-4.243.109-4.243l-5.472-.361-.269,5.741c-.141,1.3.934,2.457,2.84,4.1s4.325,5.471,6.05,6.434,2.958.928,3.694.435c.757-.508.831-.9-1.026-2.8" transform="translate(-112.601 -174.98)" fill="#ffa8a7"/>
            <path id="Trazado_881739" data-name="Trazado 881739" d="M124.7,343.495a36.251,36.251,0,0,0,5.223,4.542,2.232,2.232,0,0,1,.726.751c.246.511.628,1.78-1.707,2.595a8.684,8.684,0,0,1-7.206-.691c-1.918-1.2-2-3.7-3.812-5.122-1.342-1.056-3.016-1.326-4.1-2.7-.755-.961-.558-2.238-.165-3.819.429-1.727.628-3.033,1.2-2.9l-.094.794c.713,1.138,4.408,1.474,6.052.688a67.63,67.63,0,0,0,3.883,5.868" transform="translate(-109.58 -176.579)" fill="#263238"/>
            <path id="Trazado_881740" data-name="Trazado 881740" d="M126.546,344.414V344.4c-.555-.509-1.1-1.033-1.62-1.6a44.888,44.888,0,0,1-3.016-4.446,7.73,7.73,0,0,1-1.282-3.3c-.1-1.341-.029-4.129-.029-4.129l-5.472.029-.137,5.293c-.141,1.3.934,2.457,2.84,4.1s4.325,5.471,6.05,6.434,2.958.927,3.694.435c.757-.508.831-.9-1.026-2.8" transform="translate(-109.801 -175.884)" fill="#ffa8a7"/>
            <path id="Trazado_881741" data-name="Trazado 881741" d="M114.771,228.4c-4.77,10.42.655,49.927.655,49.927-.143,1.69-1.635,4.317-1.809,9.483-.224,6.629.953,31.111.953,31.111a6.912,6.912,0,0,0,6.242.124s5.649-33.232,6.752-41.974c.962-7.63,2.809-25.564,2.809-25.564l3.8,25.522a24.628,24.628,0,0,0-2.054,8.107c-.136,5.165.626,29.133.626,29.133a14.449,14.449,0,0,0,6.343.218s5.746-32.436,6.286-38.625c.322-3.7-2.44-49.023-2.44-49.023Z" transform="translate(-109.513 -162.027)" fill="#37474f"/>
            <path id="Trazado_881742" data-name="Trazado 881742" d="M133.071,253.349l1.549-8.52s6.552-1.357,9.523-4.151a16.952,16.952,0,0,1-7.748,5.148l-1.74,7.451,1.719,22.268Z" transform="translate(-112.21 -163.869)" fill="#263238"/>
            <path id="Trazado_881743" data-name="Trazado 881743" d="M124.383,186.8h0c-4.185.578-6.429,1.5-7.781,5.436a15.34,15.34,0,0,0,.244,8.931L120.5,211.86a57.612,57.612,0,0,0-5.433,11.176c10.7,5.97,24.948,2.795,28.163-1.561.136-.924-.731-5.391-.471-10.13.277-5.053,1.088-10.857.293-13.98a14.5,14.5,0,0,0-10.08-10.806Z" transform="translate(-109.814 -156.664)" fill="#f5f5f5"/>
            <path id="Trazado_881744" data-name="Trazado 881744" d="M122.194,199.781c-.182,2.75-1.012,10.307-1.012,10.307l3.506,5.541-3.876-2.009-3.437-10.044Z" transform="translate(-110.12 -158.424)" fill="#e6e6e6"/>
            <path id="Trazado_881745" data-name="Trazado 881745" d="M138.953,158.458c1.446.855,3.233,4.491,3.057,12.113-.15,6.462-2.244,8.057-3.295,8.517s-3.08.18-5.051-.148v3.877s2.725,3.165,2.553,4.943-3.935,2.2-6.484.461a16.485,16.485,0,0,1-4.184-4.38v-9.373a2.475,2.475,0,0,1-3.508.332c-2.178-1.446-2.26-5.024-.994-6.309s3.994-.878,4.5.9a15.586,15.586,0,0,0,7.331-2.185,11.767,11.767,0,0,0,6.074-8.745" transform="translate(-110.499 -152.922)" fill="#ffa8a7"/>
            <path id="Trazado_881746" data-name="Trazado 881746" d="M136.785,170.436a.813.813,0,1,1-.854-.8.826.826,0,0,1,.854.8" transform="translate(-112.489 -154.41)" fill="#263238"/>
            <path id="Trazado_881747" data-name="Trazado 881747" d="M137.278,176.878l1.886.6a.973.973,0,0,1-1.227.677,1.036,1.036,0,0,1-.659-1.279" transform="translate(-112.765 -155.375)" fill="#f28f8f"/>
            <path id="Trazado_881748" data-name="Trazado 881748" d="M144.467,167.437l-1.644-1.139a.96.96,0,0,1,1.365-.281,1.052,1.052,0,0,1,.278,1.42" transform="translate(-113.509 -153.906)" fill="#27debf"/>
            <g id="Grupo_1102405" data-name="Grupo 1102405" transform="translate(29.313 11.938)" opacity="0.2">
              <g id="Grupo_1102404" data-name="Grupo 1102404">
                <g id="Grupo_1102403" data-name="Grupo 1102403" clip-path="url(#clip-path-15)">
                  <path id="Trazado_881749" data-name="Trazado 881749" d="M144.467,167.437l-1.644-1.139a.96.96,0,0,1,1.365-.281,1.052,1.052,0,0,1,.278,1.42" transform="translate(-142.822 -165.844)"/>
                </g>
              </g>
            </g>
            <path id="Trazado_881750" data-name="Trazado 881750" d="M144.033,169.758a.813.813,0,1,1-.854-.8.826.826,0,0,1,.854.8" transform="translate(-113.454 -154.32)" fill="#263238"/>
            <path id="Trazado_881751" data-name="Trazado 881751" d="M139.86,169.346l.129,4.891,2.574-.8Z" transform="translate(-113.114 -154.372)" fill="#f28f8f"/>
            <path id="Trazado_881752" data-name="Trazado 881752" d="M134.65,181.6c-2.078-.272-6.352-1.5-7.019-3.19a4.378,4.378,0,0,0,1.5,2.156c1.276,1.095,5.519,2.327,5.519,2.327Z" transform="translate(-111.486 -155.578)" fill="#f28f8f"/>
            <path id="Trazado_881753" data-name="Trazado 881753" d="M170.8,205.238l-22.155,5.835-6.54,27.5,21.064-6.118Z" transform="translate(-113.414 -159.151)" fill="#aec2dd"/>
            <g id="Grupo_1102408" data-name="Grupo 1102408" transform="translate(47.729 64.281)" opacity="0.1">
              <g id="Grupo_1102407" data-name="Grupo 1102407">
                <g id="Grupo_1102406" data-name="Grupo 1102406" clip-path="url(#clip-path-16)">
                  <path id="Trazado_881754" data-name="Trazado 881754" d="M164.066,226.226a3.98,3.98,0,0,0,4,2l.319-1.136Z" transform="translate(-164.066 -226.226)"/>
                </g>
              </g>
            </g>
            <g id="Grupo_1102411" data-name="Grupo 1102411" transform="translate(31.282 65.141)" opacity="0.1">
              <g id="Grupo_1102410" data-name="Grupo 1102410">
                <g id="Grupo_1102409" data-name="Grupo 1102409" clip-path="url(#clip-path-17)">
                  <path id="Trazado_881755" data-name="Trazado 881755" d="M156.589,227.218c-.1.732-1.605,2.09-4.151,2.94-2.9.966-7.344.454-7.344.454l.4-1.367Z" transform="translate(-145.093 -227.218)"/>
                </g>
              </g>
            </g>
            <g id="Grupo_1102414" data-name="Grupo 1102414" transform="translate(41.464 48.86)" opacity="0.1">
              <g id="Grupo_1102413" data-name="Grupo 1102413">
                <g id="Grupo_1102412" data-name="Grupo 1102412" clip-path="url(#clip-path-18)">
                  <path id="Trazado_881756" data-name="Trazado 881756" d="M166.277,209.645s.081-.379.183-.845-1.2-.486-2.9-.044l-3.265.846c-1.7.442-3.168,1.179-3.269,1.645l-.183.845Z" transform="translate(-156.839 -208.437)"/>
                </g>
              </g>
            </g>
            <path id="Trazado_881757" data-name="Trazado 881757" d="M167.727,205.979c.064-.291-.463-.368-1.176-.171l-1.293.357s.385-1.827-2.484-1.189a4.5,4.5,0,0,0-3.5,2.714l-1.38.392c-.762.217-1.453.628-1.543.918l-.163.525,11.412-3s.057-.251.121-.542" transform="translate(-115.289 -159.098)" fill="#37474f"/>
            <path id="Trazado_881758" data-name="Trazado 881758" d="M166.52,207.153c-1.045.252-1.481.391-1.637,1.11-.179.822-.251,1.424-.251,1.424l-5.051,1.335s.244-1.04.322-1.446-.094-.649-.9-.437l-.068-.322,7.914-2.015Z" transform="translate(-115.655 -159.359)" fill="#37474f"/>
            <path id="Trazado_881759" data-name="Trazado 881759" d="M166.436,209.737s.081-.379.183-.845-1.2-.486-2.9-.044l-3.265.846c-1.7.442-3.168,1.179-3.269,1.645l-.183.845Z" transform="translate(-115.396 -159.589)" fill="#37474f"/>
            <path id="Trazado_881760" data-name="Trazado 881760" d="M113.715,224.143l4.044-6.742s17.743,5.2,19.505,5.336a4.621,4.621,0,0,0,4.392-2.836c.672-1.73,1.855-1.514,1.855-1.514s-.521,2.192-.688,2.893,4.058,1.276,6.4.483,5.734.358,3.633,3.548-6.186,3.558-9.024,3.56a29.838,29.838,0,0,1-3.549-.237c-.918-.12-1.832-.212-2.755-.278a201.3,201.3,0,0,1-23.814-4.212" transform="translate(-109.633 -160.77)" fill="#ffa8a7"/>
            <path id="Trazado_881761" data-name="Trazado 881761" d="M171.349,214.436s-.794,2.83-.983,3.506-2.765,1.9-4.394,2.35-3.409.978-2.639,3.255c.711,2.1,3.39,2.579,4.755,2.519a5.04,5.04,0,0,0,3.968-3.465c.939-2.681.433-5.545.806-7.112s-.7-1.987-1.513-1.053" transform="translate(-116.215 -160.31)" fill="#ffa8a7"/>
            <path id="Trazado_881762" data-name="Trazado 881762" d="M117.132,213.408l3.549-13.485s2.041-7.306,0-12.436c0,0-1.686-.606-4.259,1.523s-3.992,6.92-4.88,10.824-2.732,16.768-2.519,18.1,2.611,2.164,9.7,3.5Z" transform="translate(-109.006 -156.777)" fill="#ffa8a7"/>
          </g>
        </g>
      </g>
      <path id="Unión_14" data-name="Unión 14" d="M3327,11743.669a13,13,0,0,1-13-13v-2.623a13,13,0,0,1,13-13h91.216l14.176-41.044,13.74,41.044H3537a13,13,0,0,1,13,13v2.623a13,13,0,0,1-13,13Z" transform="translate(-4877.499 -22029.002)" fill="#3d5756"/>
      <text id="Trabajo_en_equipo" data-name="Trabajo en equipo" transform="translate(-1519.998 -10292.334)" fill="#fff" font-size="18" font-family="SegoeUI-Bold, Segoe UI" font-weight="700"><tspan x="0" y="0">Trabajo en equipo</tspan></text>
    </g>
  </g>
</svg>
