<svg xmlns="http://www.w3.org/2000/svg" xmlns:xlink="http://www.w3.org/1999/xlink" width="72" height="72" viewBox="0 0 72 72">
  <defs>
    <clipPath id="clip-path">
      <rect id="Rectángulo_460074" data-name="Rectángulo 460074" width="72" height="72" transform="translate(288 11564)" fill="#fff" stroke="#707070" stroke-width="1"/>
    </clipPath>
  </defs>
  <g id="Grupo_1098730" data-name="Grupo 1098730" transform="translate(-288 -11564)" clip-path="url(#clip-path)">
    <path id="carisma" d="M24.563,57.4c0-1.047.773-2.183,2.475-3.106,2.88-1.561,8.721-2.85,16.091-3.5a13.8,13.8,0,0,1,6.8-5.071,7.5,7.5,0,1,1,8.855,0,13.72,13.72,0,0,1,3.146,1.541,6.734,6.734,0,0,0,.86-1.5,1.09,1.09,0,0,1,2.015,0,6.764,6.764,0,0,0,3.661,3.66,1.09,1.09,0,0,1,.415,1.713c5.882.718,10.478,1.866,12.892,3.21,1.635.91,2.375,2.022,2.375,3.051V73.5a1.09,1.09,0,0,1-1.09,1.09H25.653a1.09,1.09,0,0,1-1.09-1.09ZM41.8,53.114a50.878,50.878,0,0,0-12.431,2.509,8.118,8.118,0,0,0-2.155,1.156c-.259.215-.47.392-.47.624s.2.4.448.605a7.789,7.789,0,0,0,2.074,1.134c4.7,1.891,14.179,3.158,25.09,3.158s20.388-1.267,25.09-3.158a7.789,7.789,0,0,0,2.074-1.134c.247-.209.448-.381.448-.605s-.2-.392-.439-.6a7.662,7.662,0,0,0-2.042-1.125,50,50,0,0,0-12.573-2.566,13.682,13.682,0,0,1,1.131,4.173,1.09,1.09,0,0,1-1.084,1.206H41.749a1.09,1.09,0,0,1-1.084-1.207A13.7,13.7,0,0,1,41.8,53.114Zm12.557-5.935a11.6,11.6,0,0,0-11.328,9.134H65.683a11.493,11.493,0,0,0-.568-1.858,6.735,6.735,0,0,0-.31.649,1.09,1.09,0,0,1-2.015,0,6.764,6.764,0,0,0-3.66-3.661,1.09,1.09,0,0,1,0-2.015,6.729,6.729,0,0,0,1.159-.618,11.536,11.536,0,0,0-5.934-1.632Zm0-2.18a5.321,5.321,0,1,0-5.318-5.321A5.33,5.33,0,0,0,54.355,45ZM26.743,60.339V72.406H81.968V60.339a12.711,12.711,0,0,1-1.709.826c-4.856,1.953-14.636,3.316-25.9,3.316s-21.048-1.362-25.9-3.316a12.711,12.711,0,0,1-1.709-.826ZM63.8,48.408a8.969,8.969,0,0,1-2.028,2.028A8.972,8.972,0,0,1,63.8,52.464a8.973,8.973,0,0,1,2.028-2.028A8.972,8.972,0,0,1,63.8,48.408ZM27.39,20.981l-.586.338a1.09,1.09,0,0,1-1.489-.4l-2.036-3.527A4.311,4.311,0,0,1,24.857,11.5l6.8-3.927a4.311,4.311,0,0,1,5.889,1.578l2.036,3.527a1.09,1.09,0,0,1-.4,1.489l-.6.349,7.795,8.449,1.509-6.5h-.676a1.09,1.09,0,0,1-1.09-1.09V11.311A4.311,4.311,0,0,1,50.429,7h7.853a4.311,4.311,0,0,1,4.311,4.311v4.073a1.09,1.09,0,0,1-1.09,1.09h-.676l1.5,6.437,7.8-8.4-.595-.343a1.09,1.09,0,0,1-.4-1.489l2.036-3.527a4.311,4.311,0,0,1,5.889-1.578l6.8,3.927a4.311,4.311,0,0,1,1.578,5.889L83.4,20.92a1.09,1.09,0,0,1-1.489.4l-.586-.338L76.2,37.816a1.09,1.09,0,0,1-2.086-.635l5.27-17.319-7.325-4.229-9.141,9.84,1.891,8.141a1.09,1.09,0,1,1-2.124.493l-4.1-17.634H50.122l-4.1,17.634a1.09,1.09,0,1,1-2.124-.493l1.876-8.076-9.134-9.9-7.316,4.224L34.6,37.181a1.09,1.09,0,0,1-2.086.635Zm-.731-2.1L37.15,12.828l-1.491-2.583a2.131,2.131,0,0,0-2.911-.78l-6.8,3.927a2.131,2.131,0,0,0-.78,2.911ZM48.3,14.293H60.412V11.311A2.131,2.131,0,0,0,58.282,9.18H50.428A2.131,2.131,0,0,0,48.3,11.311ZM71.56,12.828l10.492,6.057L83.543,16.3a2.131,2.131,0,0,0-.78-2.911l-6.8-3.927a2.131,2.131,0,0,0-2.911.78Zm-30.339,26.4A4.954,4.954,0,0,0,43.9,41.9a1.09,1.09,0,0,1,0,2.015A4.954,4.954,0,0,0,41.221,46.6a1.09,1.09,0,0,1-2.015,0,4.954,4.954,0,0,0-2.681-2.681,1.09,1.09,0,0,1,0-2.015,4.954,4.954,0,0,0,2.681-2.681,1.09,1.09,0,0,1,2.015,0Zm-1.008,2.543a7.156,7.156,0,0,1-1.145,1.145,7.145,7.145,0,0,1,1.145,1.145,7.156,7.156,0,0,1,1.145-1.145A7.168,7.168,0,0,1,40.213,41.767Zm29.335-5.088a4.954,4.954,0,0,0,2.681,2.681,1.09,1.09,0,0,1,0,2.015,4.954,4.954,0,0,0-2.681,2.681,1.09,1.09,0,0,1-2.015,0,4.955,4.955,0,0,0-2.681-2.681,1.09,1.09,0,0,1,0-2.015,4.954,4.954,0,0,0,2.681-2.681,1.09,1.09,0,0,1,2.015,0ZM68.54,39.223A7.157,7.157,0,0,1,67.4,40.368a7.15,7.15,0,0,1,1.145,1.145,7.168,7.168,0,0,1,1.145-1.145,7.161,7.161,0,0,1-1.145-1.145ZM55.363,22.378a4.954,4.954,0,0,0,2.681,2.681,1.09,1.09,0,0,1,0,2.015,4.954,4.954,0,0,0-2.681,2.681,1.09,1.09,0,0,1-2.015,0,4.954,4.954,0,0,0-2.681-2.681,1.09,1.09,0,0,1,0-2.015,4.954,4.954,0,0,0,2.681-2.681,1.09,1.09,0,0,1,2.015,0Zm-1.008,2.543a7.162,7.162,0,0,1-1.145,1.145,7.155,7.155,0,0,1,1.145,1.145A7.168,7.168,0,0,1,55.5,26.066,7.156,7.156,0,0,1,54.355,24.921Z" transform="translate(272.781 11559.385)" fill="#fff" fill-rule="evenodd"/>
  </g>
</svg>
