<svg id="presentacion_2_" data-name="presentacion (2)" xmlns="http://www.w3.org/2000/svg" width="64.793" height="67.609" viewBox="0 0 64.793 67.609">
  <path id="Trazado_998066" data-name="Trazado 998066" d="M237.881,48.7H202.668V45.881h32.4V10.668h2.817Zm0,0" transform="translate(-175.906 -9.259)" fill="#fff"/>
  <path id="Trazado_998067" data-name="Trazado 998067" d="M309.332,288h2.817v7.043h-2.817Zm0,0" transform="translate(-268.485 -249.969)" fill="#fff"/>
  <path id="Trazado_998068" data-name="Trazado 998068" d="M202.668,0H240.7V2.817H202.668Zm0,0" transform="translate(-175.906)" fill="#fff"/>
  <path id="Trazado_998069" data-name="Trazado 998069" d="M51.119,16.9A8.451,8.451,0,1,1,59.57,8.451,8.451,8.451,0,0,1,51.119,16.9Zm0-14.086a5.634,5.634,0,1,0,5.634,5.634A5.634,5.634,0,0,0,51.119,2.817Zm0,0" transform="translate(-37.034)" fill="#fff"/>
  <path id="Trazado_998070" data-name="Trazado 998070" d="M96,352h2.817v19.719H96Zm0,0" transform="translate(-83.323 -305.518)" fill="#fff"/>
  <path id="Trazado_998071" data-name="Trazado 998071" d="M59.57,262.031h-16.9V224h2.817v35.214H56.753V240.9H59.57Zm0,0" transform="translate(-37.034 -194.421)" fill="#fff"/>
  <path id="Trazado_998072" data-name="Trazado 998072" d="M22.537,177.5H19.719V156.375H33.1a2.113,2.113,0,0,0,0-4.226H8.451a5.634,5.634,0,0,0-5.634,5.634v11.269a2.817,2.817,0,0,0,2.817,2.817H7.043v2.817H5.634A5.634,5.634,0,0,1,0,169.052V157.783a8.469,8.469,0,0,1,8.451-8.451H33.1a4.93,4.93,0,0,1,0,9.86H22.537Zm0,0" transform="translate(0 -129.613)" fill="#fff"/>
</svg>
