<svg xmlns="http://www.w3.org/2000/svg" width="62" height="62" viewBox="0 0 62 62">
  <g id="Grupo_1180287" data-name="Grupo 1180287" transform="translate(4501 3203)">
    <g id="Grupo_1180287-2" data-name="Grupo 1180287" transform="translate(-5022 -9540)">
      <rect id="Rectángulo_460057" data-name="Rectángulo 460057" width="62" height="62" transform="translate(521 6337)" fill="none"/>
    </g>
    <g id="competencia" transform="translate(-4501 -3198)">
      <path id="Trazado_998073" data-name="Trazado 998073" d="M207.786,42.246a5.123,5.123,0,1,1,5.123-5.123A5.128,5.128,0,0,1,207.786,42.246Zm0-7.684a2.561,2.561,0,1,0,2.562,2.561A2.564,2.564,0,0,0,207.786,34.562Zm0,0" transform="translate(-178.331 -28.158)" fill="#7d420e"/>
      <path id="Trazado_998074" data-name="Trazado 998074" d="M122.178,221.458a1.282,1.282,0,0,1-1.216-.875l-3.619-10.859-9.564-2.391a7.35,7.35,0,0,1-4.874-3.676,5.077,5.077,0,0,1,.2-4.543l2.562-5.123a1.281,1.281,0,1,1,2.291,1.146l-2.562,5.123a2.573,2.573,0,0,0-.161,2.326,4.888,4.888,0,0,0,3.169,2.263l10.246,2.562a1.276,1.276,0,0,1,.9.836l3.375,10.125.381-.189-2.281-12.559-8.448-4.827a1.281,1.281,0,0,1-.554-1.587l2.561-6.4a1.282,1.282,0,0,1,1.763-.67l4.729,2.365,12.377-2.475a1.281,1.281,0,1,1,.5,2.512L121.149,197.1a1.293,1.293,0,0,1-.825-.11l-3.878-1.939-1.63,4.077,8,4.57a1.271,1.271,0,0,1,.624.882L126,218.667a1.279,1.279,0,0,1-.687,1.374l-2.561,1.281a1.276,1.276,0,0,1-.574.136Zm0,0" transform="translate(-90.16 -168.948)" fill="#7d420e"/>
      <path id="Trazado_998075" data-name="Trazado 998075" d="M2.561,110.09a1.3,1.3,0,0,1-.378-.057,1.279,1.279,0,0,1-.767-.651L.135,106.822a1.281,1.281,0,0,1,.36-1.584l11.526-8.965a1.276,1.276,0,0,1,1-.252L20.7,97.3a1.3,1.3,0,0,1,.411.144l11.236,6.242H44.824a1.281,1.281,0,1,1,0,2.562H32.017a1.282,1.282,0,0,1-.623-.161l-11.333-6.3L13.15,98.639,2.9,106.615l.212.427,10.357-5.754a1.281,1.281,0,0,1,1.333.053L18.64,103.9a1.281,1.281,0,0,1-1.422,2.131l-3.193-2.129L3.182,109.93a1.282,1.282,0,0,1-.621.16Zm0,0" transform="translate(0 -84.476)" fill="#7d420e"/>
      <path id="Trazado_998076" data-name="Trazado 998076" d="M35.839,324.714a1.279,1.279,0,0,1-.906-.375l-2.561-2.562a1.279,1.279,0,0,1-.067-1.738l7.684-8.965a1.28,1.28,0,0,1,1.944,1.666l-6.912,8.065.859.861L49.065,309.68a1.281,1.281,0,1,1,1.724,1.9L36.7,324.382a1.282,1.282,0,0,1-.862.332Zm0,0" transform="translate(-28.155 -272.205)" fill="#7d420e"/>
      <path id="Trazado_998077" data-name="Trazado 998077" d="M335.786,10.246a5.123,5.123,0,1,1,5.123-5.123A5.128,5.128,0,0,1,335.786,10.246Zm0-7.684a2.561,2.561,0,1,0,2.562,2.561A2.564,2.564,0,0,0,335.786,2.562Zm0,0" transform="translate(-290.962)" fill="#7d420e"/>
      <path id="Trazado_998078" data-name="Trazado 998078" d="M300.806,255.168a1.279,1.279,0,0,1-1.214-.875l-3.641-10.918-7.076-2.361a1.281,1.281,0,0,1,.81-2.429l7.684,2.561a1.274,1.274,0,0,1,.81.81l3.376,10.125.382-.189-2.275-12.514-4.55-2.274a1.281,1.281,0,0,1,1.146-2.292l5.123,2.562a1.281,1.281,0,0,1,.686.917l2.562,14.088a1.28,1.28,0,0,1-.687,1.374l-2.561,1.281a1.3,1.3,0,0,1-.575.135Zm0,0" transform="translate(-253.42 -206.5)" fill="#7d420e"/>
      <path id="Trazado_998079" data-name="Trazado 998079" d="M311.469,98.143a1.28,1.28,0,0,1-.157-2.551l9.445-1.181.462-1.391H310.19a1.287,1.287,0,0,1-.711-.215L302.117,87.9h-2.173a1.281,1.281,0,0,1,0-2.561h2.562a1.29,1.29,0,0,1,.711.215l7.362,4.908H323a1.281,1.281,0,0,1,1.216,1.687l-1.281,3.842a1.279,1.279,0,0,1-1.055.865l-10.246,1.281a1.366,1.366,0,0,1-.162.009Zm0,0" transform="translate(-262.804 -75.09)" fill="#7d420e"/>
    </g>
  </g>
</svg>
