<svg xmlns="http://www.w3.org/2000/svg" width="62" height="62" viewBox="0 0 62 62">
  <g id="Grupo_1180288" data-name="Grupo 1180288" transform="translate(4252 3203)">
    <g id="Grupo_1180289" data-name="Grupo 1180289" transform="translate(-4773 -9540)">
      <rect id="Rectángulo_460057" data-name="Rectángulo 460057" width="62" height="62" transform="translate(521 6337)" fill="none"/>
    </g>
    <g id="ignorar" transform="translate(-4309.215 -3201)">
      <path id="Trazado_998080" data-name="Trazado 998080" d="M95.311,30.117c0-.07.005-.139.005-.209V28.082a12.8,12.8,0,0,0,4.421-4.744,12.019,12.019,0,0,0,1.278,2.155,3.389,3.389,0,0,0,5.145-4.411,11.654,11.654,0,0,0-1.853-1.606,6.635,6.635,0,0,0,1.673-.958,3.389,3.389,0,1,0-4.411-5.145c-.09.077-.2.182-.322.31v-.975a12.707,12.707,0,1,0-25.414,0v4.631a12.708,12.708,0,0,0,5.93,10.744v1.826c0,.069,0,.138.005.207A16.267,16.267,0,0,0,67.217,46.29V56.7a1.129,1.129,0,0,0,1.13,1.13H83.456a1.13,1.13,0,1,0,0-2.259H77.865V46.278a1.13,1.13,0,0,0-2.259,0v9.293h-6.13v-9.29c0-.006,0-.011,0-.017a13.97,13.97,0,0,1,12.74-13.921,6.775,6.775,0,0,0,12.645,0A13.97,13.97,0,0,1,107.6,46.264c0,.006,0,.011,0,.017v9.29h-6.13V46.278a1.13,1.13,0,1,0-2.259,0v9.293H93.622a1.13,1.13,0,1,0,0,2.259h15.109a1.129,1.129,0,0,0,1.13-1.13V46.29A16.266,16.266,0,0,0,95.311,30.117ZM88.217,10.156a17.32,17.32,0,0,0,2.515,2.059c.391.263.782.5,1.173.722H84.959a14.943,14.943,0,0,0,3.258-2.781ZM78.091,17.338V15.2h20.9v2.142a10.522,10.522,0,0,1-.075,1.247H78.166a10.519,10.519,0,0,1-.075-1.247Zm26.623,6.036a1.13,1.13,0,0,1-1.984.649,10.986,10.986,0,0,1-1.7-3.847,11.331,11.331,0,0,1,3.411,2.376A1.123,1.123,0,0,1,104.714,23.373Zm-1.675-8.286a1.13,1.13,0,1,1,1.47,1.715,6.366,6.366,0,0,1-3.256,1.1A6.9,6.9,0,0,1,103.038,15.087ZM88.539,2.259A10.46,10.46,0,0,1,98.987,12.707v.15a15.392,15.392,0,0,1-6.994-2.516,15.2,15.2,0,0,1-4.117-4.118,1.13,1.13,0,1,0-1.871,1.266q.335.495.7.962a12.626,12.626,0,0,1-3.4,2.845,12.58,12.58,0,0,1-5.215,1.6v-.188A10.46,10.46,0,0,1,88.539,2.259ZM78.7,20.844H98.381a10.448,10.448,0,0,1-19.684,0Zm9.842,13.582a4.523,4.523,0,0,1-4.518-4.518v-.694a12.7,12.7,0,0,0,9.036,0v.694A4.523,4.523,0,0,1,88.539,34.426Z" fill="#7d420e"/>
      <circle id="Elipse_11609" data-name="Elipse 11609" cx="1.13" cy="1.13" r="1.13" transform="translate(87.409 55.572)" fill="#7d420e"/>
      <path id="Trazado_998081" data-name="Trazado 998081" d="M240.518,206.4a1.129,1.129,0,0,0-1.13-1.13H237.13a1.13,1.13,0,1,0,0,2.259h2.259A1.129,1.129,0,0,0,240.518,206.4Z" transform="translate(-149.72 -182.085)" fill="#7d420e"/>
    </g>
  </g>
</svg>
