<svg xmlns="http://www.w3.org/2000/svg" xmlns:xlink="http://www.w3.org/1999/xlink" width="62" height="62" viewBox="0 0 62 62">
  <defs>
    <clipPath id="clip-path">
      <path id="path4170" d="M0-682.665H57.831v57.831H0Z" transform="translate(0 682.665)" fill="#7d420e"/>
    </clipPath>
  </defs>
  <g id="Grupo_1180289" data-name="Grupo 1180289" transform="translate(4005 3203)">
    <g id="Grupo_1180290" data-name="Grupo 1180290" transform="translate(-4526 -9540)">
      <rect id="Rectángulo_460057" data-name="Rectángulo 460057" width="62" height="62" transform="translate(521 6337)" fill="none"/>
    </g>
    <g id="g4164" transform="translate(-4003 -2518.335)">
      <g id="g4166" transform="translate(0 -682.665)">
        <g id="g4168" clip-path="url(#clip-path)">
          <g id="g4174" transform="translate(38.422 32.073)">
            <path id="path4176" d="M-115.673-69.71a1.129,1.129,0,0,1-.987-.578,4.411,4.411,0,0,0-2.9-2.155l-5.927-1.3a1.13,1.13,0,0,1-.888-1.1v-1.424a1.13,1.13,0,0,1,1.13-1.13,1.13,1.13,0,0,1,1.129,1.13v.515l5.039,1.1a6.671,6.671,0,0,1,4.394,3.258,1.13,1.13,0,0,1-.434,1.537A1.124,1.124,0,0,1-115.673-69.71Z" transform="translate(126.38 77.396)" fill="#7d420e"/>
          </g>
          <g id="g4178" transform="translate(22.045 42.695)">
            <path id="path4180" d="M14.452-2.716H-12.2a1.129,1.129,0,0,1-1.13-1.13V-12.2a1.13,1.13,0,0,1,1.13-1.13,1.129,1.129,0,0,1,1.13,1.13v7.229H14.452a1.13,1.13,0,0,1,1.13,1.13A1.13,1.13,0,0,1,14.452-2.716Z" transform="translate(13.333 13.333)" fill="#7d420e"/>
          </g>
          <g id="g4182" transform="translate(24.535 32.083)">
            <path id="path4184" d="M-103.76-7.583a1.128,1.128,0,0,1-.944-.508,1.129,1.129,0,0,1,.322-1.565,6.636,6.636,0,0,1,2.238-.944l5.01-1.1V-12.2A1.13,1.13,0,0,1-96-13.333a1.13,1.13,0,0,1,1.13,1.129v1.414a1.13,1.13,0,0,1-.887,1.1l-5.9,1.294a4.386,4.386,0,0,0-1.479.623A1.124,1.124,0,0,1-103.76-7.583Z" transform="translate(104.891 13.333)" fill="#7d420e"/>
          </g>
          <g id="g4186" transform="translate(32.291 33.497)">
            <path id="path4188" d="M-81.515-2.88a1.129,1.129,0,0,1-1.058-.734l-3.065-8.2a1.129,1.129,0,0,1,.662-1.454,1.13,1.13,0,0,1,1.454.662l2.008,5.369,2.008-5.369a1.13,1.13,0,0,1,1.454-.662,1.129,1.129,0,0,1,.662,1.454l-3.065,8.2A1.129,1.129,0,0,1-81.515-2.88Z" transform="translate(85.71 13.337)" fill="#7d420e"/>
          </g>
          <g id="g4190" transform="translate(28.88 15.466)">
            <path id="path4192" d="M-82.36-13.333a7.631,7.631,0,0,1,7.623,7.623v1.563a1.129,1.129,0,0,1-.568.98,1.129,1.129,0,0,1-1.133-.006l-3.569-2.1a8.24,8.24,0,0,1-5.671,2.252h-3.175a1.13,1.13,0,0,1-1.13-1.13V-5.711A7.631,7.631,0,0,1-82.36-13.333Zm5.347,7.2a5.371,5.371,0,0,0-5.347-4.944,5.37,5.37,0,0,0-5.364,5.364v.434h2.045a5.99,5.99,0,0,0,4.6-2.148,1.129,1.129,0,0,1,1.438-.248Z" transform="translate(89.982 13.333)" fill="#7d420e"/>
          </g>
          <g id="g4194" transform="translate(28.881 22.246)">
            <path id="path4196" d="M-159.008-.547A7.631,7.631,0,0,1-166.63-8.17V-12.2a1.13,1.13,0,0,1,1.13-1.13,1.129,1.129,0,0,1,1.129,1.13V-8.17a5.37,5.37,0,0,0,5.364,5.364,5.37,5.37,0,0,0,5.364-5.364V-12.2a1.13,1.13,0,0,1,1.13-1.13,1.13,1.13,0,0,1,1.13,1.13V-8.17A7.631,7.631,0,0,1-159.008-.547Z" transform="translate(166.63 13.333)" fill="#7d420e"/>
          </g>
          <path id="path4198" d="M56.7-73.223H1.13A1.13,1.13,0,0,1,0-74.352V-78.87A1.13,1.13,0,0,1,1.13-80H56.7a1.13,1.13,0,0,1,1.13,1.13v4.518A1.13,1.13,0,0,1,56.7-73.223ZM2.259-75.482H55.572v-2.259H2.259Z" transform="translate(0 131.053)" fill="#7d420e"/>
          <g id="g4200" transform="translate(0 0)">
            <path id="path4202" d="M-2.88-123.393A10.465,10.465,0,0,1,7.573-112.94,10.465,10.465,0,0,1-2.88-102.487,10.465,10.465,0,0,1-13.333-112.94,10.465,10.465,0,0,1-2.88-123.393Zm0,18.647a8.2,8.2,0,0,0,8.194-8.194,8.2,8.2,0,0,0-8.194-8.194,8.2,8.2,0,0,0-8.194,8.194A8.2,8.2,0,0,0-2.88-104.746Z" transform="translate(13.333 123.393)" fill="#7d420e"/>
          </g>
          <g id="g4204" transform="translate(9.331 3.84)">
            <path id="path4206" d="M-10.515-3.908a1.126,1.126,0,0,1-.8-.329L-13-5.921a1.13,1.13,0,0,1-.332-.8V-12.2a1.13,1.13,0,0,1,1.13-1.13,1.129,1.129,0,0,1,1.129,1.13V-7.19l1.356,1.352a1.129,1.129,0,0,1,0,1.6A1.126,1.126,0,0,1-10.515-3.908Z" transform="translate(13.333 13.333)" fill="#7d420e"/>
          </g>
          <g id="g4208" transform="translate(0 24.51)">
            <path id="path4210" d="M-93.5,7h-9.375A1.13,1.13,0,0,1-104,5.868V-12.2a1.13,1.13,0,0,1,1.13-1.13h7.681a1.129,1.129,0,0,1,1.13,1.13,1.13,1.13,0,0,1-1.13,1.13h-6.551V4.739H-93.5a1.129,1.129,0,0,1,1.13,1.13A1.13,1.13,0,0,1-93.5,7Z" transform="translate(104 13.333)" fill="#7d420e"/>
          </g>
          <g id="g4212" transform="translate(14.797 24.51)">
            <path id="path4214" d="M-2.6-206.335h-9.6a1.13,1.13,0,0,1-1.13-1.13,1.13,1.13,0,0,1,1.13-1.13h8.471v-15.813h-6.551a1.13,1.13,0,0,1-1.13-1.13,1.13,1.13,0,0,1,1.13-1.13H-2.6a1.129,1.129,0,0,1,1.13,1.13v18.072A1.13,1.13,0,0,1-2.6-206.335Z" transform="translate(13.333 226.666)" fill="#7d420e"/>
          </g>
          <g id="g4216" transform="translate(9.94 33.546)">
            <path id="path4218" d="M-61.019-156.3h-4.518a1.13,1.13,0,0,1-1.13-1.13v-11.182A3.392,3.392,0,0,1-63.278-172a3.392,3.392,0,0,1,3.389,3.389v11.182A1.13,1.13,0,0,1-61.019-156.3Zm-3.388-2.259h2.259v-10.053a1.131,1.131,0,0,0-1.13-1.13,1.131,1.131,0,0,0-1.129,1.13Z" transform="translate(66.666 172)" fill="#7d420e"/>
          </g>
          <g id="g4220" transform="translate(6.325 46.987)">
            <path id="path4222" d="M-139.123-55.008H-150.87A1.129,1.129,0,0,1-152-56.137v-1.694a3.505,3.505,0,0,1,3.5-3.5h7a3.505,3.505,0,0,1,3.5,3.5v1.694A1.13,1.13,0,0,1-139.123-55.008Zm-10.617-2.259h9.488v-.565a1.244,1.244,0,0,0-1.242-1.242h-7a1.244,1.244,0,0,0-1.242,1.242Z" transform="translate(152 61.333)" fill="#7d420e"/>
          </g>
          <path id="path4224" d="M486.462-133.333h14.458a1.13,1.13,0,0,1,1.13,1.129v4.518a1.13,1.13,0,0,1-1.13,1.13H486.462a1.129,1.129,0,0,1-1.13-1.13V-132.2A1.129,1.129,0,0,1,486.462-133.333Zm13.328,2.259h-12.2v2.259h12.2Z" transform="translate(-444.218 179.868)" fill="#7d420e"/>
          <path id="path4226" d="M486.462-186.666h14.458a1.13,1.13,0,0,1,1.13,1.13v4.518a1.13,1.13,0,0,1-1.13,1.13H486.462a1.129,1.129,0,0,1-1.13-1.13v-4.518A1.129,1.129,0,0,1,486.462-186.666Zm13.328,2.259h-12.2v2.259h12.2Z" transform="translate(-444.218 228.684)" fill="#7d420e"/>
          <path id="path4228" d="M486.462-240h14.458a1.13,1.13,0,0,1,1.13,1.13v4.518a1.13,1.13,0,0,1-1.13,1.13H486.462a1.13,1.13,0,0,1-1.13-1.13v-4.518A1.129,1.129,0,0,1,486.462-240Zm13.328,2.259h-12.2v2.259h12.2Z" transform="translate(-444.218 277.499)" fill="#7d420e"/>
          <g id="g4230" transform="translate(13.328 25.64)">
            <path id="path4232" fill="#7d420e"/>
          </g>
        </g>
      </g>
    </g>
  </g>
</svg>
