<svg xmlns="http://www.w3.org/2000/svg" width="62" height="62" viewBox="0 0 62 62">
  <g id="Grupo_1180290" data-name="Grupo 1180290" transform="translate(3757 3202.895)">
    <g id="Grupo_1180293" data-name="Grupo 1180293" transform="translate(-4278 -9539.895)">
      <rect id="Rectángulo_460057" data-name="Rectángulo 460057" width="62" height="62" transform="translate(521 6337)" fill="none"/>
    </g>
    <g id="igualdad" transform="translate(-3755 -3234.421)">
      <path id="Trazado_998082" data-name="Trazado 998082" d="M56.7,403.336H50.113a1.13,1.13,0,1,1,0-2.259h5.459v-.432a3.392,3.392,0,0,0-3.389-3.389H5.648a3.392,3.392,0,0,0-3.389,3.389v.432H39.821a1.13,1.13,0,1,1,0,2.259H1.13A1.129,1.129,0,0,1,0,402.206v-1.562A5.654,5.654,0,0,1,5.648,395H52.183a5.654,5.654,0,0,1,5.648,5.648v1.562A1.129,1.129,0,0,1,56.7,403.336Z" transform="translate(0 -312.084)" fill="#7d420e"/>
      <path id="Trazado_998083" data-name="Trazado 998083" d="M176.067,285.929a1.13,1.13,0,0,1-.977-1.694l8.026-13.9a1.129,1.129,0,0,1,1.956,0l7.967,13.8a1.13,1.13,0,1,1-1.956,1.129l-6.988-12.1-7.048,12.208A1.129,1.129,0,0,1,176.067,285.929Z" transform="translate(-155.179 -201)" fill="#7d420e"/>
      <path id="Trazado_998084" data-name="Trazado 998084" d="M88.084,233.726H52.026a5.654,5.654,0,0,1-5.648-5.647v-.359a1.129,1.129,0,0,1,1.13-1.129H92.6a1.129,1.129,0,0,1,1.13,1.129v.359A5.654,5.654,0,0,1,88.084,233.726Zm-39.359-4.877a3.394,3.394,0,0,0,3.3,2.618H88.084a3.4,3.4,0,0,0,3.3-2.618Z" transform="translate(-41.14 -162.699)" fill="#7d420e"/>
      <path id="Elipse_11610" data-name="Elipse 11610" d="M-3.959-10A6.048,6.048,0,0,1,2.083-3.959,6.048,6.048,0,0,1-3.959,2.083,6.048,6.048,0,0,1-10-3.959,6.048,6.048,0,0,1-3.959-10Zm0,9.824A3.787,3.787,0,0,0-.176-3.959,3.787,3.787,0,0,0-3.959-7.741,3.787,3.787,0,0,0-7.741-3.959,3.787,3.787,0,0,0-3.959-.176Z" transform="translate(21.148 46.174)" fill="#7d420e"/>
      <path id="Trazado_998085" data-name="Trazado 998085" d="M91.621,146.188a1.13,1.13,0,0,1-1.13-1.13v-9.573a3.081,3.081,0,0,0-3.078-3.078H80.742a3.081,3.081,0,0,0-3.078,3.078v9.573a1.13,1.13,0,1,1-2.259,0v-9.573a5.343,5.343,0,0,1,5.337-5.337h6.672a5.343,5.343,0,0,1,5.337,5.337v9.573A1.13,1.13,0,0,1,91.621,146.188Z" transform="translate(-66.888 -84.151)" fill="#7d420e"/>
      <path id="Elipse_11611" data-name="Elipse 11611" d="M-3.959-10A6.048,6.048,0,0,1,2.083-3.959,6.048,6.048,0,0,1-3.959,2.083,6.048,6.048,0,0,1-10-3.959,6.048,6.048,0,0,1-3.959-10Zm0,9.824A3.787,3.787,0,0,0-.176-3.959,3.787,3.787,0,0,0-3.959-7.741,3.787,3.787,0,0,0-7.741-3.959,3.787,3.787,0,0,0-3.959-.176Z" transform="translate(44.599 46.174)" fill="#7d420e"/>
      <path id="Trazado_998086" data-name="Trazado 998086" d="M299.242,146.188a1.129,1.129,0,0,1-1.129-1.13v-9.573a3.081,3.081,0,0,0-3.078-3.078h-6.672a3.081,3.081,0,0,0-3.078,3.078v9.573a1.13,1.13,0,1,1-2.259,0v-9.573a5.343,5.343,0,0,1,5.337-5.337h6.672a5.343,5.343,0,0,1,5.337,5.337v9.573A1.13,1.13,0,0,1,299.242,146.188Z" transform="translate(-251.058 -84.151)" fill="#7d420e"/>
      <path id="Línea_3230" data-name="Línea 3230" transform="translate(44.958 90.122)" fill="#7d420e"/>
    </g>
  </g>
</svg>
