<svg xmlns="http://www.w3.org/2000/svg" xmlns:xlink="http://www.w3.org/1999/xlink" width="1030" height="701" viewBox="0 0 1030 701">
  <defs>
    <clipPath id="clip-path">
      <rect id="Rectángulo_459978" data-name="Rectángulo 459978" width="777" height="295.971" fill="none"/>
    </clipPath>
    <clipPath id="clip-path-2">
      <rect id="Rectángulo_460000" data-name="Rectángulo 460000" width="61.618" height="62.546" fill="none"/>
    </clipPath>
  </defs>
  <g id="Grupo_1180096" data-name="Grupo 1180096" transform="translate(-285 -1064)">
    <rect id="Rectángulo_458832" data-name="Rectángulo 458832" width="1030" height="700" transform="translate(285 1064)" fill="#fff8e6"/>
    <g id="Grupo_1180084" data-name="Grupo 1180084" transform="translate(412 1236.029)">
      <g id="Grupo_1180083" data-name="Grupo 1180083" clip-path="url(#clip-path)">
        <path id="Trazado_997837" data-name="Trazado 997837" d="M213.411,13.286,201.625,1.5,189.837,13.286" transform="translate(35.062 0.277)" fill="none" stroke="#5dc19a" stroke-linecap="round" stroke-linejoin="round" stroke-width="3"/>
        <path id="Trazado_997838" data-name="Trazado 997838" d="M469.458,13.286,457.672,1.5,445.884,13.286" transform="translate(82.352 0.277)" fill="none" stroke="#db7428" stroke-linecap="round" stroke-linejoin="round" stroke-width="3"/>
        <path id="Trazado_997839" data-name="Trazado 997839" d="M317.983,238.38l11.786,11.787,11.788-11.787" transform="translate(58.73 44.028)" fill="none" stroke="#e8972d" stroke-linecap="round" stroke-linejoin="round" stroke-width="3"/>
        <path id="Trazado_997841" data-name="Trazado 997841" d="M84.888,242.691c-29.758,0-56.6-9.132-71.8-24.414C5.13,210.277.95,200.993,1,191.428c.086-14.276,9.35-27.456,26.083-37.119C42.8,145.231,63.514,140.23,85.4,140.228c29.761,0,56.6,9.132,71.8,24.413,7.956,8,12.136,17.284,12.086,26.849-.086,14.277-9.35,27.458-26.082,37.119-15.722,9.077-36.433,14.079-58.315,14.082Z" transform="translate(0.185 25.899)" fill="none" stroke="#00a7bc" stroke-miterlimit="10" stroke-width="2"/>
        <path id="Trazado_997842" data-name="Trazado 997842" d="M340.8,242.691c-29.758,0-56.6-9.132-71.8-24.414-7.958-8-12.137-17.284-12.087-26.849.086-14.276,9.35-27.456,26.083-37.119,15.721-9.078,36.431-14.079,58.314-14.081,29.761,0,56.6,9.132,71.8,24.413,7.956,8,12.136,17.284,12.086,26.849-.086,14.277-9.35,27.458-26.082,37.119-15.722,9.077-36.433,14.079-58.315,14.082Z" transform="translate(47.449 25.899)" fill="none" stroke="#eab32a" stroke-miterlimit="10" stroke-width="2"/>
        <path id="Trazado_997843" data-name="Trazado 997843" d="M596.7,242.691c-29.758,0-56.6-9.132-71.8-24.414-7.958-8-12.137-17.284-12.087-26.849.086-14.276,9.35-27.456,26.083-37.119,15.721-9.078,36.431-14.079,58.314-14.081,29.761,0,56.6,9.132,71.8,24.413,7.956,8,12.136,17.284,12.086,26.849-.086,14.277-9.35,27.458-26.082,37.119-15.722,9.077-36.433,14.079-58.315,14.082Z" transform="translate(94.714 25.899)" fill="none" stroke="#c93d75" stroke-miterlimit="10" stroke-width="2"/>
        <path id="Trazado_997844" data-name="Trazado 997844" d="M212.649,170.684c-29.758,0-56.6-9.132-71.8-24.414-7.958-8-12.137-17.284-12.087-26.849.086-14.277,9.35-27.458,26.083-37.12,15.721-9.077,36.431-14.078,58.314-14.081,29.761,0,56.6,9.132,71.8,24.414,7.956,8,12.136,17.284,12.086,26.849-.086,14.277-9.35,27.458-26.082,37.119-15.722,9.077-36.433,14.079-58.315,14.082Z" transform="translate(23.781 12.6)" fill="none" stroke="#7bd9b7" stroke-miterlimit="10" stroke-width="2"/>
        <path id="Trazado_997845" data-name="Trazado 997845" d="M468.7,170.684c-29.758,0-56.6-9.132-71.8-24.414-7.958-8-12.137-17.284-12.087-26.849.086-14.277,9.35-27.458,26.083-37.12,15.721-9.077,36.431-14.078,58.314-14.081,29.761,0,56.6,9.132,71.8,24.414,7.956,8,12.136,17.284,12.086,26.849-.086,14.277-9.35,27.458-26.082,37.119-15.722,9.077-36.433,14.079-58.315,14.082Z" transform="translate(71.072 12.6)" fill="none" stroke="#e8972d" stroke-miterlimit="10" stroke-width="2"/>
        <path id="Trazado_997846" data-name="Trazado 997846" d="M418.1,172.221c30.334,17.513,30.494,45.909.357,63.424s-79.16,17.513-109.494,0c-23.333-13.471-28.8-33.38-16.378-49.826L243.762,158c-28.338,7.255-62.728,4.155-86.06-9.316-30.335-17.513-30.5-45.908-.358-63.424s79.161-17.512,109.5,0c23.333,13.471,28.8,33.381,16.365,49.819L332.027,162.9c28.351-7.248,62.74-4.148,86.073,9.324" transform="translate(24.905 13.322)" fill="#eeddb6"/>
        <path id="Trazado_997847" data-name="Trazado 997847" d="M29.588,172.221c-30.334,17.513-30.494,45.909-.357,63.424s79.16,17.513,109.494,0c23.333-13.471,28.8-33.38,16.378-49.826L203.926,158c28.338,7.255,62.728,4.155,86.06-9.316,30.335-17.513,30.5-45.908.358-63.424s-79.161-17.512-109.5,0c-23.333,13.471-28.8,33.381-16.365,49.819L115.661,162.9c-28.351-7.248-62.74-4.148-86.073,9.324" transform="translate(1.243 13.322)" fill="#eeddb6"/>
        <path id="Trazado_997848" data-name="Trazado 997848" d="M285.564,172.221c-30.334,17.513-30.494,45.909-.357,63.424s79.16,17.513,109.494,0c23.333-13.471,28.8-33.38,16.378-49.826L459.9,158c28.338,7.255,62.728,4.155,86.06-9.316,30.335-17.513,30.5-45.908.358-63.424s-79.161-17.512-109.5,0c-23.333,13.471-28.8,33.381-16.365,49.819L371.637,162.9c-28.351-7.248-62.74-4.148-86.073,9.324" transform="translate(48.521 13.322)" fill="#eeddb6"/>
        <path id="Trazado_997849" data-name="Trazado 997849" d="M673.825,172.221c30.334,17.513,30.494,45.909.357,63.424s-79.16,17.513-109.494,0c-23.333-13.471-28.8-33.38-16.378-49.826L499.487,158c-28.338,7.255-62.728,4.155-86.06-9.316-30.335-17.513-30.5-45.908-.358-63.424s79.16-17.512,109.5,0c23.333,13.471,28.8,33.381,16.365,49.819L587.752,162.9c28.351-7.248,62.74-4.148,86.073,9.324" transform="translate(72.136 13.322)" fill="#eeddb6"/>
        <path id="Trazado_997850" data-name="Trazado 997850" d="M573.487,170.954l-11.124,6.338-86.258-49.153,11.112-6.326Z" transform="translate(87.934 22.498)" fill="#605841"/>
        <path id="Trazado_997851" data-name="Trazado 997851" d="M353.7,170.954l11.124,6.338,86.258-49.153-11.112-6.326Z" transform="translate(65.328 22.498)" fill="#605841"/>
        <path id="Trazado_997852" data-name="Trazado 997852" d="M317,170.954l-11.124,6.338-86.258-49.153,11.112-6.326Z" transform="translate(40.562 22.498)" fill="#605841"/>
        <path id="Trazado_997853" data-name="Trazado 997853" d="M97.413,170.954l11.124,6.338,86.258-49.153-11.112-6.326Z" transform="translate(17.992 22.498)" fill="#605841"/>
        <path id="Trazado_997854" data-name="Trazado 997854" d="M19.36,133.141l.026,53.3c-.1,19.928,27.787,36.136,62.189,36.14,17.2,0,32.821-4.055,44.155-10.6s18.382-15.578,18.442-25.542l-.025-53.3c-.06,9.964-7.109,19-18.443,25.542s-26.952,10.6-44.154,10.6c-34.4-.006-62.294-16.214-62.191-36.141" transform="translate(3.576 24.59)" fill="#2ba0a2"/>
        <path id="Trazado_997855" data-name="Trazado 997855" d="M37.8,113.234c-11.334,6.543-18.382,15.578-18.442,25.541-.1,19.928,27.786,36.136,62.188,36.141,17.2,0,32.821-4.055,44.155-10.6s18.382-15.578,18.442-25.541c.1-19.928-27.787-36.136-62.188-36.141-17.2,0-32.822,4.056-44.155,10.6" transform="translate(3.576 18.956)" fill="#8ad2d2"/>
        <path id="Trazado_997857" data-name="Trazado 997857" d="M271.911,60.816l-.026,53.3c.1,19.928-27.787,36.136-62.189,36.14-17.2,0-32.821-4.055-44.155-10.6S147.159,124.085,147.1,114.12l.025-53.3c.06,9.964,7.109,19,18.443,25.542s26.952,10.6,44.154,10.6c34.4-.006,62.294-16.214,62.191-36.141" transform="translate(27.168 11.232)" fill="#77c69f"/>
        <path id="Trazado_997858" data-name="Trazado 997858" d="M253.465,40.909c11.334,6.543,18.382,15.578,18.442,25.541.1,19.928-27.787,36.136-62.189,36.141-17.2,0-32.821-4.055-44.155-10.6s-18.382-15.578-18.442-25.541c-.1-19.928,27.787-36.136,62.189-36.141,17.2,0,32.821,4.056,44.155,10.6" transform="translate(27.172 5.598)" fill="#caecd3"/>
        <path id="Trazado_997860" data-name="Trazado 997860" d="M400.057,133.141l-.026,53.3c.1,19.928-27.787,36.136-62.189,36.14-17.2,0-32.821-4.055-44.155-10.6s-18.382-15.578-18.442-25.542l.025-53.3c.06,9.964,7.109,19,18.443,25.542s26.952,10.6,44.154,10.6c34.4-.006,62.294-16.214,62.191-36.141" transform="translate(50.836 24.59)" fill="#e9a345"/>
        <path id="Trazado_997861" data-name="Trazado 997861" d="M381.611,113.234c11.334,6.543,18.382,15.578,18.442,25.541.1,19.928-27.787,36.136-62.189,36.141-17.2,0-32.821-4.055-44.155-10.6s-18.382-15.578-18.442-25.541c-.1-19.928,27.787-36.136,62.189-36.141,17.2,0,32.821,4.056,44.155,10.6" transform="translate(50.733 18.956)" fill="#f6dc98"/>
        <path id="Trazado_997866" data-name="Trazado 997866" d="M403.167,60.816l.026,53.3c-.1,19.928,27.787,36.136,62.189,36.14,17.2,0,32.821-4.055,44.155-10.6s18.382-15.578,18.442-25.542l-.025-53.3c-.06,9.964-7.109,19-18.443,25.542s-26.952,10.6-44.154,10.6c-34.4-.006-62.294-16.214-62.191-36.141" transform="translate(74.463 11.232)" fill="#de8741"/>
        <path id="Trazado_997867" data-name="Trazado 997867" d="M421.609,40.909c-11.334,6.543-18.382,15.578-18.442,25.541-.1,19.928,27.787,36.136,62.189,36.141,17.2,0,32.821-4.055,44.155-10.6s18.382-15.578,18.442-25.541c.1-19.928-27.787-36.136-62.189-36.141-17.2,0-32.821,4.056-44.155,10.6" transform="translate(74.834 5.598)" fill="#f6d19c"/>
        <path id="Trazado_997870" data-name="Trazado 997870" d="M655.768,133.141l-.026,53.3c.1,19.928-27.787,36.136-62.189,36.14-17.2,0-32.821-4.055-44.155-10.6s-18.382-15.578-18.442-25.542l.025-53.3c.06,9.964,7.109,19,18.443,25.542s26.952,10.6,44.154,10.6c34.4-.006,62.294-16.214,62.191-36.141" transform="translate(98.065 24.59)" fill="#bd527a"/>
        <path id="Trazado_997871" data-name="Trazado 997871" d="M637.322,113.234c11.334,6.543,18.382,15.578,18.443,25.541.1,19.928-27.788,36.136-62.191,36.141-17.2,0-32.821-4.055-44.155-10.6s-18.382-15.578-18.442-25.541c-.1-19.928,27.787-36.136,62.189-36.141,17.2,0,32.821,4.056,44.155,10.6" transform="translate(98.022 18.956)" fill="#e9adb9"/>
        <g id="emociones" transform="translate(202.5 4.81)">
          <g id="Grupo_1180088" data-name="Grupo 1180088" transform="translate(0 15.619)">
            <path id="Trazado_997877" data-name="Trazado 997877" d="M83.363,378.6l-.585.384a.728.728,0,0,1-.8,0l-1.17-.769a3.329,3.329,0,0,0-3.659,0l-1.17.769a.728.728,0,0,1-.8,0l-1.17-.769a3.329,3.329,0,0,0-3.659,0l-1.17.769a.728.728,0,0,1-.8,0L67.8,378.6a1.3,1.3,0,1,0-1.429,2.174l.585.385a3.329,3.329,0,0,0,3.659,0l1.17-.769a.728.728,0,0,1,.8,0l1.17.769a3.329,3.329,0,0,0,3.659,0l1.17-.769a.728.728,0,0,1,.8,0l1.17.769a3.329,3.329,0,0,0,3.659,0l.585-.385a1.3,1.3,0,0,0-1.429-2.174Z" transform="translate(-57.222 -330.572)"/>
            <path id="Trazado_997878" data-name="Trazado 997878" d="M164.813,314.066h3a1.3,1.3,0,0,0,0-2.6h-3A1.3,1.3,0,0,0,164.813,314.066Z" transform="translate(-142.248 -272.978)"/>
            <path id="Trazado_997879" data-name="Trazado 997879" d="M77.088,314.066h3a1.3,1.3,0,0,0,0-2.6h-3A1.3,1.3,0,0,0,77.088,314.066Z" transform="translate(-65.935 -272.978)"/>
            <path id="Trazado_997880" data-name="Trazado 997880" d="M49.988,41.556a18.479,18.479,0,0,0,.791-12.981,1.3,1.3,0,0,0-2.485.772C51.5,39.028,43.78,49.69,33.6,49.788a15.965,15.965,0,0,1-16.13-15.759c-.162-12.444,14.384-20.165,24.585-13.067a1.3,1.3,0,0,0,1.458-2.155C28.149,8.6,9.05,24.733,16.491,41.567A18.392,18.392,0,0,0,0,59.838C.054,77.7,23.081,84.865,33.3,70.518c10.33,14.4,33.257,7.1,33.307-10.68A18.391,18.391,0,0,0,49.988,41.556ZM18.366,75.6c-20.594-.751-21.008-30.142-.5-31.521A18.518,18.518,0,0,0,32.25,52.368,15.765,15.765,0,0,1,18.366,75.6Zm29.874,0a15.786,15.786,0,0,1-13.45-7.537A18.527,18.527,0,0,0,35.117,52.3a18.248,18.248,0,0,0,13.494-8.221C69.23,45.313,68.895,74.847,48.24,75.6Z" transform="translate(0 -15.619)"/>
            <path id="Trazado_997881" data-name="Trazado 997881" d="M396.567,310.5a1.3,1.3,0,0,0,.6-.148l2.736-1.431a1.3,1.3,0,0,0-1.206-2.306l-2.736,1.431a1.3,1.3,0,0,0,.6,2.454Z" transform="translate(-343.845 -268.627)"/>
            <path id="Trazado_997882" data-name="Trazado 997882" d="M306.26,308.927l2.866,1.431a1.316,1.316,0,0,0,1.745-.583,1.3,1.3,0,0,0-.583-1.745l-2.866-1.431a1.3,1.3,0,0,0-1.162,2.328Z" transform="translate(-265.792 -268.626)"/>
            <path id="Trazado_997883" data-name="Trazado 997883" d="M320.368,372.247a13.778,13.778,0,0,0-16.7,0,1.3,1.3,0,1,0,1.682,1.985,11.167,11.167,0,0,1,13.335,0,1.3,1.3,0,0,0,1.679-1.987Z" transform="translate(-263.767 -323.402)"/>
            <path id="Trazado_997884" data-name="Trazado 997884" d="M203.737,101.927a1.3,1.3,0,0,0,1.3-1.3v-3a1.3,1.3,0,0,0-2.6,0v3A1.3,1.3,0,0,0,203.737,101.927Z" transform="translate(-176.101 -85.837)"/>
            <path id="Trazado_997885" data-name="Trazado 997885" d="M290.969,100.626v-3a1.3,1.3,0,0,0-2.6,0v3A1.3,1.3,0,0,0,290.969,100.626Z" transform="translate(-250.853 -85.837)"/>
            <path id="Trazado_997886" data-name="Trazado 997886" d="M188,183.053a1.3,1.3,0,0,0,.151,1.834,13.778,13.778,0,0,0,16.7,0,1.3,1.3,0,1,0-1.682-1.985,11.167,11.167,0,0,1-13.335,0A1.3,1.3,0,0,0,188,183.053Z" transform="translate(-163.277 -160.871)"/>
            <path id="Trazado_997887" data-name="Trazado 997887" d="M351.719,71.82a1.314,1.314,0,0,0,1.7.7,1.3,1.3,0,0,0-1-2.4,1.314,1.314,0,0,0-.7,1.7Z" transform="translate(-305.881 -62.948)"/>
          </g>
        </g>
        <g id="empatia_1_" data-name="empatia (1)" transform="translate(353.77 105.8)">
          <path id="Trazado_997888" data-name="Trazado 997888" d="M62.414,37.422c-1.648-5.781-7.034-9.4-14.183-9.422A14.7,14.7,0,0,0,33.54,42.692V43.81l-2.7,3.255a2.6,2.6,0,0,0-.354,2.779,2.853,2.853,0,0,0,3.056,1.506v2.668a3.383,3.383,0,0,0,3.377,3.377h2.259a.4.4,0,0,1,.4.4v4.528a1.11,1.11,0,0,0,1.107,1.107h15.1a1.11,1.11,0,0,0,1.107-1.107V55.435a11.969,11.969,0,0,0,6.045-10.429C62.874,42.822,63.141,39.457,62.414,37.422ZM60.72,45.006a9.756,9.756,0,0,1-5.436,8.78,1.094,1.094,0,0,0-.609.985v6.444H41.788V57.793a2.618,2.618,0,0,0-2.613-2.613H36.917a1.162,1.162,0,0,1-1.162-1.163V50.243a1.11,1.11,0,0,0-1.107-1.107H32.853a.393.393,0,0,1-.31-.653L35.5,44.906a1.061,1.061,0,0,0,.255-.7A12.676,12.676,0,0,1,48.232,30.214c7.351,0,12.488,4.506,12.488,10.972Z" transform="translate(2.786 2.571)"/>
          <path id="Trazado_997889" data-name="Trazado 997889" d="M33.625,27.35a2.681,2.681,0,0,0,2.7-4.285l-2.7-3.255V18.692A14.708,14.708,0,0,0,18.933,4C10.275,4,4.23,9.425,4.23,17.186v3.82a11.969,11.969,0,0,0,6.045,10.429v6.886a1.11,1.11,0,0,0,1.107,1.107h15.09a1.1,1.1,0,0,0,1.107-1.107V33.793a.406.406,0,0,1,.41-.4h2.259a3.383,3.383,0,0,0,3.377-3.377Zm-1.107-2.214a1.11,1.11,0,0,0-1.107,1.107v3.775a1.162,1.162,0,0,1-1.163,1.163H27.989a2.62,2.62,0,0,0-2.624,2.613v3.421H12.489V30.771a1.114,1.114,0,0,0-.609-.985,9.756,9.756,0,0,1-5.436-8.78v-3.82C6.1,6.764,20.935,2.5,27.89,10.023a13.114,13.114,0,0,1,3.52,10.186,1.062,1.062,0,0,0,.255.7l2.956,3.576a.364.364,0,0,1,.055.421.39.39,0,0,1-.365.233Z" transform="translate(0 0)"/>
          <path id="Trazado_997890" data-name="Trazado 997890" d="M27.356,55.284a25.548,25.548,0,0,1-14.008-10.4l2.159.228a1.107,1.107,0,0,0,.234-2.2l-4.368-.463a1.1,1.1,0,0,0-1.252.983l-.466,4.4a1.107,1.107,0,1,0,2.2.233l.132-1.248A27.263,27.263,0,0,0,27.043,57.454a1.111,1.111,0,0,0,.312-2.17Z" transform="translate(0.581 4.118)"/>
          <path id="Trazado_997891" data-name="Trazado 997891" d="M38.815,10.169a25.548,25.548,0,0,1,14.008,10.4l-2.159-.228a1.107,1.107,0,1,0-.234,2.2l4.368.463c.05,0,.1.007.152.008a1.107,1.107,0,0,0,1.1-.991l.466-4.4a1.107,1.107,0,1,0-2.2-.233l-.132,1.248A27.773,27.773,0,0,0,39.44,8.045a1.107,1.107,0,1,0-.625,2.125Z" transform="translate(3.62 0.429)"/>
        </g>
        <path id="resiliencia" d="M81.925,38.4h0a3.768,3.768,0,0,1,3.768,3.768v6.565a1.038,1.038,0,0,0,.365.79l5.885,5.016a1.039,1.039,0,0,0,.674.248h6.1a1.039,1.039,0,0,0,.674-.248l5.885-5.016a1.038,1.038,0,0,0,.365-.79V42.167a3.768,3.768,0,0,1,3.768-3.768h0a3.768,3.768,0,0,1,3.768,3.768v9.019a3.247,3.247,0,0,1-1.151,2.48l-7.876,6.659a.324.324,0,0,0-.115.248v13.79a1.1,1.1,0,0,1-1.1,1.1H88.371a1.1,1.1,0,0,1-1.1-1.1V60.605a.324.324,0,0,0-.114-.247l-7.856-6.7a3.247,3.247,0,0,1-1.141-2.471V42.167A3.768,3.768,0,0,1,81.925,38.4Zm27.489,2.209h0a1.56,1.56,0,0,0-1.56,1.56v6.565a3.247,3.247,0,0,1-1.141,2.471l-5.885,5.016a3.247,3.247,0,0,1-2.106.776h-6.1a3.247,3.247,0,0,1-2.106-.776L84.626,51.2a3.247,3.247,0,0,1-1.141-2.471V42.167a1.56,1.56,0,0,0-1.56-1.56h0a1.56,1.56,0,0,0-1.56,1.56v9.025a1.039,1.039,0,0,0,.365.79l7.856,6.7a2.533,2.533,0,0,1,.89,1.928V73.258h12.356V60.572a2.533,2.533,0,0,1,.9-1.934l7.876-6.659a1.039,1.039,0,0,0,.368-.793V42.167a1.56,1.56,0,0,0-1.56-1.56Zm-13.744.068a6.411,6.411,0,1,1-6.245,6.409A6.332,6.332,0,0,1,95.669,40.675Zm0,2.209a4.2,4.2,0,1,0,4.037,4.2A4.122,4.122,0,0,0,95.669,42.884ZM71.258,37.329a1.1,1.1,0,0,1,0-2.209H120.08a1.1,1.1,0,0,1,0,2.209Zm-.474-14.017a1.1,1.1,0,0,1,.948-1.995c15.816,7.515,31.791,6.9,47.913-.017a1.1,1.1,0,1,1,.871,2.03c-16.735,7.181-33.315,7.782-49.732-.017Zm.15,6.578a1.1,1.1,0,1,1,.648-2.111c15.805,4.852,31.99,4.456,48.205-.009a1.1,1.1,0,0,1,.586,2.129C103.743,34.478,87.144,34.867,70.934,29.89Zm25.878-4.555a1.506,1.506,0,0,1-2.285,0l0-.006L89,18.825l-.007-.008a1.476,1.476,0,0,1-.215-1.594l0-.007a1.489,1.489,0,0,1,1.366-.873h1.468V8.905A1.908,1.908,0,0,1,93.52,7h4.3a1.908,1.908,0,0,1,1.905,1.905v7.438h1.468a1.489,1.489,0,0,1,1.366.873l0,.007a1.476,1.476,0,0,1-.215,1.594l-.007.008-5.523,6.5,0,.006Zm-5.147-6.782,4,4.716,4-4.716H98.619a1.1,1.1,0,0,1-1.1-1.1V9.209H93.823v8.239a1.1,1.1,0,0,1-1.1,1.1Z" transform="translate(444.847 12.971)" fill-rule="evenodd"/>
        <g id="comunicacion_1_" data-name="comunicacion (1)" transform="translate(663 110.346)">
          <path id="Trazado_997892" data-name="Trazado 997892" d="M211.041,28.417a1.294,1.294,0,0,1-.913-.378l-4.788-4.788h-7.215a1.292,1.292,0,1,1,0-2.583h7.75a1.286,1.286,0,0,1,.913.378l2.962,2.962V21.958a1.291,1.291,0,0,1,1.292-1.291h1.291a1.293,1.293,0,0,0,1.292-1.292V3.875a1.293,1.293,0,0,0-1.292-1.292H185.207a1.294,1.294,0,0,0-1.291,1.292v15.5a1.294,1.294,0,0,0,1.291,1.292h2.584a1.292,1.292,0,0,1,0,2.583h-2.584a3.88,3.88,0,0,1-3.875-3.875V3.875A3.88,3.88,0,0,1,185.207,0h27.125a3.879,3.879,0,0,1,3.875,3.875v15.5a3.879,3.879,0,0,1-3.875,3.875v3.875a1.291,1.291,0,0,1-1.291,1.292Zm0,0" transform="translate(-159.374)"/>
          <path id="Trazado_997893" data-name="Trazado 997893" d="M5.167,71.084a1.273,1.273,0,0,1-.495-.1,1.292,1.292,0,0,1-.8-1.193V65.918A3.88,3.88,0,0,1,0,62.043v-15.5a3.879,3.879,0,0,1,3.875-3.875H18.083a1.292,1.292,0,1,1,0,2.583H3.875a1.294,1.294,0,0,0-1.292,1.292v15.5a1.294,1.294,0,0,0,1.292,1.291H5.167a1.292,1.292,0,0,1,1.291,1.292v2.049L9.42,63.713a1.288,1.288,0,0,1,.913-.378H31a1.293,1.293,0,0,0,1.292-1.291v-15.5A1.293,1.293,0,0,0,31,45.251H28.417a1.292,1.292,0,1,1,0-2.583H31a3.879,3.879,0,0,1,3.875,3.875v15.5A3.88,3.88,0,0,1,31,65.918H10.868L6.08,70.706a1.29,1.29,0,0,1-.913.378Zm0,0" transform="translate(0 -37.501)"/>
          <path id="Trazado_997894" data-name="Trazado 997894" d="M49.126,292.832a6.466,6.466,0,0,1-6.458-6.458v-2.583a6.458,6.458,0,1,1,12.916,0v2.583A6.466,6.466,0,0,1,49.126,292.832Zm0-12.916a3.879,3.879,0,0,0-3.875,3.875v2.583a3.875,3.875,0,0,0,7.75,0v-2.583A3.879,3.879,0,0,0,49.126,279.916Zm0,0" transform="translate(-37.501 -243.749)"/>
          <path id="Trazado_997895" data-name="Trazado 997895" d="M15.5,399.5H7.748a11.164,11.164,0,0,1-7.369-2.962A1.288,1.288,0,0,1,0,395.625v-4.476A2.572,2.572,0,0,1,1.153,389l6.6-4.4V384h2.583v1.292a1.294,1.294,0,0,1-.575,1.075l-7.175,4.783v3.885a8.606,8.606,0,0,0,5.165,1.882H15.5a8.521,8.521,0,0,0,5.164-1.877v-3.891l-7.175-4.783a1.294,1.294,0,0,1-.575-1.075V384H15.5v.6l6.6,4.4a2.578,2.578,0,0,1,1.149,2.149v4.476a1.288,1.288,0,0,1-.378.913A11.167,11.167,0,0,1,15.5,399.5Zm0,0" transform="translate(0 -337.5)"/>
          <path id="Trazado_997896" data-name="Trazado 997896" d="M326.458,292.832A6.466,6.466,0,0,1,320,286.374v-2.583a6.458,6.458,0,1,1,12.917,0v2.583A6.466,6.466,0,0,1,326.458,292.832Zm0-12.916a3.88,3.88,0,0,0-3.875,3.875v2.583a3.875,3.875,0,0,0,7.75,0v-2.583A3.879,3.879,0,0,0,326.458,279.916Zm0,0" transform="translate(-281.25 -243.749)"/>
          <path id="Trazado_997897" data-name="Trazado 997897" d="M292.834,399.5h-7.755a11.169,11.169,0,0,1-7.369-2.962,1.288,1.288,0,0,1-.378-.913v-4.476a2.572,2.572,0,0,1,1.154-2.15l6.6-4.4V384h2.584v1.292a1.294,1.294,0,0,1-.575,1.075l-7.175,4.783v3.885a8.593,8.593,0,0,0,5.164,1.882h7.755A8.521,8.521,0,0,0,298,395.04v-3.891l-7.175-4.783a1.294,1.294,0,0,1-.575-1.075V384h2.583v.6l6.6,4.4a2.578,2.578,0,0,1,1.151,2.149v4.476a1.286,1.286,0,0,1-.378.913,11.165,11.165,0,0,1-7.369,2.962Zm0,0" transform="translate(-243.748 -337.5)"/>
          <path id="Trazado_997898" data-name="Trazado 997898" d="M224,277.332h2.583v2.584H224Zm0,0" transform="translate(-196.875 -243.749)"/>
          <path id="Trazado_997899" data-name="Trazado 997899" d="M181.332,277.332h2.584v2.584h-2.584Zm0,0" transform="translate(-159.374 -243.749)"/>
          <path id="Trazado_997900" data-name="Trazado 997900" d="M266.668,277.332h2.583v2.584h-2.583Zm0,0" transform="translate(-234.376 -243.749)"/>
        </g>
      </g>
    </g>
    <rect id="Rectángulo_459980" data-name="Rectángulo 459980" width="192" height="40" transform="translate(528 1090)" fill="#c2e8e8"/>
    <rect id="Rectángulo_459999" data-name="Rectángulo 459999" width="192" height="40" transform="translate(881 1090)" fill="#c2e8e8"/>
    <text id="Regulación_emocional" data-name="Regulación emocional" transform="translate(624 1116)" fill="#12263f" font-size="16" font-family="SegoeUI-Bold, Segoe UI" font-weight="700"><tspan x="-82.738" y="0">Regulación emocional</tspan></text>
    <text id="Resiliencia-2" data-name="Resiliencia" transform="translate(977 1116)" fill="#12263f" font-size="16" font-family="SegoeUI-Bold, Segoe UI" font-weight="700"><tspan x="-39.277" y="0">Resiliencia</tspan></text>
    <rect id="Rectángulo_459979" data-name="Rectángulo 459979" width="145" height="40" transform="translate(399 1540)" fill="#c2e8e8"/>
    <rect id="Rectángulo_459981" data-name="Rectángulo 459981" width="145" height="40" transform="translate(728 1540)" fill="#c2e8e8"/>
    <rect id="Rectángulo_459982" data-name="Rectángulo 459982" width="145" height="40" transform="translate(1057 1540)" fill="#c2e8e8"/>
    <text id="Autoestima" transform="translate(471 1566)" fill="#12263f" font-size="16" font-family="SegoeUI-Bold, Segoe UI" font-weight="700"><tspan x="-43.305" y="0">Autoestima</tspan></text>
    <text id="Empatía" transform="translate(800 1566)" fill="#12263f" font-size="16" font-family="SegoeUI-Bold, Segoe UI" font-weight="700"><tspan x="-30.465" y="0">Empatía</tspan></text>
    <text id="Comunicación" transform="translate(1129 1566)" fill="#12263f" font-size="16" font-family="SegoeUI-Bold, Segoe UI" font-weight="700"><tspan x="-53.148" y="0">Comunicación</tspan></text>
    <text id="Capacidad_para_valorarse_y_enfrentar_los_desafíos_de_la_vida." data-name="Capacidad para valorarse y enfrentar los desafíos de la vida." transform="translate(334 1590)" fill="#12263f" font-size="16" font-family="SegoeUI, Segoe UI"><tspan x="0" y="17">Capacidad para valorarse y enfrentar los </tspan><tspan x="0" y="41">desafíos de la vida.</tspan></text>
    <text id="Comprender_y_conectar_con_los_sentimientos_de_los_demás._" data-name="Comprender y conectar con los sentimientos de los demás. " transform="translate(663 1590)" fill="#12263f" font-size="16" font-family="SegoeUI, Segoe UI"><tspan x="0" y="17">Comprender y conectar con los </tspan><tspan x="0" y="41">sentimientos de los demás. </tspan></text>
    <text id="Reconocer_y_gestionar_las_emociones." data-name="Reconocer y gestionar las emociones." transform="translate(475 1142)" fill="#12263f" font-size="16" font-family="SegoeUI, Segoe UI"><tspan x="0" y="17">Reconocer y gestionar las emociones.</tspan></text>
    <text id="Adaptarse_y_superar_situaciones_difíciles." data-name="Adaptarse y superar situaciones difíciles." transform="translate(828 1142)" fill="#12263f" font-size="16" font-family="SegoeUI, Segoe UI"><tspan x="0" y="17">Adaptarse y superar situaciones difíciles.</tspan></text>
    <text id="Compartir_ideas_y_emociones_de_forma_efectiva." data-name="Compartir ideas y emociones de forma efectiva." transform="translate(992 1590)" fill="#12263f" font-size="16" font-family="SegoeUI, Segoe UI"><tspan x="0" y="17">Compartir ideas y emociones de forma </tspan><tspan x="0" y="41">efectiva.</tspan></text>
    <rect id="Rectángulo_459984" data-name="Rectángulo 459984" width="3" height="159" transform="translate(634 1540)" fill="#5dc19a"/>
    <rect id="Rectángulo_459998" data-name="Rectángulo 459998" width="3" height="159" transform="translate(799 1082)" fill="#5dc19a"/>
    <rect id="Rectángulo_459990" data-name="Rectángulo 459990" width="3" height="159" transform="translate(963 1540)" fill="#5dc19a"/>
    <rect id="Rectángulo_459985" data-name="Rectángulo 459985" width="274" height="54" transform="translate(334 1641)" fill="#fff"/>
    <rect id="Rectángulo_459993" data-name="Rectángulo 459993" width="274" height="54" transform="translate(663 1641)" fill="#fff"/>
    <rect id="Rectángulo_459995" data-name="Rectángulo 459995" width="298" height="54" transform="translate(475 1170)" fill="#fff"/>
    <rect id="Rectángulo_459997" data-name="Rectángulo 459997" width="297" height="54" transform="translate(828 1170)" fill="#fff"/>
    <rect id="Rectángulo_459994" data-name="Rectángulo 459994" width="274" height="54" transform="translate(992 1641)" fill="#fff"/>
    <text id="_Confianza_personal._Percepción_de_logros._" data-name="• Confianza personal.
• Percepción de logros.
" transform="translate(345 1648)" fill="#12263f" font-size="16" font-family="SegoeUI, Segoe UI"><tspan x="0" y="17">• Confianza personal.</tspan><tspan x="0" y="41">• Percepción de logros.</tspan><tspan font-family="Roboto-Regular, Roboto"><tspan x="0" y="65"></tspan></tspan></text>
    <text id="_Comprensión_emocional._Sensibilidad_social._" data-name="• Comprensión emocional.
• Sensibilidad social.
" transform="translate(674 1648)" fill="#12263f" font-size="16" font-family="SegoeUI, Segoe UI"><tspan x="0" y="17">• Comprensión emocional.</tspan><tspan x="0" y="41">• Sensibilidad social.</tspan><tspan font-family="Roboto-Regular, Roboto"><tspan x="0" y="65"></tspan></tspan></text>
    <text id="_Control_de_reacciones._Expresión_adecuada." data-name="• Control de reacciones.
• Expresión adecuada." transform="translate(486 1177)" fill="#12263f" font-size="16" font-family="SegoeUI, Segoe UI"><tspan x="0" y="17">• Control de reacciones.</tspan><tspan x="0" y="41">• Expresión adecuada.</tspan></text>
    <text id="_Afrontar_desafíos._Fortaleza_personal." data-name="• Afrontar desafíos.
• Fortaleza personal." transform="translate(839 1177)" fill="#12263f" font-size="16" font-family="SegoeUI, Segoe UI"><tspan x="0" y="17">• Afrontar desafíos.</tspan><tspan x="0" y="41">• Fortaleza personal.</tspan></text>
    <text id="_Escucha_activa._Intercambio_de_ideas." data-name="• Escucha activa.
• Intercambio de ideas." transform="translate(1003 1648)" fill="#12263f" font-size="16" font-family="SegoeUI, Segoe UI"><tspan x="0" y="17">• Escucha activa.</tspan><tspan x="0" y="41">• Intercambio de ideas.</tspan></text>
    <path id="Rectángulo_459996" data-name="Rectángulo 459996" d="M50,0H770a50,50,0,0,1,50,50v0a0,0,0,0,1,0,0H0a0,0,0,0,1,0,0v0A50,50,0,0,1,50,0Z" transform="translate(390 1715)" fill="#aec2dd"/>
    <path id="Trazado_998091" data-name="Trazado 998091" d="M9.859,17V5.8h3.094q5.922,0,5.922,5.461a5.5,5.5,0,0,1-1.645,4.168A6.1,6.1,0,0,1,12.828,17ZM11.172,6.984v8.828h1.672a4.745,4.745,0,0,0,3.43-1.18A4.422,4.422,0,0,0,17.5,11.289q0-4.3-4.578-4.3ZM27.336,13.32H21.688a2.992,2.992,0,0,0,.719,2.063,2.478,2.478,0,0,0,1.891.727,3.931,3.931,0,0,0,2.484-.891v1.2a4.643,4.643,0,0,1-2.789.766,3.381,3.381,0,0,1-2.664-1.09,4.461,4.461,0,0,1-.969-3.066,4.375,4.375,0,0,1,1.059-3.043,3.394,3.394,0,0,1,2.629-1.176,3.008,3.008,0,0,1,2.43,1.016,4.234,4.234,0,0,1,.859,2.82Zm-1.312-1.086a2.607,2.607,0,0,0-.535-1.727,1.823,1.823,0,0,0-1.465-.617,2.07,2.07,0,0,0-1.539.648,2.943,2.943,0,0,0-.781,1.7Zm2.766,4.477V15.336a3.792,3.792,0,0,0,2.3.773q1.688,0,1.688-1.125a.976.976,0,0,0-.145-.543,1.44,1.44,0,0,0-.391-.395,3.007,3.007,0,0,0-.578-.309q-.332-.137-.715-.285a9.207,9.207,0,0,1-.934-.426,2.82,2.82,0,0,1-.672-.484,1.8,1.8,0,0,1-.406-.613,2.17,2.17,0,0,1-.137-.8,1.912,1.912,0,0,1,.258-1A2.286,2.286,0,0,1,29.75,9.4a3.206,3.206,0,0,1,.98-.441,4.349,4.349,0,0,1,1.137-.148,4.59,4.59,0,0,1,1.859.359v1.3A3.624,3.624,0,0,0,31.7,9.891a2.374,2.374,0,0,0-.648.082,1.587,1.587,0,0,0-.5.23,1.065,1.065,0,0,0-.32.355.936.936,0,0,0-.113.457,1.1,1.1,0,0,0,.113.523,1.152,1.152,0,0,0,.332.375,2.538,2.538,0,0,0,.531.3q.313.133.711.289a9.894,9.894,0,0,1,.953.418,3.269,3.269,0,0,1,.719.484,1.893,1.893,0,0,1,.457.621,2,2,0,0,1,.16.836,1.971,1.971,0,0,1-.262,1.031,2.243,2.243,0,0,1-.7.727,3.2,3.2,0,0,1-1.008.43,4.976,4.976,0,0,1-1.2.141A4.539,4.539,0,0,1,28.789,16.711Zm13,.289H40.508V15.75h-.031a2.682,2.682,0,0,1-2.461,1.438,2.63,2.63,0,0,1-1.871-.633,2.192,2.192,0,0,1-.676-1.68q0-2.242,2.641-2.609l2.4-.336q0-2.039-1.648-2.039a3.938,3.938,0,0,0-2.609.984V9.563a4.958,4.958,0,0,1,2.719-.75q2.82,0,2.82,2.984Zm-1.281-4.047-1.93.266a3.133,3.133,0,0,0-1.344.441,1.273,1.273,0,0,0-.453,1.121,1.221,1.221,0,0,0,.418.957,1.615,1.615,0,0,0,1.113.371,2.056,2.056,0,0,0,1.574-.668,2.387,2.387,0,0,0,.621-1.691ZM48.375,10.3a1.567,1.567,0,0,0-.969-.258,1.635,1.635,0,0,0-1.371.773,3.576,3.576,0,0,0-.551,2.109V17H44.2V9h1.281v1.648h.031a2.794,2.794,0,0,1,.836-1.316,1.906,1.906,0,0,1,1.258-.473,2.092,2.092,0,0,1,.766.109Zm5.563,0a1.567,1.567,0,0,0-.969-.258,1.635,1.635,0,0,0-1.371.773,3.576,3.576,0,0,0-.551,2.109V17H49.766V9h1.281v1.648h.031a2.794,2.794,0,0,1,.836-1.316,1.906,1.906,0,0,1,1.258-.473,2.092,2.092,0,0,1,.766.109Zm4.734,6.891a3.711,3.711,0,0,1-2.832-1.121,4.153,4.153,0,0,1-1.059-2.973,4.326,4.326,0,0,1,1.1-3.148,3.96,3.96,0,0,1,2.977-1.133,3.588,3.588,0,0,1,2.793,1.1,4.368,4.368,0,0,1,1,3.055,4.3,4.3,0,0,1-1.082,3.066A3.791,3.791,0,0,1,58.672,17.188Zm.094-7.3a2.437,2.437,0,0,0-1.953.84,3.449,3.449,0,0,0-.719,2.316,3.262,3.262,0,0,0,.727,2.242,2.469,2.469,0,0,0,1.945.82,2.342,2.342,0,0,0,1.91-.8,3.492,3.492,0,0,0,.668-2.289,3.552,3.552,0,0,0-.668-2.312A2.332,2.332,0,0,0,58.766,9.891ZM65.984,17H64.7V5.156h1.281Zm3.875,0H68.578V5.156h1.281Zm8.32,0H76.9V15.75h-.031a2.682,2.682,0,0,1-2.461,1.438,2.63,2.63,0,0,1-1.871-.633,2.192,2.192,0,0,1-.676-1.68q0-2.242,2.641-2.609l2.4-.336q0-2.039-1.648-2.039a3.938,3.938,0,0,0-2.609.984V9.563a4.958,4.958,0,0,1,2.719-.75q2.82,0,2.82,2.984ZM76.9,12.953l-1.93.266a3.133,3.133,0,0,0-1.344.441,1.273,1.273,0,0,0-.453,1.121,1.221,1.221,0,0,0,.418.957,1.615,1.615,0,0,0,1.113.371,2.056,2.056,0,0,0,1.574-.668A2.387,2.387,0,0,0,76.9,13.75ZM84.766,10.3a1.567,1.567,0,0,0-.969-.258,1.635,1.635,0,0,0-1.371.773,3.576,3.576,0,0,0-.551,2.109V17H80.594V9h1.281v1.648h.031a2.793,2.793,0,0,1,.836-1.316A1.906,1.906,0,0,1,84,8.859a2.092,2.092,0,0,1,.766.109Zm12.2,3.023H91.32a2.992,2.992,0,0,0,.719,2.063,2.478,2.478,0,0,0,1.891.727,3.931,3.931,0,0,0,2.484-.891v1.2a4.643,4.643,0,0,1-2.789.766,3.381,3.381,0,0,1-2.664-1.09,4.461,4.461,0,0,1-.969-3.066,4.375,4.375,0,0,1,1.059-3.043A3.394,3.394,0,0,1,93.68,8.813a3.008,3.008,0,0,1,2.43,1.016,4.234,4.234,0,0,1,.859,2.82Zm-1.312-1.086a2.607,2.607,0,0,0-.535-1.727,1.823,1.823,0,0,0-1.465-.617,2.07,2.07,0,0,0-1.539.648,2.943,2.943,0,0,0-.781,1.7Zm2.766,4.477V15.336a3.792,3.792,0,0,0,2.3.773q1.688,0,1.688-1.125a.976.976,0,0,0-.145-.543,1.44,1.44,0,0,0-.391-.395,3.007,3.007,0,0,0-.578-.309q-.332-.137-.715-.285a9.207,9.207,0,0,1-.934-.426,2.82,2.82,0,0,1-.672-.484,1.8,1.8,0,0,1-.406-.613,2.17,2.17,0,0,1-.137-.8,1.912,1.912,0,0,1,.258-1,2.286,2.286,0,0,1,.688-.727,3.206,3.206,0,0,1,.98-.441,4.349,4.349,0,0,1,1.137-.148,4.59,4.59,0,0,1,1.859.359v1.3a3.624,3.624,0,0,0-2.031-.578,2.374,2.374,0,0,0-.648.082,1.587,1.587,0,0,0-.5.23,1.065,1.065,0,0,0-.32.355.936.936,0,0,0-.113.457,1.1,1.1,0,0,0,.113.523,1.152,1.152,0,0,0,.332.375,2.538,2.538,0,0,0,.531.3q.313.133.711.289a9.9,9.9,0,0,1,.953.418,3.269,3.269,0,0,1,.719.484,1.893,1.893,0,0,1,.457.621,2,2,0,0,1,.16.836,1.971,1.971,0,0,1-.262,1.031,2.243,2.243,0,0,1-.7.727,3.2,3.2,0,0,1-1.008.43,4.976,4.976,0,0,1-1.2.141A4.539,4.539,0,0,1,98.422,16.711Zm10.984.211a2.47,2.47,0,0,1-1.2.25q-2.1,0-2.1-2.344V10.094h-1.375V9h1.375V7.047l1.281-.414V9h2.016v1.094h-2.016V14.6a1.869,1.869,0,0,0,.273,1.148,1.091,1.091,0,0,0,.906.344,1.347,1.347,0,0,0,.836-.266Zm7.438.078h-1.281V15.75h-.031a2.682,2.682,0,0,1-2.461,1.438,2.63,2.63,0,0,1-1.871-.633,2.192,2.192,0,0,1-.676-1.68q0-2.242,2.641-2.609l2.4-.336q0-2.039-1.648-2.039a3.938,3.938,0,0,0-2.609.984V9.563a4.958,4.958,0,0,1,2.719-.75q2.82,0,2.82,2.984Zm-1.281-4.047-1.93.266a3.133,3.133,0,0,0-1.344.441,1.273,1.273,0,0,0-.453,1.121,1.221,1.221,0,0,0,.418.957,1.615,1.615,0,0,0,1.113.371,2.056,2.056,0,0,0,1.574-.668,2.387,2.387,0,0,0,.621-1.691Zm3.211,3.758V15.336a3.792,3.792,0,0,0,2.3.773q1.688,0,1.688-1.125a.976.976,0,0,0-.145-.543,1.44,1.44,0,0,0-.391-.395,3.007,3.007,0,0,0-.578-.309q-.332-.137-.715-.285a9.207,9.207,0,0,1-.934-.426,2.82,2.82,0,0,1-.672-.484,1.8,1.8,0,0,1-.406-.613,2.17,2.17,0,0,1-.137-.8,1.912,1.912,0,0,1,.258-1,2.286,2.286,0,0,1,.688-.727,3.206,3.206,0,0,1,.98-.441,4.349,4.349,0,0,1,1.137-.148,4.59,4.59,0,0,1,1.859.359v1.3a3.624,3.624,0,0,0-2.031-.578,2.374,2.374,0,0,0-.648.082,1.587,1.587,0,0,0-.5.23,1.065,1.065,0,0,0-.32.355.936.936,0,0,0-.113.457,1.1,1.1,0,0,0,.113.523,1.152,1.152,0,0,0,.332.375,2.538,2.538,0,0,0,.531.3q.313.133.711.289a9.9,9.9,0,0,1,.953.418,3.269,3.269,0,0,1,.719.484,1.893,1.893,0,0,1,.457.621,2,2,0,0,1,.16.836,1.971,1.971,0,0,1-.262,1.031,2.243,2.243,0,0,1-.7.727,3.2,3.2,0,0,1-1.008.43,4.976,4.976,0,0,1-1.2.141A4.539,4.539,0,0,1,118.773,16.711Zm18.3.289h-1.281V12.391q0-2.5-1.859-2.5a2.027,2.027,0,0,0-1.578.723,2.693,2.693,0,0,0-.641,1.855V17H130.43V5.156h1.281v5.172h.031a2.91,2.91,0,0,1,2.625-1.516q2.7,0,2.7,3.258Zm8.141,0H143.93V15.75H143.9a2.682,2.682,0,0,1-2.461,1.438,2.63,2.63,0,0,1-1.871-.633,2.192,2.192,0,0,1-.676-1.68q0-2.242,2.641-2.609l2.4-.336q0-2.039-1.648-2.039a3.938,3.938,0,0,0-2.609.984V9.563a4.958,4.958,0,0,1,2.719-.75q2.82,0,2.82,2.984Zm-1.281-4.047-1.93.266a3.133,3.133,0,0,0-1.344.441,1.273,1.273,0,0,0-.453,1.121,1.221,1.221,0,0,0,.418.957,1.615,1.615,0,0,0,1.113.371,2.056,2.056,0,0,0,1.574-.668,2.387,2.387,0,0,0,.621-1.691Zm5.008,2.891h-.031V17h-1.281V5.156h1.281v5.25h.031A3.03,3.03,0,0,1,151.7,8.813a2.932,2.932,0,0,1,2.41,1.074,4.436,4.436,0,0,1,.871,2.879,4.958,4.958,0,0,1-.977,3.215,3.251,3.251,0,0,1-2.672,1.207A2.631,2.631,0,0,1,148.938,15.844Zm-.031-3.227v1.117a2.379,2.379,0,0,0,.645,1.684,2.3,2.3,0,0,0,3.461-.2,4.086,4.086,0,0,0,.66-2.477,3.225,3.225,0,0,0-.617-2.094,2.043,2.043,0,0,0-1.672-.758,2.27,2.27,0,0,0-1.8.777A2.854,2.854,0,0,0,148.906,12.617Zm8.781-5.648a.812.812,0,0,1-.586-.234.791.791,0,0,1-.242-.594.821.821,0,0,1,.828-.836.827.827,0,0,1,.6.238.835.835,0,0,1,0,1.184A.82.82,0,0,1,157.688,6.969ZM158.313,17h-1.281V9h1.281Zm3.875,0h-1.281V5.156h1.281Zm3.25-10.031a.812.812,0,0,1-.586-.234.791.791,0,0,1-.242-.594.821.821,0,0,1,.828-.836.827.827,0,0,1,.6.238.835.835,0,0,1,0,1.184A.82.82,0,0,1,165.438,6.969ZM166.063,17h-1.281V9h1.281Zm9.422,0H174.2V15.641h-.031a2.958,2.958,0,0,1-2.75,1.547,2.988,2.988,0,0,1-2.41-1.074,4.407,4.407,0,0,1-.9-2.926,4.794,4.794,0,0,1,1-3.18,3.3,3.3,0,0,1,2.664-1.2,2.564,2.564,0,0,1,2.4,1.3h.031V5.156h1.281ZM174.2,13.383V12.2a2.289,2.289,0,0,0-.641-1.641,2.149,2.149,0,0,0-1.625-.672,2.212,2.212,0,0,0-1.844.859,3.766,3.766,0,0,0-.672,2.375,3.387,3.387,0,0,0,.645,2.184,2.107,2.107,0,0,0,1.73.8,2.188,2.188,0,0,0,1.738-.773A2.882,2.882,0,0,0,174.2,13.383ZM183.8,17h-1.281V15.75h-.031a2.682,2.682,0,0,1-2.461,1.438,2.63,2.63,0,0,1-1.871-.633,2.192,2.192,0,0,1-.676-1.68q0-2.242,2.641-2.609l2.4-.336q0-2.039-1.648-2.039a3.938,3.938,0,0,0-2.609.984V9.563a4.958,4.958,0,0,1,2.719-.75q2.82,0,2.82,2.984Zm-1.281-4.047-1.93.266a3.133,3.133,0,0,0-1.344.441,1.273,1.273,0,0,0-.453,1.121,1.221,1.221,0,0,0,.418.957,1.615,1.615,0,0,0,1.113.371,2.056,2.056,0,0,0,1.574-.668,2.387,2.387,0,0,0,.621-1.691ZM193.047,17h-1.281V15.641h-.031a2.958,2.958,0,0,1-2.75,1.547,2.988,2.988,0,0,1-2.41-1.074,4.407,4.407,0,0,1-.9-2.926,4.794,4.794,0,0,1,1-3.18,3.3,3.3,0,0,1,2.664-1.2,2.564,2.564,0,0,1,2.4,1.3h.031V5.156h1.281Zm-1.281-3.617V12.2a2.289,2.289,0,0,0-.641-1.641,2.149,2.149,0,0,0-1.625-.672,2.212,2.212,0,0,0-1.844.859,3.766,3.766,0,0,0-.672,2.375,3.387,3.387,0,0,0,.645,2.184,2.107,2.107,0,0,0,1.73.8,2.188,2.188,0,0,0,1.738-.773A2.882,2.882,0,0,0,191.766,13.383Zm10.3-.062h-5.648a2.992,2.992,0,0,0,.719,2.063,2.478,2.478,0,0,0,1.891.727,3.931,3.931,0,0,0,2.484-.891v1.2a4.643,4.643,0,0,1-2.789.766,3.381,3.381,0,0,1-2.664-1.09,4.461,4.461,0,0,1-.969-3.066,4.374,4.374,0,0,1,1.059-3.043,3.394,3.394,0,0,1,2.629-1.176,3.008,3.008,0,0,1,2.43,1.016,4.234,4.234,0,0,1,.859,2.82Zm-1.312-1.086a2.607,2.607,0,0,0-.535-1.727,1.823,1.823,0,0,0-1.465-.617,2.07,2.07,0,0,0-1.539.648,2.943,2.943,0,0,0-.781,1.7Zm2.766,4.477V15.336a3.792,3.792,0,0,0,2.3.773q1.688,0,1.688-1.125a.976.976,0,0,0-.145-.543,1.44,1.44,0,0,0-.391-.395,3.007,3.007,0,0,0-.578-.309q-.332-.137-.715-.285a9.207,9.207,0,0,1-.934-.426,2.82,2.82,0,0,1-.672-.484,1.8,1.8,0,0,1-.406-.613,2.17,2.17,0,0,1-.137-.8,1.912,1.912,0,0,1,.258-1,2.286,2.286,0,0,1,.688-.727,3.206,3.206,0,0,1,.98-.441,4.349,4.349,0,0,1,1.137-.148,4.59,4.59,0,0,1,1.859.359v1.3a3.624,3.624,0,0,0-2.031-.578,2.374,2.374,0,0,0-.648.082,1.587,1.587,0,0,0-.5.23,1.065,1.065,0,0,0-.32.355.936.936,0,0,0-.113.457,1.1,1.1,0,0,0,.113.523,1.152,1.152,0,0,0,.332.375,2.538,2.538,0,0,0,.531.3q.312.133.711.289a9.894,9.894,0,0,1,.953.418,3.269,3.269,0,0,1,.719.484,1.893,1.893,0,0,1,.457.621,2,2,0,0,1,.16.836,1.971,1.971,0,0,1-.262,1.031,2.243,2.243,0,0,1-.7.727,3.2,3.2,0,0,1-1.008.43,4.976,4.976,0,0,1-1.2.141A4.539,4.539,0,0,1,203.523,16.711Zm15.609-10.43a1.707,1.707,0,0,0-.852-.211q-1.344,0-1.344,1.7V9h1.875v1.094h-1.875V17h-1.273V10.094H214.3V9h1.367V7.7a2.7,2.7,0,0,1,.727-1.988,2.453,2.453,0,0,1,1.813-.73,2.511,2.511,0,0,1,.93.141Zm4.4,10.906a3.711,3.711,0,0,1-2.832-1.121,4.153,4.153,0,0,1-1.059-2.973,4.326,4.326,0,0,1,1.1-3.148,3.96,3.96,0,0,1,2.977-1.133,3.588,3.588,0,0,1,2.793,1.1,4.368,4.368,0,0,1,1,3.055,4.3,4.3,0,0,1-1.082,3.066A3.791,3.791,0,0,1,223.531,17.188Zm.094-7.3a2.437,2.437,0,0,0-1.953.84,3.449,3.449,0,0,0-.719,2.316,3.262,3.262,0,0,0,.727,2.242,2.469,2.469,0,0,0,1.945.82,2.342,2.342,0,0,0,1.91-.8,3.492,3.492,0,0,0,.668-2.289,3.552,3.552,0,0,0-.668-2.312A2.332,2.332,0,0,0,223.625,9.891Zm10.109.406a1.567,1.567,0,0,0-.969-.258,1.635,1.635,0,0,0-1.371.773,3.576,3.576,0,0,0-.551,2.109V17h-1.281V9h1.281v1.648h.031a2.794,2.794,0,0,1,.836-1.316,1.906,1.906,0,0,1,1.258-.473,2.092,2.092,0,0,1,.766.109Zm5.1,6.625a2.47,2.47,0,0,1-1.2.25q-2.1,0-2.1-2.344V10.094h-1.375V9h1.375V7.047l1.281-.414V9h2.016v1.094H236.82V14.6a1.869,1.869,0,0,0,.273,1.148,1.091,1.091,0,0,0,.906.344,1.347,1.347,0,0,0,.836-.266Zm7.438.078h-1.281V15.75h-.031a2.682,2.682,0,0,1-2.461,1.438,2.63,2.63,0,0,1-1.871-.633,2.192,2.192,0,0,1-.676-1.68q0-2.242,2.641-2.609l2.4-.336q0-2.039-1.648-2.039a3.938,3.938,0,0,0-2.609.984V9.563a4.958,4.958,0,0,1,2.719-.75q2.82,0,2.82,2.984Zm-1.281-4.047-1.93.266a3.133,3.133,0,0,0-1.344.441,1.273,1.273,0,0,0-.453,1.121,1.221,1.221,0,0,0,.418.957,1.615,1.615,0,0,0,1.113.371,2.056,2.056,0,0,0,1.574-.668,2.387,2.387,0,0,0,.621-1.691ZM249.969,17h-1.281V5.156h1.281Zm9.023-3.68h-5.648a2.992,2.992,0,0,0,.719,2.063,2.478,2.478,0,0,0,1.891.727,3.931,3.931,0,0,0,2.484-.891v1.2a4.643,4.643,0,0,1-2.789.766,3.381,3.381,0,0,1-2.664-1.09,4.461,4.461,0,0,1-.969-3.066,4.374,4.374,0,0,1,1.059-3.043A3.394,3.394,0,0,1,255.7,8.813a3.008,3.008,0,0,1,2.43,1.016,4.235,4.235,0,0,1,.859,2.82Zm-1.312-1.086a2.607,2.607,0,0,0-.535-1.727,1.823,1.823,0,0,0-1.465-.617,2.07,2.07,0,0,0-1.539.648,2.943,2.943,0,0,0-.781,1.7Zm8.7,4.4a4.163,4.163,0,0,1-2.187.555,3.622,3.622,0,0,1-2.762-1.113,4.035,4.035,0,0,1-1.051-2.887,4.435,4.435,0,0,1,1.133-3.176,3.963,3.963,0,0,1,3.023-1.2A4.209,4.209,0,0,1,266.4,9.2v1.313a3.258,3.258,0,0,0-1.906-.625,2.576,2.576,0,0,0-2.012.879,3.335,3.335,0,0,0-.785,2.309,3.176,3.176,0,0,0,.738,2.219,2.545,2.545,0,0,0,1.98.813,3.211,3.211,0,0,0,1.969-.7Zm8.367-3.312H269.1a2.992,2.992,0,0,0,.719,2.063,2.478,2.478,0,0,0,1.891.727,3.931,3.931,0,0,0,2.484-.891v1.2a4.643,4.643,0,0,1-2.789.766,3.381,3.381,0,0,1-2.664-1.09,4.461,4.461,0,0,1-.969-3.066,4.375,4.375,0,0,1,1.059-3.043,3.394,3.394,0,0,1,2.629-1.176,3.008,3.008,0,0,1,2.43,1.016,4.235,4.235,0,0,1,.859,2.82Zm-1.312-1.086a2.607,2.607,0,0,0-.535-1.727,1.823,1.823,0,0,0-1.465-.617,2.07,2.07,0,0,0-1.539.648,2.943,2.943,0,0,0-.781,1.7ZM287.5,13.32h-5.648a2.992,2.992,0,0,0,.719,2.063,2.478,2.478,0,0,0,1.891.727,3.931,3.931,0,0,0,2.484-.891v1.2a4.643,4.643,0,0,1-2.789.766,3.381,3.381,0,0,1-2.664-1.09,4.461,4.461,0,0,1-.969-3.066,4.375,4.375,0,0,1,1.059-3.043,3.394,3.394,0,0,1,2.629-1.176,3.008,3.008,0,0,1,2.43,1.016,4.235,4.235,0,0,1,.859,2.82Zm-1.312-1.086a2.607,2.607,0,0,0-.535-1.727,1.823,1.823,0,0,0-1.465-.617,2.07,2.07,0,0,0-1.539.648,2.943,2.943,0,0,0-.781,1.7ZM290.719,17h-1.281V5.156h1.281Zm8.289-1.156h-.031V17H297.7V5.156h1.281v5.25h.031a3.03,3.03,0,0,1,2.766-1.594,2.932,2.932,0,0,1,2.41,1.074,4.436,4.436,0,0,1,.871,2.879,4.959,4.959,0,0,1-.977,3.215,3.251,3.251,0,0,1-2.672,1.207A2.631,2.631,0,0,1,299.008,15.844Zm-.031-3.227v1.117a2.379,2.379,0,0,0,.645,1.684,2.3,2.3,0,0,0,3.461-.2,4.086,4.086,0,0,0,.66-2.477,3.225,3.225,0,0,0-.617-2.094,2.043,2.043,0,0,0-1.672-.758,2.27,2.27,0,0,0-1.8.777A2.854,2.854,0,0,0,298.977,12.617Zm8.781-5.648a.812.812,0,0,1-.586-.234.791.791,0,0,1-.242-.594.821.821,0,0,1,.828-.836.827.827,0,0,1,.6.238.835.835,0,0,1,0,1.184A.82.82,0,0,1,307.758,6.969ZM308.383,17H307.1V9h1.281Zm9.023-3.68h-5.648a2.992,2.992,0,0,0,.719,2.063,2.478,2.478,0,0,0,1.891.727,3.931,3.931,0,0,0,2.484-.891v1.2a4.643,4.643,0,0,1-2.789.766A3.381,3.381,0,0,1,311.4,16.1a4.461,4.461,0,0,1-.969-3.066,4.375,4.375,0,0,1,1.059-3.043,3.394,3.394,0,0,1,2.629-1.176,3.008,3.008,0,0,1,2.43,1.016,4.235,4.235,0,0,1,.859,2.82Zm-1.312-1.086a2.607,2.607,0,0,0-.535-1.727,1.823,1.823,0,0,0-1.465-.617,2.07,2.07,0,0,0-1.539.648,2.943,2.943,0,0,0-.781,1.7ZM325.984,17H324.7V12.438q0-2.547-1.859-2.547a2.017,2.017,0,0,0-1.59.723,2.678,2.678,0,0,0-.629,1.824V17h-1.281V9h1.281v1.328h.031a2.887,2.887,0,0,1,2.625-1.516,2.448,2.448,0,0,1,2.008.848,3.776,3.776,0,0,1,.7,2.449Zm8.844-3.68H329.18a2.992,2.992,0,0,0,.719,2.063,2.478,2.478,0,0,0,1.891.727,3.931,3.931,0,0,0,2.484-.891v1.2a4.643,4.643,0,0,1-2.789.766,3.381,3.381,0,0,1-2.664-1.09,4.461,4.461,0,0,1-.969-3.066,4.375,4.375,0,0,1,1.059-3.043,3.394,3.394,0,0,1,2.629-1.176,3.008,3.008,0,0,1,2.43,1.016,4.235,4.235,0,0,1,.859,2.82Zm-1.312-1.086a2.607,2.607,0,0,0-.535-1.727,1.823,1.823,0,0,0-1.465-.617,2.07,2.07,0,0,0-1.539.648,2.943,2.943,0,0,0-.781,1.7Zm2.766,4.477V15.336a3.792,3.792,0,0,0,2.3.773q1.688,0,1.688-1.125a.976.976,0,0,0-.145-.543,1.44,1.44,0,0,0-.391-.395,3.007,3.007,0,0,0-.578-.309q-.332-.137-.715-.285a9.207,9.207,0,0,1-.934-.426,2.821,2.821,0,0,1-.672-.484,1.8,1.8,0,0,1-.406-.613,2.169,2.169,0,0,1-.137-.8,1.912,1.912,0,0,1,.258-1,2.286,2.286,0,0,1,.688-.727,3.206,3.206,0,0,1,.98-.441,4.349,4.349,0,0,1,1.137-.148,4.59,4.59,0,0,1,1.859.359v1.3a3.624,3.624,0,0,0-2.031-.578,2.374,2.374,0,0,0-.648.082,1.587,1.587,0,0,0-.5.23,1.065,1.065,0,0,0-.32.355.936.936,0,0,0-.113.457,1.1,1.1,0,0,0,.113.523,1.152,1.152,0,0,0,.332.375,2.538,2.538,0,0,0,.531.3q.313.133.711.289a9.9,9.9,0,0,1,.953.418,3.269,3.269,0,0,1,.719.484,1.893,1.893,0,0,1,.457.621,2,2,0,0,1,.16.836,1.971,1.971,0,0,1-.262,1.031,2.243,2.243,0,0,1-.7.727,3.2,3.2,0,0,1-1.008.43,4.976,4.976,0,0,1-1.2.141A4.539,4.539,0,0,1,336.281,16.711Zm10.984.211a2.47,2.47,0,0,1-1.2.25q-2.1,0-2.1-2.344V10.094h-1.375V9h1.375V7.047l1.281-.414V9h2.016v1.094H345.25V14.6a1.869,1.869,0,0,0,.273,1.148,1.091,1.091,0,0,0,.906.344,1.347,1.347,0,0,0,.836-.266ZM354.7,17h-1.281V15.75h-.031a2.682,2.682,0,0,1-2.461,1.438,2.63,2.63,0,0,1-1.871-.633,2.192,2.192,0,0,1-.676-1.68q0-2.242,2.641-2.609l2.4-.336q0-2.039-1.648-2.039a3.938,3.938,0,0,0-2.609.984V9.563a4.958,4.958,0,0,1,2.719-.75q2.82,0,2.82,2.984Zm-1.281-4.047-1.93.266a3.133,3.133,0,0,0-1.344.441,1.273,1.273,0,0,0-.453,1.121,1.221,1.221,0,0,0,.418.957,1.615,1.615,0,0,0,1.113.371,2.056,2.056,0,0,0,1.574-.668,2.387,2.387,0,0,0,.621-1.691Zm7.867-2.656a1.567,1.567,0,0,0-.969-.258,1.635,1.635,0,0,0-1.371.773,3.576,3.576,0,0,0-.551,2.109V17h-1.281V9H358.4v1.648h.031a2.793,2.793,0,0,1,.836-1.316,1.906,1.906,0,0,1,1.258-.473,2.092,2.092,0,0,1,.766.109ZM373.43,9l-3.68,9.281q-.984,2.484-2.766,2.484a2.931,2.931,0,0,1-.836-.1V19.516a2.375,2.375,0,0,0,.758.141,1.57,1.57,0,0,0,1.453-1.156L369,16.984,365.875,9H367.3l2.164,6.156q.039.117.164.609h.047q.039-.187.156-.594L372.1,9Zm7.039,8h-1.281V5.156h1.281Zm8.32,0h-1.281V15.75h-.031a2.682,2.682,0,0,1-2.461,1.438,2.63,2.63,0,0,1-1.871-.633,2.192,2.192,0,0,1-.676-1.68q0-2.242,2.641-2.609l2.4-.336q0-2.039-1.648-2.039a3.938,3.938,0,0,0-2.609.984V9.563a4.958,4.958,0,0,1,2.719-.75q2.82,0,2.82,2.984Zm-1.281-4.047-1.93.266a3.133,3.133,0,0,0-1.344.441,1.273,1.273,0,0,0-.453,1.121,1.221,1.221,0,0,0,.418.957,1.615,1.615,0,0,0,1.113.371,2.056,2.056,0,0,0,1.574-.668,2.387,2.387,0,0,0,.621-1.691Zm13.531,3.68a4.163,4.163,0,0,1-2.187.555,3.622,3.622,0,0,1-2.762-1.113,4.035,4.035,0,0,1-1.051-2.887,4.435,4.435,0,0,1,1.133-3.176,3.963,3.963,0,0,1,3.023-1.2,4.209,4.209,0,0,1,1.859.391v1.313a3.258,3.258,0,0,0-1.906-.625,2.576,2.576,0,0,0-2.012.879,3.335,3.335,0,0,0-.785,2.309,3.176,3.176,0,0,0,.738,2.219,2.545,2.545,0,0,0,1.98.813,3.211,3.211,0,0,0,1.969-.7Zm5.281.555a3.711,3.711,0,0,1-2.832-1.121,4.153,4.153,0,0,1-1.059-2.973,4.326,4.326,0,0,1,1.1-3.148,3.96,3.96,0,0,1,2.977-1.133,3.588,3.588,0,0,1,2.793,1.1,4.368,4.368,0,0,1,1,3.055,4.3,4.3,0,0,1-1.082,3.066A3.791,3.791,0,0,1,406.32,17.188Zm.094-7.3a2.437,2.437,0,0,0-1.953.84,3.449,3.449,0,0,0-.719,2.316,3.262,3.262,0,0,0,.727,2.242,2.469,2.469,0,0,0,1.945.82,2.342,2.342,0,0,0,1.91-.8,3.492,3.492,0,0,0,.668-2.289,3.552,3.552,0,0,0-.668-2.312A2.332,2.332,0,0,0,406.414,9.891ZM418.992,17h-1.281V12.438q0-2.547-1.859-2.547a2.017,2.017,0,0,0-1.59.723,2.678,2.678,0,0,0-.629,1.824V17h-1.281V9h1.281v1.328h.031a2.887,2.887,0,0,1,2.625-1.516,2.448,2.448,0,0,1,2.008.848,3.776,3.776,0,0,1,.7,2.449Zm8.7-8-3.187,8H423.25l-3.031-8h1.406l2.031,5.813a5.218,5.218,0,0,1,.281,1.117h.031a5.283,5.283,0,0,1,.25-1.086L426.344,9Zm2.031-2.031a.812.812,0,0,1-.586-.234.791.791,0,0,1-.242-.594.821.821,0,0,1,.828-.836.827.827,0,0,1,.6.238.835.835,0,0,1,0,1.184A.82.82,0,0,1,429.727,6.969ZM430.352,17H429.07V9h1.281Zm8.883-8-3.187,8h-1.258l-3.031-8h1.406l2.031,5.813a5.218,5.218,0,0,1,.281,1.117h.031a5.283,5.283,0,0,1,.25-1.086L437.883,9Zm7.8,4.32h-5.648a2.992,2.992,0,0,0,.719,2.063,2.478,2.478,0,0,0,1.891.727,3.931,3.931,0,0,0,2.484-.891v1.2a4.643,4.643,0,0,1-2.789.766,3.381,3.381,0,0,1-2.664-1.09,4.461,4.461,0,0,1-.969-3.066,4.375,4.375,0,0,1,1.059-3.043,3.394,3.394,0,0,1,2.629-1.176,3.008,3.008,0,0,1,2.43,1.016,4.235,4.235,0,0,1,.859,2.82Zm-1.312-1.086a2.607,2.607,0,0,0-.535-1.727,1.823,1.823,0,0,0-1.465-.617,2.07,2.07,0,0,0-1.539.648,2.943,2.943,0,0,0-.781,1.7ZM455.617,17h-1.281V12.438q0-2.547-1.859-2.547a2.017,2.017,0,0,0-1.59.723,2.678,2.678,0,0,0-.629,1.824V17h-1.281V9h1.281v1.328h.031a2.887,2.887,0,0,1,2.625-1.516,2.448,2.448,0,0,1,2.008.848,3.776,3.776,0,0,1,.7,2.449Zm7.867-.367a4.163,4.163,0,0,1-2.187.555,3.622,3.622,0,0,1-2.762-1.113,4.035,4.035,0,0,1-1.051-2.887,4.435,4.435,0,0,1,1.133-3.176,3.963,3.963,0,0,1,3.023-1.2A4.209,4.209,0,0,1,463.5,9.2v1.313a3.258,3.258,0,0,0-1.906-.625,2.576,2.576,0,0,0-2.012.879,3.335,3.335,0,0,0-.785,2.309,3.176,3.176,0,0,0,.738,2.219,2.545,2.545,0,0,0,1.98.813,3.211,3.211,0,0,0,1.969-.7Zm2.594-9.664a.812.812,0,0,1-.586-.234.791.791,0,0,1-.242-.594.821.821,0,0,1,.828-.836.827.827,0,0,1,.6.238.835.835,0,0,1,0,1.184A.82.82,0,0,1,466.078,6.969ZM466.7,17h-1.281V9H466.7Zm8.32,0h-1.281V15.75h-.031a2.682,2.682,0,0,1-2.461,1.438,2.63,2.63,0,0,1-1.871-.633,2.192,2.192,0,0,1-.676-1.68q0-2.242,2.641-2.609l2.4-.336q0-2.039-1.648-2.039a3.938,3.938,0,0,0-2.609.984V9.563a4.958,4.958,0,0,1,2.719-.75q2.82,0,2.82,2.984Zm-1.281-4.047-1.93.266a3.133,3.133,0,0,0-1.344.441,1.273,1.273,0,0,0-.453,1.121,1.221,1.221,0,0,0,.418.957,1.615,1.615,0,0,0,1.113.371,2.056,2.056,0,0,0,1.574-.668,2.387,2.387,0,0,0,.621-1.691Zm4.141,4.219a.829.829,0,0,1-.613-.258.849.849,0,0,1-.254-.617.862.862,0,0,1,.254-.621.823.823,0,0,1,.613-.262.845.845,0,0,1,.625.262.855.855,0,0,1,.258.621.842.842,0,0,1-.258.617A.851.851,0,0,1,477.883,17.172Z" transform="translate(556 1731)" fill="#12263f"/>
    <path id="Trazado_997875" data-name="Trazado 997875" d="M573.718,238.38,585.5,250.166l11.788-11.787" transform="translate(543.782 1280.057)" fill="none" stroke="#b2346d" stroke-linecap="round" stroke-linejoin="round" stroke-width="3"/>
    <path id="Trazado_997876" data-name="Trazado 997876" d="M62.248,238.38l11.787,11.787L85.823,238.38" transform="translate(397.251 1280.057)" fill="none" stroke="#00939e" stroke-linecap="round" stroke-linejoin="round" stroke-width="3"/>
    <g id="Grupo_1180087" data-name="Grupo 1180087" transform="translate(465.382 1345.829)">
      <g id="Grupo_1180086" data-name="Grupo 1180086" clip-path="url(#clip-path-2)">
        <path id="Trazado_997872" data-name="Trazado 997872" d="M1.173,33.418c1.6,2.867,4.429,5.232,8.417,7.032,1.408.634,2.858,1.166,4.292,1.663q-3.825,1.5-7.877,2.726a3.392,3.392,0,0,0-2.189,2.011A17.453,17.453,0,0,0,3.05,57.325a7.632,7.632,0,0,0,1.491,3.159,5.433,5.433,0,0,0,4.347,2.062,11.6,11.6,0,0,0,4.949-1.431,104.4,104.4,0,0,0,12.678-7.868c1.414-.974,2.844-1.955,4.293-2.915,1.438.953,2.863,1.93,4.288,2.912a104.58,104.58,0,0,0,12.687,7.872,11.582,11.582,0,0,0,4.945,1.43A5.441,5.441,0,0,0,57.08,60.48a7.613,7.613,0,0,0,1.486-3.148,17.456,17.456,0,0,0-.764-10.48,3.4,3.4,0,0,0-2.19-2.014c-2.724-.822-5.364-1.736-7.88-2.725,1.437-.5,2.889-1.029,4.3-1.664,3.988-1.8,6.819-4.165,8.418-7.034a8.171,8.171,0,0,0,.546-7.306,3.972,3.972,0,0,0-.2-1.512,4.951,4.951,0,0,0-2.427-2.676c-.027-.2-.051-.333-.056-.356-.053-.223-.117-.458-.184-.679a1.857,1.857,0,0,0-1.449-1.28c-.012,0-.025,0-.037,0,.708-6.308-.577-11.32-3.871-14.877A13.641,13.641,0,0,0,42.317.007a13.023,13.023,0,0,0-8.6,3.807,13.168,13.168,0,0,0-2.785,4.236,13.5,13.5,0,0,0-2.882-4.244,13.015,13.015,0,0,0-8.586-3.8A13.612,13.612,0,0,0,9.021,4.728C5.713,8.3,4.431,13.309,5.156,19.6a1.855,1.855,0,0,0-.208.009,1.862,1.862,0,0,0-1.453,1.288c-.064.213-.128.447-.189.711,0,0-.023.123-.048.317A4.95,4.95,0,0,0,.832,24.6a3.974,3.974,0,0,0-.2,1.509A8.175,8.175,0,0,0,1.173,33.418ZM55.986,47.573a15.49,15.49,0,0,1,.679,9.3,5.7,5.7,0,0,1-1.088,2.353c-1.47,1.761-3.543,1.8-6.928.132A103.218,103.218,0,0,1,36.2,51.633c-1.182-.814-2.4-1.644-3.615-2.461a57.9,57.9,0,0,1,9.52-5.062c.92-.37,1.868-.707,2.814-1.034A101.935,101.935,0,0,0,55.048,46.71,1.452,1.452,0,0,1,55.986,47.573Zm1.929-18.829a13.235,13.235,0,0,1-4.839,4.687.978.978,0,0,0,.979,1.692A15.2,15.2,0,0,0,59.6,29.731l.028-.049a7.719,7.719,0,0,1-.893,2.784c-1.389,2.492-3.917,4.579-7.513,6.2-1.782.8-3.686,1.45-5.527,2.075-1.421.482-2.89.981-4.315,1.554-5.781,2.314-10.964,5.886-15.976,9.34a102.94,102.94,0,0,1-12.435,7.725c-3.388,1.668-5.46,1.628-6.927-.127a5.725,5.725,0,0,1-1.093-2.364,15.494,15.494,0,0,1,.683-9.3,1.449,1.449,0,0,1,.937-.859A99.315,99.315,0,0,0,25.66,38.783c3.838-2.1,7.806-4.281,11.124-7.318A20.078,20.078,0,0,0,43.228,20.7a.149.149,0,0,1,.112-.029c.3.071.6.15.859.235a1.949,1.949,0,0,1,1.079.789,3.088,3.088,0,0,1,.273,1.225,19.788,19.788,0,0,1-.289,5.5A.977.977,0,0,0,46.635,29.5a26.144,26.144,0,0,0,9.65-7.922c.041.142.08.285.107.4a5.853,5.853,0,0,1,.074.649,6.82,6.82,0,0,1-.024,1.3c-.188,1.431-1.677,3.8-4.582,5.869a.977.977,0,1,0,1.134,1.592c2.916-2.076,4.994-4.83,5.356-7.073a2.432,2.432,0,0,1,.587.919C59.291,26.264,58.737,27.338,57.915,28.743ZM2.682,25.228a2.43,2.43,0,0,1,.586-.917c.36,2.237,2.439,4.994,5.357,7.072a.977.977,0,0,0,1.134-1.592c-2.9-2.068-4.395-4.438-4.581-5.861a6.87,6.87,0,0,1-.024-1.315c.022-.355.065-.6.064-.6h0c.032-.133.067-.27.1-.4A26.616,26.616,0,0,0,14.983,29.5a.977.977,0,0,0,1.373-1.073,19.79,19.79,0,0,1-.289-5.5,3.087,3.087,0,0,1,.275-1.23,1.935,1.935,0,0,1,1.064-.78c.267-.089.569-.169.849-.235.069-.015.116.012.177.081a19.792,19.792,0,0,0,6.4,10.707c.533.49,1.11.979,1.714,1.455a.977.977,0,0,0,1.21-1.535c-.565-.446-1.1-.9-1.605-1.363a17.848,17.848,0,0,1-5.8-9.625,2.04,2.04,0,0,0-.881-1.323,2.158,2.158,0,0,0-1.641-.3c-.362.085-.724.182-1.056.293a3.876,3.876,0,0,0-2.126,1.654,4.716,4.716,0,0,0-.529,2.039,21.92,21.92,0,0,0,.03,4.11,25.109,25.109,0,0,1-6.841-5.9c-.045-.24-.086-.481-.121-.723-.881-6.115.218-10.885,3.269-14.179A11.65,11.65,0,0,1,19.4,1.961a11.055,11.055,0,0,1,7.276,3.23A11.522,11.522,0,0,1,29.133,8.8a1.963,1.963,0,0,0,1.82,1.229h0a1.923,1.923,0,0,0,1.782-1.207,10.886,10.886,0,0,1,9.648-6.863,11.67,11.67,0,0,1,8.942,4.095c4.569,4.934,3.6,11.883,3.281,14.158l-.041.264c-.01.068-.023.135-.034.2a25.249,25.249,0,0,1-7.066,6.182,21.924,21.924,0,0,0,.03-4.11,4.716,4.716,0,0,0-.527-2.034,3.888,3.888,0,0,0-2.141-1.663c-.32-.106-.682-.2-1.066-.293a2.138,2.138,0,0,0-1.619.31,2.042,2.042,0,0,0-.882,1.33,17.845,17.845,0,0,1-5.8,9.62c-3.146,2.879-7.01,5-10.747,7.048-2.575,1.414-5.281,2.718-8.088,3.916l-.687-.234c-1.847-.628-3.757-1.276-5.55-2.084-3.6-1.623-6.124-3.709-7.512-6.2a7.731,7.731,0,0,1-.894-2.79l.03.052a15.2,15.2,0,0,0,5.546,5.391.978.978,0,1,0,.979-1.692,13.231,13.231,0,0,1-4.839-4.687C2.883,27.338,2.328,26.264,2.682,25.228Z" transform="translate(0 0)"/>
        <path id="Trazado_997873" data-name="Trazado 997873" d="M412.757,126.826a8.073,8.073,0,0,1-.222,1.037.977.977,0,1,0,1.88.536,10.12,10.12,0,0,0,.276-1.288.977.977,0,0,0-1.934-.285" transform="translate(-362.104 -110.599)"/>
        <path id="Trazado_997874" data-name="Trazado 997874" d="M353.794,41.358a8.5,8.5,0,0,1,5.576,3.818,8.254,8.254,0,0,1,.932,2.144.978.978,0,0,0,.941.717A.994.994,0,0,0,361.5,48a.977.977,0,0,0,.681-1.2,10.214,10.214,0,0,0-1.154-2.65,10.479,10.479,0,0,0-6.878-4.71.977.977,0,0,0-.359,1.921" transform="translate(-309.873 -34.604)"/>
      </g>
    </g>
  </g>
</svg>
