<svg xmlns="http://www.w3.org/2000/svg" xmlns:xlink="http://www.w3.org/1999/xlink" width="400" height="956" viewBox="0 0 400 956">
  <defs>
    <clipPath id="clip-path">
      <rect id="Rectángulo_460002" data-name="Rectángulo 460002" width="33.823" height="34.332" fill="none"/>
    </clipPath>
  </defs>
  <g id="Grupo_1180095" data-name="Grupo 1180095" transform="translate(6512 10834)">
    <rect id="Rectángulo_460001" data-name="Rectángulo 460001" width="400" height="956" transform="translate(-6512 -10834)" fill="#fff8e6"/>
    <rect id="Rectángulo_459980" data-name="Rectángulo 459980" width="192" height="40" transform="translate(-6401 -10633)" fill="#c2e8e8"/>
    <rect id="Rectángulo_459999" data-name="Rectángulo 459999" width="192" height="40" transform="translate(-6401 -10308)" fill="#c2e8e8"/>
    <text id="Regulación_emocional" data-name="Regulación emocional" transform="translate(-6305 -10607)" fill="#12263f" font-size="16" font-family="SegoeUI-Bold, Segoe UI" font-weight="700"><tspan x="-82.738" y="0">Regulación emocional</tspan></text>
    <text id="Resiliencia" transform="translate(-6305 -10282)" fill="#12263f" font-size="16" font-family="SegoeUI-Bold, Segoe UI" font-weight="700"><tspan x="-39.277" y="0">Resiliencia</tspan></text>
    <rect id="Rectángulo_459979" data-name="Rectángulo 459979" width="192" height="40" transform="translate(-6401 -10806)" fill="#c2e8e8"/>
    <rect id="Rectángulo_459981" data-name="Rectángulo 459981" width="192" height="40" transform="translate(-6401 -10481)" fill="#c2e8e8"/>
    <rect id="Rectángulo_459982" data-name="Rectángulo 459982" width="145" height="40" transform="translate(-6401 -10135)" fill="#c2e8e8"/>
    <text id="Autoestima" transform="translate(-6329 -10780)" fill="#12263f" font-size="16" font-family="SegoeUI-Bold, Segoe UI" font-weight="700"><tspan x="-43.305" y="0">Autoestima</tspan></text>
    <text id="Empatía" transform="translate(-6329 -10455)" fill="#12263f" font-size="16" font-family="SegoeUI-Bold, Segoe UI" font-weight="700"><tspan x="-30.465" y="0">Empatía</tspan></text>
    <text id="Comunicación" transform="translate(-6329 -10109)" fill="#12263f" font-size="16" font-family="SegoeUI-Bold, Segoe UI" font-weight="700"><tspan x="-53.148" y="0">Comunicación</tspan></text>
    <text id="Capacidad_para_valorarse_y_enfrentar_los_desafíos_de_la_vida." data-name="Capacidad para valorarse y enfrentar los desafíos de la vida." transform="translate(-6401 -10756)" fill="#12263f" font-size="16" font-family="SegoeUI, Segoe UI"><tspan x="0" y="17">Capacidad para valorarse y enfrentar los </tspan><tspan x="0" y="41">desafíos de la vida.</tspan></text>
    <text id="Comprender_y_conectar_con_los_sentimientos_de_los_demás._" data-name="Comprender y conectar con los sentimientos de los demás. " transform="translate(-6401 -10431)" fill="#12263f" font-size="16" font-family="SegoeUI, Segoe UI"><tspan x="0" y="17">Comprender y conectar con los </tspan><tspan x="0" y="41">sentimientos de los demás. </tspan></text>
    <text id="Reconocer_y_gestionar_las_emociones." data-name="Reconocer y gestionar las emociones." transform="translate(-6401 -10581)" fill="#12263f" font-size="16" font-family="SegoeUI, Segoe UI"><tspan x="0" y="17">Reconocer y gestionar las emociones.</tspan></text>
    <text id="Adaptarse_y_superar_situaciones_difíciles." data-name="Adaptarse y superar situaciones 
difíciles." transform="translate(-6401 -10256)" fill="#12263f" font-size="16" font-family="SegoeUI, Segoe UI"><tspan x="0" y="17">Adaptarse y superar situaciones </tspan><tspan x="0" y="41">difíciles.</tspan></text>
    <text id="Compartir_ideas_y_emociones_de_forma_efectiva." data-name="Compartir ideas y emociones de forma efectiva." transform="translate(-6401 -10085)" fill="#12263f" font-size="16" font-family="SegoeUI, Segoe UI"><tspan x="0" y="17">Compartir ideas y emociones de forma </tspan><tspan x="0" y="41">efectiva.</tspan></text>
    <rect id="Rectángulo_459998" data-name="Rectángulo 459998" width="2" height="79" transform="translate(-6461 -10730)" fill="#00a7bc"/>
    <rect id="Rectángulo_460003" data-name="Rectángulo 460003" width="2" height="55" transform="translate(-6461 -10554)" fill="#00a7bc"/>
    <rect id="Rectángulo_460004" data-name="Rectángulo 460004" width="2" height="79" transform="translate(-6461 -10405)" fill="#00a7bc"/>
    <rect id="Rectángulo_460005" data-name="Rectángulo 460005" width="2" height="79" transform="translate(-6461 -10232)" fill="#00a7bc"/>
    <rect id="Rectángulo_459985" data-name="Rectángulo 459985" width="274" height="54" transform="translate(-6401 -10705)" fill="#fff"/>
    <rect id="Rectángulo_459993" data-name="Rectángulo 459993" width="274" height="54" transform="translate(-6401 -10380)" fill="#fff"/>
    <rect id="Rectángulo_459995" data-name="Rectángulo 459995" width="274" height="54" transform="translate(-6401 -10553)" fill="#fff"/>
    <rect id="Rectángulo_459997" data-name="Rectángulo 459997" width="274" height="54" transform="translate(-6401 -10207)" fill="#fff"/>
    <rect id="Rectángulo_459994" data-name="Rectángulo 459994" width="274" height="54" transform="translate(-6401 -10034)" fill="#fff"/>
    <text id="_Confianza_personal._Percepción_de_logros._" data-name="• Confianza personal.
• Percepción de logros.
" transform="translate(-6390 -10698)" fill="#12263f" font-size="16" font-family="SegoeUI, Segoe UI"><tspan x="0" y="17">• Confianza personal.</tspan><tspan x="0" y="41">• Percepción de logros.</tspan><tspan font-family="Roboto-Regular, Roboto"><tspan x="0" y="65"></tspan></tspan></text>
    <text id="_Comprensión_emocional._Sensibilidad_social._" data-name="• Comprensión emocional.
• Sensibilidad social.
" transform="translate(-6390 -10373)" fill="#12263f" font-size="16" font-family="SegoeUI, Segoe UI"><tspan x="0" y="17">• Comprensión emocional.</tspan><tspan x="0" y="41">• Sensibilidad social.</tspan><tspan font-family="Roboto-Regular, Roboto"><tspan x="0" y="65"></tspan></tspan></text>
    <text id="_Control_de_reacciones._Expresión_adecuada." data-name="• Control de reacciones.
• Expresión adecuada." transform="translate(-6390 -10546)" fill="#12263f" font-size="16" font-family="SegoeUI, Segoe UI"><tspan x="0" y="17">• Control de reacciones.</tspan><tspan x="0" y="41">• Expresión adecuada.</tspan></text>
    <text id="_Afrontar_desafíos._Fortaleza_personal." data-name="• Afrontar desafíos.
• Fortaleza personal." transform="translate(-6390 -10200)" fill="#12263f" font-size="16" font-family="SegoeUI, Segoe UI"><tspan x="0" y="17">• Afrontar desafíos.</tspan><tspan x="0" y="41">• Fortaleza personal.</tspan></text>
    <text id="_Escucha_activa._Intercambio_de_ideas." data-name="• Escucha activa.
• Intercambio de ideas." transform="translate(-6390 -10027)" fill="#12263f" font-size="16" font-family="SegoeUI, Segoe UI"><tspan x="0" y="17">• Escucha activa.</tspan><tspan x="0" y="41">• Intercambio de ideas.</tspan></text>
    <path id="Rectángulo_459996" data-name="Rectángulo 459996" d="M23,0H298a23,23,0,0,1,23,23V77a0,0,0,0,1,0,0H0a0,0,0,0,1,0,0V23A23,23,0,0,1,23,0Z" transform="translate(-6472 -9955)" fill="#aec2dd"/>
    <path id="Trazado_998092" data-name="Trazado 998092" d="M7.469,17V5.8h3.094q5.922,0,5.922,5.461a5.5,5.5,0,0,1-1.645,4.168A6.1,6.1,0,0,1,10.438,17ZM8.781,6.984v8.828h1.672a4.745,4.745,0,0,0,3.43-1.18,4.422,4.422,0,0,0,1.227-3.344q0-4.3-4.578-4.3ZM24.945,13.32H19.3a2.992,2.992,0,0,0,.719,2.063,2.478,2.478,0,0,0,1.891.727,3.931,3.931,0,0,0,2.484-.891v1.2a4.643,4.643,0,0,1-2.789.766,3.381,3.381,0,0,1-2.664-1.09,4.461,4.461,0,0,1-.969-3.066,4.375,4.375,0,0,1,1.059-3.043,3.394,3.394,0,0,1,2.629-1.176,3.008,3.008,0,0,1,2.43,1.016,4.234,4.234,0,0,1,.859,2.82Zm-1.312-1.086a2.607,2.607,0,0,0-.535-1.727,1.823,1.823,0,0,0-1.465-.617,2.07,2.07,0,0,0-1.539.648,2.943,2.943,0,0,0-.781,1.7ZM26.4,16.711V15.336a3.792,3.792,0,0,0,2.3.773q1.688,0,1.688-1.125a.976.976,0,0,0-.145-.543,1.44,1.44,0,0,0-.391-.395,3.007,3.007,0,0,0-.578-.309q-.332-.137-.715-.285a9.207,9.207,0,0,1-.934-.426,2.82,2.82,0,0,1-.672-.484,1.8,1.8,0,0,1-.406-.613,2.17,2.17,0,0,1-.137-.8,1.912,1.912,0,0,1,.258-1,2.286,2.286,0,0,1,.688-.727,3.206,3.206,0,0,1,.98-.441,4.349,4.349,0,0,1,1.137-.148,4.59,4.59,0,0,1,1.859.359v1.3A3.624,3.624,0,0,0,29.3,9.891a2.374,2.374,0,0,0-.648.082,1.587,1.587,0,0,0-.5.23,1.065,1.065,0,0,0-.32.355.936.936,0,0,0-.113.457,1.1,1.1,0,0,0,.113.523,1.152,1.152,0,0,0,.332.375,2.538,2.538,0,0,0,.531.3q.313.133.711.289a9.9,9.9,0,0,1,.953.418,3.269,3.269,0,0,1,.719.484,1.893,1.893,0,0,1,.457.621,2,2,0,0,1,.16.836,1.971,1.971,0,0,1-.262,1.031,2.243,2.243,0,0,1-.7.727,3.2,3.2,0,0,1-1.008.43,4.976,4.976,0,0,1-1.2.141A4.539,4.539,0,0,1,26.4,16.711ZM39.4,17H38.117V15.75h-.031a2.682,2.682,0,0,1-2.461,1.438,2.63,2.63,0,0,1-1.871-.633,2.192,2.192,0,0,1-.676-1.68q0-2.242,2.641-2.609l2.4-.336q0-2.039-1.648-2.039a3.938,3.938,0,0,0-2.609.984V9.563a4.958,4.958,0,0,1,2.719-.75q2.82,0,2.82,2.984Zm-1.281-4.047-1.93.266a3.133,3.133,0,0,0-1.344.441,1.273,1.273,0,0,0-.453,1.121,1.221,1.221,0,0,0,.418.957,1.615,1.615,0,0,0,1.113.371,2.056,2.056,0,0,0,1.574-.668,2.387,2.387,0,0,0,.621-1.691ZM45.984,10.3a1.567,1.567,0,0,0-.969-.258,1.635,1.635,0,0,0-1.371.773,3.576,3.576,0,0,0-.551,2.109V17H41.813V9h1.281v1.648h.031a2.794,2.794,0,0,1,.836-1.316,1.906,1.906,0,0,1,1.258-.473,2.092,2.092,0,0,1,.766.109Zm5.563,0a1.567,1.567,0,0,0-.969-.258,1.635,1.635,0,0,0-1.371.773,3.576,3.576,0,0,0-.551,2.109V17H47.375V9h1.281v1.648h.031a2.794,2.794,0,0,1,.836-1.316,1.906,1.906,0,0,1,1.258-.473,2.092,2.092,0,0,1,.766.109Zm4.734,6.891a3.711,3.711,0,0,1-2.832-1.121,4.153,4.153,0,0,1-1.059-2.973,4.326,4.326,0,0,1,1.1-3.148,3.96,3.96,0,0,1,2.977-1.133,3.588,3.588,0,0,1,2.793,1.1,4.368,4.368,0,0,1,1,3.055,4.3,4.3,0,0,1-1.082,3.066A3.791,3.791,0,0,1,56.281,17.188Zm.094-7.3a2.437,2.437,0,0,0-1.953.84,3.449,3.449,0,0,0-.719,2.316,3.262,3.262,0,0,0,.727,2.242,2.469,2.469,0,0,0,1.945.82,2.342,2.342,0,0,0,1.91-.8,3.492,3.492,0,0,0,.668-2.289,3.552,3.552,0,0,0-.668-2.312A2.332,2.332,0,0,0,56.375,9.891ZM63.594,17H62.313V5.156h1.281Zm3.875,0H66.188V5.156h1.281Zm8.32,0H74.508V15.75h-.031a2.682,2.682,0,0,1-2.461,1.438,2.63,2.63,0,0,1-1.871-.633,2.192,2.192,0,0,1-.676-1.68q0-2.242,2.641-2.609l2.4-.336q0-2.039-1.648-2.039a3.938,3.938,0,0,0-2.609.984V9.563a4.958,4.958,0,0,1,2.719-.75q2.82,0,2.82,2.984Zm-1.281-4.047-1.93.266a3.133,3.133,0,0,0-1.344.441,1.273,1.273,0,0,0-.453,1.121,1.221,1.221,0,0,0,.418.957,1.615,1.615,0,0,0,1.113.371,2.056,2.056,0,0,0,1.574-.668,2.387,2.387,0,0,0,.621-1.691ZM82.375,10.3a1.567,1.567,0,0,0-.969-.258,1.635,1.635,0,0,0-1.371.773,3.576,3.576,0,0,0-.551,2.109V17H78.2V9h1.281v1.648h.031a2.793,2.793,0,0,1,.836-1.316,1.906,1.906,0,0,1,1.258-.473,2.092,2.092,0,0,1,.766.109Zm12.2,3.023H88.93a2.992,2.992,0,0,0,.719,2.063,2.478,2.478,0,0,0,1.891.727,3.931,3.931,0,0,0,2.484-.891v1.2a4.643,4.643,0,0,1-2.789.766A3.381,3.381,0,0,1,88.57,16.1a4.461,4.461,0,0,1-.969-3.066A4.375,4.375,0,0,1,88.66,9.988a3.394,3.394,0,0,1,2.629-1.176,3.008,3.008,0,0,1,2.43,1.016,4.234,4.234,0,0,1,.859,2.82Zm-1.312-1.086a2.607,2.607,0,0,0-.535-1.727,1.823,1.823,0,0,0-1.465-.617,2.07,2.07,0,0,0-1.539.648,2.943,2.943,0,0,0-.781,1.7Zm2.766,4.477V15.336a3.792,3.792,0,0,0,2.3.773q1.688,0,1.688-1.125a.976.976,0,0,0-.145-.543,1.44,1.44,0,0,0-.391-.395,3.007,3.007,0,0,0-.578-.309q-.332-.137-.715-.285a9.207,9.207,0,0,1-.934-.426,2.82,2.82,0,0,1-.672-.484,1.8,1.8,0,0,1-.406-.613,2.17,2.17,0,0,1-.137-.8,1.912,1.912,0,0,1,.258-1,2.286,2.286,0,0,1,.688-.727,3.206,3.206,0,0,1,.98-.441,4.349,4.349,0,0,1,1.137-.148,4.59,4.59,0,0,1,1.859.359v1.3a3.624,3.624,0,0,0-2.031-.578,2.374,2.374,0,0,0-.648.082,1.587,1.587,0,0,0-.5.23,1.065,1.065,0,0,0-.32.355.936.936,0,0,0-.113.457,1.1,1.1,0,0,0,.113.523,1.152,1.152,0,0,0,.332.375,2.538,2.538,0,0,0,.531.3q.313.133.711.289a9.9,9.9,0,0,1,.953.418,3.269,3.269,0,0,1,.719.484,1.893,1.893,0,0,1,.457.621,2,2,0,0,1,.16.836,1.971,1.971,0,0,1-.262,1.031,2.243,2.243,0,0,1-.7.727,3.2,3.2,0,0,1-1.008.43,4.976,4.976,0,0,1-1.2.141A4.539,4.539,0,0,1,96.031,16.711Zm10.984.211a2.47,2.47,0,0,1-1.2.25q-2.1,0-2.1-2.344V10.094h-1.375V9h1.375V7.047L105,6.633V9h2.016v1.094H105V14.6a1.869,1.869,0,0,0,.273,1.148,1.091,1.091,0,0,0,.906.344,1.347,1.347,0,0,0,.836-.266Zm7.438.078h-1.281V15.75h-.031a2.682,2.682,0,0,1-2.461,1.438,2.63,2.63,0,0,1-1.871-.633,2.192,2.192,0,0,1-.676-1.68q0-2.242,2.641-2.609l2.4-.336q0-2.039-1.648-2.039a3.938,3.938,0,0,0-2.609.984V9.563a4.958,4.958,0,0,1,2.719-.75q2.82,0,2.82,2.984Zm-1.281-4.047-1.93.266a3.133,3.133,0,0,0-1.344.441,1.273,1.273,0,0,0-.453,1.121,1.221,1.221,0,0,0,.418.957,1.615,1.615,0,0,0,1.113.371,2.056,2.056,0,0,0,1.574-.668,2.387,2.387,0,0,0,.621-1.691Zm3.211,3.758V15.336a3.792,3.792,0,0,0,2.3.773q1.688,0,1.688-1.125a.976.976,0,0,0-.145-.543,1.44,1.44,0,0,0-.391-.395,3.007,3.007,0,0,0-.578-.309q-.332-.137-.715-.285a9.207,9.207,0,0,1-.934-.426,2.82,2.82,0,0,1-.672-.484,1.8,1.8,0,0,1-.406-.613,2.17,2.17,0,0,1-.137-.8,1.912,1.912,0,0,1,.258-1,2.286,2.286,0,0,1,.688-.727,3.206,3.206,0,0,1,.98-.441,4.349,4.349,0,0,1,1.137-.148,4.59,4.59,0,0,1,1.859.359v1.3a3.624,3.624,0,0,0-2.031-.578,2.374,2.374,0,0,0-.648.082,1.587,1.587,0,0,0-.5.23,1.065,1.065,0,0,0-.32.355.936.936,0,0,0-.113.457,1.1,1.1,0,0,0,.113.523,1.152,1.152,0,0,0,.332.375,2.538,2.538,0,0,0,.531.3q.313.133.711.289a9.9,9.9,0,0,1,.953.418,3.269,3.269,0,0,1,.719.484,1.893,1.893,0,0,1,.457.621,2,2,0,0,1,.16.836,1.971,1.971,0,0,1-.262,1.031,2.243,2.243,0,0,1-.7.727,3.2,3.2,0,0,1-1.008.43,4.976,4.976,0,0,1-1.2.141A4.539,4.539,0,0,1,116.383,16.711Zm18.3.289H133.4V12.391q0-2.5-1.859-2.5a2.027,2.027,0,0,0-1.578.723,2.693,2.693,0,0,0-.641,1.855V17h-1.281V5.156h1.281v5.172h.031a2.91,2.91,0,0,1,2.625-1.516q2.7,0,2.7,3.258Zm8.141,0h-1.281V15.75h-.031a2.682,2.682,0,0,1-2.461,1.438,2.63,2.63,0,0,1-1.871-.633,2.192,2.192,0,0,1-.676-1.68q0-2.242,2.641-2.609l2.4-.336q0-2.039-1.648-2.039a3.938,3.938,0,0,0-2.609.984V9.563A4.958,4.958,0,0,1,140,8.813q2.82,0,2.82,2.984Zm-1.281-4.047-1.93.266a3.133,3.133,0,0,0-1.344.441,1.273,1.273,0,0,0-.453,1.121,1.221,1.221,0,0,0,.418.957,1.615,1.615,0,0,0,1.113.371,2.056,2.056,0,0,0,1.574-.668,2.387,2.387,0,0,0,.621-1.691Zm5.008,2.891h-.031V17h-1.281V5.156h1.281v5.25h.031a3.03,3.03,0,0,1,2.766-1.594,2.932,2.932,0,0,1,2.41,1.074,4.436,4.436,0,0,1,.871,2.879,4.958,4.958,0,0,1-.977,3.215,3.251,3.251,0,0,1-2.672,1.207A2.631,2.631,0,0,1,146.547,15.844Zm-.031-3.227v1.117a2.379,2.379,0,0,0,.645,1.684,2.3,2.3,0,0,0,3.461-.2,4.086,4.086,0,0,0,.66-2.477,3.225,3.225,0,0,0-.617-2.094,2.043,2.043,0,0,0-1.672-.758,2.27,2.27,0,0,0-1.8.777A2.854,2.854,0,0,0,146.516,12.617ZM155.3,6.969a.812.812,0,0,1-.586-.234.791.791,0,0,1-.242-.594A.821.821,0,0,1,155.3,5.3a.827.827,0,0,1,.6.238.835.835,0,0,1,0,1.184A.82.82,0,0,1,155.3,6.969ZM155.922,17h-1.281V9h1.281Zm3.875,0h-1.281V5.156H159.8Zm3.25-10.031a.812.812,0,0,1-.586-.234.791.791,0,0,1-.242-.594.821.821,0,0,1,.828-.836.827.827,0,0,1,.6.238.835.835,0,0,1,0,1.184A.82.82,0,0,1,163.047,6.969ZM163.672,17h-1.281V9h1.281Zm9.422,0h-1.281V15.641h-.031a2.958,2.958,0,0,1-2.75,1.547,2.988,2.988,0,0,1-2.41-1.074,4.407,4.407,0,0,1-.9-2.926,4.794,4.794,0,0,1,1-3.18,3.3,3.3,0,0,1,2.664-1.2,2.564,2.564,0,0,1,2.4,1.3h.031V5.156h1.281Zm-1.281-3.617V12.2a2.289,2.289,0,0,0-.641-1.641,2.149,2.149,0,0,0-1.625-.672,2.212,2.212,0,0,0-1.844.859,3.766,3.766,0,0,0-.672,2.375,3.387,3.387,0,0,0,.645,2.184,2.107,2.107,0,0,0,1.73.8,2.188,2.188,0,0,0,1.738-.773A2.882,2.882,0,0,0,171.813,13.383Zm9.6,3.617h-1.281V15.75H180.1a2.682,2.682,0,0,1-2.461,1.438,2.63,2.63,0,0,1-1.871-.633,2.192,2.192,0,0,1-.676-1.68q0-2.242,2.641-2.609l2.4-.336q0-2.039-1.648-2.039a3.938,3.938,0,0,0-2.609.984V9.563a4.958,4.958,0,0,1,2.719-.75q2.82,0,2.82,2.984Zm-1.281-4.047-1.93.266a3.133,3.133,0,0,0-1.344.441,1.273,1.273,0,0,0-.453,1.121,1.221,1.221,0,0,0,.418.957,1.615,1.615,0,0,0,1.113.371,2.056,2.056,0,0,0,1.574-.668,2.387,2.387,0,0,0,.621-1.691ZM190.656,17h-1.281V15.641h-.031a2.958,2.958,0,0,1-2.75,1.547,2.988,2.988,0,0,1-2.41-1.074,4.407,4.407,0,0,1-.9-2.926,4.794,4.794,0,0,1,1-3.18,3.3,3.3,0,0,1,2.664-1.2,2.564,2.564,0,0,1,2.4,1.3h.031V5.156h1.281Zm-1.281-3.617V12.2a2.289,2.289,0,0,0-.641-1.641,2.149,2.149,0,0,0-1.625-.672,2.212,2.212,0,0,0-1.844.859,3.766,3.766,0,0,0-.672,2.375,3.387,3.387,0,0,0,.645,2.184,2.107,2.107,0,0,0,1.73.8,2.188,2.188,0,0,0,1.738-.773A2.882,2.882,0,0,0,189.375,13.383Zm10.3-.062h-5.648a2.992,2.992,0,0,0,.719,2.063,2.478,2.478,0,0,0,1.891.727,3.931,3.931,0,0,0,2.484-.891v1.2a4.643,4.643,0,0,1-2.789.766,3.381,3.381,0,0,1-2.664-1.09,4.461,4.461,0,0,1-.969-3.066,4.374,4.374,0,0,1,1.059-3.043,3.394,3.394,0,0,1,2.629-1.176,3.008,3.008,0,0,1,2.43,1.016,4.234,4.234,0,0,1,.859,2.82Zm-1.312-1.086a2.607,2.607,0,0,0-.535-1.727,1.823,1.823,0,0,0-1.465-.617,2.07,2.07,0,0,0-1.539.648,2.943,2.943,0,0,0-.781,1.7Zm2.766,4.477V15.336a3.792,3.792,0,0,0,2.3.773q1.688,0,1.688-1.125a.976.976,0,0,0-.145-.543,1.44,1.44,0,0,0-.391-.395,3.007,3.007,0,0,0-.578-.309q-.332-.137-.715-.285a9.207,9.207,0,0,1-.934-.426,2.82,2.82,0,0,1-.672-.484,1.8,1.8,0,0,1-.406-.613,2.17,2.17,0,0,1-.137-.8,1.912,1.912,0,0,1,.258-1,2.286,2.286,0,0,1,.688-.727,3.206,3.206,0,0,1,.98-.441,4.349,4.349,0,0,1,1.137-.148,4.59,4.59,0,0,1,1.859.359v1.3a3.624,3.624,0,0,0-2.031-.578,2.374,2.374,0,0,0-.648.082,1.587,1.587,0,0,0-.5.23,1.065,1.065,0,0,0-.32.355.936.936,0,0,0-.113.457,1.1,1.1,0,0,0,.113.523,1.152,1.152,0,0,0,.332.375,2.538,2.538,0,0,0,.531.3q.312.133.711.289a9.894,9.894,0,0,1,.953.418,3.269,3.269,0,0,1,.719.484,1.893,1.893,0,0,1,.457.621,2,2,0,0,1,.16.836,1.971,1.971,0,0,1-.262,1.031,2.243,2.243,0,0,1-.7.727,3.2,3.2,0,0,1-1.008.43,4.976,4.976,0,0,1-1.2.141A4.539,4.539,0,0,1,201.133,16.711Zm15.609-10.43a1.707,1.707,0,0,0-.852-.211q-1.344,0-1.344,1.7V9h1.875v1.094h-1.875V17h-1.273V10.094h-1.367V9h1.367V7.7A2.7,2.7,0,0,1,214,5.715a2.453,2.453,0,0,1,1.813-.73,2.511,2.511,0,0,1,.93.141Zm4.4,10.906a3.711,3.711,0,0,1-2.832-1.121,4.153,4.153,0,0,1-1.059-2.973,4.326,4.326,0,0,1,1.1-3.148,3.96,3.96,0,0,1,2.977-1.133,3.588,3.588,0,0,1,2.793,1.1,4.368,4.368,0,0,1,1,3.055,4.3,4.3,0,0,1-1.082,3.066A3.791,3.791,0,0,1,221.141,17.188Zm.094-7.3a2.437,2.437,0,0,0-1.953.84,3.449,3.449,0,0,0-.719,2.316,3.262,3.262,0,0,0,.727,2.242,2.469,2.469,0,0,0,1.945.82,2.342,2.342,0,0,0,1.91-.8,3.492,3.492,0,0,0,.668-2.289,3.552,3.552,0,0,0-.668-2.312A2.332,2.332,0,0,0,221.234,9.891Zm10.109.406a1.567,1.567,0,0,0-.969-.258,1.635,1.635,0,0,0-1.371.773,3.576,3.576,0,0,0-.551,2.109V17h-1.281V9h1.281v1.648h.031a2.794,2.794,0,0,1,.836-1.316,1.906,1.906,0,0,1,1.258-.473,2.092,2.092,0,0,1,.766.109Zm5.1,6.625a2.47,2.47,0,0,1-1.2.25q-2.1,0-2.1-2.344V10.094h-1.375V9h1.375V7.047l1.281-.414V9h2.016v1.094H234.43V14.6a1.869,1.869,0,0,0,.273,1.148,1.091,1.091,0,0,0,.906.344,1.347,1.347,0,0,0,.836-.266Zm7.438.078H242.6V15.75h-.031a2.682,2.682,0,0,1-2.461,1.438,2.63,2.63,0,0,1-1.871-.633,2.192,2.192,0,0,1-.676-1.68q0-2.242,2.641-2.609l2.4-.336q0-2.039-1.648-2.039a3.938,3.938,0,0,0-2.609.984V9.563a4.958,4.958,0,0,1,2.719-.75q2.82,0,2.82,2.984ZM242.6,12.953l-1.93.266a3.133,3.133,0,0,0-1.344.441,1.273,1.273,0,0,0-.453,1.121,1.221,1.221,0,0,0,.418.957,1.615,1.615,0,0,0,1.113.371,2.056,2.056,0,0,0,1.574-.668,2.387,2.387,0,0,0,.621-1.691ZM247.578,17H246.3V5.156h1.281Zm9.023-3.68h-5.648a2.992,2.992,0,0,0,.719,2.063,2.478,2.478,0,0,0,1.891.727,3.931,3.931,0,0,0,2.484-.891v1.2a4.643,4.643,0,0,1-2.789.766,3.381,3.381,0,0,1-2.664-1.09,4.461,4.461,0,0,1-.969-3.066,4.374,4.374,0,0,1,1.059-3.043,3.394,3.394,0,0,1,2.629-1.176,3.008,3.008,0,0,1,2.43,1.016,4.235,4.235,0,0,1,.859,2.82Zm-1.312-1.086a2.607,2.607,0,0,0-.535-1.727,1.823,1.823,0,0,0-1.465-.617,2.07,2.07,0,0,0-1.539.648,2.943,2.943,0,0,0-.781,1.7Zm8.7,4.4a4.163,4.163,0,0,1-2.187.555,3.622,3.622,0,0,1-2.762-1.113,4.035,4.035,0,0,1-1.051-2.887,4.435,4.435,0,0,1,1.133-3.176,3.963,3.963,0,0,1,3.023-1.2,4.209,4.209,0,0,1,1.859.391v1.313a3.258,3.258,0,0,0-1.906-.625,2.576,2.576,0,0,0-2.012.879,3.335,3.335,0,0,0-.785,2.309,3.176,3.176,0,0,0,.738,2.219,2.545,2.545,0,0,0,1.98.813,3.211,3.211,0,0,0,1.969-.7Zm8.367-3.312h-5.648a2.992,2.992,0,0,0,.719,2.063,2.478,2.478,0,0,0,1.891.727,3.931,3.931,0,0,0,2.484-.891v1.2a4.643,4.643,0,0,1-2.789.766,3.381,3.381,0,0,1-2.664-1.09,4.461,4.461,0,0,1-.969-3.066,4.375,4.375,0,0,1,1.059-3.043,3.394,3.394,0,0,1,2.629-1.176,3.008,3.008,0,0,1,2.43,1.016,4.235,4.235,0,0,1,.859,2.82Zm-1.312-1.086a2.607,2.607,0,0,0-.535-1.727,1.823,1.823,0,0,0-1.465-.617,2.07,2.07,0,0,0-1.539.648,2.943,2.943,0,0,0-.781,1.7ZM47.309,37.32H41.66a2.992,2.992,0,0,0,.719,2.063,2.478,2.478,0,0,0,1.891.727,3.931,3.931,0,0,0,2.484-.891v1.2a4.643,4.643,0,0,1-2.789.766A3.381,3.381,0,0,1,41.3,40.1a4.461,4.461,0,0,1-.969-3.066,4.375,4.375,0,0,1,1.059-3.043,3.394,3.394,0,0,1,2.629-1.176,3.008,3.008,0,0,1,2.43,1.016,4.234,4.234,0,0,1,.859,2.82ZM46,36.234a2.607,2.607,0,0,0-.535-1.727A1.823,1.823,0,0,0,44,33.891a2.07,2.07,0,0,0-1.539.648,2.943,2.943,0,0,0-.781,1.7ZM50.527,41H49.246V29.156h1.281Zm8.289-1.156h-.031V41H57.5V29.156h1.281v5.25h.031a3.03,3.03,0,0,1,2.766-1.594,2.932,2.932,0,0,1,2.41,1.074,4.436,4.436,0,0,1,.871,2.879,4.959,4.959,0,0,1-.977,3.215,3.251,3.251,0,0,1-2.672,1.207A2.631,2.631,0,0,1,58.816,39.844Zm-.031-3.227v1.117a2.379,2.379,0,0,0,.645,1.684,2.3,2.3,0,0,0,3.461-.2,4.086,4.086,0,0,0,.66-2.477,3.225,3.225,0,0,0-.617-2.094,2.043,2.043,0,0,0-1.672-.758,2.27,2.27,0,0,0-1.8.777A2.854,2.854,0,0,0,58.785,36.617Zm8.781-5.648a.812.812,0,0,1-.586-.234.791.791,0,0,1-.242-.594.821.821,0,0,1,.828-.836.827.827,0,0,1,.6.238.835.835,0,0,1,0,1.184A.82.82,0,0,1,67.566,30.969ZM68.191,41H66.91V33h1.281Zm9.023-3.68H71.566a2.992,2.992,0,0,0,.719,2.063,2.478,2.478,0,0,0,1.891.727,3.931,3.931,0,0,0,2.484-.891v1.2a4.643,4.643,0,0,1-2.789.766,3.381,3.381,0,0,1-2.664-1.09,4.461,4.461,0,0,1-.969-3.066A4.375,4.375,0,0,1,71.3,33.988a3.394,3.394,0,0,1,2.629-1.176,3.008,3.008,0,0,1,2.43,1.016,4.234,4.234,0,0,1,.859,2.82ZM75.9,36.234a2.607,2.607,0,0,0-.535-1.727,1.823,1.823,0,0,0-1.465-.617,2.07,2.07,0,0,0-1.539.648,2.943,2.943,0,0,0-.781,1.7ZM85.793,41H84.512V36.438q0-2.547-1.859-2.547a2.017,2.017,0,0,0-1.59.723,2.679,2.679,0,0,0-.629,1.824V41H79.152V33h1.281v1.328h.031a2.887,2.887,0,0,1,2.625-1.516,2.448,2.448,0,0,1,2.008.848,3.776,3.776,0,0,1,.7,2.449Zm8.844-3.68H88.988a2.992,2.992,0,0,0,.719,2.063,2.478,2.478,0,0,0,1.891.727,3.931,3.931,0,0,0,2.484-.891v1.2a4.643,4.643,0,0,1-2.789.766,3.381,3.381,0,0,1-2.664-1.09,4.461,4.461,0,0,1-.969-3.066,4.375,4.375,0,0,1,1.059-3.043,3.394,3.394,0,0,1,2.629-1.176,3.008,3.008,0,0,1,2.43,1.016,4.234,4.234,0,0,1,.859,2.82Zm-1.312-1.086a2.607,2.607,0,0,0-.535-1.727,1.823,1.823,0,0,0-1.465-.617,2.07,2.07,0,0,0-1.539.648,2.943,2.943,0,0,0-.781,1.7Zm2.766,4.477V39.336a3.792,3.792,0,0,0,2.3.773q1.688,0,1.688-1.125a.976.976,0,0,0-.145-.543,1.44,1.44,0,0,0-.391-.395,3.007,3.007,0,0,0-.578-.309q-.332-.137-.715-.285a9.206,9.206,0,0,1-.934-.426,2.82,2.82,0,0,1-.672-.484,1.8,1.8,0,0,1-.406-.613,2.17,2.17,0,0,1-.137-.8,1.912,1.912,0,0,1,.258-1,2.286,2.286,0,0,1,.688-.727,3.206,3.206,0,0,1,.98-.441,4.349,4.349,0,0,1,1.137-.148,4.59,4.59,0,0,1,1.859.359v1.3A3.624,3.624,0,0,0,99,33.891a2.374,2.374,0,0,0-.648.082,1.587,1.587,0,0,0-.5.23,1.065,1.065,0,0,0-.32.355.936.936,0,0,0-.113.457,1.1,1.1,0,0,0,.113.523,1.152,1.152,0,0,0,.332.375,2.538,2.538,0,0,0,.531.3q.313.133.711.289a9.9,9.9,0,0,1,.953.418,3.269,3.269,0,0,1,.719.484,1.893,1.893,0,0,1,.457.621,2,2,0,0,1,.16.836,1.971,1.971,0,0,1-.262,1.031,2.243,2.243,0,0,1-.7.727,3.2,3.2,0,0,1-1.008.43,4.976,4.976,0,0,1-1.2.141A4.539,4.539,0,0,1,96.09,40.711Zm10.984.211a2.47,2.47,0,0,1-1.2.25q-2.1,0-2.1-2.344V34.094H102.4V33h1.375V31.047l1.281-.414V33h2.016v1.094h-2.016V38.6a1.869,1.869,0,0,0,.273,1.148,1.091,1.091,0,0,0,.906.344,1.347,1.347,0,0,0,.836-.266Zm7.438.078H113.23V39.75H113.2a2.682,2.682,0,0,1-2.461,1.438,2.63,2.63,0,0,1-1.871-.633,2.192,2.192,0,0,1-.676-1.68q0-2.242,2.641-2.609l2.4-.336q0-2.039-1.648-2.039a3.938,3.938,0,0,0-2.609.984V33.563a4.958,4.958,0,0,1,2.719-.75q2.82,0,2.82,2.984Zm-1.281-4.047-1.93.266a3.133,3.133,0,0,0-1.344.441,1.273,1.273,0,0,0-.453,1.121,1.221,1.221,0,0,0,.418.957,1.615,1.615,0,0,0,1.113.371,2.056,2.056,0,0,0,1.574-.668,2.387,2.387,0,0,0,.621-1.691ZM121.1,34.3a1.567,1.567,0,0,0-.969-.258,1.635,1.635,0,0,0-1.371.773,3.576,3.576,0,0,0-.551,2.109V41h-1.281V33h1.281v1.648h.031a2.793,2.793,0,0,1,.836-1.316,1.906,1.906,0,0,1,1.258-.473,2.092,2.092,0,0,1,.766.109ZM133.238,33l-3.68,9.281q-.984,2.484-2.766,2.484a2.932,2.932,0,0,1-.836-.1V43.516a2.375,2.375,0,0,0,.758.141,1.57,1.57,0,0,0,1.453-1.156l.641-1.516L125.684,33h1.422l2.164,6.156q.039.117.164.609h.047q.039-.187.156-.594L131.91,33Zm7.039,8H139V29.156h1.281Zm8.32,0h-1.281V39.75h-.031a2.682,2.682,0,0,1-2.461,1.438,2.63,2.63,0,0,1-1.871-.633,2.192,2.192,0,0,1-.676-1.68q0-2.242,2.641-2.609l2.4-.336q0-2.039-1.648-2.039a3.938,3.938,0,0,0-2.609.984V33.563a4.958,4.958,0,0,1,2.719-.75q2.82,0,2.82,2.984Zm-1.281-4.047-1.93.266a3.133,3.133,0,0,0-1.344.441,1.273,1.273,0,0,0-.453,1.121,1.221,1.221,0,0,0,.418.957,1.615,1.615,0,0,0,1.113.371,2.056,2.056,0,0,0,1.574-.668,2.387,2.387,0,0,0,.621-1.691Zm13.531,3.68a4.163,4.163,0,0,1-2.187.555,3.622,3.622,0,0,1-2.762-1.113,4.035,4.035,0,0,1-1.051-2.887,4.435,4.435,0,0,1,1.133-3.176,3.963,3.963,0,0,1,3.023-1.2,4.208,4.208,0,0,1,1.859.391v1.313a3.258,3.258,0,0,0-1.906-.625,2.576,2.576,0,0,0-2.012.879,3.335,3.335,0,0,0-.785,2.309A3.176,3.176,0,0,0,156.9,39.3a2.545,2.545,0,0,0,1.98.813,3.211,3.211,0,0,0,1.969-.7Zm5.281.555a3.711,3.711,0,0,1-2.832-1.121,4.153,4.153,0,0,1-1.059-2.973,4.326,4.326,0,0,1,1.1-3.148,3.96,3.96,0,0,1,2.977-1.133,3.588,3.588,0,0,1,2.793,1.1,4.368,4.368,0,0,1,1,3.055,4.3,4.3,0,0,1-1.082,3.066A3.791,3.791,0,0,1,166.129,41.188Zm.094-7.3a2.437,2.437,0,0,0-1.953.84,3.449,3.449,0,0,0-.719,2.316,3.262,3.262,0,0,0,.727,2.242,2.469,2.469,0,0,0,1.945.82,2.342,2.342,0,0,0,1.91-.8,3.492,3.492,0,0,0,.668-2.289,3.552,3.552,0,0,0-.668-2.312A2.332,2.332,0,0,0,166.223,33.891ZM178.8,41H177.52V36.438q0-2.547-1.859-2.547a2.017,2.017,0,0,0-1.59.723,2.679,2.679,0,0,0-.629,1.824V41H172.16V33h1.281v1.328h.031a2.887,2.887,0,0,1,2.625-1.516,2.448,2.448,0,0,1,2.008.848,3.776,3.776,0,0,1,.7,2.449Zm8.7-8-3.187,8h-1.258l-3.031-8h1.406l2.031,5.813a5.216,5.216,0,0,1,.281,1.117h.031a5.283,5.283,0,0,1,.25-1.086L186.152,33Zm2.031-2.031a.812.812,0,0,1-.586-.234.791.791,0,0,1-.242-.594.821.821,0,0,1,.828-.836.827.827,0,0,1,.6.238.835.835,0,0,1,0,1.184A.82.82,0,0,1,189.535,30.969ZM190.16,41h-1.281V33h1.281Zm8.883-8-3.187,8H194.6l-3.031-8h1.406L195,38.813a5.216,5.216,0,0,1,.281,1.117h.031a5.283,5.283,0,0,1,.25-1.086L197.691,33Zm7.8,4.32H201.2a2.992,2.992,0,0,0,.719,2.063,2.478,2.478,0,0,0,1.891.727,3.931,3.931,0,0,0,2.484-.891v1.2a4.643,4.643,0,0,1-2.789.766,3.381,3.381,0,0,1-2.664-1.09,4.461,4.461,0,0,1-.969-3.066,4.374,4.374,0,0,1,1.059-3.043,3.394,3.394,0,0,1,2.629-1.176,3.008,3.008,0,0,1,2.43,1.016,4.234,4.234,0,0,1,.859,2.82Zm-1.312-1.086A2.607,2.607,0,0,0,205,34.508a1.823,1.823,0,0,0-1.465-.617,2.07,2.07,0,0,0-1.539.648,2.943,2.943,0,0,0-.781,1.7ZM215.426,41h-1.281V36.438q0-2.547-1.859-2.547a2.017,2.017,0,0,0-1.59.723,2.679,2.679,0,0,0-.629,1.824V41h-1.281V33h1.281v1.328h.031a2.887,2.887,0,0,1,2.625-1.516,2.448,2.448,0,0,1,2.008.848,3.776,3.776,0,0,1,.7,2.449Zm7.867-.367a4.163,4.163,0,0,1-2.187.555,3.622,3.622,0,0,1-2.762-1.113,4.035,4.035,0,0,1-1.051-2.887,4.435,4.435,0,0,1,1.133-3.176,3.963,3.963,0,0,1,3.023-1.2,4.208,4.208,0,0,1,1.859.391v1.313a3.258,3.258,0,0,0-1.906-.625,2.576,2.576,0,0,0-2.012.879,3.335,3.335,0,0,0-.785,2.309,3.176,3.176,0,0,0,.738,2.219,2.545,2.545,0,0,0,1.98.813,3.211,3.211,0,0,0,1.969-.7Zm2.594-9.664a.812.812,0,0,1-.586-.234.791.791,0,0,1-.242-.594.821.821,0,0,1,.828-.836.827.827,0,0,1,.6.238.835.835,0,0,1,0,1.184A.82.82,0,0,1,225.887,30.969ZM226.512,41H225.23V33h1.281Zm8.32,0h-1.281V39.75h-.031a2.682,2.682,0,0,1-2.461,1.438,2.63,2.63,0,0,1-1.871-.633,2.192,2.192,0,0,1-.676-1.68q0-2.242,2.641-2.609l2.4-.336q0-2.039-1.648-2.039a3.938,3.938,0,0,0-2.609.984V33.563a4.958,4.958,0,0,1,2.719-.75q2.82,0,2.82,2.984Zm-1.281-4.047-1.93.266a3.133,3.133,0,0,0-1.344.441,1.273,1.273,0,0,0-.453,1.121,1.221,1.221,0,0,0,.418.957,1.615,1.615,0,0,0,1.113.371,2.056,2.056,0,0,0,1.574-.668,2.387,2.387,0,0,0,.621-1.691Zm4.141,4.219a.829.829,0,0,1-.613-.258.849.849,0,0,1-.254-.617.862.862,0,0,1,.254-.621.823.823,0,0,1,.613-.262.845.845,0,0,1,.625.262.855.855,0,0,1,.258.621.842.842,0,0,1-.258.617A.851.851,0,0,1,237.691,41.172Z" transform="translate(-6451 -9936)" fill="#12263f"/>
    <g id="Grupo_1180090" data-name="Grupo 1180090" transform="translate(-111.549 -244.83)">
      <path id="Trazado_997906" data-name="Trazado 997906" d="M41.018,189.108c-14.2,0-27-4.356-34.252-11.647C2.97,173.644.976,169.216,1,164.653c.041-6.81,4.46-13.1,12.443-17.707,7.5-4.331,17.379-6.716,27.819-6.717,14.2,0,27,4.356,34.254,11.646,3.8,3.816,5.789,8.245,5.766,12.808-.041,6.811-4.46,13.1-12.442,17.707-7.5,4.33-17.38,6.716-27.819,6.718Z" transform="translate(-6389.45 -10674.527)" fill="none" stroke="#00a7bc" stroke-miterlimit="10" stroke-width="2"/>
      <ellipse id="Elipse_11584" data-name="Elipse 11584" cx="37.594" cy="21.873" rx="37.594" ry="21.873" transform="translate(-6386.092 -10532.949)" fill="#eeddb6"/>
      <path id="Trazado_997901" data-name="Trazado 997901" d="M19.36,133.141l.012,25.429c-.05,9.506,13.256,17.238,29.667,17.241,8.206,0,15.657-1.935,21.064-5.056s8.769-7.431,8.8-12.185l-.012-25.429c-.029,4.754-3.391,9.063-8.8,12.185s-12.857,5.055-21.063,5.056c-16.412,0-29.717-7.735-29.668-17.241" transform="translate(-6397.434 -10671.446)" fill="#2ba0a2"/>
      <path id="Trazado_997905" data-name="Trazado 997905" d="M28.159,107.691c-5.407,3.121-8.769,7.431-8.8,12.184-.05,9.506,13.255,17.238,29.667,17.241,8.206,0,15.657-1.935,21.064-5.056s8.769-7.431,8.8-12.184c.05-9.506-13.256-17.238-29.667-17.241-8.206,0-15.658,1.935-21.064,5.056" transform="translate(-6397.435 -10658.182)" fill="#8ad2d2"/>
      <g id="Grupo_1180089" data-name="Grupo 1180089" transform="translate(-6365.215 -10567.281)" clip-path="url(#clip-path)">
        <path id="Trazado_997902" data-name="Trazado 997902" d="M.644,18.343a9.548,9.548,0,0,0,4.62,3.86c.773.348,1.569.64,2.356.913q-2.1.822-4.324,1.5a1.862,1.862,0,0,0-1.2,1.1,9.58,9.58,0,0,0-.421,5.75A4.189,4.189,0,0,0,2.493,33.2a2.982,2.982,0,0,0,2.386,1.132A6.367,6.367,0,0,0,7.6,33.546a57.3,57.3,0,0,0,6.959-4.319c.776-.535,1.561-1.073,2.356-1.6.789.523,1.572,1.06,2.354,1.6a57.405,57.405,0,0,0,6.964,4.321,6.358,6.358,0,0,0,2.714.785A2.986,2.986,0,0,0,31.332,33.2a4.179,4.179,0,0,0,.816-1.728,9.582,9.582,0,0,0-.419-5.752,1.864,1.864,0,0,0-1.2-1.105c-1.5-.451-2.944-.953-4.326-1.5.789-.273,1.586-.565,2.358-.913a9.547,9.547,0,0,0,4.621-3.861,4.485,4.485,0,0,0,.3-4.01,2.18,2.18,0,0,0-.112-.83,2.718,2.718,0,0,0-1.332-1.469c-.015-.11-.028-.183-.031-.2-.029-.123-.064-.251-.1-.373a1.019,1.019,0,0,0-.8-.7h-.02c.389-3.462-.317-6.213-2.125-8.166A7.488,7.488,0,0,0,23.228,0,7.148,7.148,0,0,0,18.51,2.093a7.228,7.228,0,0,0-1.529,2.325A7.408,7.408,0,0,0,15.4,2.089,7.144,7.144,0,0,0,10.686,0,7.472,7.472,0,0,0,4.952,2.595c-1.816,1.961-2.52,4.71-2.121,8.162a1.018,1.018,0,0,0-.114.005,1.022,1.022,0,0,0-.8.707c-.035.117-.07.245-.1.39,0,0-.012.067-.026.174A2.717,2.717,0,0,0,.457,13.5a2.181,2.181,0,0,0-.112.829A4.487,4.487,0,0,0,.644,18.343Zm30.087,7.77A8.5,8.5,0,0,1,31.1,31.22a3.129,3.129,0,0,1-.6,1.292c-.807.967-1.945.988-3.8.073a56.657,56.657,0,0,1-6.831-4.243c-.649-.447-1.315-.9-1.984-1.351a31.784,31.784,0,0,1,5.226-2.778c.505-.2,1.025-.388,1.545-.568a55.953,55.953,0,0,0,5.557,1.995A.8.8,0,0,1,30.731,26.113ZM31.79,15.777a7.265,7.265,0,0,1-2.656,2.573.537.537,0,0,0,.538.929,8.343,8.343,0,0,0,3.045-2.96l.015-.027a4.237,4.237,0,0,1-.49,1.528,8.517,8.517,0,0,1-4.124,3.4c-.978.441-2.023.8-3.034,1.139-.78.265-1.586.538-2.368.853a45.818,45.818,0,0,0-8.769,5.127A56.5,56.5,0,0,1,7.12,32.584c-1.859.915-3,.894-3.8-.07a3.142,3.142,0,0,1-.6-1.3,8.5,8.5,0,0,1,.375-5.106.8.8,0,0,1,.514-.472,54.515,54.515,0,0,0,10.478-4.351,30.611,30.611,0,0,0,6.106-4.017,11.021,11.021,0,0,0,3.537-5.91.082.082,0,0,1,.062-.016c.166.039.332.082.471.129a1.07,1.07,0,0,1,.592.433,1.7,1.7,0,0,1,.15.673,10.862,10.862,0,0,1-.158,3.021.536.536,0,0,0,.754.589,14.351,14.351,0,0,0,5.3-4.348c.023.078.044.157.059.219a3.212,3.212,0,0,1,.04.356,3.744,3.744,0,0,1-.013.712,5.716,5.716,0,0,1-2.515,3.222.536.536,0,0,0,.622.874,6.872,6.872,0,0,0,2.94-3.883,1.335,1.335,0,0,1,.322.5C32.545,14.416,32.241,15.006,31.79,15.777ZM1.472,13.848a1.334,1.334,0,0,1,.321-.5,6.872,6.872,0,0,0,2.94,3.882.536.536,0,1,0,.622-.874,5.721,5.721,0,0,1-2.515-3.217,3.771,3.771,0,0,1-.013-.722c.012-.195.036-.329.035-.329h0c.017-.073.037-.148.058-.221a14.61,14.61,0,0,0,5.3,4.327.536.536,0,0,0,.754-.589,10.863,10.863,0,0,1-.158-3.021,1.7,1.7,0,0,1,.151-.675,1.062,1.062,0,0,1,.584-.428c.146-.049.312-.093.466-.129.038-.008.064.007.1.044a10.864,10.864,0,0,0,3.513,5.877c.293.269.61.538.941.8a.536.536,0,0,0,.664-.842c-.31-.245-.606-.5-.881-.748A9.8,9.8,0,0,1,11.173,11.2a1.12,1.12,0,0,0-.484-.726,1.184,1.184,0,0,0-.9-.167c-.2.047-.4.1-.58.161a2.127,2.127,0,0,0-1.167.908,2.589,2.589,0,0,0-.29,1.119,12.032,12.032,0,0,0,.016,2.256A13.782,13.782,0,0,1,4.012,11.5c-.025-.132-.047-.264-.067-.4-.484-3.357.12-5.975,1.794-7.783a6.4,6.4,0,0,1,4.909-2.248,6.068,6.068,0,0,1,3.994,1.773,6.324,6.324,0,0,1,1.349,1.982,1.078,1.078,0,0,0,1,.675h0a1.056,1.056,0,0,0,.978-.663,5.976,5.976,0,0,1,5.3-3.767,6.406,6.406,0,0,1,4.908,2.248c2.508,2.708,1.975,6.523,1.8,7.771l-.023.145c-.006.037-.013.074-.019.112a13.86,13.86,0,0,1-3.879,3.393,12.035,12.035,0,0,0,.016-2.256,2.588,2.588,0,0,0-.289-1.116,2.134,2.134,0,0,0-1.175-.913c-.175-.058-.375-.112-.585-.161a1.173,1.173,0,0,0-.889.17,1.121,1.121,0,0,0-.484.73,9.8,9.8,0,0,1-3.182,5.28,29.792,29.792,0,0,1-5.9,3.869c-1.414.776-2.9,1.492-4.44,2.15l-.377-.129c-1.014-.344-2.062-.7-3.046-1.144a8.517,8.517,0,0,1-4.123-3.4,4.244,4.244,0,0,1-.491-1.532l.017.029a8.342,8.342,0,0,0,3.045,2.959.537.537,0,1,0,.538-.929,7.263,7.263,0,0,1-2.656-2.573C1.582,15.006,1.278,14.416,1.472,13.848Z" transform="translate(0 0)"/>
        <path id="Trazado_997903" data-name="Trazado 997903" d="M412.639,126.449a4.438,4.438,0,0,1-.122.569.537.537,0,1,0,1.032.294,5.557,5.557,0,0,0,.151-.707.536.536,0,0,0-1.061-.156" transform="translate(-384.836 -117.542)"/>
        <path id="Trazado_997904" data-name="Trazado 997904" d="M353.434,40.483a4.664,4.664,0,0,1,3.061,2.1,4.532,4.532,0,0,1,.512,1.177.537.537,0,0,0,.517.393.546.546,0,0,0,.144-.02.537.537,0,0,0,.374-.66,5.605,5.605,0,0,0-.634-1.455,5.752,5.752,0,0,0-3.776-2.585.536.536,0,0,0-.2,1.055" transform="translate(-329.325 -36.776)"/>
      </g>
    </g>
    <g id="Grupo_1180091" data-name="Grupo 1180091" transform="translate(-111.831 -69.058)">
      <path id="Trazado_997906-2" data-name="Trazado 997906" d="M41.018,189.108c-14.2,0-27-4.356-34.252-11.647C2.97,173.644.976,169.216,1,164.653c.041-6.81,4.46-13.1,12.443-17.707,7.5-4.331,17.379-6.716,27.819-6.717,14.2,0,27,4.356,34.254,11.646,3.8,3.816,5.789,8.245,5.766,12.808-.041,6.811-4.46,13.1-12.442,17.707-7.5,4.33-17.38,6.716-27.819,6.718Z" transform="translate(-6389.45 -10674.527)" fill="none" stroke="#00a7bc" stroke-miterlimit="10" stroke-width="2"/>
      <ellipse id="Elipse_11584-2" data-name="Elipse 11584" cx="37.594" cy="21.873" rx="37.594" ry="21.873" transform="translate(-6386.092 -10532.949)" fill="#eeddb6"/>
      <path id="Trazado_997901-2" data-name="Trazado 997901" d="M19.36,133.141l.012,25.429c-.05,9.506,13.256,17.238,29.667,17.241,8.206,0,15.657-1.935,21.064-5.056s8.769-7.431,8.8-12.185l-.012-25.429c-.029,4.754-3.391,9.063-8.8,12.185s-12.857,5.055-21.063,5.056c-16.412,0-29.717-7.735-29.668-17.241" transform="translate(-6397.434 -10671.446)" fill="#77c69f"/>
      <path id="Trazado_997905-2" data-name="Trazado 997905" d="M28.159,107.691c-5.407,3.121-8.769,7.431-8.8,12.184-.05,9.506,13.255,17.238,29.667,17.241,8.206,0,15.657-1.935,21.064-5.056s8.769-7.431,8.8-12.184c.05-9.506-13.256-17.238-29.667-17.241-8.206,0-15.658,1.935-21.064,5.056" transform="translate(-6397.53 -10658.182)" fill="#caecd3"/>
      <g id="emociones" transform="translate(-6369.51 -10588.394)">
        <g id="Grupo_1180088" data-name="Grupo 1180088" transform="translate(0 15.619)">
          <path id="Trazado_997877" data-name="Trazado 997877" d="M76.976,378.265l-.372.245a.463.463,0,0,1-.51,0l-.745-.49a2.12,2.12,0,0,0-2.33,0l-.745.49a.463.463,0,0,1-.51,0l-.745-.49a2.12,2.12,0,0,0-2.33,0l-.745.49a.463.463,0,0,1-.51,0l-.373-.245a.828.828,0,1,0-.91,1.384l.373.245a2.12,2.12,0,0,0,2.33,0l.745-.49a.463.463,0,0,1,.51,0l.745.49a2.12,2.12,0,0,0,2.33,0l.745-.49a.463.463,0,0,1,.51,0l.745.49a2.12,2.12,0,0,0,2.33,0l.373-.245a.828.828,0,0,0-.91-1.384Z" transform="translate(-60.33 -347.68)"/>
          <path id="Trazado_997878" data-name="Trazado 997878" d="M164.343,313.121h1.908a.828.828,0,0,0,0-1.657h-1.908A.828.828,0,0,0,164.343,313.121Z" transform="translate(-149.975 -286.957)"/>
          <path id="Trazado_997879" data-name="Trazado 997879" d="M76.618,313.121h1.908a.828.828,0,0,0,0-1.657H76.618A.828.828,0,0,0,76.618,313.121Z" transform="translate(-69.516 -286.957)"/>
          <path id="Trazado_997880" data-name="Trazado 997880" d="M31.831,32.135a11.767,11.767,0,0,0,.5-8.266.828.828,0,1,0-1.582.491A10.137,10.137,0,0,1,21.4,37.377,10.166,10.166,0,0,1,11.126,27.341c-.1-7.924,9.159-12.841,15.655-8.321a.828.828,0,0,0,.928-1.373c-9.785-6.5-21.947,3.774-17.209,14.494A11.712,11.712,0,0,0,0,43.777c.034,11.372,14.7,15.936,21.2,6.8,6.578,9.172,21.177,4.523,21.209-6.8A11.711,11.711,0,0,0,31.831,32.135ZM11.695,53.815c-13.114-.478-13.377-19.194-.319-20.071a11.792,11.792,0,0,0,9.16,5.276,10.039,10.039,0,0,1-8.841,14.795Zm19.023,0a10.052,10.052,0,0,1-8.564-4.8,11.8,11.8,0,0,0,.208-10.04,11.62,11.62,0,0,0,8.593-5.235C44.083,34.527,43.87,53.334,30.718,53.815Z" transform="translate(0 -15.619)"/>
          <path id="Trazado_997881" data-name="Trazado 997881" d="M396.094,309.031a.825.825,0,0,0,.383-.095l1.742-.911a.828.828,0,0,0-.768-1.468l-1.742.911a.829.829,0,0,0,.385,1.563Z" transform="translate(-362.522 -282.37)"/>
          <path id="Trazado_997882" data-name="Trazado 997882" d="M306,308.031l1.825.911a.838.838,0,0,0,1.111-.371.828.828,0,0,0-.371-1.111l-1.825-.911a.828.828,0,0,0-.74,1.482Z" transform="translate(-280.23 -282.369)"/>
          <path id="Trazado_997883" data-name="Trazado 997883" d="M314.137,371.224a8.773,8.773,0,0,0-10.632,0,.828.828,0,1,0,1.071,1.264,7.111,7.111,0,0,1,8.491,0,.828.828,0,0,0,1.069-1.266Z" transform="translate(-278.095 -340.121)"/>
          <path id="Trazado_997884" data-name="Trazado 997884" d="M203.264,99.9a.828.828,0,0,0,.828-.828V97.16a.828.828,0,0,0-1.657,0v1.908A.828.828,0,0,0,203.264,99.9Z" transform="translate(-185.667 -89.651)"/>
          <path id="Trazado_997885" data-name="Trazado 997885" d="M290.024,99.068V97.16a.828.828,0,0,0-1.657,0v1.908A.828.828,0,0,0,290.024,99.068Z" transform="translate(-264.479 -89.651)"/>
          <path id="Trazado_997886" data-name="Trazado 997886" d="M187.891,182.886a.828.828,0,0,0,.1,1.168,8.773,8.773,0,0,0,10.632,0,.828.828,0,1,0-1.071-1.264,7.111,7.111,0,0,1-8.491,0A.828.828,0,0,0,187.891,182.886Z" transform="translate(-172.146 -168.761)"/>
          <path id="Trazado_997887" data-name="Trazado 997887" d="M351.684,71.168a.837.837,0,0,0,1.082.448.828.828,0,0,0-.634-1.53A.836.836,0,0,0,351.684,71.168Z" transform="translate(-322.496 -65.519)"/>
        </g>
      </g>
    </g>
    <g id="Grupo_1180092" data-name="Grupo 1180092" transform="translate(-111.831 80.17)">
      <path id="Trazado_997906-3" data-name="Trazado 997906" d="M41.018,189.108c-14.2,0-27-4.356-34.252-11.647C2.97,173.644.976,169.216,1,164.653c.041-6.81,4.46-13.1,12.443-17.707,7.5-4.331,17.379-6.716,27.819-6.717,14.2,0,27,4.356,34.254,11.646,3.8,3.816,5.789,8.245,5.766,12.808-.041,6.811-4.46,13.1-12.442,17.707-7.5,4.33-17.38,6.716-27.819,6.718Z" transform="translate(-6389.45 -10674.527)" fill="none" stroke="#00a7bc" stroke-miterlimit="10" stroke-width="2"/>
      <ellipse id="Elipse_11584-3" data-name="Elipse 11584" cx="37.594" cy="21.873" rx="37.594" ry="21.873" transform="translate(-6386.092 -10532.949)" fill="#eeddb6"/>
      <path id="Trazado_997901-3" data-name="Trazado 997901" d="M19.36,133.141l.012,25.429c-.05,9.506,13.256,17.238,29.667,17.241,8.206,0,15.657-1.935,21.064-5.056s8.769-7.431,8.8-12.185l-.012-25.429c-.029,4.754-3.391,9.063-8.8,12.185s-12.857,5.055-21.063,5.056c-16.412,0-29.717-7.735-29.668-17.241" transform="translate(-6397.434 -10671.446)" fill="#e9a345"/>
      <path id="Trazado_997905-3" data-name="Trazado 997905" d="M28.159,107.691c-5.407,3.121-8.769,7.431-8.8,12.184-.05,9.506,13.255,17.238,29.667,17.241,8.206,0,15.657-1.935,21.064-5.056s8.769-7.431,8.8-12.184c.05-9.506-13.256-17.238-29.667-17.241-8.206,0-15.658,1.935-21.064,5.056" transform="translate(-6397.53 -10658.182)" fill="#f6dc98"/>
      <g id="empatia_1_" data-name="empatia (1)" transform="translate(-6372.348 -10576.128)">
        <path id="Trazado_997888" data-name="Trazado 997888" d="M50.973,34.072c-1.062-3.726-4.533-6.056-9.14-6.072a9.477,9.477,0,0,0-9.468,9.468v.721l-1.741,2.1a1.674,1.674,0,0,0-.228,1.791,1.838,1.838,0,0,0,1.969.97v1.72a2.18,2.18,0,0,0,2.176,2.176H36a.256.256,0,0,1,.257.257v2.918a.716.716,0,0,0,.714.714H46.7a.716.716,0,0,0,.714-.714V45.681a7.713,7.713,0,0,0,3.9-6.721C51.269,37.552,51.441,35.384,50.973,34.072ZM49.881,38.96a6.287,6.287,0,0,1-3.5,5.658.7.7,0,0,0-.392.635v4.153H37.68V47.2A1.687,1.687,0,0,0,36,45.517H34.541a.749.749,0,0,1-.749-.749V42.335a.716.716,0,0,0-.714-.714H31.922a.253.253,0,0,1-.2-.421l1.905-2.3a.684.684,0,0,0,.164-.45,8.169,8.169,0,0,1,8.041-9.019c4.738,0,8.048,2.9,8.048,7.071Z" transform="translate(-7.45 -6.876)"/>
        <path id="Trazado_997889" data-name="Trazado 997889" d="M23.174,19.048a1.728,1.728,0,0,0,1.741-2.761l-1.741-2.1v-.721A9.479,9.479,0,0,0,13.705,4C8.126,4,4.23,7.5,4.23,12.5V14.96a7.713,7.713,0,0,0,3.9,6.721v4.438a.716.716,0,0,0,.714.714h9.725a.711.711,0,0,0,.714-.714V23.2a.262.262,0,0,1,.264-.257H21a2.18,2.18,0,0,0,2.176-2.176Zm-.714-1.427a.716.716,0,0,0-.714.714v2.433a.749.749,0,0,1-.749.749H19.542A1.689,1.689,0,0,0,17.851,23.2v2.2h-8.3V21.253a.718.718,0,0,0-.392-.635,6.287,6.287,0,0,1-3.5-5.658V12.5C5.433,5.781,15,3.035,19.478,7.882a8.452,8.452,0,0,1,2.269,6.564.684.684,0,0,0,.164.45l1.905,2.3a.235.235,0,0,1,.036.271.252.252,0,0,1-.235.15Z" transform="translate(0)"/>
        <path id="Trazado_997890" data-name="Trazado 997890" d="M21.06,50.716a16.465,16.465,0,0,1-9.028-6.7l1.392.147a.714.714,0,0,0,.151-1.419l-2.815-.3a.71.71,0,0,0-.807.634l-.3,2.838a.713.713,0,1,0,1.419.15l.085-.8a17.57,17.57,0,0,0,9.7,6.854.716.716,0,0,0,.2-1.4Z" transform="translate(-1.552 -11.011)"/>
        <path id="Trazado_997891" data-name="Trazado 997891" d="M38.532,9.4a16.465,16.465,0,0,1,9.028,6.7l-1.391-.147a.714.714,0,1,0-.151,1.419l2.815.3c.032,0,.066,0,.1,0a.713.713,0,0,0,.709-.639l.3-2.838a.713.713,0,1,0-1.419-.15l-.085.8a17.9,17.9,0,0,0-9.5-6.825.714.714,0,1,0-.4,1.369Z" transform="translate(-9.68 -1.146)"/>
      </g>
    </g>
    <g id="Grupo_1180093" data-name="Grupo 1180093" transform="translate(-111.831 253.17)">
      <path id="Trazado_997906-4" data-name="Trazado 997906" d="M41.018,189.108c-14.2,0-27-4.356-34.252-11.647C2.97,173.644.976,169.216,1,164.653c.041-6.81,4.46-13.1,12.443-17.707,7.5-4.331,17.379-6.716,27.819-6.717,14.2,0,27,4.356,34.254,11.646,3.8,3.816,5.789,8.245,5.766,12.808-.041,6.811-4.46,13.1-12.442,17.707-7.5,4.33-17.38,6.716-27.819,6.718Z" transform="translate(-6389.45 -10674.527)" fill="none" stroke="#00a7bc" stroke-miterlimit="10" stroke-width="2"/>
      <ellipse id="Elipse_11584-4" data-name="Elipse 11584" cx="37.594" cy="21.873" rx="37.594" ry="21.873" transform="translate(-6386.092 -10532.949)" fill="#eeddb6"/>
      <path id="Trazado_997901-4" data-name="Trazado 997901" d="M19.36,133.141l.012,25.429c-.05,9.506,13.256,17.238,29.667,17.241,8.206,0,15.657-1.935,21.064-5.056s8.769-7.431,8.8-12.185l-.012-25.429c-.029,4.754-3.391,9.063-8.8,12.185s-12.857,5.055-21.063,5.056c-16.412,0-29.717-7.735-29.668-17.241" transform="translate(-6397.434 -10671.446)" fill="#de8741"/>
      <path id="Trazado_997905-4" data-name="Trazado 997905" d="M28.159,107.691c-5.407,3.121-8.769,7.431-8.8,12.184-.05,9.506,13.255,17.238,29.667,17.241,8.206,0,15.657-1.935,21.064-5.056s8.769-7.431,8.8-12.184c.05-9.506-13.256-17.238-29.667-17.241-8.206,0-15.658,1.935-21.064,5.056" transform="translate(-6397.53 -10658.182)" fill="#f6d19c"/>
      <path id="resiliencia-2" data-name="resiliencia" d="M77.361,26.226h0a2.307,2.307,0,0,1,2.307,2.307v4.02a.636.636,0,0,0,.223.484l3.6,3.071a.636.636,0,0,0,.412.152h3.738a.636.636,0,0,0,.412-.152l3.6-3.071a.636.636,0,0,0,.223-.484v-4.02a2.307,2.307,0,0,1,2.307-2.307h0A2.307,2.307,0,0,1,96.5,28.533v5.523a1.988,1.988,0,0,1-.7,1.518l-4.823,4.077a.2.2,0,0,0-.07.152v8.444a.676.676,0,0,1-.676.676H81.308a.676.676,0,0,1-.676-.676V39.823a.2.2,0,0,0-.07-.151l-4.81-4.1a1.988,1.988,0,0,1-.7-1.513V28.533a2.307,2.307,0,0,1,2.307-2.307Zm16.832,1.352h0a.955.955,0,0,0-.955.955v4.02a1.988,1.988,0,0,1-.7,1.513l-3.6,3.071a1.988,1.988,0,0,1-1.29.475H83.908a1.988,1.988,0,0,1-1.29-.475l-3.6-3.071a1.988,1.988,0,0,1-.7-1.513v-4.02a.955.955,0,0,0-.955-.955h0a.955.955,0,0,0-.955.955v5.526a.636.636,0,0,0,.223.484l4.81,4.1a1.551,1.551,0,0,1,.545,1.18v7.748H89.55V39.8a1.551,1.551,0,0,1,.55-1.184l4.822-4.077a.636.636,0,0,0,.225-.486V28.533a.955.955,0,0,0-.955-.955Zm-8.416.042a3.926,3.926,0,1,1-3.824,3.924A3.877,3.877,0,0,1,85.777,27.62Zm0,1.352a2.574,2.574,0,1,0,2.472,2.572A2.524,2.524,0,0,0,85.777,28.972Zm-14.947-3.4a.676.676,0,1,1,0-1.352h29.895a.676.676,0,1,1,0,1.352Zm-.29-8.583a.676.676,0,0,1,.58-1.222c9.685,4.6,19.466,4.226,29.338-.011A.676.676,0,0,1,100.991,17C90.744,21.4,80.591,21.764,70.539,16.988Zm.092,4.028a.676.676,0,1,1,.4-1.293c9.678,2.971,19.588,2.728,29.517-.006a.676.676,0,0,1,.359,1.3C90.72,23.825,80.557,24.063,70.631,21.016Zm15.845-2.789a.922.922,0,0,1-1.4,0l0,0-3.382-3.982,0,0a.9.9,0,0,1-.132-.976l0,0a.912.912,0,0,1,.837-.535h.9V8.167A1.168,1.168,0,0,1,84.461,7h2.632a1.168,1.168,0,0,1,1.167,1.167v4.554h.9a.912.912,0,0,1,.837.535l0,0a.9.9,0,0,1-.132.976l0,0-3.382,3.982,0,0Zm-3.152-4.153,2.452,2.887,2.452-2.887h-.646a.676.676,0,0,1-.676-.676V8.352h-2.26V13.4a.676.676,0,0,1-.676.676Z" transform="translate(-6434.274 -10579.594)" fill-rule="evenodd"/>
    </g>
    <g id="Grupo_1180094" data-name="Grupo 1180094" transform="translate(-111.831 426.17)">
      <path id="Trazado_997906-5" data-name="Trazado 997906" d="M41.018,189.108c-14.2,0-27-4.356-34.252-11.647C2.97,173.644.976,169.216,1,164.653c.041-6.81,4.46-13.1,12.443-17.707,7.5-4.331,17.379-6.716,27.819-6.717,14.2,0,27,4.356,34.254,11.646,3.8,3.816,5.789,8.245,5.766,12.808-.041,6.811-4.46,13.1-12.442,17.707-7.5,4.33-17.38,6.716-27.819,6.718Z" transform="translate(-6389.45 -10674.527)" fill="none" stroke="#00a7bc" stroke-miterlimit="10" stroke-width="2"/>
      <ellipse id="Elipse_11584-5" data-name="Elipse 11584" cx="37.594" cy="21.873" rx="37.594" ry="21.873" transform="translate(-6386.092 -10532.949)" fill="#eeddb6"/>
      <path id="Trazado_997901-5" data-name="Trazado 997901" d="M19.36,133.141l.012,25.429c-.05,9.506,13.256,17.238,29.667,17.241,8.206,0,15.657-1.935,21.064-5.056s8.769-7.431,8.8-12.185l-.012-25.429c-.029,4.754-3.391,9.063-8.8,12.185s-12.857,5.055-21.063,5.056c-16.412,0-29.717-7.735-29.668-17.241" transform="translate(-6397.434 -10671.446)" fill="#bd527a"/>
      <path id="Trazado_997905-5" data-name="Trazado 997905" d="M28.159,107.691c-5.407,3.121-8.769,7.431-8.8,12.184-.05,9.506,13.255,17.238,29.667,17.241,8.206,0,15.657-1.935,21.064-5.056s8.769-7.431,8.8-12.184c.05-9.506-13.256-17.238-29.667-17.241-8.206,0-15.658,1.935-21.064,5.056" transform="translate(-6397.435 -10658.182)" fill="#e9adb9"/>
      <g id="comunicacion_1_" data-name="comunicacion (1)" transform="translate(-6365.002 -10568.604)">
        <path id="Trazado_997892" data-name="Trazado 997892" d="M199.269,17.157a.781.781,0,0,1-.552-.228l-2.891-2.891h-4.357a.78.78,0,1,1,0-1.56h4.679a.776.776,0,0,1,.551.228l1.788,1.788V13.258a.78.78,0,0,1,.78-.78h.78a.781.781,0,0,0,.78-.78V2.34a.781.781,0,0,0-.78-.78H183.672a.781.781,0,0,0-.78.78V11.7a.781.781,0,0,0,.78.78h1.56a.78.78,0,0,1,0,1.56h-1.56a2.342,2.342,0,0,1-2.34-2.34V2.34A2.342,2.342,0,0,1,183.672,0h16.377a2.342,2.342,0,0,1,2.34,2.34V11.7a2.342,2.342,0,0,1-2.34,2.34v2.34a.779.779,0,0,1-.78.78Zm0,0" transform="translate(-168.074)"/>
        <path id="Trazado_997893" data-name="Trazado 997893" d="M3.12,59.825a.769.769,0,0,1-.3-.059.78.78,0,0,1-.481-.721v-2.34A2.342,2.342,0,0,1,0,54.366V45.008a2.342,2.342,0,0,1,2.34-2.34h8.579a.78.78,0,1,1,0,1.56H2.34a.781.781,0,0,0-.78.78v9.359a.781.781,0,0,0,.78.78h.78a.78.78,0,0,1,.78.78v1.237l1.788-1.788a.778.778,0,0,1,.551-.228H18.717a.781.781,0,0,0,.78-.78V45.008a.781.781,0,0,0-.78-.78h-1.56a.78.78,0,1,1,0-1.56h1.56a2.342,2.342,0,0,1,2.34,2.34v9.359a2.342,2.342,0,0,1-2.34,2.34H6.562L3.671,59.6a.779.779,0,0,1-.551.228Zm0,0" transform="translate(0 -39.548)"/>
        <path id="Trazado_997894" data-name="Trazado 997894" d="M46.567,286.691a3.9,3.9,0,0,1-3.9-3.9v-1.56a3.9,3.9,0,1,1,7.8,0v1.56A3.9,3.9,0,0,1,46.567,286.691Zm0-7.8a2.342,2.342,0,0,0-2.34,2.34v1.56a2.34,2.34,0,0,0,4.679,0v-1.56A2.342,2.342,0,0,0,46.567,278.892Zm0,0" transform="translate(-39.548 -257.056)"/>
        <path id="Trazado_997895" data-name="Trazado 997895" d="M9.36,393.359H4.678A6.741,6.741,0,0,1,.229,391.57.778.778,0,0,1,0,391.019v-2.7a1.553,1.553,0,0,1,.7-1.3l3.984-2.655V384h1.56v.78a.781.781,0,0,1-.347.649L1.56,388.317v2.346A5.2,5.2,0,0,0,4.679,391.8H9.36a5.144,5.144,0,0,0,3.118-1.133v-2.349l-4.332-2.888a.781.781,0,0,1-.347-.649V384h1.56v.363l3.985,2.656a1.557,1.557,0,0,1,.694,1.3v2.7a.778.778,0,0,1-.228.552,6.742,6.742,0,0,1-4.449,1.788Zm0,0" transform="translate(0 -355.925)"/>
        <path id="Trazado_997896" data-name="Trazado 997896" d="M323.9,286.691a3.9,3.9,0,0,1-3.9-3.9v-1.56a3.9,3.9,0,1,1,7.8,0v1.56A3.9,3.9,0,0,1,323.9,286.691Zm0-7.8a2.343,2.343,0,0,0-2.34,2.34v1.56a2.34,2.34,0,0,0,4.679,0v-1.56A2.342,2.342,0,0,0,323.9,278.892Zm0,0" transform="translate(-296.604 -257.056)"/>
        <path id="Trazado_997897" data-name="Trazado 997897" d="M286.692,393.359h-4.682a6.743,6.743,0,0,1-4.449-1.788.777.777,0,0,1-.228-.552v-2.7a1.553,1.553,0,0,1,.7-1.3l3.983-2.655V384h1.56v.78a.781.781,0,0,1-.347.649l-4.332,2.888v2.346a5.188,5.188,0,0,0,3.118,1.136h4.682a5.144,5.144,0,0,0,3.118-1.133v-2.349l-4.332-2.888a.781.781,0,0,1-.347-.649V384h1.56v.363l3.984,2.656a1.557,1.557,0,0,1,.695,1.3v2.7a.776.776,0,0,1-.228.552,6.741,6.741,0,0,1-4.449,1.788Zm0,0" transform="translate(-257.055 -355.925)"/>
        <path id="Trazado_997898" data-name="Trazado 997898" d="M224,277.332h1.56v1.56H224Zm0,0" transform="translate(-207.623 -257.055)"/>
        <path id="Trazado_997899" data-name="Trazado 997899" d="M181.332,277.332h1.56v1.56h-1.56Zm0,0" transform="translate(-168.074 -257.055)"/>
        <path id="Trazado_997900" data-name="Trazado 997900" d="M266.668,277.332h1.56v1.56h-1.56Zm0,0" transform="translate(-247.171 -257.055)"/>
      </g>
    </g>
    <g id="comunicacion_1_2" data-name="comunicacion (1)" transform="translate(-6476.833 -10142.434)">
      <path id="Trazado_997892-2" data-name="Trazado 997892" d="M199.269,17.157a.781.781,0,0,1-.552-.228l-2.891-2.891h-4.357a.78.78,0,1,1,0-1.56h4.679a.776.776,0,0,1,.551.228l1.788,1.788V13.258a.78.78,0,0,1,.78-.78h.78a.781.781,0,0,0,.78-.78V2.34a.781.781,0,0,0-.78-.78H183.672a.781.781,0,0,0-.78.78V11.7a.781.781,0,0,0,.78.78h1.56a.78.78,0,0,1,0,1.56h-1.56a2.342,2.342,0,0,1-2.34-2.34V2.34A2.342,2.342,0,0,1,183.672,0h16.377a2.342,2.342,0,0,1,2.34,2.34V11.7a2.342,2.342,0,0,1-2.34,2.34v2.34a.779.779,0,0,1-.78.78Zm0,0" transform="translate(-168.074)"/>
      <path id="Trazado_997893-2" data-name="Trazado 997893" d="M3.12,59.825a.769.769,0,0,1-.3-.059.78.78,0,0,1-.481-.721v-2.34A2.342,2.342,0,0,1,0,54.366V45.008a2.342,2.342,0,0,1,2.34-2.34h8.579a.78.78,0,1,1,0,1.56H2.34a.781.781,0,0,0-.78.78v9.359a.781.781,0,0,0,.78.78h.78a.78.78,0,0,1,.78.78v1.237l1.788-1.788a.778.778,0,0,1,.551-.228H18.717a.781.781,0,0,0,.78-.78V45.008a.781.781,0,0,0-.78-.78h-1.56a.78.78,0,1,1,0-1.56h1.56a2.342,2.342,0,0,1,2.34,2.34v9.359a2.342,2.342,0,0,1-2.34,2.34H6.562L3.671,59.6a.779.779,0,0,1-.551.228Zm0,0" transform="translate(0 -39.548)"/>
      <path id="Trazado_997894-2" data-name="Trazado 997894" d="M46.567,286.691a3.9,3.9,0,0,1-3.9-3.9v-1.56a3.9,3.9,0,1,1,7.8,0v1.56A3.9,3.9,0,0,1,46.567,286.691Zm0-7.8a2.342,2.342,0,0,0-2.34,2.34v1.56a2.34,2.34,0,0,0,4.679,0v-1.56A2.342,2.342,0,0,0,46.567,278.892Zm0,0" transform="translate(-39.548 -257.056)"/>
      <path id="Trazado_997895-2" data-name="Trazado 997895" d="M9.36,393.359H4.678A6.741,6.741,0,0,1,.229,391.57.778.778,0,0,1,0,391.019v-2.7a1.553,1.553,0,0,1,.7-1.3l3.984-2.655V384h1.56v.78a.781.781,0,0,1-.347.649L1.56,388.317v2.346A5.2,5.2,0,0,0,4.679,391.8H9.36a5.144,5.144,0,0,0,3.118-1.133v-2.349l-4.332-2.888a.781.781,0,0,1-.347-.649V384h1.56v.363l3.985,2.656a1.557,1.557,0,0,1,.694,1.3v2.7a.778.778,0,0,1-.228.552,6.742,6.742,0,0,1-4.449,1.788Zm0,0" transform="translate(0 -355.925)"/>
      <path id="Trazado_997896-2" data-name="Trazado 997896" d="M323.9,286.691a3.9,3.9,0,0,1-3.9-3.9v-1.56a3.9,3.9,0,1,1,7.8,0v1.56A3.9,3.9,0,0,1,323.9,286.691Zm0-7.8a2.343,2.343,0,0,0-2.34,2.34v1.56a2.34,2.34,0,0,0,4.679,0v-1.56A2.342,2.342,0,0,0,323.9,278.892Zm0,0" transform="translate(-296.604 -257.056)"/>
      <path id="Trazado_997897-2" data-name="Trazado 997897" d="M286.692,393.359h-4.682a6.743,6.743,0,0,1-4.449-1.788.777.777,0,0,1-.228-.552v-2.7a1.553,1.553,0,0,1,.7-1.3l3.983-2.655V384h1.56v.78a.781.781,0,0,1-.347.649l-4.332,2.888v2.346a5.188,5.188,0,0,0,3.118,1.136h4.682a5.144,5.144,0,0,0,3.118-1.133v-2.349l-4.332-2.888a.781.781,0,0,1-.347-.649V384h1.56v.363l3.984,2.656a1.557,1.557,0,0,1,.695,1.3v2.7a.776.776,0,0,1-.228.552,6.741,6.741,0,0,1-4.449,1.788Zm0,0" transform="translate(-257.055 -355.925)"/>
      <path id="Trazado_997898-2" data-name="Trazado 997898" d="M224,277.332h1.56v1.56H224Zm0,0" transform="translate(-207.623 -257.055)"/>
      <path id="Trazado_997899-2" data-name="Trazado 997899" d="M181.332,277.332h1.56v1.56h-1.56Zm0,0" transform="translate(-168.074 -257.055)"/>
      <path id="Trazado_997900-2" data-name="Trazado 997900" d="M266.668,277.332h1.56v1.56h-1.56Zm0,0" transform="translate(-247.171 -257.055)"/>
    </g>
  </g>
</svg>
