<svg xmlns="http://www.w3.org/2000/svg" xmlns:xlink="http://www.w3.org/1999/xlink" width="1030" height="486" viewBox="0 0 1030 486">
  <defs>
    <clipPath id="clip-path">
      <path id="Trazado_608976" data-name="Trazado 608976" d="M16,0h998c8.837,0,16,7.536,16,16.831V469.169c0,9.3-7.163,16.831-16,16.831H16c-8.837,0-16-7.536-16-16.831V16.831C0,7.536,7.163,0,16,0Z" transform="translate(284.668 1119)" fill="#fff8e6"/>
    </clipPath>
    <clipPath id="clip-path-2">
      <rect id="Rectángulo_403272" data-name="Rectángulo 403272" width="288.998" height="210.14" fill="none"/>
    </clipPath>
    <clipPath id="clip-path-3">
      <rect id="Rectángulo_403273" data-name="Rectángulo 403273" width="288.998" height="334" fill="none"/>
    </clipPath>
  </defs>
  <g id="Grupo_1101898" data-name="Grupo 1101898" transform="translate(-285 -5142)">
    <g id="Enmascarar_grupo_1098656" data-name="Enmascarar grupo 1098656" transform="translate(0.332 4023)" clip-path="url(#clip-path)">
      <rect id="Rectángulo_400937" data-name="Rectángulo 400937" width="1079" height="510" transform="translate(264.668 1106)" fill="#fff8e6"/>
    </g>
    <g id="Grupo_1101896" data-name="Grupo 1101896" transform="translate(1014.184 5294)">
      <g id="Grupo_1101893" data-name="Grupo 1101893" transform="translate(0 123.86)">
        <g id="Grupo_1101892" data-name="Grupo 1101892" clip-path="url(#clip-path-2)">
          <path id="Trazado_880707" data-name="Trazado 880707" d="M63.362,249.677S49.3,243.885,41.849,238.093,13.718,193.413,12.89,187.621s6.62-4.964,14.894-.827S52.606,226.51,55.915,226.51s33.1,17.376,33.1,17.376Z" transform="translate(-3.688 -169.694)" fill="#e8a68e"/>
          <path id="Trazado_880708" data-name="Trazado 880708" d="M88.781,246.322s-14.066-5.792-21.512-11.584-28.132-44.681-28.96-50.473,6.62-4.964,14.893-.827,24.823,39.716,28.132,39.716,33.1,17.376,33.1,17.376Z" transform="translate(-10.996 -168.729)" fill="#e8a68e"/>
          <path id="Trazado_880709" data-name="Trazado 880709" d="M117.785,262.96s-13.375-7.245-20.169-13.792-23.254-47.4-23.465-53.25,7.107-4.237,14.9.751,20.487,42.116,23.778,42.466S143.9,259.911,143.9,259.911Z" transform="translate(-21.317 -172.195)" fill="#e8a68e"/>
          <path id="Trazado_880710" data-name="Trazado 880710" d="M141.13,269.888s-10.782-6.482-16.152-12.142-17.456-40.025-17.413-44.863,6.028-3.238,12.28,1.172,15.366,35.555,18.072,35.965,24.9,18.315,24.9,18.315Z" transform="translate(-30.925 -177.295)" fill="#e8a68e"/>
          <line id="Línea_3221" data-name="Línea 3221" x2="29.787" y2="49.92" transform="translate(28.049 20.134)" fill="none" stroke="#3b365b" stroke-miterlimit="10" stroke-width="1"/>
          <line id="Línea_3222" data-name="Línea 3222" x2="24.27" y2="42.75" transform="translate(53.699 28.408)" fill="none" stroke="#3b365b" stroke-miterlimit="10" stroke-width="1"/>
          <line id="Línea_3223" data-name="Línea 3223" x2="17.376" y2="36.682" transform="translate(76.591 36.958)" fill="none" stroke="#3b365b" stroke-miterlimit="10" stroke-width="1"/>
          <path id="Trazado_880711" data-name="Trazado 880711" d="M74.539,289.511s-25.65-17.376-38.061-23.995c-9.1-6.62-14.894-30.615-20.686-38.889-4.137-8.274,7.447-8.274,16.548-5.792S50.545,244,53.026,245.658s51.3,2.482,71.986,14.066c17.376,9.929,14.893,26.477,14.066,33.924s-1.655,11.584-1.655,11.584l4.965,91.843H66.265Z" transform="translate(-4.292 -180.017)" fill="#ffba9c"/>
          <path id="Trazado_880712" data-name="Trazado 880712" d="M98.148,317.806l13.79,4.689s-9.929,4.413-14.893,2.207Z" transform="translate(-27.901 -208.312)" fill="#3b365b"/>
          <path id="Trazado_880713" data-name="Trazado 880713" d="M148.141,329.806s13.239,3.861,25.374,1.655" transform="translate(-42.591 -211.762)" fill="none" stroke="#3b365b" stroke-miterlimit="10" stroke-width="1"/>
          <path id="Trazado_880714" data-name="Trazado 880714" d="M65.951,256.258a11.429,11.429,0,0,0-6.068,7.723" transform="translate(-17.217 -190.616)" fill="none" stroke="#3b365b" stroke-miterlimit="10" stroke-width="1"/>
          <path id="Trazado_880715" data-name="Trazado 880715" d="M14.98,226.216s4.781-1.287,7.171,1.839a33.509,33.509,0,0,1,4.046,7.906l-5.7,2.207" transform="translate(-4.307 -181.904)" fill="none" stroke="#3b365b" stroke-miterlimit="10" stroke-width="1"/>
          <path id="Trazado_880716" data-name="Trazado 880716" d="M311.509,249.677s14.066-5.792,21.513-11.584,28.132-44.681,28.959-50.473-6.62-4.964-14.893-.827-24.823,39.716-28.132,39.716-33.1,17.376-33.1,17.376Z" transform="translate(-82.185 -169.694)" fill="#e8a68e"/>
          <path id="Trazado_880717" data-name="Trazado 880717" d="M286.09,246.322s14.066-5.792,21.512-11.584,28.132-44.681,28.96-50.473-6.62-4.964-14.894-.827-24.822,39.716-28.132,39.716-33.1,17.376-33.1,17.376Z" transform="translate(-74.877 -168.729)" fill="#e8a68e"/>
          <path id="Trazado_880718" data-name="Trazado 880718" d="M259.681,262.96s13.375-7.245,20.169-13.792,23.254-47.4,23.465-53.25-7.107-4.237-14.9.751-20.487,42.116-23.779,42.466-31.075,20.775-31.075,20.775Z" transform="translate(-67.15 -172.195)" fill="#e8a68e"/>
          <path id="Trazado_880719" data-name="Trazado 880719" d="M242.186,269.888s10.782-6.482,16.152-12.142,17.456-40.025,17.413-44.863-6.028-3.238-12.28,1.172S248.106,249.61,245.4,250.021s-24.9,18.315-24.9,18.315Z" transform="translate(-63.393 -177.295)" fill="#e8a68e"/>
          <line id="Línea_3224" data-name="Línea 3224" x1="29.787" y2="49.92" transform="translate(231.163 20.134)" fill="none" stroke="#3b365b" stroke-miterlimit="10" stroke-width="1"/>
          <line id="Línea_3225" data-name="Línea 3225" x1="24.271" y2="42.75" transform="translate(211.028 28.408)" fill="none" stroke="#3b365b" stroke-miterlimit="10" stroke-width="1"/>
          <line id="Línea_3226" data-name="Línea 3226" x1="17.376" y2="36.682" transform="translate(195.032 36.958)" fill="none" stroke="#3b365b" stroke-miterlimit="10" stroke-width="1"/>
          <path id="Trazado_880720" data-name="Trazado 880720" d="M279.642,289.511s25.65-17.376,38.061-23.995c9.1-6.62,14.894-30.615,20.686-38.889,4.137-8.274-7.447-8.274-16.548-5.792s-18.2,23.168-20.685,24.823-51.3,2.482-71.986,14.066c-17.376,9.929-14.893,26.477-14.066,33.924s1.655,11.584,1.655,11.584l-4.965,91.843h76.122Z" transform="translate(-60.891 -180.017)" fill="#ffba9c"/>
          <path id="Trazado_880721" data-name="Trazado 880721" d="M301.455,317.806l-13.79,4.689s9.929,4.413,14.893,2.207Z" transform="translate(-82.705 -208.312)" fill="#3b365b"/>
          <path id="Trazado_880722" data-name="Trazado 880722" d="M247.233,329.806s-13.239,3.861-25.374,1.655" transform="translate(-63.785 -211.762)" fill="none" stroke="#3b365b" stroke-miterlimit="10" stroke-width="1"/>
          <path id="Trazado_880723" data-name="Trazado 880723" d="M337.214,256.258a11.429,11.429,0,0,1,6.068,7.723" transform="translate(-96.95 -190.616)" fill="none" stroke="#3b365b" stroke-miterlimit="10" stroke-width="1"/>
          <path id="Trazado_880724" data-name="Trazado 880724" d="M386.107,226.216s-4.781-1.287-7.171,1.839a33.507,33.507,0,0,0-4.046,7.906l5.7,2.207" transform="translate(-107.782 -181.904)" fill="none" stroke="#3b365b" stroke-miterlimit="10" stroke-width="1"/>
        </g>
      </g>
      <g id="Grupo_1101895" data-name="Grupo 1101895">
        <g id="Grupo_1101894" data-name="Grupo 1101894" clip-path="url(#clip-path-3)">
          <path id="Trazado_880725" data-name="Trazado 880725" d="M180.208,67.749c39.386-2.684,62.856,44.731,36.867,74.456-9.069,8.029,1.517,35.155-7.5,37.69q-21.865,3.64-43.727,7.283c-8.658,1.05-3.845-12.664-5.026-17.815-26.083,5.894-22.284-.73-22.426-23.123-24.848,3.1.775-19.141.026-29.988-2.065-24.389,17.365-46.924,41.789-48.5" transform="translate(-36.662 -19.447)" fill="#aec2dd"/>
          <path id="Trazado_880726" data-name="Trazado 880726" d="M195.96,103.8c.733-.776,1.379-1.55,2.116-2.222a10.54,10.54,0,0,1,6.143-2.8,10.408,10.408,0,0,1,11.178,8.039,12.5,12.5,0,0,1-1.712,9.636,34.244,34.244,0,0,1-6.51,7.7,67.506,67.506,0,0,1-7.7,6.06,4.86,4.86,0,0,1-5.721.125,60.161,60.161,0,0,1-11.317-8.771,24.317,24.317,0,0,1-4.765-6.55,11.327,11.327,0,0,1,2.364-13.175,9.817,9.817,0,0,1,5.833-2.626,10.8,10.8,0,0,1,9.159,3.557c.322.329.62.682.928,1.023" transform="translate(-50.755 -28.384)" fill="#ff5e62"/>
          <path id="Trazado_880727" data-name="Trazado 880727" d="M315.982,70.308a103.172,103.172,0,0,1-13.5,133.96" transform="translate(-86.964 -20.214)" fill="none" stroke="#269490" stroke-miterlimit="10" stroke-width="2"/>
          <path id="Trazado_880728" data-name="Trazado 880728" d="M303.18,48.992a103.721,103.721,0,0,1,13,15.187" transform="translate(-87.165 -14.085)" fill="none" stroke="#4dc3a3" stroke-miterlimit="10" stroke-width="2"/>
          <path id="Trazado_880729" data-name="Trazado 880729" d="M182.522,9.553a104.081,104.081,0,0,1,14.453-1,102.806,102.806,0,0,1,71.516,28.816" transform="translate(-52.476 -2.458)" fill="none" stroke="#269490" stroke-miterlimit="10" stroke-width="2"/>
          <path id="Trazado_880730" data-name="Trazado 880730" d="M58.283,120.873q-.249-3.59-.25-7.244a103.2,103.2,0,0,1,72.013-98.368" transform="translate(-16.685 -4.388)" fill="none" stroke="#269490" stroke-miterlimit="10" stroke-width="2"/>
          <path id="Trazado_880731" data-name="Trazado 880731" d="M62.256,185.213a102.843,102.843,0,0,1-3.873-21.723" transform="translate(-16.785 -47.004)" fill="none" stroke="#4dc3a3" stroke-miterlimit="10" stroke-width="2"/>
          <path id="Trazado_880732" data-name="Trazado 880732" d="M91.264,239.281a103.123,103.123,0,0,1-27.445-45.3" transform="translate(-18.348 -55.77)" fill="none" stroke="#269490" stroke-miterlimit="10" stroke-width="2"/>
          <path id="Trazado_880733" data-name="Trazado 880733" d="M238.615,272.481a103.213,103.213,0,0,1-115.082,1.426" transform="translate(-35.516 -78.339)" fill="none" stroke="#269490" stroke-miterlimit="10" stroke-width="2"/>
          <path id="Trazado_880734" data-name="Trazado 880734" d="M68.621,110.988a10.343,10.343,0,1,1-10.343-10.343,10.343,10.343,0,0,1,10.343,10.343" transform="translate(-13.782 -28.936)" fill="#42cfcf"/>
          <path id="Trazado_880735" data-name="Trazado 880735" d="M271.6,15.445A15.445,15.445,0,1,1,256.155,0,15.445,15.445,0,0,1,271.6,15.445" transform="translate(-69.205 0)" fill="#42cfcf"/>
          <path id="Trazado_880736" data-name="Trazado 880736" d="M351.826,153.493a7.171,7.171,0,1,1-7.171-7.171,7.171,7.171,0,0,1,7.171,7.171" transform="translate(-97.028 -42.068)" fill="#42cfcf"/>
          <path id="Trazado_880737" data-name="Trazado 880737" d="M90.283,145.625a2.528,2.528,0,1,1-2.528-2.528,2.528,2.528,0,0,1,2.528,2.528" transform="translate(-24.503 -41.141)" fill="#ff5e62"/>
          <path id="Trazado_880738" data-name="Trazado 880738" d="M303.379,25.754a2.528,2.528,0,1,1-2.528-2.528,2.528,2.528,0,0,1,2.528,2.528" transform="translate(-85.768 -6.678)" fill="#42cfcf"/>
          <path id="Trazado_880739" data-name="Trazado 880739" d="M338.258,93.072s-6.09-20.776,7.1-28.946c0,0,9.857,15.173-7.1,28.946" transform="translate(-96.847 -18.436)" fill="#269490"/>
          <path id="Trazado_880740" data-name="Trazado 880740" d="M333.221,118.962s-13.854-16.638-27.992-10.237c0,0,7.1,16.642,27.992,10.237" transform="translate(-87.754 -30.837)" fill="#269490"/>
          <path id="Trazado_880741" data-name="Trazado 880741" d="M106.664,45.113s17.133-13.235,29.547-3.919c0,0-10.545,14.7-29.547,3.919" transform="translate(-30.666 -10.888)" fill="#269490"/>
          <path id="Trazado_880742" data-name="Trazado 880742" d="M88.6,48.2s10.453-18.959-.653-29.8c0,0-12.915,12.673.653,29.8" transform="translate(-23.689 -5.292)" fill="#269490"/>
          <path id="Trazado_880743" data-name="Trazado 880743" d="M198.861,290.048s-21.65.081-25.834-14.864c0,0,17.314-5.255,25.834,14.864" transform="translate(-49.746 -78.938)" fill="#269490"/>
          <path id="Trazado_880744" data-name="Trazado 880744" d="M221.88,296.086s-19.83,8.687-17.609,24.047c0,0,17.96-2.2,17.609-24.047" transform="translate(-58.679 -85.126)" fill="#269490"/>
        </g>
      </g>
    </g>
    <g id="Grupo_1101897" data-name="Grupo 1101897" transform="translate(-112.896 -529.5)">
      <circle id="Elipse_11559" data-name="Elipse 11559" cx="69" cy="69" r="69" transform="translate(812.793 5687.5)" fill="#ff9194"/>
      <circle id="Elipse_11563" data-name="Elipse 11563" cx="69" cy="69" r="69" transform="translate(1143.399 5915.532) rotate(135)" fill="#c2e8e8"/>
      <circle id="Elipse_11570" data-name="Elipse 11570" cx="69" cy="69" r="69" transform="translate(721.538 5817.951) rotate(45)" fill="#e6d09e"/>
      <circle id="Elipse_11566" data-name="Elipse 11566" cx="69" cy="69" r="69" transform="translate(812.793 6003.5)" fill="#aec2dd"/>
      <text id="Situación_emocionalmente_relevante" data-name="Situación 
emocionalmente
relevante" transform="translate(881.793 5742.5)" fill="#12263f" font-size="17" font-family="SegoeUI-Bold, Segoe UI" font-weight="700"><tspan x="-39.379" y="0">Situación </tspan><tspan x="-66.805" y="20">emocionalmente</tspan><tspan x="-37.03" y="40">relevante</tspan></text>
      <text id="Acción_respuesta_" data-name="Acción 
(respuesta)" transform="translate(723.538 5910.532)" fill="#12263f" font-size="17" font-family="SegoeUI-Bold, Segoe UI" font-weight="700"><tspan x="-29.231" y="0">Acción </tspan><tspan x="-44.596" y="20">(respuesta)</tspan></text>
      <text id="Cognición" transform="translate(881.793 6077)" fill="#12263f" font-size="17" font-family="SegoeUI-Bold, Segoe UI" font-weight="700"><tspan x="-40.151" y="0">Cognición</tspan></text>
      <text id="Emoción" transform="translate(1048.793 5922.532)" fill="#12263f" font-size="17" font-family="SegoeUI-Bold, Segoe UI" font-weight="700"><tspan x="-34.336" y="0">Emoción</tspan></text>
      <path id="Unión_1" data-name="Unión 1" d="M8260,11749h-16l28.5-34,28.5,34h-15v30.21a65.065,65.065,0,0,0-26,.2Z" transform="translate(12742.001 -2517.5) rotate(90)" fill="#ff9194"/>
      <path id="Unión_4" data-name="Unión 4" d="M8260,11749h-16l28.5-34,28.5,34h-15v30.21a65.065,65.065,0,0,0-26,.2Z" transform="translate(-1488.063 20152.617) rotate(-135)" fill="#5ad9d9"/>
      <path id="Unión_9" data-name="Unión 9" d="M16,30.414H0l28.5,34,28.5-34H42V.2A64.808,64.808,0,0,1,29.5,1.416,64.8,64.8,0,0,1,16,0Z" transform="translate(831.438 5994.167) rotate(135)" fill="#93b1db"/>
      <path id="Unión_12" data-name="Unión 12" d="M16,30.414H0l28.5,34,28.5-34H42V.2A64.808,64.808,0,0,1,29.5,1.416,64.8,64.8,0,0,1,16,0Z" transform="translate(639.452 6034.472) rotate(-135)" fill="#89816b"/>
      <path id="Unión_8" data-name="Unión 8" d="M8260,11749h-16l28.5-34,28.5,34h-15v30.21a65.065,65.065,0,0,0-26,.2Z" transform="translate(-1333.559 19991.422) rotate(-135)" fill="#6f7479"/>
      <path id="Unión_10" data-name="Unión 10" d="M16,30.414H0l28.5,34,28.5-34H42V.2A64.808,64.808,0,0,1,29.5,1.416,64.8,64.8,0,0,1,16,0Z" transform="translate(685.852 5837.972) rotate(135)" fill="#b8a475"/>
      <path id="Unión_3" data-name="Unión 3" d="M8260,11749h-16l28.5-34,28.5,34h-15v30.21a65.065,65.065,0,0,0-26,.2Z" transform="translate(12525.001 -2517.5) rotate(90)" fill="#768780"/>
      <path id="Unión_5" data-name="Unión 5" d="M8260,11749h-16l28.5-34,28.5,34h-15v30.21a65.065,65.065,0,0,0-26,.2Z" transform="translate(15260.479 7299.165) rotate(131)" fill="#ff9194"/>
      <path id="Unión_11" data-name="Unión 11" d="M16,30.414H0l28.5,34,28.5-34H42V.2A64.808,64.808,0,0,1,29.5,1.416,64.8,64.8,0,0,1,16,0Z" transform="translate(796.235 5878.565) rotate(-135)" fill="#b8a475"/>
      <path id="Unión_7" data-name="Unión 7" d="M8260,11749h-16l28.5-34,28.5,34h-15v30.21a65.065,65.065,0,0,0-26,.2Z" transform="translate(-10969.414 14343.5) rotate(-90)" fill="#93b1db"/>
      <g id="Trazado_997914" data-name="Trazado 997914" transform="translate(1029 5717)" fill="#3e4c5e">
        <path d="M 240 75.5 L 38 75.5 C 32.93732070922852 75.5 28.02632141113281 74.50856781005859 23.40346336364746 72.55328369140625 C 18.93803596496582 70.66457366943359 14.92760753631592 67.96060943603516 11.48349952697754 64.51650238037109 C 8.039392471313477 61.07239151000977 5.335428714752197 57.06196594238281 3.446714401245117 52.59653472900391 C 1.49142861366272 47.97367858886719 0.5 43.06267929077148 0.5 38 C 0.5 32.93732070922852 1.49142861366272 28.02632141113281 3.446714401245117 23.40346336364746 C 5.335428714752197 18.93803596496582 8.039392471313477 14.92760753631592 11.48349952697754 11.48349952697754 C 14.92760753631592 8.039392471313477 18.93803596496582 5.335428714752197 23.40346336364746 3.446714401245117 C 28.02632141113281 1.49142861366272 32.93732070922852 0.5 38 0.5 L 240 0.5 C 245.0626831054688 0.5 249.9736785888672 1.49142861366272 254.5965423583984 3.446714401245117 C 259.0619506835938 5.335428714752197 263.0723876953125 8.039392471313477 266.5165100097656 11.48349952697754 C 269.9606018066406 14.92760753631592 272.6645812988281 18.93803596496582 274.5532836914062 23.40346336364746 C 276.5085754394531 28.02632141113281 277.5 32.93732070922852 277.5 38 C 277.5 43.06267929077148 276.5085754394531 47.97367858886719 274.5532836914062 52.59653472900391 C 272.6645812988281 57.06196594238281 269.9606018066406 61.07239151000977 266.5165100097656 64.51650238037109 C 263.0723876953125 67.96060943603516 259.0619506835938 70.66457366943359 254.5965423583984 72.55328369140625 C 249.9736785888672 74.50856781005859 245.0626831054688 75.5 240 75.5 Z" stroke="none"/>
        <path d="M 38 1 C 33.00460815429688 1 28.15914916992188 1.978141784667969 23.59825134277344 3.907249450683594 C 19.19241333007812 5.770751953125 15.23538208007812 8.438713073730469 11.8370361328125 11.8370361328125 C 8.438720703125 15.23539352416992 5.770751953125 19.19242858886719 3.907257080078125 23.59825134277344 C 1.9781494140625 28.15914154052734 1 33.00460815429688 1 38 C 1 42.99539184570312 1.9781494140625 47.84085845947266 3.907257080078125 52.40174865722656 C 5.770751953125 56.80757141113281 8.438720703125 60.76460647583008 11.8370361328125 64.1629638671875 C 15.23538208007812 67.56128692626953 19.19241333007812 70.229248046875 23.59825134277344 72.09275054931641 C 28.15914916992188 74.02185821533203 33.00460815429688 75 38 75 L 240 75 C 244.9953918457031 75 249.8408508300781 74.02185821533203 254.4017486572266 72.09275054931641 C 258.8075561523438 70.229248046875 262.7646179199219 67.56128692626953 266.1629638671875 64.1629638671875 C 269.561279296875 60.76460647583008 272.229248046875 56.80757141113281 274.0927429199219 52.40174865722656 C 276.0218505859375 47.84085845947266 277 42.99539184570312 277 38 C 277 33.00460815429688 276.0218505859375 28.15914154052734 274.0927429199219 23.59825134277344 C 272.229248046875 19.19242858886719 269.561279296875 15.23539352416992 266.1629638671875 11.8370361328125 C 262.7646179199219 8.438713073730469 258.8075561523438 5.770751953125 254.4017486572266 3.907249450683594 C 249.8408508300781 1.978141784667969 244.9953918457031 1 240 1 L 38 1 M 38 0 L 240 0 C 260.98681640625 0 278 17.01317977905273 278 38 C 278 58.98682403564453 260.98681640625 76 240 76 L 38 76 C 17.01318359375 76 0 58.98682403564453 0 38 C 0 17.01317977905273 17.01318359375 0 38 0 Z" stroke="none" fill="#707070"/>
      </g>
      <g id="Rectángulo_403276" data-name="Rectángulo 403276" transform="translate(459.793 5717)" fill="#3d5756" stroke="#707070" stroke-width="1">
        <rect width="278" height="76" rx="38" stroke="none"/>
        <rect x="0.5" y="0.5" width="277" height="75" rx="37.5" fill="none"/>
      </g>
      <g id="Rectángulo_403287" data-name="Rectángulo 403287" transform="translate(456.793 6033)" fill="#605841" stroke="#707070" stroke-width="1">
        <rect width="278" height="76" rx="38" stroke="none"/>
        <rect x="0.5" y="0.5" width="277" height="75" rx="37.5" fill="none"/>
      </g>
      <text id="a._Selección_de_la_situación_b._Modificación_de_la_situación_" data-name="a. Selección de la situación
b. Modificación de la situación " transform="translate(1056 5733)" fill="#ffe7ae" font-size="16" font-family="SegoeUI, Segoe UI"><tspan x="0" y="17">a.</tspan><tspan y="17" xml:space="preserve" fill="#fff"> Selección de la situación</tspan><tspan x="0" y="41">b.</tspan><tspan y="41" xml:space="preserve" fill="#fff"> Modificación de la situación </tspan></text>
      <text id="Modulación_de_la_respuesta" data-name="Modulación de la respuesta" transform="translate(486.793 5745)" fill="#fff" font-size="17" font-family="SegoeUI-Bold, Segoe UI" font-weight="700"><tspan x="0" y="18">Modulación de la respuesta</tspan></text>
      <text id="_a._Despliegue_atencional_b._Cambio_cognitivo" data-name=" a. Despliegue atencional
 b. Cambio cognitivo" transform="translate(483.793 6049)" fill="#ffe7ae" font-size="16" font-family="SegoeUI, Segoe UI"><tspan x="0" y="17" xml:space="preserve"> a.</tspan><tspan y="17" xml:space="preserve" fill="#fff"> Despliegue atencional</tspan><tspan x="0" y="41" xml:space="preserve"> b.</tspan><tspan y="41" xml:space="preserve" fill="#fff"> Cambio cognitivo</tspan></text>
    </g>
  </g>
</svg>
