<svg xmlns="http://www.w3.org/2000/svg" xmlns:xlink="http://www.w3.org/1999/xlink" width="1030" height="528" viewBox="0 0 1030 528">
  <defs>
    <clipPath id="clip-path">
      <path id="Trazado_608976" data-name="Trazado 608976" d="M16,0h998c8.837,0,16,8.187,16,18.286V509.714c0,10.1-7.163,18.286-16,18.286H16c-8.837,0-16-8.187-16-18.286V18.286C0,8.187,7.163,0,16,0Z" transform="translate(0 0)" fill="#fff8e6"/>
    </clipPath>
    <clipPath id="clip-path-2">
      <rect id="Rectángulo_405150" data-name="Rectángulo 405150" width="311.86" height="192.068" fill="none"/>
    </clipPath>
  </defs>
  <g id="Grupo_1102782" data-name="Grupo 1102782" transform="translate(-285 -13031)">
    <g id="Grupo_1102181" data-name="Grupo 1102181" transform="translate(0 7889)">
      <g id="Enmascarar_grupo_1098656" data-name="Enmascarar grupo 1098656" transform="translate(285 5142)" clip-path="url(#clip-path)">
        <rect id="Rectángulo_400937" data-name="Rectángulo 400937" width="1079" height="554" transform="translate(-20 -14)" fill="#fff8e6"/>
      </g>
    </g>
    <g id="Grupo_1102714" data-name="Grupo 1102714" transform="translate(0 8.08)">
      <rect id="Rectángulo_405151" data-name="Rectángulo 405151" width="327" height="142" rx="17" transform="translate(341 13085)" fill="#e7effa"/>
      <rect id="Rectángulo_405154" data-name="Rectángulo 405154" width="327" height="158" rx="17" transform="translate(341 13340)" fill="#e6f3f3"/>
      <path id="Trazado_998090" data-name="Trazado 998090" d="M17,0H310a17,17,0,0,1,17,17V143a17,17,0,0,1-17,17H17A17,17,0,0,1,0,143V17A17,17,0,0,1,17,0Z" transform="translate(932 13085)" fill="#e6f3f3"/>
      <rect id="Rectángulo_405153" data-name="Rectángulo 405153" width="327" height="158" rx="17" transform="translate(932 13340)" fill="#e7effa"/>
      <path id="Trazado_882905" data-name="Trazado 882905" d="M209.644,215.441V0C95.175,3.108,2.948,97.87,0,215.441Z" transform="translate(564.192 13054.074)" fill="#4e5661"/>
      <path id="Trazado_882906" data-name="Trazado 882906" d="M152.449,215.441H362.093C359.145,97.87,266.917,3.108,152.449,0Z" transform="translate(678.8 13054.074)" fill="#4e5661"/>
      <path id="Trazado_882907" data-name="Trazado 882907" d="M209.644,156.443H0C2.948,274.014,95.175,368.776,209.644,371.885Z" transform="translate(564.192 13154.682)" fill="#4e5661"/>
      <path id="Trazado_882908" data-name="Trazado 882908" d="M152.449,156.443V371.885c114.468-3.109,206.7-97.871,209.644-215.442Z" transform="translate(678.8 13154.682)" fill="#4e5661"/>
      <circle id="Elipse_11579" data-name="Elipse 11579" cx="128.5" cy="128.5" r="128.5" transform="translate(673.207 13161)" fill="#c2e8e8"/>
      <g id="Grupo_1102713" data-name="Grupo 1102713" transform="translate(646.233 13187.501)">
        <g id="Grupo_1102712" data-name="Grupo 1102712" transform="translate(0)" clip-path="url(#clip-path-2)">
          <path id="Trazado_882829" data-name="Trazado 882829" d="M5.841,64.678a2.846,2.846,0,0,1-1.919-.737A11.439,11.439,0,0,1,0,55.574C-.2,47.407,7.513,39.465,8.394,38.58a2.864,2.864,0,0,1,4.049,4.052C10.533,44.551,5.6,50.59,5.725,55.437a5.654,5.654,0,0,0,2.033,4.255,2.861,2.861,0,0,1-1.916,4.986" transform="translate(0.001 67.219)" fill="#303030"/>
          <path id="Trazado_882830" data-name="Trazado 882830" d="M114.811,64.678a2.861,2.861,0,0,1-1.916-4.986,5.644,5.644,0,0,0,2.03-4.263c.125-4.877-4.8-10.889-6.71-12.794a2.862,2.862,0,0,1,4.04-4.054c.879.884,8.6,8.826,8.4,16.993a11.445,11.445,0,0,1-3.924,8.367,2.839,2.839,0,0,1-1.916.737" transform="translate(191.207 67.218)" fill="#303030"/>
          <path id="Trazado_882831" data-name="Trazado 882831" d="M7.666,92.12l-.423.014a3.871,3.871,0,0,1-3.974-3.74L1.031,15.051A3.866,3.866,0,0,1,4.768,11.08l.423-.014A3.867,3.867,0,0,1,9.165,14.8L11.4,88.146A3.865,3.865,0,0,1,7.666,92.12" transform="translate(1.833 19.702)" fill="#303030"/>
          <path id="Trazado_882832" data-name="Trazado 882832" d="M111.128,92.12l.423.014a3.871,3.871,0,0,0,3.974-3.74l2.239-73.343a3.866,3.866,0,0,0-3.737-3.971l-.423-.014a3.867,3.867,0,0,0-3.974,3.737l-2.241,73.343a3.871,3.871,0,0,0,3.74,3.974" transform="translate(191.23 19.702)" fill="#303030"/>
          <path id="Trazado_882833" data-name="Trazado 882833" d="M88.289,69.7H51.052a3,3,0,1,1,0-5.993H88.289a3,3,0,1,1,0,5.993" transform="translate(85.573 113.447)" fill="#303030"/>
          <path id="Trazado_882834" data-name="Trazado 882834" d="M37.1,67.894l1.229,6.446h7.08V72.907l7.169,1.5H72.9l-.94-3.256s-14.988-3.406-17.994-8.829Z" transform="translate(66.074 110.978)"/>
          <path id="Trazado_882835" data-name="Trazado 882835" d="M97.1,71.578,98.48,78.09l-9.691-.064-7.169.064H61.307L60.7,75.067s19.755-1.579,22.724-13.553Z" transform="translate(108.089 109.541)" fill="#5d2c10"/>
          <path id="Trazado_882836" data-name="Trazado 882836" d="M6.636,43.382,4.127,53.529l5.014,6.5,56.828-4.6,33.147,63.641,14.6-11.782-38-66.533L39.132,36.388Z" transform="translate(7.35 64.798)" fill="#303030"/>
          <path id="Trazado_882837" data-name="Trazado 882837" d="M93.374,75.649H50.857a4.474,4.474,0,0,1-4.458-4.46V19.567a4.473,4.473,0,0,1,4.458-4.458H93.374a4.472,4.472,0,0,1,4.455,4.458V71.189a4.473,4.473,0,0,1-4.455,4.46" transform="translate(82.626 26.905)" fill="#303030"/>
          <path id="Trazado_882838" data-name="Trazado 882838" d="M57.363,103.259h0a2.4,2.4,0,0,1-2.4-2.394V46.459a2.4,2.4,0,0,1,4.794,0v54.406a2.4,2.4,0,0,1-2.4,2.394" transform="translate(97.882 78.469)" fill="#303030"/>
          <path id="Trazado_882839" data-name="Trazado 882839" d="M12.789,105.28h0a2.4,2.4,0,0,1-2.4-2.394V48.48a2.4,2.4,0,0,1,4.794,0v54.406a2.4,2.4,0,0,1-2.394,2.394" transform="translate(18.5 82.068)" fill="#303030"/>
          <path id="Trazado_882840" data-name="Trazado 882840" d="M43.713,71.723H6.476a3,3,0,0,1,0-6H43.713a3,3,0,0,1,0,6" transform="translate(6.194 117.045)" fill="#303030"/>
          <path id="Trazado_882841" data-name="Trazado 882841" d="M101.832,52.488H49a4.469,4.469,0,0,1-4.458-4.458v-1.6A4.467,4.467,0,0,1,49,41.974h52.829a4.469,4.469,0,0,1,4.458,4.455v1.6a4.471,4.471,0,0,1-4.458,4.458" transform="translate(79.324 74.745)" fill="#e54d42"/>
          <path id="Trazado_882842" data-name="Trazado 882842" d="M59.387,55.317H6.555A4.471,4.471,0,0,1,2.1,50.857v-1.6A4.468,4.468,0,0,1,6.555,44.8H59.387a4.468,4.468,0,0,1,4.455,4.455v1.6a4.471,4.471,0,0,1-4.455,4.46" transform="translate(3.74 79.778)" fill="#303030"/>
          <path id="Trazado_882843" data-name="Trazado 882843" d="M91.417,45.243H48.671A1.577,1.577,0,0,1,47.1,43.672V36.717a1.578,1.578,0,0,1,1.574-1.574H91.417a1.578,1.578,0,0,1,1.574,1.574v6.955a1.577,1.577,0,0,1-1.574,1.571" transform="translate(83.869 62.581)" fill="#4d5a68"/>
          <path id="Trazado_882844" data-name="Trazado 882844" d="M88.435,56.078H54.857a8.408,8.408,0,0,1-8.384-8.384V45.717a8.407,8.407,0,0,1,8.384-8.381H88.435a8.407,8.407,0,0,1,8.384,8.381v1.977a8.408,8.408,0,0,1-8.384,8.384" transform="translate(82.758 66.486)" fill="#505050"/>
          <path id="Trazado_882845" data-name="Trazado 882845" d="M89.9,48.73c0,5.5-9.621,4.752-21.178,4.752s-20.667.745-20.667-4.752,9.368-9.955,20.922-9.955S89.9,43.233,89.9,48.73" transform="translate(85.573 69.048)" fill="#303030"/>
          <path id="Trazado_882846" data-name="Trazado 882846" d="M63.721,46.481a2.333,2.333,0,0,0,.114-.651c0-2.152-3.017-6.123-6.738-6.123s-6.741,3.971-6.741,6.123a2.241,2.241,0,0,0,.092.523H50.44s-1.1,15.319-.887,24.176,5.169,33.95,4.891,36.828,5.709,0,5.709,0,3.109-20.984,4.224-36.587a131.324,131.324,0,0,0-.656-24.29" transform="translate(88.192 70.708)" fill="#dead8e"/>
          <path id="Trazado_882847" data-name="Trazado 882847" d="M70.478,46.355h-.008a2.392,2.392,0,0,0,.089-.523c0-2.152-3.017-6.126-6.738-6.126S57.08,43.68,57.08,45.832a2.333,2.333,0,0,0,.114.651,131.569,131.569,0,0,0-.656,24.29c1.115,15.6,4.224,36.584,4.224,36.584s5.99,2.881,5.712,0,4.674-27.975,4.889-36.828-.884-24.173-.884-24.173" transform="translate(100.164 70.706)" fill="#dead8e"/>
          <path id="Trazado_882848" data-name="Trazado 882848" d="M60.993,66.265a2.186,2.186,0,0,0-2.036-1.39H54.374a2.187,2.187,0,0,0-2.038,1.39l-2.141,5.478a2.177,2.177,0,0,0-.153.8v1.379a2.192,2.192,0,0,0,.439,1.313l.982,1.307h10.4l.982-1.307a2.174,2.174,0,0,0,.439-1.313V72.542a2.175,2.175,0,0,0-.15-.8Z" transform="translate(89.113 115.526)" fill="#e54d42"/>
          <path id="Trazado_882849" data-name="Trazado 882849" d="M67.336,66.242a2.191,2.191,0,0,0-2.038-1.39h-4.58a2.191,2.191,0,0,0-2.038,1.39l-2.144,5.478a2.233,2.233,0,0,0-.15.8V73.9a2.2,2.2,0,0,0,.439,1.315l.982,1.3h10.4l.982-1.3A2.182,2.182,0,0,0,69.63,73.9V72.519a2.175,2.175,0,0,0-.15-.8Z" transform="translate(100.409 115.486)" fill="#e54d42"/>
          <path id="Trazado_882850" data-name="Trazado 882850" d="M59,74.6a4.008,4.008,0,0,1-8.017,0l1.254-5.931c0-2.205.551-8.226,2.756-8.226S57.8,66.46,57.8,68.665Z" transform="translate(90.787 107.629)" fill="#dead8e"/>
          <path id="Trazado_882851" data-name="Trazado 882851" d="M65.342,74.574a4.008,4.008,0,0,1-8.017,0l1.254-5.931c0-2.205.551-8.226,2.753-8.226s2.809,6.02,2.809,8.226Z" transform="translate(102.082 107.588)" fill="#dead8e"/>
          <path id="Trazado_882852" data-name="Trazado 882852" d="M58.384,70.156H51.7a.848.848,0,0,1,0-1.7h6.685a.848.848,0,1,1,0,1.7" transform="translate(90.554 121.911)" fill="#f55d51"/>
          <path id="Trazado_882853" data-name="Trazado 882853" d="M64.792,70.131H58.107a.847.847,0,1,1,0-1.693h6.685a.847.847,0,1,1,0,1.693" transform="translate(101.965 121.871)" fill="#f55d51"/>
          <path id="Trazado_882854" data-name="Trazado 882854" d="M43.536,29.405c.019,0,.039.017.058.017,11.126,2.856,20.939,5.52,28.611,7.569,1.335.339,2.611.679,3.815.984l.114,4.46c-1.237-.083-2.508-.2-3.8-.336a177.336,177.336,0,0,1-27.31-5.617Z" transform="translate(77.528 52.363)" fill="#eab99a"/>
          <path id="Trazado_882855" data-name="Trazado 882855" d="M88.537,29.405c-.019,0-.039.017-.056.017-11.129,2.856-20.945,5.52-28.614,7.569-1.335.339-2.611.679-3.815.984l-.114,4.46c1.235-.083,2.508-.2,3.8-.336a177.336,177.336,0,0,0,27.31-5.617Z" transform="translate(99.613 52.363)" fill="#eab99a"/>
          <path id="Trazado_882856" data-name="Trazado 882856" d="M80.836,52.7C83.968,40.219,86.462,28.82,86.462,24.2c0-12.416-8.412-22.48-18.784-22.48S48.891,11.78,48.891,24.2c0,4.624,2.72,16.023,6.132,28.506Z" transform="translate(87.064 3.055)" fill="#8d5c3e"/>
          <path id="Trazado_882857" data-name="Trazado 882857" d="M72.757,6.467s9.574,15.622-5.428,26.873L56.8,32.428s-6.549-7.169-4.961-14.087Z" transform="translate(91.873 11.515)" fill="#6d3c1f"/>
          <path id="Trazado_882858" data-name="Trazado 882858" d="M59.433,23.837c-.131.4-1.56,4.444-3.518,9.7-.156.4-.309.815-.462,1.232-.573,1.516-1.165,3.1-1.782,4.727.022,0,0,.022,0,.022-.153.417-.328.834-.484,1.276-.481,1.229-.968,2.483-1.452,3.735l-.131.353c-1.254,3.212-1.121,6.354-1.363,9.037a3.877,3.877,0,0,1-3.893,3.5h-.022c-3.231-2.111-4.024-2-4.836-6.243a6.148,6.148,0,0,1-.286-2.661c2.836-11.457,5.144-17.3,9.741-27.7a1.946,1.946,0,0,1,.108-.309,4.436,4.436,0,0,1,5.058-2.241,2.333,2.333,0,0,1,.353.086,4.137,4.137,0,0,1,1.121.528,4.356,4.356,0,0,1,1.846,4.969" transform="translate(73.246 32.251)" fill="#eab99a"/>
          <path id="Trazado_882859" data-name="Trazado 882859" d="M79.16,51.169c-.812,4.241-1.582,4.132-4.836,6.243H74.3a3.872,3.872,0,0,1-3.89-3.5c-.242-2.683-.114-5.826-1.365-9.037l-.111-.353c-.484-1.251-.987-2.528-1.471-3.779-.968-2.508-1.891-4.969-2.706-7.213-1.958-5.256-3.384-9.3-3.518-9.7a4.371,4.371,0,0,1,1.824-4.969,4.452,4.452,0,0,1,1.123-.528,2.574,2.574,0,0,1,.373-.086A4.407,4.407,0,0,1,69.6,20.494c.042.111.089.2.131.309,4.574,10.4,6.882,16.248,9.722,27.7a6.193,6.193,0,0,1-.289,2.661" transform="translate(108.689 32.251)" fill="#eab99a"/>
          <path id="Trazado_882860" data-name="Trazado 882860" d="M91.315,39.035a5.957,5.957,0,0,1,1.846,4.132,5.415,5.415,0,0,1-.879,2.925A9.612,9.612,0,0,1,87.8,49.674a.447.447,0,0,1-.156.089,8.877,8.877,0,0,1-1.165.442,2.06,2.06,0,0,1-.328.108.861.861,0,0,0-.067.22v.022A47.882,47.882,0,0,0,82.453,64.3H59.08a47.5,47.5,0,0,0-3.54-13.523,4.466,4.466,0,0,0-.175-.462,10.317,10.317,0,0,1-1.385-.506,14.126,14.126,0,0,1-2.355-1.274,8.518,8.518,0,0,1-2.372-2.4,5.583,5.583,0,0,1-.9-2.97A5.957,5.957,0,0,1,50.2,39.035L47.1,27.6c0-2.133,1.955-3.871,4.419-4H56.97a13.04,13.04,0,0,0,4.858-1.034,7.679,7.679,0,0,0,2.311-1.582,6.013,6.013,0,0,0,.767-.9,10.634,10.634,0,0,0,1.738-4.972h8.223A10.634,10.634,0,0,0,76.6,20.081a5.877,5.877,0,0,0,.748.9,7.776,7.776,0,0,0,2.33,1.582A13.053,13.053,0,0,0,84.541,23.6H89.71c2.594,0,4.705,1.8,4.705,4Z" transform="translate(83.871 26.905)" fill="#eab99a"/>
          <path id="Trazado_882861" data-name="Trazado 882861" d="M74.85,30.092a6.543,6.543,0,0,1-3.387,5.428.463.463,0,0,1-.153.089,9.434,9.434,0,0,1-1.143.6,3.362,3.362,0,0,1-.42.175V36.4a12.145,12.145,0,0,1-4.177.726c-5.144,0-9.3-3.145-9.3-7.035,0-3.871,4.157-7.035,9.3-7.035a11.506,11.506,0,0,1,4.046.723c3.1,1.123,5.233,3.54,5.233,6.312" transform="translate(100.202 41.058)" fill="#f5c4a5"/>
          <path id="Trazado_882862" data-name="Trazado 882862" d="M66.619,30.092c0,3.89-4.179,7.035-9.3,7.035a11.645,11.645,0,0,1-3.451-.506,8.132,8.132,0,0,1-1.563-.592,8.984,8.984,0,0,1-2.353-1.649,6.3,6.3,0,0,1-1.891-3.673s.022-.022,0-.022a5.27,5.27,0,0,1-.022-.592,5.893,5.893,0,0,1,1.8-4.135,8.527,8.527,0,0,1,2.989-2.047,12.212,12.212,0,0,1,4.485-.854c5.122,0,9.3,3.165,9.3,7.035" transform="translate(85.545 41.058)" fill="#f5c4a5"/>
          <path id="Trazado_882863" data-name="Trazado 882863" d="M74.474,18.849c0,8.3-5.092,18.334-11.432,18.334a4.41,4.41,0,0,1-.865-.075c-5.945-.848-10.659-10.336-10.659-18.259,0-7.942,4.661-14.429,10.6-15.013.284-.019.564-.039.868-.039,6.337,0,11.487,6.732,11.487,15.052" transform="translate(91.743 6.761)" fill="#eab99a"/>
          <path id="Trazado_882864" data-name="Trazado 882864" d="M72.739,18.824c0,7.922-4.641,17.41-10.561,18.259-5.945-.848-10.659-10.336-10.659-18.259a5.223,5.223,0,0,1,.036-.754c.189-5.528,2.661-10.283,6.207-12.639a9.437,9.437,0,0,1,3.187-1.415L61.026,4a.11.11,0,0,1,.075-.019,8.621,8.621,0,0,1,1.018-.167,9.359,9.359,0,0,1,2.152.487c4.319,1.549,7.619,6.282,8.317,12.166a19.566,19.566,0,0,1,.15,2.361" transform="translate(91.743 6.786)" fill="#f5c4a5"/>
          <path id="Trazado_882865" data-name="Trazado 882865" d="M51.077,8.939s2.191,5.186,11.549,6.6S73.868,21.2,74.814,24.027c0,0,5.186-12.26-2.672-16.977S54.536,1.078,51.077,8.939" transform="translate(90.956 5.832)" fill="#8d5c3e"/>
          <path id="Trazado_882866" data-name="Trazado 882866" d="M97.873,41.318c.484,1.251.987,2.528,1.471,3.779l.111.353a15.55,15.55,0,0,1,.812,2.984,20.1,20.1,0,0,0,4.647-1.769c1.293-.731,2.447-1.652,3.668-2.475-2.319-8.451-4.572-14.007-8.445-22.816-.042-.111-.089-.2-.131-.309a4.407,4.407,0,0,0-5.036-2.241H90.131a13.053,13.053,0,0,1-4.858-1.034l-8.926,8.2-8.929-8.2a13.04,13.04,0,0,1-4.858,1.034H57.766a4.436,4.436,0,0,0-5.058,2.241,1.946,1.946,0,0,0-.108.309c-3.99,9.029-6.257,14.632-8.64,23.447,2.344,2.188,5.347,3.206,8.376,4.218a16.531,16.531,0,0,1,.923-3.59l.131-.353c.484-1.251.97-2.505,1.452-3.735a8.529,8.529,0,0,0,2.375,2.4,8.954,8.954,0,0,0,2.355,1.649A8.035,8.035,0,0,0,61.13,46a47.5,47.5,0,0,1,3.54,13.523H88.043a47.883,47.883,0,0,1,3.629-13.743v-.022a3.328,3.328,0,0,0,.417-.175,9.039,9.039,0,0,0,1.143-.6.5.5,0,0,0,.156-.089,9.612,9.612,0,0,0,4.485-3.582" transform="translate(78.281 31.679)" fill="#fd6d60"/>
          <path id="Trazado_882867" data-name="Trazado 882867" d="M103.221,35.622H46.01a1.016,1.016,0,0,1,0-2.033h57.211a1.016,1.016,0,1,1,0,2.033" transform="translate(80.126 59.813)" fill="#303030"/>
          <path id="Trazado_882868" data-name="Trazado 882868" d="M74.034,35.622H16.823a1.016,1.016,0,1,1,0-2.033H74.034a1.016,1.016,0,1,1,0,2.033" transform="translate(28.145 59.813)" fill="#303030"/>
          <path id="Trazado_882869" data-name="Trazado 882869" d="M97.708,25.555v26.12a2.044,2.044,0,0,1-2.038,2.036H48.316a2.044,2.044,0,0,1-2.038-2.036V25.555a2.045,2.045,0,0,1,2.038-2.038H95.67a2.045,2.045,0,0,1,2.038,2.038" transform="translate(82.41 41.877)" fill="#606060"/>
          <path id="Trazado_882870" data-name="Trazado 882870" d="M60.476,30.255a3.134,3.134,0,1,1-3.134-3.134,3.134,3.134,0,0,1,3.134,3.134" transform="translate(96.532 48.295)" fill="#d0d0d0"/>
          <path id="Trazado_882871" data-name="Trazado 882871" d="M9.26,30.638l16.418-.089L24.415,9.493,9.649,10.01Z" transform="translate(16.49 16.903)" fill="#dead8e"/>
          <path id="Trazado_882872" data-name="Trazado 882872" d="M9.023,18.346,19.028,31.391l11.963.907L33.2,30.9l5.308-3.37L30.034,3.082l-.07-.189Z" transform="translate(16.068 5.151)" fill="#eab99a"/>
          <path id="Trazado_882873" data-name="Trazado 882873" d="M9.818,18.005,19.823,31.052l11.966.9,5.308-3.37L29.837,6.7,19.075,2.3Z" transform="translate(17.483 4.094)" fill="#f5c4a5"/>
          <path id="Trazado_882874" data-name="Trazado 882874" d="M29,9.749l.506,14.435-4.06-2.378L23.46,30.383l-7.252,4.082L5.724,19.051,8.06,6.237,27.2,0l-.581,2.405L37.211,5.617l1.977,7.222Z" transform="translate(10.194 -0.001)" fill="#8d5c3e"/>
          <path id="Trazado_882875" data-name="Trazado 882875" d="M23.479,13.2l-4.252,2.5-1.68-9.73Z" transform="translate(31.248 10.643)" fill="#f5c4a5"/>
          <path id="Trazado_882876" data-name="Trazado 882876" d="M24.658,17.97,32.08,28.108,17.611,24.927,9.252,16Z" transform="translate(16.477 28.493)" fill="#dead8e"/>
          <path id="Trazado_882877" data-name="Trazado 882877" d="M9.108,19.667l8.99-5.289,14.83,6.482L40.347,31l4.2,31.642L40.458,79.865,7.309,85.908l-2.7-5.52.25-51.508Z" transform="translate(8.207 25.604)" fill="#d5e5e6"/>
          <path id="Trazado_882878" data-name="Trazado 882878" d="M7.793,40.171,3.477,53.294l5.481,5.57,52.648-1.641,33.15,63.641,15.889-9.53L71.356,42.549,34.769,38.191Z" transform="translate(6.192 68.009)" fill="#505050"/>
          <path id="Trazado_882879" data-name="Trazado 882879" d="M37.1,69.687l1.229,6.449h7.08V74.7l7.169,1.5H72.9l-.94-3.256s-14.988-3.406-17.994-8.829Z" transform="translate(66.074 114.171)" fill="#303030"/>
          <path id="Trazado_882880" data-name="Trazado 882880" d="M9.46,14.378l17.586,20.7.915-9.2L24.29,20.86Z" transform="translate(16.846 25.603)" fill="#e3f4f5"/>
          <rect id="Rectángulo_405147" data-name="Rectángulo 405147" width="11.384" height="68.622" transform="translate(50.396 122.533)" fill="#859596"/>
          <path id="Trazado_882881" data-name="Trazado 882881" d="M37.658,63.386h-.306A1.254,1.254,0,0,1,36.1,62.137V19.352A1.255,1.255,0,0,1,37.352,18.1h.306a1.253,1.253,0,0,1,1.249,1.251V62.137a1.252,1.252,0,0,1-1.249,1.249" transform="translate(64.287 32.233)" fill="#606060"/>
          <path id="Trazado_882882" data-name="Trazado 882882" d="M43.313,38.309H27.827a2.77,2.77,0,0,1-2.761-2.761v-.709a2.768,2.768,0,0,1,2.761-2.759H43.313a2.765,2.765,0,0,1,2.759,2.759v.709a2.768,2.768,0,0,1-2.759,2.761" transform="translate(44.637 57.126)" fill="#606060"/>
          <path id="Trazado_882883" data-name="Trazado 882883" d="M5.625,25.695l7.439,43.575a2.372,2.372,0,0,0,.957,1.841L19.142,74.9a2.365,2.365,0,0,0,3.6-1l7.224-9.179c.167-.4-7.95-39.137-7.95-39.137-.12-.77-3.431-7.472-4.135-7.808l-5.264-2.5c-1.593-.762-8.887,3.921-6.988,10.42" transform="translate(9.458 27.056)" fill="#e3f4f5"/>
          <path id="Trazado_882884" data-name="Trazado 882884" d="M48.778,38.776c-.437-2.453-.74-5.028-1.16-7.483l-10.395-.147L13.807,33.262c-.512.017-4.677,6.543-4.677,6.543a1.837,1.837,0,0,0,.1,2.508l4.663,4.6a1.834,1.834,0,0,0,1.76.464l22.352-5.208Z" transform="translate(15.463 55.463)" fill="#e3f4f5"/>
          <path id="Trazado_882885" data-name="Trazado 882885" d="M25.746,41.983l-2.8.8c-.247-2.658-.5-5.317-.731-7.975l3.281.133a2.164,2.164,0,0,0,.651-.1l11.523-4.477c.6-.195,4.421-1.449,4.955-1.115L52,34.63c.737.464,1.6,3.74,1.44,4.6l-2.3.072-7.311-2.992L26.672,41.972a2.123,2.123,0,0,0-.926.011" transform="translate(39.563 51.976)" fill="#f3cfb8"/>
          <path id="Trazado_882886" data-name="Trazado 882886" d="M175.7,43.382l-.067,9.852-2.442,6.791-56.825-4.6-33.15,63.641-14.6-11.782,38-66.533L143.2,36.388Z" transform="translate(122.177 64.798)" fill="#386885"/>
          <path id="Trazado_882887" data-name="Trazado 882887" d="M102.429,105.28h0a2.4,2.4,0,0,0,2.4-2.394V48.48a2.4,2.4,0,0,0-4.791,0v54.406a2.4,2.4,0,0,0,2.394,2.394" transform="translate(178.139 82.068)" fill="#303030"/>
          <path id="Trazado_882888" data-name="Trazado 882888" d="M96.121,71.723h37.237a3,3,0,0,0,0-6H96.121a3,3,0,0,0,0,6" transform="translate(165.83 117.045)" fill="#303030"/>
          <path id="Trazado_882889" data-name="Trazado 882889" d="M92.3,55.317h52.829a4.472,4.472,0,0,0,4.458-4.46v-1.6a4.469,4.469,0,0,0-4.458-4.455H92.3a4.471,4.471,0,0,0-4.46,4.455v1.6a4.474,4.474,0,0,0,4.46,4.46" transform="translate(156.428 79.778)" fill="#303030"/>
          <path id="Trazado_882890" data-name="Trazado 882890" d="M76.055,35.622h57.212a1.016,1.016,0,0,0,0-2.033H76.055a1.016,1.016,0,1,0,0,2.033" transform="translate(133.623 59.813)" fill="#909090"/>
          <path id="Trazado_882891" data-name="Trazado 882891" d="M117.852,27.2l-14.994,6.685-7.536-19.7,13.667-5.617Z" transform="translate(169.746 15.249)" fill="#dead8e"/>
          <path id="Trazado_882892" data-name="Trazado 882892" d="M116.13,13.758l-.868,10.867a3.429,3.429,0,0,1-1.991,2.839l-9.938,4.519a4.6,4.6,0,0,1-2.558.37l-1.26-.175-1.418-.2a6.132,6.132,0,0,1-5.247-5.511L90.933,5.532l-.011-.2,22.519,4.814a3.413,3.413,0,0,1,2.689,3.612" transform="translate(161.911 9.494)" fill="#eab99a"/>
          <path id="Trazado_882893" data-name="Trazado 882893" d="M113.809,13.875l-4.574,14.988-9.691,6.78-4.124-.584a2.708,2.708,0,0,1-2.319-2.4L90.907,11.828,98.9,3.386Z" transform="translate(161.884 6.029)" fill="#f5c4a5"/>
          <path id="Trazado_882894" data-name="Trazado 882894" d="M96.547,17.121l8.412,2.133,5.019-1.282,3.106,11.587,8.287.726,1.1-6.293,1.485.089-.776-4.168,1.732,2-.342-9.994L117.155,1.212,108.513.289,98.666,5.375,93.18,8.128l-3.2,8.534Z" transform="translate(160.237 0.513)" fill="#f7b23f"/>
          <path id="Trazado_882895" data-name="Trazado 882895" d="M90.577,16.2a1.225,1.225,0,0,0,1.051,1.535l3.484.375-2.483-9.56Z" transform="translate(161.222 15.227)" fill="#f5c4a5"/>
          <path id="Trazado_882896" data-name="Trazado 882896" d="M103.819,16.362,94.687,28.111l14.468-3.184L117.514,16Z" transform="translate(168.615 28.493)" fill="#dead8e"/>
          <path id="Trazado_882897" data-name="Trazado 882897" d="M127.471,19.667l-8.415-5.289c-9.154,5.809-13.982,8.306-16.44,7.469L96.229,31,93.821,49.132l8.011,31.7,27.435,5.072,2.7-5.52-.25-51.508Z" transform="translate(167.073 25.603)" fill="#505050"/>
          <path id="Trazado_882898" data-name="Trazado 882898" d="M172.162,40.171l1.274,3.659a15.514,15.514,0,0,1-1.118,12.678l-1.324,2.355-52.648-1.641L85.2,120.863l-14.6-11.785,38-66.53,36.584-4.357Z" transform="translate(125.712 68.008)" fill="#447ea1"/>
          <path id="Trazado_882899" data-name="Trazado 882899" d="M98.357,72.563l1.382,6.513-9.694-.064-7.166.064H62.566l-.612-3.023S81.711,74.473,84.681,62.5Z" transform="translate(110.326 111.295)" fill="#6d3c1f"/>
          <path id="Trazado_882900" data-name="Trazado 882900" d="M76.288,63.386h.3a1.254,1.254,0,0,0,1.251-1.249V19.352A1.255,1.255,0,0,0,76.591,18.1h-.3a1.253,1.253,0,0,0-1.251,1.251V62.137a1.253,1.253,0,0,0,1.251,1.249" transform="translate(133.623 32.233)" fill="silver"/>
          <path id="Trazado_882901" data-name="Trazado 882901" d="M82.291,38.309H97.772a2.771,2.771,0,0,0,2.764-2.761v-.709a2.768,2.768,0,0,0-2.764-2.759H82.291a2.768,2.768,0,0,0-2.764,2.759v.709a2.771,2.771,0,0,0,2.764,2.761" transform="translate(141.619 57.126)" fill="#e0e0e0"/>
          <path id="Trazado_882902" data-name="Trazado 882902" d="M122.311,25.695l-7.439,43.575a2.372,2.372,0,0,1-.957,1.841L108.8,74.9a2.367,2.367,0,0,1-3.6-1L97.974,64.72c-.164-.4,7.95-39.137,7.95-39.137.122-.77,3.431-7.472,4.138-7.808l5.261-2.5c1.6-.762,8.89,3.921,6.988,10.42" transform="translate(174.464 27.056)" fill="#606060"/>
          <path id="Trazado_882903" data-name="Trazado 882903" d="M89.047,38.776c.437-2.453.737-5.028,1.16-7.483l10.392-.147,23.417,2.116c.514.017,4.677,6.543,4.677,6.543a1.834,1.834,0,0,1-.1,2.508l-4.663,4.6a1.839,1.839,0,0,1-1.763.464L99.82,42.169Z" transform="translate(158.572 55.463)" fill="#606060"/>
          <path id="Trazado_882904" data-name="Trazado 882904" d="M106.41,41.983l2.8.8q.371-3.988.729-7.975l-3.281.133a2.147,2.147,0,0,1-.648-.1L94.486,30.359c-.6-.195-4.424-1.449-4.955-1.115L80.154,34.63c-.737.464-1.6,3.74-1.44,4.6l2.3.072,7.313-2.992,17.163,5.664a2.111,2.111,0,0,1,.923.011" transform="translate(140.136 51.976)" fill="#f3cfb8"/>
          <rect id="Rectángulo_405148" data-name="Rectángulo 405148" width="244.746" height="26.945" transform="translate(31.289 95.589)" fill="#d8dde0"/>
          <rect id="Rectángulo_405149" data-name="Rectángulo 405149" width="7.608" height="69.18" transform="translate(260.297 121.976)" fill="#859596"/>
        </g>
      </g>
      <path id="Unión_21" data-name="Unión 21" d="M67.287,85.455A45.5,45.5,0,1,1,83.826,70.034L107.5,107.5Z" transform="translate(647.842 13098.5)" fill="#fff"/>
      <path id="Unión_24" data-name="Unión 24" d="M67.287,22.046A45.5,45.5,0,1,0,83.826,37.467L107.5,0Z" transform="translate(655.074 13353)" fill="#fff"/>
      <path id="Unión_22" data-name="Unión 22" d="M67.287,22.046A45.5,45.5,0,1,0,83.826,37.467L107.5,0Z" transform="translate(961.456 13206.001) rotate(180)" fill="#fff"/>
      <path id="Unión_23" data-name="Unión 23" d="M67.287,85.455A45.5,45.5,0,1,1,83.826,70.034L107.5,107.5Z" transform="translate(968.688 13460.501) rotate(180)" fill="#fff"/>
      <text id="Comunicación" transform="translate(748 13302)" fill="#12263f" font-size="17" font-family="SegoeUI-Bold, Segoe UI" font-weight="700"><tspan x="0" y="0">Comunicación</tspan></text>
      <text id="Exponer" transform="translate(662 13150)" fill="#12263f" font-size="17" font-family="SegoeUI-Bold, Segoe UI" font-weight="700"><tspan x="0" y="0">Exponer</tspan></text>
      <text id="Convencer" transform="translate(659 13423)" fill="#12263f" font-size="17" font-family="SegoeUI-Bold, Segoe UI" font-weight="700"><tspan x="0" y="0">Convencer</tspan></text>
      <text id="Contestar" transform="translate(886 13423)" fill="#12263f" font-size="17" font-family="SegoeUI-Bold, Segoe UI" font-weight="700"><tspan x="0" y="0">Contestar</tspan></text>
      <text id="Escuchar" transform="translate(883 13150)" fill="#12263f" font-size="17" font-family="SegoeUI-Bold, Segoe UI" font-weight="700"><tspan x="0" y="0">Escuchar</tspan></text>
      <text id="_Ser_claros_Ser_completos_Exponer_de_manera_lógica_y_ordenada_" data-name="• Ser claros

• Ser completos

• Exponer de manera lógica
   y ordenada
" transform="translate(362 13104)" fill="#12263f" font-size="16" font-family="SegoeUI, Segoe UI"><tspan x="0" y="17">• Ser claros</tspan><tspan x="0" y="35"></tspan><tspan x="0" y="53">• Ser completos</tspan><tspan x="0" y="71"></tspan><tspan x="0" y="89">• Exponer de manera lógica</tspan><tspan x="0" y="107" xml:space="preserve">   y ordenada</tspan></text>
      <text id="_Dejar_hablar._Demostrar_atención_e_involucramiento._Verificar_la_comprensión._" data-name="• Dejar hablar.

• Demostrar atención e
   involucramiento.

• Verificar la comprensión.
" transform="translate(1049 13105)" fill="#12263f" font-size="16" font-family="SegoeUI, Segoe UI"><tspan x="0" y="17">• Dejar hablar.</tspan><tspan x="0" y="35"></tspan><tspan x="0" y="53">• Demostrar atención e</tspan><tspan x="0" y="71" xml:space="preserve">   involucramiento.</tspan><tspan x="0" y="89"></tspan><tspan x="0" y="107">• Verificar la comprensión.</tspan></text>
      <text id="_Mantenerse_en_el_tema._Adaptar_el_lenguaje_a_los_interlocutores._Resolver_dudas_e_incertidumbres." data-name="• Mantenerse en el tema.

• Adaptar el lenguaje a los
  interlocutores.

• Resolver dudas e 
   incertidumbres." transform="translate(1049 13358)" fill="#12263f" font-size="16" font-family="SegoeUI, Segoe UI"><tspan x="0" y="17">• Mantenerse en el tema.</tspan><tspan x="0" y="35"></tspan><tspan x="0" y="53">• Adaptar el lenguaje a los</tspan><tspan x="0" y="71" xml:space="preserve">  interlocutores.</tspan><tspan x="0" y="89"></tspan><tspan x="0" y="107">• Resolver dudas e </tspan><tspan x="0" y="125" xml:space="preserve">   incertidumbres.</tspan></text>
      <text id="_Suscitar_interés_y_atención_Ser_persuasivo_Obtener_consenso" data-name="• Suscitar interés y atención

• Ser persuasivo

• Obtener consenso" transform="translate(362 13364)" fill="#12263f" font-size="16" font-family="SegoeUI, Segoe UI"><tspan x="0" y="17">• Suscitar interés y atención</tspan><tspan x="0" y="35"></tspan><tspan x="0" y="53">• Ser persuasivo</tspan><tspan x="0" y="71"></tspan><tspan x="0" y="89">• Obtener consenso</tspan></text>
    </g>
  </g>
</svg>
