<svg xmlns="http://www.w3.org/2000/svg" width="44" height="44" viewBox="0 0 44 44">
  <g id="Grupo_1180119" data-name="Grupo 1180119" transform="translate(-285 -5560)">
    <circle id="Elipse_6022" data-name="Elipse 6022" cx="22" cy="22" r="22" transform="translate(285 5560)" fill="#3d5756"/>
    <path id="arrow-right-to-bracket-solid-full_1_" data-name="arrow-right-to-bracket-solid-full (1)" d="M83.518,99.549h3.549a1.772,1.772,0,0,1,1.774,1.774v14.195a1.772,1.772,0,0,1-1.774,1.774H83.518a1.774,1.774,0,0,0,0,3.549h3.549a5.324,5.324,0,0,0,5.323-5.323V101.323A5.324,5.324,0,0,0,87.066,96H83.518a1.774,1.774,0,0,0,0,3.549ZM83,109.673a1.777,1.777,0,0,0,0-2.512l-7.1-7.1a1.776,1.776,0,0,0-2.512,2.512l4.07,4.07H65.774a1.774,1.774,0,1,0,0,3.549H77.457l-4.07,4.07a1.776,1.776,0,0,0,2.512,2.512l7.1-7.1Z" transform="translate(228 5474)" fill="#fff"/>
  </g>
</svg>
